<svg width="18" height="25" viewBox="0 0 18 25" fill="none" xmlns="http://www.w3.org/2000/svg">
<path d="M9.58748 7.95584C8.44403 7.16933 7.32384 6.39883 6.18165 5.66714C4.06816 4.30999 4.28841 4.60665 2.15154 3.27412C1.81641 3.06759 1.48238 2.84251 1.19104 2.57538C0.722226 2.15601 0.523123 1.62659 0.778858 1.0096C1.00793 0.472845 1.66807 0.189428 2.36448 0.406877C2.98914 0.601335 3.60126 0.884337 4.17884 1.195C8.27251 3.38017 9.83987 4.20119 13.5013 7.08188C14.399 7.79168 15.3068 8.51697 16.0876 9.34986C17.776 11.1574 17.7495 12.0776 15.9983 13.7531C12.5222 17.0908 9.01477 20.4006 5.50033 23.7062C4.90656 24.2663 3.21251 24.9104 2.62259 24.1582C2.25818 23.7043 2.33699 23.1036 2.62259 22.6C2.8663 22.187 3.16764 21.7886 3.51625 21.4564C4.2211 20.7868 4.9373 20.1263 5.65349 19.4658C6.36969 18.8053 7.08589 18.1449 7.79074 17.4753C9.12578 16.2113 10.4427 14.9366 11.7597 13.662C12.089 13.3433 12.4183 13.0246 12.7478 12.7061C14.9458 10.5817 11.0611 8.96941 9.58748 7.95584Z" fill="black"/>
</svg>
