<svg width="73" height="53" viewBox="0 0 73 53" fill="none" xmlns="http://www.w3.org/2000/svg">
<g clip-path="url(#clip0_331_7750)">
<path d="M65.9402 4.38221C63.2702 5.17221 60.6002 5.95221 57.9302 6.77221C55.6702 7.46221 53.4202 8.22221 51.1602 8.91221C50.6002 9.08221 50.0002 9.16221 49.4202 9.17221C48.7202 9.17221 48.1802 8.79221 47.9302 8.13221C47.6402 7.39221 47.8602 6.71221 48.4702 6.25221C48.9302 5.90221 49.4802 5.62221 50.0302 5.45221C55.6302 3.71221 61.2302 1.98221 66.8402 0.302209C69.6602 -0.54779 70.9202 0.142209 71.7702 3.02221C72.1602 4.35221 72.3602 5.75221 72.5502 7.13221C73.3102 12.7522 73.4002 18.3922 73.1702 24.0522C73.1402 24.8522 73.0602 25.6722 72.8802 26.4522C72.6802 27.3222 71.9802 27.8522 71.2802 27.7722C70.4802 27.6722 70.0502 27.1422 69.9002 26.3922C69.8002 25.9222 69.7702 25.4322 69.7602 24.9522C69.6802 21.8822 69.6602 18.8122 69.5402 15.7522C69.4502 13.3922 69.2502 11.0322 69.0902 8.57221C68.3202 8.78221 68.3002 9.40221 68.1102 9.83221C61.3002 24.7922 50.7802 36.4322 36.6602 44.7922C29.7502 48.8922 22.3102 51.6522 14.2802 52.6422C10.5902 53.0922 6.88022 53.2022 3.19022 52.4722C2.41022 52.3122 1.63022 52.0522 0.890219 51.7422C0.330219 51.5122 -0.0997812 51.0622 0.0202187 50.3622C0.150219 49.6522 0.740219 49.4322 1.34022 49.3722C2.09022 49.3022 2.85022 49.2922 3.60022 49.3722C12.7502 50.2422 21.4102 48.3522 29.5902 44.3822C46.1902 36.3222 58.1202 23.7422 65.4202 6.78221C65.7102 6.10221 65.9602 5.39221 66.2202 4.70221C66.1302 4.60221 66.0302 4.50221 65.9402 4.39221L65.9402 4.38221Z" fill="#1D010D"/>
</g>
<defs>
<clipPath id="clip0_331_7750">
<rect width="53" height="73" fill="white" transform="translate(0 53) rotate(-90)"/>
</clipPath>
</defs>
</svg>
