<svg width="192" height="48" viewBox="0 0 192 48" fill="none" xmlns="http://www.w3.org/2000/svg">
<path fill-rule="evenodd" clip-rule="evenodd" d="M185.452 28.2816C126.112 23.1302 37.7352 33.9812 1.86478 39.869C0.774792 40.0479 -0.253849 39.3093 -0.432757 38.2193C-0.611666 37.1293 0.126907 36.1007 1.21689 35.9218C37.1395 30.0255 125.931 19.0995 185.798 24.2966C186.899 24.3921 187.713 25.3617 187.618 26.4621C187.522 27.5625 186.553 28.3771 185.452 28.2816Z" fill="#E7433F"/>
<path fill-rule="evenodd" clip-rule="evenodd" d="M169.934 0.52605C170.942 0.0742351 172.126 0.525061 172.577 1.533C173.906 4.49694 176.959 8.45061 180.663 12.7217C182.813 15.2013 185.051 17.6455 187.204 19.9951C188.773 21.709 190.297 23.3726 191.707 24.963L191.952 27.2722C191.252 28.5138 190.037 29.8641 188.63 31.2378C187.191 32.6432 185.409 34.2062 183.45 35.8743C182.343 36.8166 181.178 37.794 179.975 38.803C176.882 41.3984 173.539 44.2029 170.297 47.1571C169.481 47.9012 168.216 47.8426 167.472 47.0262C166.728 46.2099 166.787 44.9449 167.603 44.2008C170.909 41.1872 174.354 38.2977 177.467 35.6858C178.654 34.6902 179.792 33.735 180.857 32.8286C182.803 31.1714 184.499 29.6812 185.835 28.3758C186.598 27.6312 187.203 26.9856 187.659 26.4363C186.628 25.2916 185.508 24.0675 184.349 22.801C182.136 20.3838 179.782 17.8119 177.641 15.3421C173.967 11.1047 170.529 6.74222 168.927 3.16917C168.476 2.16123 168.926 0.977866 169.934 0.52605Z" fill="#E7433F"/>
</svg>
