<svg width="12" height="11" viewBox="0 0 12 11" fill="none" xmlns="http://www.w3.org/2000/svg">
<path d="M3.94532 7.13066C5.25909 5.12455 6.83967 3.2569 8.60261 1.62567C9.10583 1.1596 9.68673 0.6395 10.2372 0.240979C11.1457 -0.417593 12.0677 0.382826 11.551 1.32847C8.95723 4.07083 6.59988 7.02597 4.49582 10.1635C3.96896 10.6802 3.17868 10.5687 2.81731 9.92369C2.18238 8.78554 1.82776 7.69467 0.963171 6.65446C0.510614 6.10734 -0.337088 5.6075 0.142488 4.79357C0.622064 3.97965 1.61499 4.41532 2.20602 4.86112C2.84432 5.33732 3.35767 6.0837 3.74269 6.77605C3.76295 6.8132 3.9183 7.1543 3.94195 7.13742L3.94532 7.13066Z" fill="#C22D29"/>
</svg>
