<svg width="18" height="19" viewBox="0 0 18 19" fill="none" xmlns="http://www.w3.org/2000/svg">
<path d="M15.877 8.60643C15.7904 7.52046 15.4215 6.47597 14.8069 5.57647C13.6179 3.85086 11.4831 2.78774 9.40692 2.69774C8.15216 2.65915 6.90915 2.94959 5.8014 3.54019C4.69365 4.13078 3.75974 5.00098 3.09246 6.0643C2.3924 7.19674 2.05011 8.51397 2.11028 9.84396C2.119 10.0611 2.13818 10.2771 2.16783 10.4912C2.54102 13.1859 4.58818 15.5922 7.28469 16.1615C8.6415 16.4377 10.0487 16.3254 11.3445 15.8375C12.7678 15.2847 13.9589 14.2612 14.7195 12.9373C15.552 11.6516 15.9571 10.1359 15.877 8.60643ZM14.1895 9.16213C14.1383 10.5827 13.6062 11.9438 12.6802 13.0224C11.6249 14.2071 9.95246 14.7002 8.39282 14.6274C7.47011 14.5978 6.5724 14.3203 5.7939 13.8241C5.15658 13.4083 4.65493 12.8151 4.35086 12.1175C4.0434 11.3886 3.73585 10.6543 3.71844 9.8443C3.68566 8.45649 4.18862 7.10938 5.1229 6.08263C6.05717 5.05589 7.35099 4.4284 8.73572 4.33045C10.8334 4.1986 13.4337 5.46315 14.056 7.60617C14.1702 8.11646 14.2151 8.63982 14.1895 9.16213ZM11.1797 9.33383C10.6063 9.26739 10.0298 9.23125 9.45265 9.22555C9.24948 9.22577 9.24554 8.94815 9.2234 8.55443C9.20265 8.18574 9.16268 7.73748 9.13444 7.3693C9.08309 6.69947 9.05974 6.30977 8.97399 5.75641C8.93026 5.47395 8.62336 5.29798 8.21799 5.31994C7.5008 5.35892 7.4074 5.60052 7.39182 6.45785C7.37967 7.12607 7.48744 8.56379 7.46494 9.23078C7.45966 9.56412 7.48382 9.90356 7.50097 10.2379C7.50297 10.3658 7.54353 10.4902 7.61734 10.5947C7.69116 10.6992 7.79479 10.779 7.91469 10.8236C8.46889 10.9512 9.03683 11.0091 9.60537 10.996C10.0174 11.0069 10.4298 10.9954 10.8406 10.9616C11.1553 10.9316 11.485 10.943 11.7124 10.6834C11.9178 10.4488 12.0264 9.87335 11.7945 9.62304C11.6283 9.45976 11.4114 9.35778 11.1797 9.33383Z" fill="#7D7D7D"/>
</svg>
