<svg xmlns="http://www.w3.org/2000/svg" width="24" height="26" fill="none"><g clip-path="url(#a)"><path fill="#fff" d="M8.61 12.194c.018-.307.04-.52.045-.734.12-3.323.551-6.615 1.187-9.876.058-.289.125-.587.254-.85.325-.685 1.081-.787 1.575-.213.191.222.32.498.458.76 1.299 2.479 2.59 4.961 3.888 7.443.09.174.196.338.343.592.244-.156.462-.29.68-.432 1.495-.97 2.99-1.944 4.489-2.905.467-.302.974-.587 1.508-.186.57.427.387 1.01.214 1.566-.574 1.82-1.18 3.625-1.722 5.454-.351 1.183-.632 2.393-.925 3.594-.152.623-.125 1.183.378 1.708.382.4.663.93.903 1.437.52 1.09.24 1.878-.885 2.345-1.393.578-2.799 1.152-4.24 1.592-2.082.636-4.195 1.161-6.304 1.713-.329.085-.69.102-1.032.098-.667-.013-1.099-.343-1.192-.997-.098-.68-.151-1.383-.107-2.068.027-.423-.018-.747-.262-1.099-2.26-3.225-4.507-6.46-6.758-9.694-.111-.164-.231-.32-.338-.489C.55 10.62.487 10.255.683 9.9c.213-.383.587-.53 1.01-.494.293.027.596.084.867.191q1.83.726 3.639 1.5c.787.338 1.561.716 2.407 1.103zm-5.24-.587c-.036.04-.067.08-.103.12 2.029 2.883 4.057 5.766 6.144 8.724 2.193-.694 4.36-1.375 6.526-2.064.472-.152.925-.37 1.41-.463a3 3 0 0 0 1.477-.756c.125-.636.2-1.201.352-1.748.6-2.145 1.228-4.28 1.846-6.42.071-.24.133-.48.2-.72q-.073-.042-.147-.085-1.467 1.002-2.94 1.997c-.37.25-.73.516-1.13.712-.823.4-1.486.218-1.998-.534-.222-.324-.405-.68-.587-1.032-.908-1.73-1.806-3.47-2.714-5.2-.106-.21-.244-.4-.44-.72-.058.262-.089.373-.107.484-.44 2.714-.77 5.44-.845 8.194-.013.423 0 .846-.053 1.26-.103.751-.69 1.111-1.406.876-.258-.085-.49-.236-.734-.352-1.584-.756-3.168-1.517-4.751-2.273M9.69 21.946c-.053.631-.053 1.156.151 1.757 3.626-.84 7.136-1.918 10.624-3.39-.316-.525-.596-.996-.908-1.521-3.283 1.263-6.486 2.509-9.867 3.154"/></g><defs><clipPath id="a"><path fill="#fff" d="M.571.143h22.857V25.29H.571z"/></clipPath></defs></svg>