<svg xmlns="http://www.w3.org/2000/svg" width="89" height="89" fill="none"><g clip-path="url(#a)"><path fill="#E32824" d="M24.678 14.401c1.353.614 3.491 1.994 4.569 3.023.396.377.544.627.55 1.176-.212.39-.335.48-.712.674-1.278-.369-2.58-1.374-3.612-2.194-.632-.498-1.282-1.056-1.375-1.894.105-.42.258-.524.58-.785M47.818 8.67c.157.138.385.325.482.517.161.323.11.665-.003.994-.451 1.315-2.58 4.813-3.75 5.383-.187-.194-.47-.407-.535-.671-.264-1.06.748-2.668 1.244-3.56.647-1.167 1.196-2.27 2.563-2.658zM29.9 6.562c.27.156.546.313.745.558.76.944 3.818 6.836 3.748 7.77-.211.392-.417.555-.782.8-.273-.102-.521-.205-.73-.42-.866-.898-3.789-6.396-3.68-7.563.052-.553.305-.807.697-1.148zM39.633 4.55c.273.167.598.351.787.615.843 1.182-.075 6.672-.55 8.195-.131.415-.37.553-.73.754a4.6 4.6 0 0 1-.64-.335c-.43-.636-.373-1.614-.34-2.36.08-1.886.028-5.555 1.473-6.87M61.403 23.133c3.09 1.232 5.959 4.02 7.408 6.986 1.942 3.974 1.666 8.474.25 12.558 2.015 2.54 4.781 9.609 4.644 12.886l-.013.254c-.055 1.344-1.068 2.957-1.697 4.138-3.472 6.536-7.582 12.735-11.339 19.107-1.005 1.704-3.942 7.549-5.043 8.655q-.102.026-.204.046c-.089.014-.179.03-.27.031-.943.01-4.65-3.236-5.767-3.94-5.22-3.294-10.637-6.235-16.031-9.232a524 524 0 0 0-15.86-8.328c-1.54-.778-6.108-2.718-7.2-3.596-.024-1.018 2.078-4.353 2.641-5.473 3.008-5.979 5.964-11.964 9.124-17.868 1.928-3.602 3.876-7.208 6.119-10.625 4.222-1.16 9.338-1.72 13.726-1.677 2.268-2.063 3.95-4.195 6.947-5.293 4.206-1.54 8.626-.429 12.566 1.375z"/><path fill="#fff" d="m36.278 35.604.08.158c-.49 1.326-1.304 2.651-1.963 3.905-.504-.85-.918-1.777-1.362-2.66L31.819 34.2c1.567.18 3.032.762 4.459 1.405M64.411 50.737c1.175 1.112 1.878 2.653 2.555 4.094a76 76 0 0 0-2.466.27l-3.233.399a238 238 0 0 0 3.144-4.763M67.96 44.943c.496.89 3.155 8.13 3.408 9.246-.228.266-.377.207-.708.243l-1.701.062c-.98-1.815-1.893-3.843-3.548-5.14l2.547-4.412zM45.464 52.973c1.779 1.083 2.496 2.337 3.207 4.242-1.083.1-2.153.313-3.223.504-.499-.588-1-1.082-1.599-1.567-.87-.273-1.703-.33-2.605-.355-.333-.92-.739-1.824-1.11-2.73 1.892-.6 3.416-.78 5.33-.094M40.514 28.967c-.35 1.131-2.186 3.614-2.907 4.797-2.135-1.056-3.824-1.773-6.262-1.401-.056-.35-.166-.691-.26-1.034-.166-.39-.306-.794-.458-1.192 3.184-.809 6.622-.845 9.885-1.172zM70.992 56.335c-.508 1.359-1.497 2.716-2.242 3.975a280 280 0 0 1-4.975 8.236c-3.012 4.855-5.85 9.733-8.663 14.703-.96-4.48-2.336-8.752-3.995-13.021-1.468-3.66-2.935-7.498-4.784-10.977 4.334-.4 8.645-1.085 12.963-1.63 3.886-.491 7.804-.843 11.698-1.289zM28.314 32.374c.694 1.073 1.203 2.337 1.74 3.494a245 245 0 0 1 3.465 7.84c1.759 4.085 3.674 8.04 5.567 12.062-3.91.118-7.954.716-11.805 1.378a92 92 0 0 0-6.891 1.463 90 90 0 0 0-6.754 1.994c4.814-9.436 9.325-19.083 14.678-28.231M42.834 57.739c2.33 1.8 7.187 15.099 8.218 18.32.787 2.457 1.401 4.948 2.002 7.458-1.72-1.036-3.377-2.182-5.088-3.232-4.63-2.84-9.434-5.639-14.262-8.132-6.203-3.466-12.617-6.708-19.01-9.813 6.508-2.613 16.504-3.929 23.497-4.44 1.514-.11 3.136-.359 4.645-.16z"/><path fill="#E32824" stroke="#fff" d="m37.744 75.564-.009-.005-22.434-11.965-1.39-1.39c2.11-.745 5.906-2.018 8.71-2.719C26.573 58.497 35.531 57.5 41 57.5c1.327 0 2.205.212 2.818.542.602.324.992.786 1.301 1.377.28.535.483 1.149.717 1.858l.103.31c.276.826.6 1.74 1.126 2.66.378.661.898 1.902 1.5 3.515a159 159 0 0 1 1.935 5.57 390 390 0 0 1 3.248 10.39l-3.545-1.181z"/><path fill="#fff" d="M60.587 24.984c.56.214 1.138.557 1.647.88 2.634 1.662 4.554 4.817 5.226 7.812 1.921 8.58-4.685 15.558-8.944 22.226-2.667.31-5.316.756-7.984 1.058-.17-.771-.358-1.553-.681-2.273-.801-1.786-2.066-2.888-3.863-3.584-2.457-.628-4.334-.33-6.662.534-1.035-3.162-2.608-6.295-3.957-9.337 3.324-6.02 7.06-15.75 13.783-18.493 3.929-1.604 7.718-.396 11.437 1.178z"/><path fill="#E32824" d="M51.127 42.04c-1.455-1.416-3.435-2.828-4.455-4.58-.684-1.176-.743-2.435-.35-3.718a5 5 0 0 1 .175-.503 5 5 0 0 1 .108-.245 4 4 0 0 1 .252-.468q.067-.115.142-.225a5 5 0 0 1 .318-.427q.086-.103.174-.2.09-.098.185-.191.095-.095.195-.182a6.74 6.74 0 0 1 .415-.331q.11-.076.22-.151a5 5 0 0 1 .462-.267c1.748-.907 4.305-.866 6.157-.218.621.215 1.195.528 1.82.74.479-.3.668-1.208 1.041-1.677.325-.132.419-.199.765-.033.194.093.55.374.623.583.24.697-.459 1.778-.76 2.401.879.851 2.59 2.159 2.803 3.44.05.302.022.618-.193.85-.406.442-.94.478-1.51.518-.599-1.108-1.21-1.945-2.125-2.811-.656 1.205-1.345 2.447-2.125 3.578q.675.724 1.327 1.467c1.022 1.179 1.842 2.716 1.69 4.318-.268 2.849-3.411 4.516-6.032 4.633-.717.032-2.054-.33-2.664-.087-.355.142-.577.801-.968 1.016-.26.142-.648.131-.905-.008-.286-.156-.48-.327-.547-.657-.081-.419.126-.804.306-1.165-.522.076-.845.06-1.344-.12l-.194-.12c-1.556-.99-3.347-2.89-3.709-4.77-.152-.796.04-1.834.523-2.492.204-.28.323-.372.656-.437.989.605.81 2.48 1.345 3.437.36.641 1.172 1.278 1.699 1.796-.184-.516-.477-1.224-.425-1.777.044-.458.35-.886.679-1.186.95-.071 1.32 1.68 2.089 2.17.28.177.525.192.825.07.612-.247 1.027-1.4 1.296-1.97z"/><path fill="#E32824" d="M46.34 47.32c.093-.533.145-1.365.545-1.757.269-.26.426-.269.772-.298.27.178.422.41.5.726.13.524-.228 1.003-.474 1.446-.523.077-.846.06-1.345-.119z"/><path fill="#fff" d="m55.61 33.007.292.23c.003.852-1.223 2.34-1.735 2.952-.349-.062-.575-.385-.832-.63-.197-.368-.323-.564-.245-.99.1-.556.442-.964.887-1.283.582-.417.956-.387 1.632-.282zM54.518 40.062c.46.628.93 1.315 1.226 2.04.278.685.39 1.482.065 2.168-.463.98-1.45 1.302-2.408 1.605-.684.12-1.372.128-2.065.156 1.51-1.792 2.302-3.826 3.184-5.968zM52.419 31.664c-.096.236-.035.153-.219.342-.745.77-1.49 1.554-1.455 2.713.044 1.414 1.504 2.533 2.442 3.453l-1.01 1.844-.9-.963c-1.192-1.098-2.568-2.28-2.723-4.009-.07-.793.149-1.607.684-2.206.776-.87 2.068-1.128 3.178-1.17z"/></g><defs><clipPath id="a"><path fill="#fff" d="m32.8 0 55.425 32-32.8 56.811L0 56.811z"/></clipPath></defs></svg>