<svg xmlns="http://www.w3.org/2000/svg" width="392" height="324" fill="none"><g clip-path="url(#a)"><path fill="#fff" d="M19.84 164.135c2.887.962 5.211 3.607 6.013 4.81 0 1.403-.12 4.569-.601 6.012-.602 1.804-8.417 14.43-10.822 13.828-2.405-.601-5.411-5.411-6.013-7.816-.6-2.405-1.202-7.214-1.202-9.018s-.601-6.012 0-7.816 3.607-3.006 4.81-3.006 4.208 1.804 7.816 3.006"/><path fill="#000" d="M11.046 216.342c.188 2.075.283 3.881.525 5.667 1.079 7.997 2.326 15.964 4.122 23.836 1.153 5.054 2.385 10.087 4.073 14.976 2.083 6.037 4.464 11.973 8.205 17.216 2.766 3.877 6.018 7.329 10.66 8.746 5.027 1.531 8.902 1.122 13.287-3.498 3.79-3.996 6.349-8.765 8.323-13.888 2.296-5.957 3.657-12.143 4.508-18.459.777-5.757 1.07-11.538.639-17.335-.193-2.629-1.158-5.064-2.465-7.344-.697-1.217-1.262-2.524-2.202-3.597-.183-.204-.44-.489-.123-.743.306-.249.49.095.717.259 1.955 1.417 3.029 3.428 3.756 5.668.04.124.109.244.208.459.237-1.427-.47-3.792-1.796-6.486-1.005-2.045-2.306-3.896-3.647-5.752 1.242.559 2.385 1.222 3.295 2.225 2.47 2.729 3.742 6.047 4.424 9.589 1.238 6.42 1.163 12.915.659 19.386-.466 5.916-1.574 11.743-3.158 17.475-1.657 6.007-3.88 11.744-7.492 16.837-2.44 3.443-5.3 6.476-9.244 8.242a14.4 14.4 0 0 1-3.46 1.072c-.667.115-.885.449-.91 1.098-.237 7.508-1.37 14.911-2.662 22.29-.416 2.369-1.02 4.709-1.653 7.034-.158.578-.723 1.062-1.153 1.541-.213.235-.594.389-.851.07-.376-.469-1.193-.634-.995-1.517.277-1.272.455-2.564.762-3.826 1.613-6.665 2.41-13.455 3.217-20.244.232-1.976.45-3.956.693-5.932.05-.424 0-.673-.5-.753-1.168-.185-2.39-.25-3.47-.684-1.43-.578-3.008-.828-4.24-1.915-.629-.554-1.495-.823-2.143-1.357-4.642-3.822-7.79-8.77-10.323-14.153-3.296-6.994-5.493-14.383-7.334-21.866-2.643-10.761-4.246-21.711-5.3-32.741-.287-2.993-.703-5.972-.821-8.98-.025-.683.079-1.112.85-1.292 1.183-.269 2.317-.753 3.5-.993 1.637-.329 2.459-1.456 2.875-2.893.47-1.641.554-3.338.415-5.059-.222-2.674-1.86-4.165-4.053-5.243-2.46-1.207-4.162-3.033-4.74-5.792-.124-.583-.357-1.122-.743-1.546-2.172-2.36-3.187-5.268-3.939-8.302-.718-2.878-1.475-5.752-1.331-8.77.089-1.895.896-3.312 2.672-4.091.718-.319 1.48-.229 2.227-.244.624-.015.96-.19 1.094-.883.311-1.616 1.405-2.539 2.92-2.998.92-.28 1.84-.569 2.78-.749.634-.119.585-.349.322-.783-2.138-3.562-3.726-7.378-5.057-11.309-1.4-4.146-2.574-8.351-2.91-12.746-.124-1.592-.06-3.173.46-4.72.866-2.579 3.058-3.337 5.265-1.781 2.04 1.437 3.267 3.512 4.286 5.717 2.153 4.65 3.489 9.584 4.825 14.513 1.059 3.901 1.98 7.842 2.994 11.753.346 1.347.876 2.644 1.331 3.961.094.279.213.564.609.434.366-.125.356-.369.257-.693-1.41-4.51-1.96-9.19-2.697-13.834-.767-4.824-.925-9.658-.406-14.507.218-2.016.6-4.001 1.713-5.762 1.771-2.814 4.36-2.959 6.378-.32 1.505 1.966 1.886 4.326 2.257 6.685.92 5.862.56 11.789.91 17.68.218 3.687.273 7.384.753 11.055.114.883.613 1.258 1.286 1.672 2.505 1.536 4.766 3.337 5.954 6.166 2.712 6.455 1.222 13.205-4.034 17.615-.301.254-.613.504-.905.768-1.524 1.397-1.841 3.622-.812 5.453.357.629.634.783 1.139.1 1.548-2.086 3.038-4.226 4.805-6.131 2.533-2.734 5.572-4.72 8.907-6.381 4.162-2.07 8.572-3.218 13.055-4.151 4.964-1.032 10.016-1.441 15.059-1.856 2.657-.219 5.22-.853 7.784-1.531.643-.17.54-.773.584-1.257.366-3.941.198-7.892.282-11.843.03-1.487 0-2.974.015-4.455.005-.694-.302-1.048-.995-1.163-3.167-.529-4.736-3.891-4.157-6.924.258-1.352 1.51-1.951 2.717-2.385.708-.254 1.465-.329 2.291-.304-.51-1.537-1-3.033-1.499-4.525-1.52-4.55-2.336-9.259-3.108-13.983-.044-.27.07-.659-.287-.744-.346-.084-.43.32-.613.524-.475.539-.926 1.108-1.41 1.636-.179.195-.372.509-.709.32-.247-.145-.222-.444-.197-.694.311-3.168.559-6.345 1.291-9.458.312-1.332.554-2.684.846-4.091-.539.02-.707.459-.984.743-1.465 1.492-2.92 2.988-4.385 4.48-.312.319-.688.649-1.128.339-.456-.314-.094-.733.054-1.067 2.796-6.466 6.186-12.502 12.03-16.728 2.193-1.586 4.618-2.793 7.097-3.826 1.291-.539 2.01-1.576 2.885-2.514.425-.454.886-1.347 1.4-1.088.703.354.233 1.277.035 1.871-.267.803-.762 1.527-1.272 2.494 1.93-.364 3.687-.653 5.424-1.032 2.341-.509 4.642-1.193 6.903-1.996 1.668-.594 3.202-1.457 4.553-2.624.376-.324.782-.579 1.267-.314.525.29.366.773.292 1.252-.371 2.514-1.217 4.849-2.667 6.929-.505.724-.451 1.203.173 1.746.327.28.599.624.881.953.356.409.544.903.262 1.397-.411.728-.163 1.292.292 1.856 2.212 2.739 3.029 6.106 4.107 9.344 1.168 3.512 2.183 7.084 3.291 10.616.396 1.262.861 2.544 1.109 3.796.94 4.824 2.341 9.554 3.033 14.428.451 3.188.807 6.385 1.173 9.583.55 4.794-2.187 8.641-5.998 10.591-2.499 1.277-5.126 2.2-7.893 2.634-.792.125-1.103.359-1.088 1.213.049 2.599.019 5.203.019 8.066.515-.479.728-.828.807-1.287.089-.538.322-1.027.599-1.496.381-.654.821-.913 1.692-.953 6.062-.275 12.144-.22 18.177-1.053.999-.14 1.757-.778 2.712-1.057 4.137-1.213 8.294-2.345 12.436-3.542 4.468-1.293 8.912-2.679 13.356-4.051 4.305-1.327 8.645-2.574 12.891-4.071 4.82-1.701 9.73-3.118 14.495-4.974 1.782-.693 3.672-1.107 5.379-1.97 3.143-1.592 6.201-3.333 9.091-5.383 5.612-3.986 10.071-9.14 14.594-14.238 6.943-7.828 13.777-15.745 20.408-23.841 2.623-3.203 5.127-6.501 7.685-9.753.357-.454.738-.873 1.223-1.208.841-.583 1.598-.329 1.618.704.035 2.19 1 4.22.975 6.405 0 .19 0 .419.213.424.267.005.415-.239.579-.434 1.682-2.06 3.182-4.235 4.211-6.71.277-.663.52-1.346.876-1.96 1.014-1.726 1.039-3.407.386-5.338-2.227-6.6-4.261-13.265-6.419-19.885-1.855-5.687-3.815-11.335-5.671-17.022-1.747-5.348-3.395-10.726-5.132-16.074-1.355-4.18-2.419-8.42-2.845-12.81-.139-1.442.005-2.864.445-4.181.431-1.292 1.668-1.886 2.95-2.205 2.984-.748 5.988-.305 8.997-.175 3.335.145 6.062 1.432 8.392 3.812.926.942 2.015 1.766 3.143 2.454 2.128 1.292 3.301 3.168 3.984 5.523 1.925 6.605 3.963 13.175 5.908 19.775.649 2.19 1.287 4.375 2.074 6.69.712-1.028.628-2.135 1.044-3.068.594-1.327 1.435-2.37 2.935-2.574 1.415-.195 2.37.648 3.142 1.71.401.55.722 1.143.945 1.812.723 2.195 1.104 4.475 1.663 6.71.772 3.108 1.668 6.17 3.504 8.86.702 1.032 1.603 1.84 2.617 2.549.332.23.644.21 1.01.194 1.866-.065 3.736-.154 5.602-.12 2.989.06 4.266 1.168 5.008 4.061.391 1.522.762 3.069 1.351 4.515.633 1.567 1.851 2.73 3.152 3.792 1.772 1.447 3.41 3.033 4.172 5.278.812 2.38.623 4.694-.841 6.794-.376.539-.297.804.015 1.372 1.44 2.654 1.915 5.518 1.261 8.486-.979 4.465-3.968 7.458-7.517 9.933-2.622 1.826-5.369 3.477-8.071 5.183-.683.434-1.247.664-.47 1.671 1.039 1.352.426 3.697-.965 4.675-2.039 1.432-4.454 1.915-6.745 2.669-2.94.968-5.909 1.866-8.918 2.594-1.781.429-3.681.828-5.394-.424-1.138-.828-1.747-2.021-2.093-3.308-.282-1.047-.51-.698-1.039-.199-2.969 2.798-4.993 6.336-7.408 9.568-7.324 9.803-15.505 18.823-24.437 27.159-8.002 7.468-16.43 14.387-25.52 20.464-2.732 1.826-5.503 3.602-8.354 5.228-3.493 1.995-7.066 3.846-10.644 5.687-2.257 1.162-4.612 2.11-6.854 3.293a95 95 0 0 1-6.508 3.088c-1.42.613-2.924 1.172-4.355 1.776-2.222.933-4.483 1.756-6.685 2.724-2.801 1.232-5.691 2.225-8.552 3.312-3.285 1.247-6.67 2.18-10.031 3.198-.514.155-.608.479-.648.968-1.217 14.856-1.479 29.738-1.128 44.639.173 7.289.623 14.552 1.381 21.791.717 6.869 1.732 13.699 3.444 20.404 1.019 3.996 2.444 7.857 4.008 11.663.203.494.396 1.003.495 1.522.297 1.487-.881 2.664-2.296 2.215-.416-.135-.772-.708-1.005-1.157a57.3 57.3 0 0 1-4.374-11.095c-2.004-7.179-3.029-14.518-3.741-21.906-1.183-12.242-1.426-24.515-1.183-36.807.153-7.608.589-15.201 1.192-22.788.322-4.081.911-8.127 1.475-12.183.564-4.046 1-8.112 1.48-12.172.054-.454 0-1.178.406-1.213.648-.055.752.719.836 1.213.208 1.217.114 2.459-.01 3.686-.262 2.594-.53 5.188-.871 7.773-.099.758.05.683.698.603 1.895-.234 2.677-1.242 2.949-3.128.248-1.716.98-3.352 1.94-4.839.208-.324.401-.843.836-.678.381.144.154.643.085.973a284 284 0 0 1-1.114 4.854c-.104.424-.218.838-.035 1.372 2.232-.859 4.479-1.657 6.676-2.57 6.043-2.504 12.085-5.008 18.083-7.607 6.037-2.62 11.877-5.653 17.607-8.89 5.152-2.914 10.259-5.897 15.079-9.344a250.4 250.4 0 0 0 28.93-24.151c5.75-5.587 11.06-11.574 16.375-17.57.787-.888 1.321-1.976 2.252-2.744.267-.224.163-.429-.179-.524-4.542-1.227-7.111-4.799-9.63-8.366-3.578-5.068-5.666-10.746-6.448-16.917-.054-.444.025-1.097-.43-1.247-.52-.17-.708.504-1.01.828-4.028 4.295-7.413 9.13-11.278 13.565-5.359 6.156-10.991 12.042-16.776 17.794-3.078 3.064-6.349 5.877-9.902 8.352-.555.389-.782.818-.777 1.521.025 2.789-.015 5.578-.04 8.371 0 .245.079.514-.287.853-2.024-2.853-1.291-6.101-1.47-9.184-1.979.494-2.489 1.123-2.469 3.073.02 1.926.351 3.821.554 5.727.074.684.129 1.372.154 2.056.01.219.153.558-.198.638-.238.055-.371-.184-.475-.379-.54-1.018-1.124-2.001-1.376-3.163-.371-1.706-.445-3.447-.762-5.153-.06-.32.084-.838-.455-.823-.51.015-.421.503-.441.843a412 412 0 0 0-.267 4.993c-.02.395-.045.774-.292 1.213-.594-.719-.594-1.527-.658-2.28-.074-.823-.045-1.666.015-2.495.089-1.317.108-1.337-1.153-.878-4.538 1.657-9.047 3.408-13.614 4.974-5.474 1.881-10.957 3.747-16.499 5.433-5.167 1.571-10.318 3.198-15.529 4.61-2.524.683-5.082 1.232-7.611 1.89-2.385.624-4.756 1.307-7.136 1.971-2.554.708-2.489.703-2.227 3.377.742 7.563 1.677 15.101 2.628 22.639.777 6.176 1.915 12.302 2.42 18.518.029.379.183.784-.104 1.158-.51-.13-.471-.604-.574-.943-1.386-4.55-2.024-9.254-2.806-13.934-1.153-6.924-2.331-13.848-2.935-20.853-.242-2.813-.356-5.637-.52-8.456-.044-.753-.074-1.521.639-2.145a20.2 20.2 0 0 0-6.315.369c-.569.125-.415.694-.435 1.098-.064 1.207.302 2.36.539 3.522 1.416 6.785 3.276 13.465 4.954 20.184 2.014 8.057 3.914 16.139 5.478 24.311 1.767 9.224 2.781 18.528 3.682 27.862.529 5.472.915 10.96 1.539 16.423 1.148 10.022 2.459 20.02 3.627 30.037.465 3.991.698 8.012 1.411 11.968.396 2.21.5 4.515 1.588 6.565.069.135.04.484 0 .499-1.009.244-1.44 1.731-2.756 1.312-.238-.075-.579-.035-.668-.279-.411-1.108-1.336-.868-2.153-.868-16.929 0-33.864.005-50.793 0-4.746 0-9.492-.125-14.233-.01-1.177.03-2.35.523-3.607.389-.723-.075-.876-.26-.629-.918 1.252-3.313 1.975-6.78 2.876-10.192a786 786 0 0 0 4.151-16.478 232 232 0 0 0 3.182-15.705c.822-4.884 1.47-9.797 2.054-14.716.594-4.994 1.094-10.003 1.44-15.021.347-4.984.866-9.963.841-14.967-.034-8.296.164-16.597-.475-24.884-.603-7.832-2.227-15.46-4.458-22.973-.495-1.671-1.074-3.312-1.604-4.973-.114-.36-.312-.539-.707-.499-1.139.124-2.282.249-3.425.339-.594.05-.633.359-.455.808 1.405 3.542 2.81 7.089 3.959 10.726.693 2.2 1.336 4.42 1.954 6.65 2.623 9.508 3.717 19.236 4.118 29.064.05 1.227 0 2.465-.064 3.692-.02.354.069.978-.372 1.003-.504.03-.41-.594-.445-.948-.223-2.051-.4-4.111-.604-6.161-.895-9.125-2.202-18.179-4.775-26.994a117 117 0 0 0-6.28-16.638c-.183-.394-.292-.743-.916-.638-6.685 1.122-13.292 2.499-19.34 5.792-3.973 2.165-7.066 5.238-9.54 9.044-1.579 2.43-1.495 4.784-.53 7.344 1.599 4.255 2.544 8.71 3.83 13.06 1.787 6.046 3.628 12.078 5.39 18.134 1.49 5.119 3.404 10.132 3.978 15.49.233 2.175.352 4.325-.554 6.401-.376.858-.99 1.491-1.732 2.025-.292.21-.618.23-.896 0-.306-.254-.138-.554.075-.748 2.266-2.145 1.944-4.734 1.39-7.438-.772-3.762-1.92-7.404-3.053-11.06-1.816-5.857-3.618-11.719-5.453-17.571-1.386-4.425-2.806-8.84-4.222-13.255-.173-.534-.46-.339-.693-.05-2.875 3.602-6.72 5.752-11 7.029-4.217 1.263-8.557 1.831-12.961.898-.703-.149-1.38-.329-2.227-.957zm68.733-99.87c.935-.324 1.494-1.247 2.523-1.746-.297 4.36-.584 8.526-2.083 12.507.46-.759.772-1.547 1.089-2.335.089-.22.128-.559.45-.509.223.035.277.309.312.529.099.608.168 1.217.287 1.821 1.133 5.597 2.42 11.155 4.276 16.562.579 1.692 1.059 3.413 1.598 5.169 1.133-1.013 1.688-2.24 1.742-3.667.08-2.23-.48-4.38-.807-6.555-.712-4.764-1.37-9.544-.89-14.358.356-3.612 1.776-5.383 4.998-6.231 2.499-.658 5.082-.843 7.566-1.576 2.811-.828 5.493-1.916 7.854-3.677 1.064-.798 2.014-1.751 2.509-3.058.213-.564.158-1.192-.198-1.532-.386-.369-.693.305-1.059.469-.193.085-.342.26-.52.385-2.049 1.396-4.028 2.928-6.29 3.956-2.459 1.117-5.121 1.242-7.774 1.312-.203.005-.465.084-.574-.155-.134-.284.119-.469.282-.649.203-.219.48-.294.767-.359 1.47-.339 2.92-.773 4.399-1.027 3.044-.519 5.667-1.941 8.141-3.702.525-.374.98-.843 1.46-1.277.272-.245.589-.544.322-.918-.198-.284-.565-.23-.886-.1-.396.16-.822.26-1.213.429-3.38 1.497-6.943 2.275-10.58 2.749-.495.065-1.415.554-1.51-.035-.118-.753.896-.763 1.48-.898 3.351-.773 6.716-1.522 9.942-2.744 2.682-1.017 4.286-3.063 5.33-5.966-.604.369-.955.613-1.331.798-3.86 1.906-7.958 3.068-12.154 3.861-2.638.499-5.132 1.237-7.304 2.919-.995.768-2.128 1.342-3.326 1.766-.233.079-.52.269-.683.005-.168-.27.129-.439.322-.594 1.455-1.172 2.92-2.345 4.37-3.527.301-.245.747-.394.786-.993-.796.12-1.375.564-2.014.838-3.756 1.632-7.037 3.906-9.486 7.259-.698.953-1.44 1.886-1.782 3.053l-2.865 4.106c1.034-.619 1.554-1.701 2.543-2.315zm-.708 64.315c-.193.943.183 1.671.42 2.399 1.075 3.248 1.95 6.556 2.683 9.893 1.757 8.012 2.662 16.129 2.825 24.335.238 12.322.055 24.63-.994 36.917-.742 8.69-1.688 17.356-2.96 25.981-1.177 8.007-2.83 15.914-4.686 23.787-.505 2.135-.515 2.15 1.707 2.439a216 216 0 0 0 14.366 1.382c8.809.554 17.588.469 26.357-.699 6.112-.813 12.174-1.88 18.241-2.918.648-.11.589-.464.559-.923-.524-8.137-1.672-16.203-2.796-24.265-.975-7.034-1.747-14.083-2.088-21.177-.401-8.327-1.178-16.618-2.672-24.819-2.005-10.986-4.593-21.846-7.424-32.647-1.237-4.719-2.588-9.418-2.993-14.322-.025-.27.044-.639-.372-.848-.039.264-.074.464-.108.668-.575 3.567-1.267 7.109-2.316 10.571-.164.534-.208 1.272-.97 1.227-.733-.039-1.104-.668-1.287-1.307-.193-.693-.248-1.421-.386-2.13-.193-.988-.416-1.97-1.01-3.003-.42 1.497-.757 2.789-1.143 4.066-.455 1.496-.861 3.028-1.484 4.455-.273.628-.505 1.162-.357 1.826.792 3.447 1.505 6.919 2.4 10.341 1.599 6.087 2.792 12.258 3.662 18.479.911 6.525 1.485 13.1 1.436 19.7-.04 5.917.4 11.888-1.351 17.675-.852 2.819-2.039 5.503-3.469 8.067-.634 1.137-2.198 1.083-2.91-.04-.931-1.472-1.584-3.098-2.128-4.729-2.603-7.862-4.276-15.929-4.622-24.226-.639-15.07.138-30.136.43-45.202.015-.679-.138-1.078-.628-1.462-1.821-1.417-3.509-2.993-5.167-4.595-.425-.409-.52-.224-.781.12-.654.863-1.366 1.686-2.237 2.335-1.718 1.282-2.484 1.217-4.004-.32-.406-.409-.846-.803-1.168-1.277-3.192-4.639-6.364-9.289-9.54-13.938-.372-.539-.436-1.267-1.04-1.806zm30.494-11.469c2.019.109 5.122-.449 8.126-1.502 3.671-1.292 6.517-4.051 6.408-8.715-.074-3.018-.45-5.997-.985-8.95-1.643-9.149-3.795-18.169-6.888-26.949-1.02-2.894-1.935-5.822-2.93-8.721-.277-.803-.524-1.855-1.212-2.17-.5-.229-.946.888-1.485 1.342-3.128 2.644-6.829 4.021-10.714 4.999-2.36.594-4.785.858-7.101 1.706-1.604.589-2.207 1.651-2.376 3.223-.272 2.614-.024 5.213.159 7.807.272 3.941.94 7.828 1.504 11.734.391 2.714-.44 4.994-2.628 6.7-.356.279-.633.464-.123.878.445.364.312.838.054 1.262-.302.494-.727.534-1.207.294-.515-.254-1.01-.549-1.525-.788-1.291-.604-2.375-.389-3.231.549-.722.798-.515 1.746-.228 2.524.362.988.861 2.03 2.014 2.405.411.134.505-.165.446-.499-.07-.389-.104-.754.396-.828.46-.07.846.049 1.014.563.104.31.253.599.376.898 2.099 5.034 5.721 8.521 10.71 10.556 3.28 1.337 6.754 1.567 11.426 1.672zm173.926-79.82c2.697-.17 5.389-.05 8.081.08.896.044 1.797.094 2.663.369 1.024.324 1.588 1.227 1.529 2.344-.06 1.108-.881 1.173-1.683 1.278-6.027.778-11.956 2.03-17.617 4.295-1.673.668-3.424 1.367-4.518 2.998-.178.27-.426.469-.228.863.649 1.272 1.46 2.265 3.014 2.455 5.216.628 10.407.139 15.583-.399 1.817-.19 3.603-.654 5.394-1.013.678-.135 1.188.159 1.366.728.198.634-.485.699-.876.853-.831.33-1.672.654-2.533.868-4.207 1.053-8.433 2.036-12.521 3.532-2.929 1.073-5.814 2.23-8.199 4.336-.515.454-1.46.888-1.193 1.631.297.828 1.282.384 1.94.344 5.062-.334 10.026-1.382 15.009-2.285 2.222-.404 4.419-.953 6.641-1.382 1.069-.204 1.495.355 1.124 1.372-.292.793-.718 1.497-1.341 2.071-1.96 1.811-3.945 3.591-5.87 5.437-.687.664-1.489 1.387-1.791 2.24-1.019 2.909-.114 5.473 1.697 7.838.396.518.678.244.985.119.436-.169.248-.504.114-.813a50 50 0 0 1-.817-1.99c-.306-.784-.202-1.422.48-2.031 1.376-1.222 2.881-2.27 4.36-3.352 2.638-1.926 5.464-3.592 7.75-6.007 2.781-2.938 3.395-6.315 2.276-10.112-.252-.858-.702-1.586-1.504-2.04-1.613-.918-1.648-1.193-.292-2.554.153-.155.317-.295.475-.444 2.039-1.971 2.232-4.65.525-6.93-.926-1.237-2.118-2.155-3.361-3.023-1.128-.788-1.91-1.781-2.321-3.143-.519-1.736-.88-3.497-1.182-5.273-.223-1.287-.842-2.21-2.054-2.694-.688-.274-1.415-.234-2.128-.184-4.874.344-9.749.678-14.618 1.062-2.47.195-4.934.479-7.3 1.292-1.153.394-1.554 1.043-1.341 2.22.54 3.003 1.91 4.61 5.018 4.939 3.083.324 6.176.115 9.259.11zm8.616 2.37c0-.105-.01-.21-.015-.315h-2.281c-4.489-.025-8.982.31-13.471-.05-3.479-.28-6.695-1.202-8.635-4.47-1.658-2.803-1.302-5.502 2.029-6.91 1.672-.703 3.439-.992 5.24-1.042.772-.025.876-.324.54-.933-.698-1.257-1.257-2.579-1.762-3.926-2.247-5.996-4.256-12.082-6.196-18.189-2.142-6.74-4.186-13.514-6.304-20.264-.381-1.212-.985-2.34-1.95-3.203-1.94-1.736-4.063-3.223-6.255-4.604-1.193-.749-1.47-.599-2.395.509-.906 1.087-1.025 2.36-.911 3.681.332 3.911 1.346 7.688 2.252 11.484.5 2.105.96 4.226 1.786 6.231.376.918 1.559 1.477 2.415 1.148.842-.32 1.089-1.123 1.079-1.951a10 10 0 0 0-.247-1.936c-.955-4.305-1.911-8.615-3.267-12.816-.163-.503.01-1.496-.658-1.352-.678.145-.282 1.083-.163 1.612.643 2.893 1.371 5.767 2.054 8.65.331 1.407.697 2.814.678 4.276-.005.389-.094.733-.475.898-.446.194-.624-.175-.861-.444-.372-.43-.52-.938-.644-1.472-.673-2.963-1.336-5.927-2.044-8.88-.371-1.552-.777-3.093-.781-4.7 0-1.566.767-2.115 2.291-1.71 1.747.463 2.449 1.845 2.944 3.387.995 3.088 1.732 6.246 2.341 9.428.386 2.02.802 4.046.668 6.132-.124 1.965-1.203 2.848-3.088 2.494-.668-.125-1.346-.16-1.994-.424-.292-.12-.743-.17-.505.414.896 2.175 1.336 4.485 2.019 6.725 1.757 5.782 3.543 11.559 5.275 17.346 1.391 4.65 2.722 9.324 4.088 13.983 1.386 4.734 2.766 9.474 4.167 14.203.732 2.474 1.514 4.934 2.326 7.573 3.102-3.821 7.457-5.034 11.654-6.55-.51 0-1.01.05-1.505.095-2.553.224-5.092.229-7.611-.375-1.252-.299-2.271-.957-2.924-2.055-1.52-2.549-1.633-3.482.945-5.513.312-.244.643-.459.975-.673 3.756-2.375 8.041-3.253 12.248-4.325 2.266-.579 4.567-1.013 6.913-1.198zM24.23 186.722c-.342-2.255-.238-4.45.227-6.625.426-1.995 1.07-3.791 3.544-3.896.069 0 .138-.04.202-.065.218-.08.565-.01.535-.384-.025-.309-.322-.389-.554-.439-2.717-.569-5.483-.643-8.24-.808-.48-.03-.648.165-.406.663.792 1.597 1.247 3.303 1.609 5.039.87 4.221-2.222 7.977-6.409 7.378-2.875-.414-5.414-1.945-6.666-4.764-.89-2.01-1.267-4.195.802-5.916.262-.22.109-.464-.07-.654-2.286-2.405-3.097-5.398-3.335-8.606-.044-.613-.287-.728-.821-.633-1.223.214-2.193 1.232-2.183 2.584.02 4.126 1.054 8.022 3.207 11.524 1.143 1.861 2.761 3.422 3.474 5.557.747 2.23 2.133 3.832 4.206 4.969 3.618 1.986 4.756 5.318 4.519 9.254-.09 1.477-.238 2.949-.698 4.381-.356 1.107-.119 1.307 1.059 1.077 1.757-.339 3.484-.773 5.166-1.392 3.059-1.127 6.048-2.359 8.502-4.624.356-.33.48-.524.248-1.063-1.035-2.385-1.505-4.889-1.322-7.513.045-.604.248-1.013.757-1.322 1.302-.783 2.44-1.771 3.534-2.819 3.202-3.063 4.414-7.912 2.95-11.938-1.911-5.248-6.612-8.361-12.17-8.076-2.622.134-4.597 1.391-6.146 3.462-.376.504-.277.788.297.923.381.089.777.139 1.168.169 1.97.16 3.944.285 5.914.469 1.598.15 3.132.509 4.181 1.911.906 1.212.648 2.375-.712 2.988-.52.235-1.084.389-1.638.514-1.41.324-2.282.903-2.559 2.609-.341 2.095-.331 4.435-2.167 6.056zm87.289 87.658c.396-.908.639-1.512.916-2.091 1.831-3.836 3.034-7.872 3.231-12.122.184-4.011.273-8.027.159-12.048-.154-5.323-.51-10.621-1.168-15.899a122 122 0 0 0-1.688-10.008 491 491 0 0 0-1.895-8.55c-.737-3.223-1.509-6.436-2.261-9.659-.164-.703-.104-1.566-.505-2.07-.366-.469-1.208.045-1.836-.035-.069-.01-.149.005-.213-.015-.896-.284-1.128.155-1.143.973-.035 2.28-.149 4.56-.158 6.835-.04 9.817-.109 19.63-.06 29.448.05 9.573.807 19.062 3.855 28.226a67 67 0 0 0 2.776 7.015zM88.335 162.802c-.43 4.939.044 9.768-.48 14.558-.154 1.411.346 2.259 1.341 3.127 5.176 4.535 10.595 8.731 16.4 12.417.391.25.594.175.797-.114 1.054-1.517 1.89-3.208 2.123-5.004.663-5.079-.015-10.197.193-15.295.029-.759-.347-.774-.926-.799-1.974-.089-3.939-.085-5.904-.529-5.433-1.232-9.937-3.916-13.54-8.361zM241.279 25.378c-1.782-.08-2.742.788-2.831 2.469-.094 1.816.01 3.617.342 5.403 1.009 5.437 2.514 10.76 4.122 16.033 3.058 10.013 6.314 19.96 9.526 29.923a3718 3718 0 0 0 8.19 25.019c1.089 3.287 2.069 6.61 3.063 9.927 1.619 5.393 3.494 10.701 4.999 16.129.47 1.696.93 3.417 2.043 4.864.396.514.857.823 1.455.998.208.059.342.049.441-.135.089-.16-.005-.275-.119-.369-.549-.474-.722-1.173-.876-1.806-.861-3.537-1.727-7.069-2.766-10.556-2.583-8.681-5.157-17.361-7.784-26.032-2.628-8.68-5.31-17.346-7.983-26.011-2.751-8.93-5.488-17.865-8.299-26.775-1.163-3.691-2.35-7.368-3.31-11.12-.673-2.629-1.257-5.278-.218-7.966zm36.353 109.288c-1.791-1.517-2.375-3.562-2.989-5.563-1.524-4.963-2.925-9.962-4.479-14.921-2.167-6.934-4.369-13.864-6.334-20.863-2.529-9.02-5.246-17.98-8.096-26.894-2.158-6.745-3.781-13.64-5.869-20.4-1.123-3.65-1.93-7.407-2.796-11.134-.767-3.302-1.252-6.595 1.514-9.344.297-.294.119-.474-.292-.519-.93-.1-1.856-.05-2.786-.02-1.757.06-1.994.33-2.123 2.086-.242 3.297.386 6.49 1.267 9.613 1.554 5.523 3.251 11.005 4.914 16.493 1.876 6.176 3.801 12.342 5.666 18.518 2.158 7.149 4.271 14.308 6.414 21.462.737 2.454 1.534 4.893 2.256 7.353 1.267 4.325 2.445 8.68 3.761 12.991 1.109 3.626 2.301 7.218 3.232 10.905.757 3.003 1.311 6.076 2.444 8.98.57 1.461 1.436 1.92 2.94 1.541.406-.105.817-.174 1.356-.289zm-19.993-33.006c-.178.374-.262.524-.331.684-1.653 3.846-3.39 7.643-6.671 10.431-.257.22-.515.514-.381.838.257.619.218 1.277.356 1.911.891 4.066 2.247 7.962 4.281 11.594 1.509 2.704 3.068 5.388 5.394 7.513.529.484.886.653 1.534.165 1.386-1.048 2.553-2.33 3.835-3.488.698-.628.921-1.067.515-2.18-2.029-5.602-3.642-11.344-5.305-17.071-.99-3.412-1.886-6.855-3.227-10.397m36.101 12.068c-.752-.06-1.326.294-1.945.374-6.191.808-12.248 2.51-18.518 2.754-.406.015-.797.025-.43.574.395.583.514 1.267.712 1.915 1.114 3.717 2.207 7.444 3.296 11.165.46 1.572 2.009 3.178 3.222 3.103 2.34-.144 4.582-.678 6.75-1.541.455-.18.722-.424.292-.963-.426-.529-.733-1.153-1.099-1.731-1.49-2.345-1.564-4.784-.297-7.199 1.49-2.844 3.885-4.889 6.315-6.889.569-.469 1.261-.804 1.707-1.567zM12.56 162.229c-.524.124-1.152.244-1.766.434-1.633.499-3.177 1.806-3.177 4.085 0 2.38.544 4.57 1.697 6.616.758 1.346 1.574 2.659 2.346 3.996.114.199.312.473.104.698-.242.264-.445-.045-.648-.15-1.272-.658-1.623-.444-1.628 1.043 0 .429.04.868.118 1.292.406 2.15 1.96 3.377 3.638 4.475 2.014 1.322 3.414 1.152 5.003-.649.836-.942 1.02-2.105.93-3.347-.163-2.315-1.336-4.241-2.316-6.231-.614-1.252-.846-2.444-.094-3.682 1.024-1.681 2.301-3.138 3.924-4.265.188-.13.54-.09.49-.464-.034-.259-.262-.329-.46-.404-1.35-.509-2.529-1.342-3.8-2.011-1.337-.703-2.717-1.312-4.365-1.446zm10.522-18.055c.123 5.812 1.301 13.006 2.84 20.16.104.489.366.638.817.673.965.07 1.935.125 2.89.285.628.104.791.04.742-.674a381 381 0 0 1-.525-9.214c-.287-6.181-.069-12.387-.87-18.543-.208-1.611-.367-3.243-1.248-4.66-.425-.683-.98-1.366-1.86-1.282-.886.09-1.262.848-1.505 1.647-1.004 3.287-1.281 6.665-1.281 11.608m-2.579 18.853c-.084-.379-.099-.554-.158-.714-1.801-4.619-2.707-9.513-4.211-14.222-1.233-3.847-2.158-7.798-3.742-11.529-.866-2.036-1.806-4.031-3.647-5.403-.935-.699-1.474-.554-1.865.549-.312.878-.57 1.781-.565 2.743 0 2.27.51 4.46 1.149 6.605 1.548 5.179 3.508 10.187 5.621 15.166 1.48 3.482 4.172 5.203 7.418 6.805m225.636-56.054c-.283.345-.466.479-.535.659-.549 1.457-1.559 2.594-2.578 3.697-.777.843-1.094 1.511-.752 2.808 1.118 4.236 2.004 8.521 3.894 12.517 2.45 5.163 5.721 9.663 10.289 13.12 1.682 1.272 2.088 1.138 3.434-.518.371-.454.401-.759-.015-1.193-1.094-1.142-2.247-2.245-3.212-3.497-5.329-6.909-8.556-14.737-9.882-23.367-.208-1.332-.406-2.669-.643-4.226M17.316 214.97c.718-.05 1.436-.09 2.148-.145 5.31-.414 10.12-2.165 14.351-5.448 2.801-2.17 3.118-3.168 2.168-6.54-.04-.14-.094-.274-.119-.414-.139-.813-.4-1.003-1.094-.369-4.087 3.711-9.016 5.712-14.262 7.089-2.915.763-5.879.903-8.853.998-.292.01-.594-.055-.772.244-.678 1.152.064 3.372 1.272 3.956 1.658.803 3.4.748 5.161.639zm80.65-23.891c-.06-.33-.253-.499-.441-.664q-.655-.562-1.317-1.117c-3.627-3.039-7.368-5.942-10.808-9.205-.222-.214-.405-.314-.747-.244-1.079.224-2.064.833-3.202.823-.43 0-.306.279-.193.519.337.688.852 1.247 1.307 1.856 2.029 2.719 3.84 5.592 5.74 8.406 1.05 1.556 2.123 3.103 3.514 4.38 1.168 1.072 1.257 1.052 2.355-.005 1.381-1.327 2.351-3.003 3.623-4.415.089-.1.129-.25.168-.329zm185.357-112.96c-.144-.205-.208-.33-.297-.425-1.371-1.441-2.267-3.197-2.935-5.023-.9-2.465-1.464-5.039-2.004-7.613-.455-2.155-1.089-4.26-2.083-6.236-.104-.21-.129-.529-.465-.504-.213.015-.253.235-.337.384-1.054 1.936-1.712 3.961-1.42 6.211.618 4.725 2.558 8.975 4.632 13.18.158.325.386.375.698.35 1.351-.11 2.702-.205 4.211-.32zM112.004 188.928c0-.399.035-.798-.014-1.187-.03-.244.104-.658-.337-.673-.381-.015-.425.349-.47.618-.302 1.706-1.123 3.268-1.311 5.009-.04.364-.188.978-.659.818-1.618-.559-2.063.748-2.711 1.661-.693.978-.777 1.028-1.638.14-1.045-1.078-2.029-2.205-3.336-2.993-.925-.559-1.638-.384-2.588.673-.673.749-.144 1.193.302 1.726 1.074 1.272 2.509 2.121 3.711 3.253 1.163 1.098 2.48 1.866 4.182 1.946 1.168.054 1.678-.469 2.039-1.437.604-1.621 1.192-3.248 1.885-4.829.663-1.512 1.049-3.058.945-4.715zm3.395 4.166c.05-.205.119-.409.154-.619.396-2.684.791-5.362 1.182-8.046.208-1.432.416-2.864.569-4.301.03-.289.208-.898-.341-.848-1.079.095-2.326-.08-3.078.948-1.133 1.552-1.851 3.323-2.301 5.193-.045.175-.168.569.099.524 1.277-.229 1.296.928 1.668 1.562.999 1.706 1.647 3.567 2.048 5.587M347.957 130.282c3.696 0 9.655.399 15.623.349.727-.005 1.108-.26 1.469-.823 2.866-4.42 5.756-8.82 8.621-13.241 3.009-4.629 5.998-9.269 8.997-13.903a6.3 6.3 0 0 1 1.623-1.721c.425-.305.901-.474 1.39-.085.446.354.723.753.634 1.387-1.049 7.478-2.074 14.961-3.118 22.439a153 153 0 0 1-.94 6.002c-.158.863.04 1.217.945 1.372 2.682.473 5.35 1.002 7.963 1.805.623.195.856.439.841 1.118-.129 7.533.143 15.076-.203 22.604-.262 5.747-.579 11.504-1.94 17.126-.45 1.866-1.207 3.592-2.524 5.049-1.662 1.841-3.899 2.32-6.146 2.404-6.572.245-13.149.125-19.72-.299-11.363-.738-22.71-1.731-34.087-2.29-2.247-.109-4.474-.394-6.621-1.257-3.291-1.322-4.202-3.517-3.964-6.949.183-2.639.658-5.243 1.024-7.857.589-4.186 1.252-8.367 1.826-12.557.559-4.051 1.025-8.112 1.574-12.168.302-2.21.594-4.43 1.638-6.465.327-.639.792-1.008 1.445-1.167a22 22 0 0 1 4.78-.654c5.533-.14 11.066-.279 18.87-.229zm35.274-24.361c-.06-.034-.124-.069-.183-.104-.708 1.187-1.391 2.394-2.133 3.562-4.597 7.169-9.318 14.258-13.757 21.521-1.317 2.155-2.727 2.824-5.137 2.739-9.695-.359-19.399-.459-29.103-.499-2.01-.01-4.019-.085-6.008.349-.812.175-1.41.599-1.707 1.337-.411 1.033-.787 2.091-.931 3.213-.965 7.423-1.954 14.847-3.147 22.235a740 740 0 0 0-1.663 10.915c-.267 1.856.569 3.183 2.098 4.156 1.802 1.147 3.86 1.377 5.874 1.571 6.543.624 13.095 1.153 19.647 1.657 5.265.404 10.535.713 15.801 1.082 5.988.419 11.986.579 17.983.404 1.846-.055 3.578-.733 4.766-2.354 1.277-1.742 1.742-3.777 2.004-5.852 1.391-10.941 1.821-21.941 1.806-32.961 0-1.955-.88-3.018-2.786-3.477-2.637-.634-5.334-.713-8.026-.813-1.094-.04-1.267-.195-.758-1.207 1.431-2.864 1.921-5.982 2.44-9.075 1.029-6.121 1.95-12.262 2.92-18.399"/><path fill="#000" d="M195.508 64.39c3.236 0 6.468-.02 9.704.004 2.95.025 4.964 1.776 5.652 4.71 1.925 8.181 2.286 16.463 1.667 24.814-.153 2.045-.593 4.076-1.42 5.911-.742 1.647-2.326 2.689-4.083 3.153-5.379 1.422-10.847 2.42-16.286 3.572-9.615 2.036-19.319 3.542-28.999 5.204-.955.164-1.905.349-2.855.518-2.049.374-3.643 1.517-4.924 3.093-2.485 3.048-4.345 6.516-6.439 9.828-1.593 2.52-2.984 5.313-5.913 6.685-1.094.509-2.098-.065-3.128-.214-.282-.04-.193-.584-.163-.893.237-2.704.524-5.403.737-8.107.169-2.165.347-4.335.307-6.51-.005-.365-.01-.679-.331-.968-3.435-3.093-5.073-7.074-5.667-11.594-.46-3.487-.752-6.984-.965-10.491-.252-4.156-.519-8.312-.742-12.472-.144-2.72.015-5.433.208-8.142.059-.863.49-1.147 1.247-1.342 3.123-.813 6.334-1.047 9.511-1.487 4.261-.583 8.527-1.142 12.788-1.716 5.869-.788 11.753-1.411 17.647-1.985 6.898-.669 13.797-1.327 20.73-1.557.574-.02 1.148 0 1.727 0v-.015zm-53.941 63.955c.525.03.614-.334.802-.574 2.39-3.048 4.221-6.46 6.275-9.733 1.173-1.87 2.459-3.656 3.929-5.293 1.693-1.885 4.009-2.529 6.374-2.983 5.246-1.013 10.546-1.686 15.786-2.739 5.36-1.077 10.744-2.04 16.103-3.143 4.627-.953 9.225-2.02 13.837-3.048 2.385-.534 3.865-1.98 4.454-4.405.435-1.77.579-3.572.673-5.373.366-6.85.445-13.684-1.153-20.419-.48-2.02-1.767-3.756-4.504-3.756-6.329 0-12.653.22-18.963.648-8.601.584-17.202 1.222-25.763 2.28-7.69.953-15.385 1.896-22.972 3.522-1.271.275-2.068 1.113-2.177 2.43a22 22 0 0 0-.064 2.28c.183 6.919.539 13.828 1.197 20.718.302 3.163.698 6.321 2.069 9.244.985 2.095 2.642 3.687 4.033 5.478.416.538.633 1.082.653 1.776.074 2.25-.124 4.489-.237 6.729-.109 2.116-.233 4.226-.352 6.351zM77.709 25.368c.144-4.68.292-9.194.975-13.684.41-2.694 2.598-3.886 4.573-4.305 2.028-.43 4.082-.345 6.116-.205 7.062.484 14.129.913 21.156 1.8 4.092.52 8.19.979 12.277 1.537 1.599.22 3.182.58 4.746.978 1.831.47 2.484 1.457 2.346 3.572-.352 5.488-.743 10.975-1.435 16.438-.54 4.235-.881 8.496-1.396 12.736-.292 2.42-.534 4.874-1.702 7.09-.837 1.58-1.737 1.84-3.073.773-1.302-1.038-2.623-2.096-3.732-3.323-1.425-1.571-2.989-3.018-4.325-4.66-1.247-1.536-2.781-2.184-4.716-2.414-7.136-.843-14.312-1.217-21.462-1.906-2.504-.24-4.944-.758-7.359-1.461-1.465-.43-2.029-1.412-2.286-2.734-.673-3.432-.58-6.92-.703-10.232M90.744 9.554c-1.94-.055-3.87-.27-5.815-.005-1.94.264-3.142 1.302-3.637 3.143-.614 2.294-.663 4.644-.723 6.989-.118 4.814-.336 9.628.362 14.432.163 1.138.752 1.647 1.702 1.946 2.296.723 4.681 1.067 7.047 1.247 6.948.524 13.891 1.127 20.854 1.372 1.459.05 2.702.424 3.84 1.412 2.949 2.554 5.522 5.487 8.343 8.171.173.165.253.48.564.41.337-.075.238-.41.287-.634.753-3.507 1.168-7.07 1.554-10.626a723 723 0 0 0 1.871-19.895c.232-2.939.049-3.233-2.821-3.812-3.553-.713-7.141-1.182-10.719-1.71-7.537-1.118-15.088-2.076-22.704-2.44zM220.543 30.597c.129 3.148.252 6.295.391 9.443.045 1.033-.213 1.462-1.41 1.761-2.653.654-5.271.145-7.894.22-.88.025-1.257.14-1.276 1.152-.04 2.066-.579 3.996-2.034 5.573-.916.987-1.51 1.157-2.638.439-1.925-1.223-3.751-2.605-5.711-3.772-2.113-1.262-4.137-2.56-6.898-2.4-6.097.36-12.213.37-18.32.5-2.895.06-3.331.164-4.533-3.238-1.222-3.467-1.505-7.14-1.881-10.771-.272-2.594-.455-5.193-.623-7.797-.114-1.776.03-3.542.356-5.293.109-.58.52-.814.881-1.123 1.772-1.492 3.979-1.656 6.087-1.636 2.395.025 4.795.13 7.19.15 6.547.064 13.085.374 19.587 1.057 4.766.504 9.581.883 14.168 2.49 1.129.394 2.178.902 3.153 1.586.915.643 1.301 1.412 1.222 2.644-.193 2.998-.05 6.011.178 9.015zm-6.943 8.845c1.113 0 2.227-.035 3.34.01.857.035 1.109-.225 1.109-1.158-.01-4.859-.599-9.688-.634-14.537-.014-1.92-.856-2.933-2.424-3.612-.49-.214-.98-.439-1.495-.569-6.181-1.536-12.48-2.32-18.815-2.818-4.869-.38-9.754-.589-14.633-.853-2.588-.14-5.176-.22-7.685.628-.5.17-1.069.25-1.277.858-.287.853-.584 1.692-.648 2.61-.278 4.08.391 8.086.945 12.097.317 2.31.698 4.615 1.445 6.84.302.908.742 1.516 1.875 1.531 4.632.065 9.264.01 13.896-.04 2.554-.025 5.078-.528 7.636-.439 1.049.035 2.054.14 2.905.918 1.95 1.781 4.172 3.183 6.409 4.56 1.113.688 1.568.444 1.761-.878.169-1.177.307-2.36.505-3.537.144-.878.505-1.462 1.584-1.507 1.4-.06 2.801-.06 4.196-.104zM48.121 74.756c.406-4.285.822-8.57 1.208-12.86.217-2.416.38-4.835.559-7.254.114-1.502 1.34-2.834 2.81-3.139 2.04-.423 4.014.14 5.974.47 4.063.683 8.1 1.521 12.129 2.4 5.874 1.276 11.748 2.568 17.583 4.01 2.34.579 4.696 1.247 6.863 2.4a7 7 0 0 1 1.633 1.227c.708.698 1.114 1.397.728 2.5-.277.792-.183 1.715-.243 2.578-.301 4.48-.46 8.97-1.059 13.42-.188 1.412-.296 2.889-1.702 3.787-.485.309-.97.478-1.514.419-3.47-.39-6.968-.075-10.437-.355-6.3-.508-12.6-1.037-18.894-1.626-3.924-.37-7.839-.863-11.704-1.696-1.999-.434-3.642-2.135-3.85-4.32-.06-.644-.01-1.302-.01-1.956h-.069zm6.577-20.414c-1.811-.065-2.182.165-2.435 1.666a74 74 0 0 0-.757 5.703c-.381 4.215-.92 8.426-.757 12.676.089 2.245.836 3.327 2.816 3.97.88.285 1.781.525 2.687.704 5.953 1.178 12.045.794 18.043 1.592 3.513.469 7.061.808 10.595 1.172 2.32.24 4.647.43 6.977.43.896 0 1.515-.47 1.584-1.418.371-5.343.708-10.69 1.099-16.029.054-.718-.243-1.067-.787-1.366-1.455-.799-3.009-1.352-4.588-1.816-4.681-1.377-9.506-2.12-14.247-3.248-3.835-.913-7.685-1.736-11.545-2.544-2.98-.624-5.978-1.168-8.69-1.482zM344.522 203.256c3.301.03 6.152.983 7.938 4.041.262.449.366.384.767.08 2.633-1.961 5.508-3.358 8.863-3.388 1.653-.015 3.167.514 4.523 1.477 2.623 1.866 3.098 4.45 1.435 7.633-1.222 2.339-2.999 4.21-4.938 5.941-3.885 3.472-8.225 6.276-12.694 8.905-1.103.649-2.331 1.083-3.315 1.971-.372.334-.936.159-1.431 0-1.746-.569-3.018-1.761-4.048-3.208-2.632-3.712-4.859-7.633-5.849-12.158-.247-1.137-.341-2.289-.455-3.442-.322-3.297 1.43-5.283 4.087-6.73 1.594-.868 3.331-1.052 5.112-1.122zm14.465 16.907c1.619-.983 2.95-2.32 4.291-3.632 1.044-.559 1.658-1.562 2.36-2.44 1.297-1.626 1.826-3.606.95-5.472-.875-1.861-2.603-2.979-4.78-2.944-3.217.05-5.933 1.472-8.378 3.418-1.475 1.172-1.401 1.267-2.494-.29-.02-.03-.045-.055-.069-.084-.03-1.173-.787-1.851-1.668-2.395-2.865-1.771-5.83-1.606-8.878-.479-2.544.943-3.509 2.25-3.321 4.974.183 2.624.901 5.123 1.95 7.518 1.638 3.736 3.682 7.199 6.636 10.057.515.499.861.664.99-.244a89.6 89.6 0 0 0 11.427-7.054c.351-.255.856-.409.979-.933z"/><path fill="#FDFDFD" d="M144.483 287.698c-.112.077-.224.215-.301.198-.087-.026-.199-.164-.207-.267-.017-.19.103-.354.31-.285.086.026.121.207.198.354"/><path fill="#090909" d="M188.402 308.8v-8.669c0-.284.009-.543-.163-.801-.767-1.207-.647-1.508.818-1.672 3.594-.405 7.196-.25 10.79-.078.827.043.887-.12.991-.827.577-3.964.965-4.317 4.938-4.128 1.835.087 3.671.371 5.498.612.87.112 1.301-.258 1.266-1.06-.051-1.129.578-2.456-.827-3.257-.258-.147-.172-.422-.034-.62.344-.483.784-.776 1.422-.802 2.602-.095 5.213-.215 7.816-.327h.431c3.024-.061 3.067-.043 3.783-2.982.181-.741.577-.87 1.086-.689 2.835 1.025 5.661.172 8.497.026.353-.018.499-.268.482-.578-.095-1.249-.017-2.55-.362-3.731-.319-1.077-.017-1.405.914-1.525 1.034-.138 2.068-.328 3.102-.354 3.033-.069 6.05-.422 9.1-.181 1.37.104 1.931.742 2.103 1.982.19 1.327.19 2.655.017 3.973-.87 6.73-1.491 13.469-1.379 20.268.035 2.18.655 4.205 1.181 6.256.801 3.102-.853 5.601-1.93 8.221-.242.586-1.129.603-1.776.724-1.749.318-3.498.068-5.248-.052-1.137-.078-2.283-.198-3.171.793-.293.336-.793.327-1.215.318-6.3-.189-12.427 1.371-18.666 1.784-5.489.362-10.987.509-16.477.81-3.128.173-6.248.388-9.384.31-2.706-.068-3.172-.525-3.361-3.214-.25-3.498-.388-7.006-.267-10.513zm49.509-8.281v13.925c0 .44-.052.948.577.905 2.18-.155 4.343.388 6.524.147.749-.078 1.06-.405 1.129-1.147.129-1.275.12-2.559.034-3.834-.595-8.867-.638-17.7 1.12-26.464.173-.879.147-1.792.198-2.688.026-.474-.103-.897-.68-.853-3.223.224-6.438-.156-9.661-.138-.689 0-1.042.241-.87 1.051.25 1.198.414 2.421.595 3.636.758 5.128.56 10.307 1.034 15.451zm-3.577-.422c0-3.852-.025-8.023.026-12.194.009-.991.035-1.629-1.284-1.344-.715.155-1.508.017-2.266-.035-2.56-.163-3.163.268-3.999 2.689-.836 2.447-.646 4.963-.569 7.462.199 6.774.466 13.547.414 20.32 0 .948.457.879 1.034.862 1.655-.052 3.318-.13 4.973-.173 2.404-.06 2.395-.051 2.163-2.352-.5-4.964-.397-9.944-.5-15.235zm-19.096 7.195c0 3.412.034 6.816-.018 10.229-.017 1.12.397 1.361 1.431 1.189 2.008-.345 4.024-.621 6.041-.888.698-.095.862-.31.836-1.077-.19-5.394-.681-10.78-.422-16.192.146-2.981.318-5.971.008-8.944-.258-2.499.276-2.069-2.37-2.129-1.559-.034-3.128.052-4.688.086-1.99.052-2.188.173-1.861 2.129.87 5.17.879 10.375 1.043 15.588zm-2.922-.259h-.594c0-3.455-.017-6.919.017-10.375 0-.698-.129-1.008-.896-1.06-1.844-.129-3.68-.387-5.516-.525-2.102-.164-2.309-.009-2.309 2.111.017 6.92.707 13.822.5 20.75-.017.621.181.845.801.827 2.413-.077 4.835-.137 7.248-.189.629-.009.767-.293.767-.888-.026-3.55-.018-7.1-.018-10.659zm-12.038 2.413h-.026V301.2c0-.457.172-.983-.595-1-2.749-.06-5.498-.147-8.238-.215-.526-.018-.879.025-.793.775.663 5.705.396 11.452.913 17.174.104 1.112.543 1.379 1.474 1.388 2.042.017 4.076-.121 6.11-.285.913-.069 1.189-.448 1.172-1.344-.052-2.749-.017-5.498-.017-8.247"/><g clip-path="url(#b)"><path fill="#1D010D" d="M234.241 253.558c-1.49.441-2.981.876-4.471 1.334-1.262.385-2.517.809-3.779 1.194-.312.095-.647.14-.971.146-.391 0-.692-.213-.832-.581-.162-.413-.039-.793.302-1.049a2.8 2.8 0 0 1 .87-.447 945 945 0 0 1 9.383-2.874c1.574-.475 2.278-.09 2.752 1.518.218.742.33 1.524.436 2.294.424 3.137.474 6.285.346 9.444a7.3 7.3 0 0 1-.162 1.339c-.112.486-.503.782-.893.737-.447-.056-.687-.351-.771-.77a4.4 4.4 0 0 1-.078-.804c-.044-1.713-.056-3.427-.123-5.135-.05-1.317-.161-2.634-.251-4.007-.43.117-.441.463-.547.703-3.801 8.35-4.738 11.557-12.619 16.223-3.857 2.289-8.01 3.829-12.492 4.382-2.06.251-4.131.312-6.191-.095a7 7 0 0 1-1.283-.408c-.313-.128-.553-.379-.486-.77.072-.396.402-.519.737-.553a6.4 6.4 0 0 1 1.261 0c5.108.486 9.941-.569 14.507-2.785 9.266-4.499 10.99-8.23 15.065-17.696.162-.38.301-.776.446-1.161-.05-.056-.106-.112-.156-.173z"/></g><path fill="#fff" d="M79.07 180.787c.599.544.668 1.267 1.04 1.806 3.177 4.65 6.349 9.299 9.54 13.939.327.469.763.868 1.168 1.277 1.52 1.536 2.287 1.601 4.004.319.87-.648 1.583-1.471 2.237-2.335.257-.344.356-.528.782-.119 1.657 1.601 3.345 3.178 5.166 4.594.495.384.643.784.628 1.462-.292 15.066-1.068 30.127-.43 45.203.351 8.296 2.024 16.363 4.622 24.225.539 1.632 1.193 3.258 2.128 4.73.713 1.122 2.276 1.177 2.91.04 1.43-2.565 2.618-5.249 3.469-8.067 1.752-5.787 1.311-11.754 1.351-17.675.044-6.6-.525-13.171-1.435-19.701-.871-6.221-2.064-12.392-3.662-18.478-.901-3.422-1.609-6.89-2.4-10.342-.154-.663.079-1.197.356-1.826.623-1.426 1.029-2.958 1.484-4.455.391-1.277.728-2.569 1.144-4.065.593 1.032.816 2.015 1.009 3.003.139.708.193 1.442.386 2.13.178.639.554 1.267 1.287 1.307.767.045.811-.688.97-1.227 1.049-3.462 1.742-7.004 2.316-10.571.034-.205.064-.404.109-.669.42.21.351.574.371.848.406 4.899 1.756 9.604 2.994 14.323 2.83 10.801 5.418 21.656 7.423 32.646 1.494 8.202 2.271 16.493 2.672 24.819.341 7.094 1.113 14.143 2.088 21.177 1.119 8.067 2.272 16.129 2.796 24.266.03.459.089.813-.559.923-6.072 1.042-12.134 2.11-18.241 2.918-8.769 1.162-17.548 1.247-26.356.698a213 213 0 0 1-14.366-1.381c-2.217-.29-2.207-.305-1.708-2.44 1.856-7.867 3.509-15.779 4.687-23.786 1.272-8.631 2.217-17.291 2.959-25.982 1.05-12.287 1.237-24.594.995-36.916-.159-8.207-1.064-16.323-2.826-24.335-.732-3.338-1.608-6.645-2.682-9.893-.238-.723-.614-1.452-.42-2.4zm33.993 103.237c-.456.394-1.084.729-1.02 1.392.04.374.362.958.911.843.663-.134.99-.708.96-1.362-.02-.454-.431-.693-.856-.873zm.529 11.699c-.45.125-.935.324-.94.868 0 .459.401.833.826.858.471.025.782-.379.802-.853.015-.424-.213-.758-.688-.868zm-.336-3.452c.46-.105.767-.394.767-.888 0-.384-.218-.769-.614-.764-.534.005-.836.449-.866.933-.025.38.307.624.713.714zm-1.831-10.906c-.015.265.059.499.311.509.446.02.48-.354.515-.678.025-.235-.039-.444-.341-.424-.376.025-.411.339-.49.588zM109.564 169.318c-4.671-.105-8.145-.329-11.426-1.671-4.989-2.036-8.611-5.518-10.71-10.556-.123-.3-.276-.589-.375-.898-.174-.514-.56-.634-1.015-.564-.5.075-.47.439-.396.828.06.334-.034.634-.445.499-1.153-.374-1.653-1.417-2.014-2.405-.287-.783-.495-1.731.227-2.524.856-.938 1.935-1.152 3.232-.549.52.24 1.014.534 1.524.789.475.239.906.199 1.208-.295.262-.429.395-.898-.055-1.262-.51-.414-.233-.599.124-.878 2.187-1.706 3.019-3.991 2.628-6.7-.565-3.901-1.228-7.792-1.505-11.733-.178-2.599-.43-5.199-.158-7.808.163-1.576.772-2.639 2.375-3.222 2.316-.849 4.746-1.113 7.102-1.707 3.884-.977 7.586-2.354 10.713-4.998.54-.454.985-1.572 1.485-1.342.683.314.935 1.367 1.212 2.17.995 2.903 1.911 5.832 2.93 8.72 3.093 8.775 5.246 17.8 6.889 26.949.529 2.954.91 5.932.984 8.95.114 4.665-2.736 7.423-6.408 8.715-2.999 1.058-6.107 1.612-8.126 1.502zm7.299-13.579c-1.504-.27-2.81-.145-4.117.114-3.939.779-7.453-.119-10.56-2.683-1.233-1.018-2.237-2.245-3.286-3.428-.357-.399-.713-.853-1.351-.384-.614.449-.391.878-.09 1.392 2.777 4.714 6.899 7.149 12.313 7.209 2.484.03 4.924-.384 7.091-2.22m-.094-8.935c-.034-.539-.069-1.068-.272-1.592-1.341-3.497-2.776-6.954-3.87-10.541-.519-1.691-.994-3.392-1.519-5.083-.119-.389-.213-.978-.772-.878-.618.109-.371.648-.307 1.057a54.4 54.4 0 0 0 1.901 8.122c.861 2.754 1.994 5.398 2.944 8.112.441 1.262.208 1.741-.995 2.314-.588.28-1.153.579-1.563 1.108-.208.269-.673.539-.436.883.243.354.728.369 1.183.215 1.148-.38 2.162-.968 2.999-1.851.49-.519.762-1.138.707-1.871zm-2.805-18.294c.979.155 1.474-.628 2.063-1.252.193-.205.475-.424.361-.733-.143-.389-.514-.165-.747-.125-2.192.394-3.85-.454-5.151-2.185-.233-.309-.421-.788-.901-.444-.381.274-.544.653-.366 1.217.757 2.405 2.063 3.412 4.736 3.517zm-11.655-1.112c.035-.354-.039-.759-.292-1.068-.247-.304-.658-.469-.806.06-.584 2.035-1.688 3.627-3.618 4.57-.217.104-.336.299-.292.528.065.345.362.285.604.285 1.965 0 4.395-2.375 4.404-4.365zm11.541 7.253c.01.634.119 1.218.594 1.682.292.289.539.558 1.004.279.416-.255.5-.609.371-1.013-.153-.474-.331-.948-.574-1.382-.178-.319-.396-.813-.856-.633-.406.159-.569.613-.539 1.067m-9.541 2.43c.079-.589-.238-1.262-.871-1.227-.619.03-.856.823-.851 1.436.004.574.287 1.327.856 1.302.584-.025.876-.723.866-1.506zM283.491 89.498c-3.088.01-6.176.22-9.264-.105-3.113-.33-4.479-1.936-5.018-4.939-.213-1.177.183-1.826 1.341-2.22 2.365-.808 4.83-1.097 7.299-1.292 4.87-.384 9.744-.718 14.619-1.062.717-.05 1.44-.09 2.128.184 1.217.484 1.836 1.407 2.053 2.694.307 1.776.663 3.537 1.183 5.273.406 1.362 1.193 2.355 2.321 3.143 1.242.868 2.435 1.791 3.36 3.023 1.702 2.28 1.509 4.954-.524 6.93-.154.149-.322.289-.476.444-1.356 1.362-1.321 1.631.292 2.554.802.454 1.252 1.187 1.505 2.04 1.118 3.797.505 7.174-2.277 10.112-2.286 2.41-5.107 4.076-7.749 6.007-1.48 1.082-2.984 2.13-4.36 3.352-.683.609-.782 1.248-.48 2.031.262.668.529 1.337.816 1.99.134.31.327.644-.113.813-.307.12-.589.4-.985-.119-1.811-2.365-2.717-4.929-1.697-7.838.301-.858 1.103-1.581 1.791-2.24 1.925-1.845 3.909-3.631 5.869-5.437.624-.574 1.049-1.277 1.341-2.071.371-1.017-.054-1.581-1.123-1.371-2.222.429-4.419.977-6.641 1.381-4.984.903-9.942 1.946-15.01 2.285-.653.045-1.643.484-1.94-.344-.267-.748.678-1.182 1.193-1.631 2.385-2.106 5.27-3.258 8.2-4.336 4.088-1.496 8.314-2.479 12.52-3.532.861-.214 1.703-.538 2.534-.868.391-.154 1.074-.224.876-.853-.178-.568-.693-.863-1.366-.728-1.796.359-3.583.823-5.394 1.013-5.181.543-10.368 1.027-15.583.399-1.549-.185-2.366-1.183-3.014-2.455-.198-.389.049-.593.227-.863 1.094-1.631 2.841-2.33 4.519-2.998 5.666-2.265 11.589-3.512 17.617-4.295.797-.105 1.618-.17 1.682-1.277.065-1.118-.499-2.02-1.529-2.345-.866-.275-1.766-.324-2.662-.37-2.692-.129-5.384-.249-8.081-.08"/><path fill="#fff" d="M292.106 91.868c-2.346.185-4.647.619-6.913 1.197-4.207 1.073-8.492 1.951-12.248 4.326-.332.21-.663.429-.975.673-2.578 2.031-2.465 2.963-.945 5.513.653 1.097 1.672 1.756 2.924 2.055 2.514.604 5.058.599 7.611.374.5-.045.995-.095 1.505-.095-4.202 1.517-8.552 2.729-11.654 6.551-.812-2.639-1.594-5.099-2.326-7.573-1.406-4.73-2.786-9.469-4.167-14.203-1.361-4.66-2.692-9.33-4.088-13.984-1.732-5.792-3.523-11.564-5.275-17.346-.678-2.24-1.123-4.55-2.019-6.724-.238-.58.213-.53.505-.414.643.264 1.326.299 1.994.424 1.89.354 2.964-.53 3.088-2.495.134-2.085-.282-4.105-.668-6.131-.609-3.188-1.341-6.34-2.341-9.429-.5-1.546-1.197-2.923-2.944-3.387-1.524-.404-2.296.145-2.291 1.711 0 1.606.41 3.148.781 4.7.708 2.953 1.371 5.916 2.044 8.88.124.533.272 1.042.644 1.471.237.27.42.639.861.444.376-.164.465-.509.475-.898.019-1.467-.347-2.868-.678-4.275-.678-2.884-1.411-5.757-2.054-8.65-.119-.53-.515-1.467.163-1.612.668-.145.495.848.658 1.352 1.356 4.205 2.312 8.51 3.267 12.816.138.634.242 1.287.247 1.936.01.828-.237 1.63-1.079 1.95-.856.325-2.039-.234-2.415-1.147-.826-2.006-1.286-4.126-1.786-6.231-.906-3.797-1.92-7.573-2.252-11.484-.114-1.322 0-2.594.911-3.682.925-1.107 1.202-1.257 2.395-.509 2.192 1.377 4.315 2.869 6.255 4.605.965.863 1.569 1.99 1.95 3.203 2.118 6.75 4.162 13.52 6.304 20.264 1.94 6.106 3.945 12.187 6.196 18.189.505 1.342 1.059 2.669 1.762 3.926.341.609.237.908-.54.933-1.801.055-3.572.34-5.24 1.043-3.336 1.406-3.692 4.105-2.029 6.909 1.935 3.273 5.156 4.19 8.635 4.47 4.489.364 8.982.025 13.471.05h2.281c0 .105.01.21.015.314zM266.002 57.71c-2.742-.918-4.83-3.063-7.819-3.856.658 1.067 1.346 1.786 2.212 2.315 1.163.708 2.375 1.332 3.504 2.085 1.316.873 1.286.918 2.103-.544M24.229 186.723c1.836-1.621 1.826-3.961 2.167-6.056.277-1.706 1.148-2.28 2.559-2.609.554-.13 1.118-.285 1.638-.514 1.36-.614 1.618-1.776.712-2.988-1.049-1.407-2.583-1.761-4.181-1.911-1.97-.185-3.944-.309-5.914-.469-.39-.03-.787-.08-1.168-.17-.569-.134-.668-.424-.297-.923 1.544-2.07 3.524-3.327 6.147-3.462 5.562-.284 10.258 2.829 12.168 8.077 1.465 4.021.248 8.875-2.95 11.938-1.098 1.048-2.236 2.04-3.532 2.819-.51.309-.713.718-.758 1.322-.183 2.619.287 5.123 1.322 7.513.232.539.104.733-.248 1.062-2.45 2.265-5.443 3.497-8.502 4.625-1.682.619-3.41 1.053-5.166 1.392-1.178.224-1.415.03-1.059-1.078.46-1.432.609-2.903.698-4.38.237-3.936-.9-7.268-4.518-9.254-2.074-1.137-3.46-2.739-4.207-4.969-.712-2.13-2.33-3.696-3.474-5.557-2.147-3.502-3.182-7.394-3.207-11.524-.004-1.352.96-2.37 2.183-2.584.534-.095.777.02.821.633.238 3.208 1.05 6.201 3.336 8.606.183.189.336.434.069.653-2.069 1.726-1.697 3.906-.802 5.917 1.252 2.824 3.791 4.355 6.666 4.764 4.192.599 7.285-3.158 6.409-7.378-.361-1.736-.817-3.442-1.609-5.039-.247-.494-.074-.693.406-.663 2.757.164 5.523.244 8.24.808.232.05.53.13.554.439.03.379-.317.309-.534.384-.07.025-.134.065-.203.065-2.475.105-3.118 1.901-3.544 3.896-.465 2.175-.569 4.365-.227 6.625z"/><path fill="#E32824" d="M111.519 274.381a66 66 0 0 1-2.777-7.014c-3.048-9.165-3.805-18.653-3.855-28.227-.049-9.817.02-19.63.06-29.448.01-2.28.128-4.56.158-6.835.01-.823.247-1.257 1.143-.973.065.02.144 0 .213.015.633.08 1.47-.434 1.836.035.396.509.341 1.372.505 2.071.752 3.217 1.524 6.435 2.261 9.658a455 455 0 0 1 1.896 8.551c.697 3.312 1.266 6.65 1.687 10.007.663 5.278 1.015 10.581 1.168 15.899.119 4.021.025 8.037-.158 12.048-.193 4.25-1.401 8.286-3.232 12.123-.277.583-.519 1.182-.915 2.09z"/><path fill="#fff" d="M88.334 162.802c3.607 4.445 8.11 7.129 13.539 8.361 1.965.444 3.929.434 5.904.529.574.025.955.04.925.798-.208 5.098.47 10.217-.193 15.295-.232 1.791-1.074 3.483-2.123 5.004-.203.294-.405.364-.796.115-5.805-3.687-11.224-7.882-16.4-12.417-.995-.868-1.495-1.721-1.341-3.128.524-4.789.05-9.618.48-14.557z"/><path fill="#E32824" d="M241.278 25.377c-1.039 2.689-.455 5.338.218 7.967.96 3.752 2.148 7.428 3.311 11.12 2.81 8.91 5.547 17.845 8.299 26.775 2.672 8.665 5.354 17.33 7.982 26.01 2.628 8.666 5.201 17.352 7.784 26.032 1.039 3.487 1.905 7.019 2.766 10.556.154.634.327 1.332.876 1.806.114.095.208.21.119.369-.104.185-.232.195-.44.135a2.67 2.67 0 0 1-1.455-.998c-1.114-1.446-1.574-3.168-2.044-4.864-1.504-5.428-3.38-10.736-4.998-16.128-.995-3.318-1.975-6.64-3.063-9.928a3951 3951 0 0 1-8.191-25.019c-3.216-9.962-6.467-19.915-9.526-29.922-1.608-5.273-3.112-10.596-4.122-16.034a23 23 0 0 1-.341-5.403c.089-1.68 1.049-2.544 2.83-2.47zM277.631 134.665c-.539.115-.95.185-1.356.29-1.504.379-2.365-.075-2.939-1.542-1.133-2.903-1.688-5.976-2.445-8.98-.93-3.686-2.123-7.278-3.231-10.905-1.317-4.31-2.494-8.666-3.761-12.991-.723-2.46-1.52-4.899-2.257-7.353-2.143-7.154-4.256-14.313-6.413-21.462-1.866-6.18-3.791-12.342-5.667-18.518-1.662-5.488-3.36-10.97-4.914-16.493-.881-3.123-1.504-6.315-1.267-9.613.129-1.756.367-2.025 2.123-2.085.931-.035 1.856-.08 2.787.02.41.044.588.224.291.518-2.766 2.75-2.281 6.042-1.514 9.344.866 3.727 1.673 7.483 2.796 11.135 2.084 6.765 3.712 13.66 5.869 20.4a764 764 0 0 1 8.096 26.893c1.965 7 4.162 13.929 6.335 20.863 1.549 4.954 2.954 9.958 4.478 14.922.614 1.995 1.198 4.041 2.989 5.562z"/><path fill="#fff" d="M257.639 101.66c1.341 3.542 2.236 6.989 3.226 10.397 1.663 5.727 3.276 11.469 5.305 17.071.401 1.108.183 1.547-.514 2.18-1.282 1.158-2.445 2.44-3.836 3.487-.648.489-1.004.32-1.534-.164-2.326-2.125-3.884-4.809-5.394-7.513-2.029-3.632-3.39-7.523-4.28-11.594-.139-.634-.094-1.292-.357-1.911-.133-.324.124-.618.381-.838 3.281-2.789 5.018-6.585 6.671-10.431.069-.16.149-.315.332-.684M293.739 113.728c-.445.764-1.138 1.098-1.707 1.567-2.43 1.995-4.82 4.046-6.314 6.889-1.267 2.42-1.193 4.859.297 7.199.366.579.673 1.202 1.098 1.731.436.539.163.783-.292.963-2.172.863-4.414 1.397-6.75 1.541-1.212.075-2.761-1.531-3.221-3.103a2778 2778 0 0 0-3.296-11.164c-.193-.649-.317-1.332-.713-1.916-.366-.549.025-.559.431-.574 6.27-.244 12.332-1.945 18.518-2.754.618-.079 1.192-.434 1.944-.374zM23.08 144.174c0-4.944.278-8.321 1.282-11.609.243-.798.619-1.556 1.505-1.646.88-.09 1.435.599 1.86 1.282.881 1.417 1.04 3.053 1.247 4.66.802 6.156.584 12.362.871 18.543.144 3.073.307 6.146.525 9.214.05.713-.114.778-.742.674-.95-.16-1.925-.215-2.89-.285-.45-.035-.708-.179-.817-.673-1.539-7.149-2.717-14.348-2.84-20.16M20.502 163.028c-3.246-1.597-5.938-3.318-7.418-6.805-2.113-4.979-4.077-9.988-5.621-15.166-.644-2.15-1.144-4.335-1.149-6.605 0-.963.253-1.866.565-2.744.39-1.102.93-1.247 1.865-.548 1.836 1.366 2.781 3.367 3.647 5.402 1.584 3.732 2.51 7.683 3.742 11.529 1.504 4.71 2.41 9.604 4.211 14.223.064.16.08.339.158.714"/><path fill="#fff" d="M246.138 106.974c.237 1.556.435 2.888.643 4.225 1.331 8.636 4.553 16.463 9.883 23.367.965 1.253 2.118 2.355 3.211 3.497.416.434.386.739.015 1.193-1.346 1.656-1.752 1.791-3.434.519-4.563-3.458-7.839-7.957-10.289-13.121-1.895-3.996-2.776-8.281-3.894-12.517-.342-1.297-.025-1.965.752-2.808 1.019-1.103 2.029-2.24 2.578-3.697.07-.179.253-.314.535-.658M17.315 214.97c-1.761.109-3.503.164-5.161-.639-1.208-.584-1.95-2.804-1.272-3.956.178-.299.48-.234.772-.244 2.98-.095 5.939-.235 8.853-.998 5.25-1.377 10.175-3.378 14.262-7.089.698-.629.956-.444 1.094.369.025.14.08.279.119.414.95 3.372.633 4.37-2.168 6.54-4.23 3.283-9.046 5.039-14.35 5.448-.718.055-1.431.1-2.149.145zM97.964 191.079c-.04.08-.08.229-.168.329-1.277 1.417-2.242 3.088-3.623 4.415-1.098 1.058-1.187 1.078-2.355.005-1.39-1.277-2.465-2.823-3.514-4.38-1.9-2.813-3.706-5.687-5.74-8.406-.456-.609-.97-1.167-1.307-1.856-.119-.239-.242-.519.193-.519 1.143.01 2.123-.598 3.202-.823.341-.07.525.03.747.245 3.44 3.262 7.18 6.166 10.808 9.204q.661.555 1.317 1.117c.192.165.38.335.44.664zM283.322 78.118c-1.509.115-2.86.21-4.211.32-.312.024-.54-.026-.698-.35-2.073-4.205-4.013-8.456-4.632-13.18-.297-2.25.366-4.275 1.42-6.211.084-.155.124-.37.337-.384.341-.025.361.294.465.504.995 1.975 1.628 4.076 2.083 6.236.54 2.574 1.104 5.148 2.005 7.612.668 1.831 1.563 3.582 2.934 5.024.094.095.154.22.297.424z"/><path fill="#E32824" d="M112.003 188.929c.104 1.656-.287 3.203-.945 4.714-.693 1.582-1.282 3.208-1.885 4.829-.362.968-.871 1.492-2.039 1.437-1.702-.075-3.019-.848-4.182-1.946-1.197-1.127-2.632-1.98-3.711-3.252-.45-.534-.975-.978-.302-1.726.955-1.058 1.663-1.233 2.588-.674 1.306.788 2.291 1.921 3.335 2.993.861.888.946.839 1.638-.139.644-.908 1.094-2.215 2.712-1.661.47.164.619-.454.659-.819.188-1.736 1.009-3.302 1.311-5.008.049-.275.094-.634.47-.619.436.015.307.429.337.674.044.389.014.793.014 1.187z"/><path fill="#fff" d="M115.398 193.095c-.401-2.021-1.054-3.882-2.049-5.588-.371-.633-.391-1.791-1.667-1.561-.268.05-.144-.345-.099-.524.45-1.871 1.168-3.642 2.301-5.193.752-1.033 1.999-.859 3.078-.948.544-.045.371.558.341.848-.153 1.437-.366 2.868-.569 4.3q-.58 4.027-1.182 8.047c-.03.209-.099.414-.154.619M80.1 114.682c.257.663-.634 1.117-.322 1.791-.99.613-1.51 1.696-2.544 2.314q1.433-2.053 2.866-4.105M141.567 128.345c.119-2.125.247-4.235.351-6.351.114-2.24.312-4.48.238-6.729a2.9 2.9 0 0 0-.654-1.776c-1.39-1.791-3.048-3.383-4.033-5.478-1.375-2.924-1.766-6.081-2.068-9.244-.658-6.89-1.015-13.8-1.198-20.718-.02-.759 0-1.522.064-2.28.109-1.317.906-2.16 2.178-2.43 7.591-1.626 15.281-2.57 22.972-3.522 8.561-1.062 17.162-1.696 25.763-2.28a283 283 0 0 1 18.963-.648c2.741 0 4.028 1.736 4.503 3.756 1.599 6.74 1.519 13.575 1.153 20.42-.094 1.8-.242 3.601-.673 5.372-.594 2.425-2.068 3.871-4.454 4.405-4.607 1.028-9.209 2.095-13.836 3.048-5.355 1.103-10.739 2.066-16.103 3.143-5.241 1.053-10.541 1.726-15.786 2.739-2.366.459-4.682 1.097-6.374 2.983-1.47 1.636-2.757 3.422-3.93 5.293-2.048 3.268-3.884 6.68-6.275 9.733-.188.24-.277.604-.801.574zm21.799-44.67c-.178-.099-.312-.149-.411-.239-2.336-2.115-5.127-2.823-8.175-2.554-6.057.539-8.769 5.538-6.75 11.175 1.331 3.721 4.127 6.081 7.626 7.678 2.999 1.366 6.151 2.309 9.264 3.342.237.08.564.085.539.409-.04.524 0 1.003.614 1.053.544.045.915-.354 1.222-.769.747-1.017 1.499-2.03 2.242-3.053 4.023-5.557 7.626-11.34 9.59-18.014.96-3.258.589-5.059-1.534-6.715-1.089-.848-2.345-1.032-3.657-1.043-3.88-.03-6.631 1.946-8.754 5.024-.782 1.133-1.312 2.39-1.826 3.707zM90.744 9.553c7.616.364 15.168 1.322 22.705 2.44 3.577.528 7.17.997 10.718 1.71 2.876.58 3.054.879 2.821 3.812a706 706 0 0 1-1.87 19.895c-.386 3.557-.802 7.119-1.554 10.626-.05.22.049.559-.287.634-.312.07-.391-.245-.565-.41-2.82-2.683-5.394-5.617-8.343-8.171-1.138-.983-2.38-1.362-3.84-1.412-6.963-.244-13.906-.848-20.854-1.372-2.365-.18-4.756-.519-7.047-1.247-.95-.3-1.534-.813-1.702-1.946-.698-4.799-.48-9.618-.361-14.432.059-2.345.103-4.694.722-6.99.49-1.84 1.692-2.878 3.637-3.142 1.94-.265 3.875-.045 5.815.005zm2.5 22.24c-.615.519-1.02 1.122-.115 1.666 1.218.728 1.856 2.1 3.316 2.619 1.598.569 3.088.918 4.736.284-.812-1.207-.896-2.37-.263-3.063 4.533-2.634 8.087-6.17 9.982-11.18 1.138-3.008-.985-6.006-4.177-5.961-1.9.03-3.538.783-4.953 2.03-.609.54-1.183 1.118-1.846 1.746-.47-1.73-1.55-2.933-3.162-3.437-2.48-.768-4.806-.22-6.73 1.492-1.876 1.666-2.074 3.856-1.465 6.186.786 3.023 2.375 5.542 4.681 7.618zM213.6 39.44c-1.4.046-2.796.046-4.196.106-1.079.045-1.435.628-1.584 1.506-.193 1.173-.331 2.36-.505 3.537-.193 1.322-.648 1.562-1.761.878-2.237-1.377-4.459-2.778-6.409-4.56-.851-.778-1.856-.877-2.905-.917-2.558-.09-5.082.409-7.636.439-4.632.05-9.264.1-13.896.04-1.138-.015-1.573-.624-1.875-1.532-.742-2.225-1.123-4.53-1.445-6.84-.554-4.01-1.222-8.016-.945-12.097.064-.918.356-1.761.648-2.61.208-.608.777-.688 1.277-.857 2.509-.849 5.097-.769 7.685-.629 4.879.264 9.764.474 14.633.853 6.33.494 12.629 1.282 18.815 2.819.515.13 1.005.354 1.495.568 1.568.684 2.415 1.692 2.425 3.612.029 4.85.623 9.679.633 14.538 0 .932-.252 1.192-1.109 1.157-1.113-.045-2.226-.01-3.34-.01zM54.698 54.342c2.712.314 5.71.858 8.69 1.482 3.855.808 7.71 1.636 11.545 2.544 4.74 1.127 9.566 1.87 14.247 3.247 1.579.465 3.133 1.018 4.588 1.816.55.3.841.654.787 1.367-.391 5.343-.728 10.686-1.099 16.03-.064.947-.683 1.416-1.584 1.416-2.335 0-4.656-.185-6.977-.43-3.534-.363-7.082-.702-10.595-1.171-5.998-.799-12.09-.42-18.043-1.592-.906-.18-1.806-.419-2.687-.703-1.98-.644-2.727-1.726-2.816-3.971-.163-4.25.371-8.461.757-12.677.173-1.905.435-3.811.757-5.702.252-1.501.624-1.73 2.435-1.666z"/><path fill="#E32824" d="M350.872 208.719c.024.03.049.055.069.085 1.094 1.556 1.019 1.461 2.494.289 2.445-1.946 5.167-3.368 8.378-3.417 2.178-.035 3.905 1.082 4.781 2.943.876 1.866.351 3.851-.951 5.473-.702.878-1.316 1.88-2.365 2.439-.332-.294-.559-.085-.782.165-.782.888-1.757 1.556-2.608 2.354-.341.32-.91.489-.901 1.113-.118.524-.623.678-.979.933a90 90 0 0 1-11.427 7.054c-.539-.763-1.069-1.532-1.613-2.285-.99-1.362-1.985-2.714-2.573-4.33-.678-1.866-.56-3.842-.911-5.752-.188-1.028-.203-2.09-.579-3.083-.148-.399-.431-.694-.836-.779-.515-.109-.475.43-.668.689-.248.334-.471.693-.762 1.127-.985-1.561-1.079-3.172-.926-4.854.079-.868.569-1.451 1.272-1.741 3.137-1.287 6.339-1.626 9.457-.01.836.434 2.059.384 2.425 1.587z"/><path fill="#fff" d="M350.872 208.719c-.361-1.203-1.589-1.153-2.425-1.587-3.118-1.616-6.319-1.282-9.457.01-.698.289-1.188.873-1.272 1.741-.153 1.681-.059 3.293.926 4.854.292-.434.514-.788.762-1.127.193-.26.148-.798.668-.689.406.085.683.379.836.779.376.992.391 2.055.579 3.083.352 1.91.233 3.886.911 5.752.589 1.621 1.583 2.968 2.573 4.33.549.753 1.079 1.521 1.613 2.285-.133.908-.475.743-.989.244-2.955-2.858-4.999-6.321-6.637-10.057-1.049-2.4-1.771-4.899-1.949-7.518-.188-2.724.772-4.031 3.32-4.974 3.049-1.127 6.013-1.287 8.878.479.881.544 1.638 1.222 1.668 2.395zM358.987 220.163c-.009-.624.56-.793.901-1.112.856-.804 1.826-1.472 2.608-2.355.218-.25.45-.454.782-.165-1.341 1.317-2.672 2.649-4.291 3.632M170.245 274.999c.361-.818.579 0 .673.12a137 137 0 0 1 2.919 3.826c.822 1.113 1.807 2.1 2.396 3.392.138.305.133.594.232.883-2.162-2.674-4.325-5.343-6.22-8.226z"/><path fill="#000" d="M113.063 284.024c.425.18.836.419.856.873.03.654-.297 1.228-.96 1.362-.55.11-.876-.469-.911-.843-.069-.663.559-.997 1.02-1.392zM113.592 295.723c.475.11.703.444.688.868-.02.474-.332.883-.802.853-.425-.025-.831-.399-.826-.858 0-.544.49-.744.94-.868zM113.255 292.27c-.405-.089-.737-.339-.712-.713.029-.484.331-.928.866-.933.401 0 .618.379.613.763 0 .494-.306.779-.767.888zM111.424 281.365c.079-.249.114-.563.49-.588.302-.02.366.189.342.424-.035.319-.07.698-.515.678-.252-.01-.327-.244-.312-.509zM116.863 155.738c-2.172 1.836-4.607 2.25-7.091 2.22-5.414-.065-9.537-2.494-12.313-7.209-.302-.514-.53-.943.09-1.392.638-.468.999-.014 1.35.385 1.05 1.187 2.054 2.414 3.286 3.427 3.108 2.564 6.622 3.462 10.561 2.684 1.306-.26 2.613-.384 4.117-.115M116.769 146.804c.055.739-.213 1.352-.708 1.871-.836.883-1.85 1.472-2.998 1.851-.461.15-.941.14-1.183-.214-.238-.345.222-.609.435-.883.411-.529.975-.829 1.564-1.108 1.203-.574 1.435-1.053.995-2.315-.95-2.714-2.084-5.358-2.945-8.111a56 56 0 0 1-1.9-8.122c-.064-.409-.312-.948.307-1.058.559-.099.653.489.772.878.524 1.687.999 3.393 1.519 5.084 1.099 3.587 2.534 7.044 3.87 10.541.203.524.237 1.053.272 1.591zM113.963 128.51c-2.672-.105-3.978-1.117-4.735-3.517-.179-.564-.01-.938.366-1.217.48-.349.668.134.9.444 1.297 1.731 2.955 2.579 5.152 2.185.233-.04.604-.265.747.125.114.309-.168.528-.361.733-.584.623-1.084 1.407-2.064 1.252zM102.309 127.397c-.015 1.991-2.44 4.371-4.404 4.366-.243 0-.54.059-.604-.285-.045-.229.074-.419.292-.529 1.925-.943 3.033-2.534 3.617-4.569.149-.524.559-.364.807-.06.252.309.326.713.292 1.067zM113.85 134.651c-.03-.459.133-.913.539-1.068.46-.179.678.314.856.634.243.434.426.908.574 1.382.129.404.045.758-.371 1.012-.465.285-.708.01-1.005-.279-.475-.464-.588-1.048-.593-1.681M104.308 137.081c.015.783-.282 1.481-.866 1.506-.569.025-.851-.728-.856-1.302-.005-.613.233-1.401.851-1.436.634-.03.955.643.871 1.227zM266.002 57.71c-.817 1.456-.787 1.417-2.104.544-1.133-.754-2.345-1.377-3.503-2.086-.866-.529-1.549-1.247-2.212-2.315 2.989.794 5.077 2.944 7.819 3.857M163.366 83.676c.515-1.312 1.044-2.574 1.826-3.707 2.128-3.078 4.874-5.058 8.754-5.023 1.312.01 2.568.194 3.657 1.042 2.123 1.652 2.494 3.453 1.534 6.715-1.969 6.675-5.567 12.457-9.59 18.015-.743 1.022-1.495 2.035-2.242 3.053-.307.419-.678.813-1.222.768-.614-.05-.654-.529-.614-1.053.025-.324-.302-.334-.539-.409-3.118-1.032-6.265-1.975-9.264-3.342-3.499-1.597-6.295-3.951-7.626-7.678-2.014-5.637.693-10.636 6.75-11.175 3.048-.269 5.839.44 8.175 2.555.099.09.233.14.411.24zm13.381.873c.569-.823.757-1.776.911-2.739.48-3.043-1.341-5.168-4.41-5.293-3.127-.124-5.28 1.432-6.918 3.916-.96 1.452-1.598 3.068-2.143 4.71-.45 1.352-.43 1.242-1.657.474-.867-.544-1.574-1.287-2.653-1.552-2.271-.554-4.563-.434-6.849-.399-2.262.035-3.167 1.177-3.321 3.283-.356 4.859 1.703 8.017 5.81 10.267 3.36 1.84 7.136 2.663 10.62 4.205.361.16.554-.04.713-.279 1.42-2.165 3.439-3.882 4.681-6.181.639-1.188 1.703-2.136 1.965-3.532 1.39-2.146 2.291-4.53 3.256-6.885zM93.243 31.793c-2.306-2.075-3.894-4.595-4.681-7.618-.604-2.33-.406-4.52 1.464-6.186 1.93-1.711 4.256-2.265 6.73-1.492 1.619.504 2.693 1.707 3.163 3.438.663-.629 1.237-1.207 1.846-1.746 1.415-1.247 3.048-2 4.953-2.03 3.192-.05 5.32 2.953 4.177 5.96-1.895 5.01-5.448 8.552-9.981 11.18-1.822.04-3.623.14-5.33-.798-.688-.379-1.5-.688-2.346-.703zm5.157-.284c1.885.064 3.162-.604 4.349-1.532 1.93-1.512 3.524-3.322 4.954-5.318.624-.873 1.109-1.76 1.381-2.769.361-1.347.015-2.559-1.03-3.432-.979-.818-2.137-.569-3.261-.204-2.133.688-3.414 2.26-4.389 4.18-.248.489-.406 1.317-1.05 1.177-.638-.14-.781-.947-.9-1.59-.035-.175 0-.37-.054-.54-.268-.848-.342-1.77-.98-2.48-1.524-1.69-4.573-1.67-6.161.106-1.658 1.855-1.436 3.976-.634 6.096 1.633 4.325 4.147 6.256 7.784 6.306z"/><path fill="#1D010D" d="M179.302 28.607q-.418.003-.625-.279a1.03 1.03 0 0 1-.186-.661q.018-.344.202-.58.197-.247.806-.351a18 18 0 0 1 1.571-.176 28 28 0 0 1 3.174-.03q.625.032.967.32t.318.743a.7.7 0 0 1-.184.458q-.157.164-.61.14a21 21 0 0 0-2.128-.001 14 14 0 0 0-1.459.157q-.595.092-1.03.18-.422.075-.816.08m2.559 2.569a.9.9 0 0 1-.601-.277q-.244-.272-.252-.813a16 16 0 0 1 .029-1.499q.049-.698.119-1.322.082-.635.138-1.234.069-.612.078-1.25.007-.369.166-.582.16-.226.551-.205.516.026.804.399.288.36.246 1.156-.029.552-.088 1.225-.06.674-.132 1.346-.06.673-.115 1.249-.054.563-.072.906-.025.479-.27.699a.78.78 0 0 1-.601.202m8.689-.098q-.027.528-.249.774-.21.235-.614.214-.491-.026-.757-.335-.255-.309-.225-.873.05-.955.152-1.96.114-1.015.276-1.99.162-.987.344-1.875l.352.338a3 3 0 0 1-.559.34 2.7 2.7 0 0 1-.576.19 2.1 2.1 0 0 1-.543.046q-.552-.03-.818-.35a1.06 1.06 0 0 1-.233-.713.66.66 0 0 1 .208-.457q.195-.199.602-.226.494-.036.898-.236.404-.213.776-.488.179-.139.38-.214a1.1 1.1 0 0 1 .471-.074q.38.02.651.244.272.21.377.548.118.338-.012.713-.252.81-.423 1.724-.159.914-.254 1.806a43 43 0 0 0-.148 1.64q-.05.748-.076 1.214m2.857 1.293q-.624-.032-.914-.392a1.2 1.2 0 0 1-.251-.825q.018-.356.192-.629.187-.273.593-.522 1.077-.595 1.842-1.121.778-.525 1.281-.978.505-.466.748-.896.257-.441.28-.87.016-.32-.17-.514-.174-.206-.603-.228-.552-.03-1.003.12a4 4 0 0 0-.792.34q-.354.19-.633.347-.266.159-.488.147a.86.86 0 0 1-.623-.316 1 1 0 0 1-.222-.688.85.85 0 0 1 .121-.424q.12-.178.387-.348a8 8 0 0 1 1.691-.822 4.5 4.5 0 0 1 1.66-.232q.969.05 1.54.412.571.363.799.952.24.59.2 1.351a3.2 3.2 0 0 1-.224.985q-.186.495-.646 1.06-.459.555-1.305 1.198-.833.645-2.151 1.4l-.428-.526q.23.074.436.12.22.037.441.048.368.02.836.008.468-.026 1.022-.033.567-.02 1.192.013.858.045 1.161.38.315.325.291.778a.77.77 0 0 1-.274.54q-.246.22-.711.196a42 42 0 0 0-3.318-.051l-1.121.027q-.48.012-.836-.007m9.011.374q-.699-.036-1.155-.245-.443-.22-.647-.562a1.4 1.4 0 0 1-.179-.797.92.92 0 0 1 .214-.579q.198-.236.565-.216a.42.42 0 0 1 .254.087q.106.08.211.195.105.105.261.186.154.082.45.098.49.025.973-.035.495-.073.909-.211.426-.15.683-.37a.78.78 0 0 0 .275-.551.54.54 0 0 0-.104-.363q-.102-.165-.391-.29a3.8 3.8 0 0 0-.823-.253 16 16 0 0 1-1.647-.48q-.615-.228-.934-.479a1.2 1.2 0 0 1-.398-.611 2.7 2.7 0 0 1-.068-.827q.02-.369.117-.818.11-.462.337-1.028.116-.339.284-.49.18-.15.498-.133.687.036 1.179.037.505-.01.911-.026.42-.015.838-.018.419-.015.921.012.736.038 1.073.425.348.387.299.852a.67.67 0 0 1-.233.467q-.194.162-.512.146a15 15 0 0 0-1.106-.021q-.48 0-.947.011-.468 0-1.009-.003-.54-.004-1.251-.053l.899-.494a4 4 0 0 0-.305.66q-.075.255-.086.463a.6.6 0 0 0 .027.198.4.4 0 0 0 .162.18q.144.082.446.171t.837.217q1.252.285 1.897.652.658.354.879.833.22.48.186 1.142a2.52 2.52 0 0 1-.662 1.6q-.614.681-1.678 1.044-1.051.35-2.45.277M60.057 68.61q-.482-.048-.687-.397a1.2 1.2 0 0 1-.135-.786q.063-.394.304-.643.258-.263.971-.308a21 21 0 0 1 1.833-.012q.96.036 1.896.127.937.09 1.767.222.716.114 1.076.488a1 1 0 0 1 .276.894.8.8 0 0 1-.267.505q-.201.17-.72.088a24 24 0 0 0-2.453-.259 16 16 0 0 0-1.702.005q-.696.034-1.209.082-.495.037-.95-.006m2.638 3.271a1.03 1.03 0 0 1-.658-.392q-.249-.341-.193-.968.077-.939.215-1.724.141-.8.297-1.51.172-.722.31-1.406.153-.697.24-1.432.054-.425.262-.65.21-.241.661-.17.59.094.878.557.288.45.144 1.363-.1.633-.25 1.402a86 86 0 0 1-.316 1.536q-.15.768-.283 1.425-.131.642-.193 1.036-.087.549-.397.773-.296.227-.717.16m10.03.94q-.096.604-.382.862-.27.246-.733.172-.563-.088-.832-.477-.256-.386-.154-1.034.174-1.096.413-2.24.254-1.156.56-2.261a57 57 0 0 1 .624-2.12l.364.431a3.3 3.3 0 0 1-.686.324 3 3 0 0 1-.687.151 2.5 2.5 0 0 1-.632-.014q-.633-.1-.9-.503a1.23 1.23 0 0 1-.183-.85.76.76 0 0 1 .296-.5q.249-.206.721-.19a2.8 2.8 0 0 0 1.064-.162 7 7 0 0 0 .954-.47q.223-.136.464-.2.257-.075.552-.027.435.069.721.359.288.276.368.678.095.405-.1.82-.39.904-.696 1.937-.294 1.034-.513 2.052a50 50 0 0 0-.368 1.873q-.15.855-.235 1.39m4.116 1.877q-.802-.126-1.303-.422-.485-.307-.677-.727a1.65 1.65 0 0 1-.11-.94q.063-.408.317-.642.255-.248.677-.18.183.028.282.13.114.105.22.251.108.133.278.246t.507.167q.562.09 1.126.078.58-.024 1.073-.133.51-.12.833-.344a.9.9 0 0 0 .384-.602.62.62 0 0 0-.076-.43q-.098-.203-.415-.383-.315-.195-.918-.39a19 19 0 0 1-1.841-.753q-.682-.339-1.02-.666a1.4 1.4 0 0 1-.384-.753 3.1 3.1 0 0 1 .022-.962q.068-.421.234-.929.183-.519.513-1.144.174-.375.386-.53.226-.15.591-.093.788.124 1.355.186.583.048 1.054.08.484.034.967.081.485.033 1.061.125.844.134 1.185.62.354.489.242 1.018a.77.77 0 0 1-.326.51q-.242.165-.608.106a17 17 0 0 0-1.272-.158q-.553-.059-1.093-.101-.54-.057-1.162-.126a24 24 0 0 1-1.437-.213l1.096-.461a5 5 0 0 0-.431.724q-.117.285-.155.523a.7.7 0 0 0 .006.232q.027.105.166.228.155.111.493.251.339.14.94.35 1.05.37 1.7.731.663.364.989.762t.41.873q.085.46-.004 1.022a2.92 2.92 0 0 1-.957 1.766q-.79.71-2.06 1-1.256.276-2.858.022"/><path fill="#E32824" d="M74.394 63.737c.035.145-.064.18-.169.17-.04 0-.07-.09-.104-.135.075-.166.159-.19.273-.035M76.582 63.651c-.114.1-.233.09-.352.005.119-.115.233-.14.352-.005"/><path fill="#fff" d="M363.832 146.545c1.589-1.332 4.286-1.467 6.161-.29.248.155.46.339.772.3-.02.429-.232.473-.569.299-1.772-.938-3.588-.624-5.409-.215-.336.075-.668.305-.955-.089z"/><path fill="#E32824" d="M173.49 91.429c-.262 1.396-1.326 2.344-1.964 3.532-1.242 2.3-3.256 4.016-4.682 6.181-.158.239-.351.439-.712.279-3.489-1.542-7.265-2.365-10.62-4.206-4.107-2.25-6.166-5.412-5.81-10.266.154-2.106 1.064-3.248 3.321-3.283 2.291-.04 4.577-.16 6.849.4 1.079.264 1.781 1.007 2.652 1.55 1.227.769 1.208.879 1.658-.473.544-1.642 1.188-3.258 2.143-4.71 1.638-2.484 3.786-4.036 6.918-3.916 3.073.12 4.894 2.25 4.409 5.293-.153.963-.336 1.916-.91 2.74-.084-.17-.099-.555-.371-.335-.49.404-1.074.668-1.267 1.456-.411 1.717-.876 3.428-1.722 5-.124.229-.238.543.099.758z"/><path fill="#fff" d="M173.491 91.43c-.337-.21-.223-.53-.099-.76.846-1.57 1.311-3.287 1.722-4.998.188-.788.777-1.052 1.267-1.457.272-.224.287.165.371.335-.965 2.35-1.866 4.734-3.256 6.884z"/><path fill="#1D010D" d="M334.719 156.886q-.817-.052-1.183-.63a2 2 0 0 1-.274-1.318q.082-.669.475-1.105.42-.458 1.621-.576a34 34 0 0 1 3.093-.129 56 56 0 0 1 3.21.103 51 51 0 0 1 2.996.271q1.216.15 1.845.76.627.61.519 1.493-.068.55-.422.869-.327.299-1.21.191-2.462-.279-4.156-.293-1.695-.014-2.873.108-1.175.098-2.036.21a9.6 9.6 0 0 1-1.605.046m4.647 5.368a1.74 1.74 0 0 1-1.135-.624q-.44-.563-.382-1.622.074-1.59.262-2.924.19-1.357.412-2.566.248-1.23.439-2.393.219-1.185.323-2.432.064-.72.403-1.114.342-.418 1.106-.324 1.002.123 1.514.888.516.742.325 2.293a68 68 0 0 1-.341 2.382q-.21 1.306-.442 2.611-.209 1.307-.394 2.423-.183 1.092-.265 1.76-.114.931-.624 1.329-.485.4-1.201.313m16.989.995q-.126 1.027-.594 1.478-.44.43-1.228.334-.954-.117-1.433-.758-.456-.637-.32-1.735.228-1.862.564-3.807.363-1.967.812-3.85.452-1.907.929-3.617l.64.708a5.7 5.7 0 0 1-1.139.587 5.2 5.2 0 0 1-1.15.295 4.2 4.2 0 0 1-1.068.014q-1.074-.132-1.55-.796-.449-.684-.358-1.425a1.3 1.3 0 0 1 .469-.863q.408-.361 1.208-.36a4.7 4.7 0 0 0 1.786-.338 11.6 11.6 0 0 0 1.582-.848q.369-.246.771-.366.43-.14.931-.079.74.09 1.239.564.502.449.662 1.123.183.677-.122 1.39a30 30 0 0 0-1.061 3.311 55 55 0 0 0-.744 3.494 85 85 0 0 0-.512 3.184q-.203 1.454-.314 2.36m9.13 3.157q-1.862-.229-3.206-1.121-1.342-.915-1.963-2.567-.594-1.672-.295-4.107.24-1.957.998-3.391.76-1.457 1.725-2.405.99-.968 1.915-1.388.95-.44 1.523-.37.74.091 1.021.368.281.276.205.897a2.1 2.1 0 0 1-.329.905 2.3 2.3 0 0 1-.613.651 5.9 5.9 0 0 0-1.426 1.352 6.4 6.4 0 0 0-.915 1.729 10 10 0 0 0-.476 2.098q-.12.978.07 1.801.216.803.781 1.332.565.53 1.496.644 1.05.129 2.099-.518 1.072-.643 1.851-2.05.802-1.404 1.066-3.552a5.8 5.8 0 0 0-.028-1.748q-.118-.815-.564-1.329t-1.281-.618q-.859-.105-1.509.057a3.5 3.5 0 0 0-1.18.534 16 16 0 0 0-1.063.766 3.5 3.5 0 0 1-.676.377q-.358.15-.716.106-.764-.094-1.287-.764a2.04 2.04 0 0 1-.395-1.526q.067-.549.603-1.162.539-.636 1.498-1.149.963-.536 2.254-.789 1.315-.25 2.914-.054 2.052.252 3.236 1.27 1.21.996 1.638 2.648.45 1.654.184 3.826-.316 2.579-1.246 4.427-.903 1.827-2.204 2.952-1.277 1.127-2.765 1.599a7.1 7.1 0 0 1-2.94.269"/><path fill="#fff" d="M361.987 158.288c-.337-.21-.223-.529-.099-.759.846-1.571 1.311-3.287 1.722-4.998.188-.789.777-1.053 1.267-1.457.272-.225.287.164.371.334-.965 2.35-1.866 4.734-3.256 6.885z"/><path fill="#E32824" d="M98.4 31.509c-3.638-.05-6.151-1.98-7.785-6.306-.801-2.12-1.024-4.24.634-6.096 1.589-1.781 4.637-1.801 6.161-.105.639.708.713 1.631.98 2.48.054.169.02.364.054.538.12.644.263 1.452.901 1.592.648.144.802-.689 1.049-1.178.975-1.92 2.257-3.487 4.39-4.18 1.128-.364 2.286-.614 3.261.204 1.044.873 1.39 2.086 1.029 3.433-.272 1.012-.757 1.9-1.381 2.768-1.43 1.996-3.018 3.812-4.953 5.318-1.188.928-2.465 1.597-4.35 1.532zm-2.796-2.17c1.658.828 4.731.583 5.27-.41-1.806.225-3.573-.249-5.27.41"/><path fill="#fff" d="M347.328 70.182c.361-.384.728-.768 1.084-1.157.223-.245.495-.539.802-.31.405.3.039.63-.129.914-.124.21-.302.389-.455.583z"/><path fill="#000" d="M95.603 29.338c1.697-.659 3.464-.185 5.27-.41-.539.999-3.612 1.238-5.27.41M299.618 33.11c-1.747-4.34-3.425-8.526-4.602-12.911-.708-2.63.811-4.615 2.454-5.802 1.683-1.218 3.593-1.98 5.508-2.684 6.651-2.44 13.282-4.93 20.067-6.985 3.949-1.197 7.883-2.449 11.842-3.606 1.549-.454 3.143-.769 4.731-1.038 1.861-.32 2.855.32 3.583 2.31 1.88 5.163 3.726 10.336 5.29 15.615 1.208 4.09 2.608 8.131 3.835 12.217.703 2.335 1.47 4.674 1.292 7.179-.129 1.786-.846 2.39-2.499 1.96-1.608-.419-3.237-.843-4.751-1.516-1.935-.858-3.944-1.537-5.824-2.5-1.757-.893-3.42-.863-5.286-.284-6.864 2.14-13.579 4.724-20.388 7.014-2.386.803-4.825 1.322-7.319 1.666-1.515.21-2.42-.463-3.187-1.566-1.995-2.864-3.306-6.091-4.751-9.07zm5.567-19.786c-1.791.743-3.647 1.332-5.32 2.365-1.672 1.032-2.35 2.474-2.063 4.355.361 2.35 1.257 4.52 2.147 6.69 1.827 4.45 3.559 8.945 6.122 13.05.609.973 1.346 1.203 2.336 1.088 2.39-.275 4.706-.933 6.943-1.736 6.562-2.355 13.153-4.64 19.621-7.254 1.356-.549 2.643-.713 4.078-.274 3.721 1.132 7.255 2.764 10.907 4.066.228.08.425.339.683.144.277-.204.054-.474.01-.693-.718-3.512-1.767-6.94-2.846-10.352a693 693 0 0 0-6.28-18.957c-.965-2.779-1.252-2.978-4.112-2.335-3.533.798-7.002 1.836-10.491 2.809-7.339 2.055-14.633 4.26-21.74 7.034z"/><path fill="#fff" d="M305.185 13.325c7.111-2.773 14.401-4.978 21.74-7.034 3.488-.978 6.958-2.01 10.491-2.808 2.86-.644 3.147-.444 4.112 2.334a699 699 0 0 1 6.28 18.958c1.079 3.412 2.128 6.834 2.846 10.351.044.22.267.49-.01.694-.258.19-.456-.065-.683-.145-3.657-1.302-7.186-2.933-10.907-4.066-1.435-.434-2.722-.27-4.078.274-6.468 2.62-13.059 4.9-19.621 7.254-2.237.803-4.558 1.462-6.943 1.736-.99.115-1.732-.114-2.336-1.087-2.569-4.106-4.296-8.6-6.122-13.05-.89-2.171-1.786-4.336-2.147-6.69-.287-1.881.391-3.323 2.063-4.356s3.524-1.626 5.32-2.365zm11.214 19.317c-.356.723-.48 1.442.564 1.566 1.405.17 2.544 1.163 4.088 1.043 1.692-.13 3.196-.42 4.443-1.676-1.227-.774-1.771-1.801-1.469-2.694 3.088-4.256 4.919-8.94 4.642-14.298-.169-3.218-3.316-5.093-6.216-3.746-1.727.803-2.92 2.155-3.716 3.876-.342.738-.634 1.501-.99 2.35-1.128-1.392-2.593-2.05-4.271-1.851-2.573.304-4.478 1.76-5.557 4.11-1.044 2.29-.347 4.376 1.143 6.256 1.935 2.445 4.399 4.101 7.339 5.054z"/><path fill="#000" d="M316.399 32.642c-2.94-.958-5.404-2.61-7.339-5.054-1.49-1.886-2.187-3.966-1.143-6.256 1.074-2.354 2.979-3.806 5.557-4.11 1.678-.2 3.148.463 4.271 1.85.356-.848.648-1.611.99-2.35.791-1.72 1.984-3.072 3.716-3.876 2.9-1.347 6.047.53 6.216 3.747.277 5.358-1.549 10.042-4.642 14.298-1.648.778-3.256 1.601-5.196 1.447-.782-.065-1.648-.016-2.43.314zm4.602-2.36c1.752-.708 2.653-1.84 3.365-3.173 1.158-2.17 1.886-4.475 2.39-6.884.223-1.053.307-2.06.149-3.098-.208-1.377-1.015-2.35-2.321-2.72-1.222-.348-2.182.35-3.068 1.148-1.673 1.502-2.212 3.457-2.336 5.613-.03.548.158 1.372-.49 1.506-.638.13-1.094-.549-1.46-1.087-.099-.15-.148-.34-.262-.47-.584-.668-1.024-1.476-1.89-1.865-2.074-.923-4.855.334-5.592 2.614-.772 2.375.282 4.22 1.87 5.832 3.232 3.287 6.305 4.026 9.65 2.59z"/><path fill="#E32824" d="M321.001 30.282c-3.35 1.436-6.418.698-9.65-2.59-1.583-1.61-2.642-3.457-1.87-5.831.742-2.275 3.518-3.537 5.592-2.614.866.389 1.306 1.197 1.89 1.865.114.13.163.325.262.47.367.538.822 1.217 1.46 1.087.648-.135.46-.958.49-1.507.124-2.155.663-4.11 2.336-5.612.886-.793 1.841-1.492 3.068-1.147 1.307.369 2.108 1.342 2.321 2.718.158 1.038.069 2.046-.148 3.098-.505 2.41-1.233 4.715-2.391 6.885-.712 1.332-1.613 2.464-3.365 3.173zm-3.429-.843c1.846.084 4.557-1.392 4.656-2.525-1.558.943-3.37 1.228-4.656 2.525"/><path fill="#000" d="M317.572 29.438c1.286-1.297 3.093-1.581 4.657-2.524-.095 1.133-2.806 2.61-4.657 2.524"/><path fill="#090909" d="M356.685 95.88a27 27 0 0 1-4.793 1.802l-.662.113-.094-.025-.076.057c-2.872.308-5.719.189-8.535-.48-.177-.17-.378-.251-.624-.213-.352-.303-.768-.454-1.209-.555-.788-.434-1.575-.869-2.369-1.303-.201-.259-.472-.41-.768-.523l-.221-.145c-.176-.164-.346-.328-.529-.485-2.589-2.16-4.535-4.762-5.354-8.088-.793-3.213-1.077-6.444.246-9.587 1.083-2.583 2.639-4.857 4.825-6.658.126-.12.252-.246.378-.366.611-.069.976-.554 1.449-.856.491-.303.982-.611 1.474-.914a25.5 25.5 0 0 1 5.788-1.87c11.975-2.369 19.458 7.552 19.584 16.018.044 3.074-.939 5.826-2.444 8.44-.069.02-.101.07-.076.14-1.247 1.82-2.866 3.281-4.592 4.629-.503-.025-.629.51-1.001.674-.202-.07-.309.063-.41.195zm-23.747-14.752c.025 2.677.434 4.989 1.486 6.715 3.207 5.272 7.868 8.025 14.11 7.88 8.85-.208 18.009-8.882 13.115-19.748-1.789-3.968-4.693-6.992-9.109-7.98-5.757-1.292-10.954.113-15.332 4.05-2.645 2.38-4.352 5.348-4.27 9.077zM324.662 87.824l.523.075c1.72 2.035 3.244 4.227 5.096 6.148.17.328.416.586.724.788a18.9 18.9 0 0 0 4.794 3.546l.434.302c.353.195.643.517 1.09.536.208.226.441.39.769.371a3.4 3.4 0 0 0 1.732.832c.353.315.775.441 1.241.46.894.516 1.877.755 2.878.926.177.088.347.22.53.251.308.051.611.076.623.467.019.516-.485.27-.699.453a.8.8 0 0 0-.624.151l-1.65-.05-1.682-.372c-.113-.145-.271-.17-.441-.145-.245-.163-.51-.264-.806-.258a.65.65 0 0 0-.617-.227c-.284-.302-.624-.447-1.04-.409-.195-.309-.491-.41-.844-.403-.138-.233-.334-.391-.617-.391-.372.044-.447-.497-.832-.422l-1.662-1.02c-.265-.19-.536-.378-.8-.567l-.29-.208-.063-.044-.712-.56c-.145-.108-.283-.221-.428-.328l-.013-.013c-.642-.334-1.115-.863-1.587-1.392-.744-.863-1.493-1.72-2.236-2.582a1.87 1.87 0 0 1-.63-.832c-.24-.372-.485-.743-.725-1.115-.774-1.216-1.423-2.475-1.43-3.975zM333.178 61.79c.831-.473 1.663-.945 2.494-1.424.189-.075.378-.139.561-.22 1.978-.832 4.019-1.342 6.179-1.203.441.031.933 0 .989.636-.025.063-.056.126-.082.182-1.108.278-2.274.328-3.313.863-.227.02-.453.05-.617.227-3.616 1.052-6.652 2.999-9.09 5.877-.957 1.134-1.757 2.4-2.853 3.427-.334.308-.624.535-1.09.346-.145-.535.29-.938.328-1.436 1.304-2.545 3.13-4.655 5.31-6.482.258-.176.516-.359.768-.535.139-.088.271-.183.41-.27z"/><path fill="#FDFDFD" d="M335.804 98.38c.271-.063.39-.636.718-.327.271.252-.284.365-.284.63zM326.293 71.095v-.208l.208.208h-.20800000000000002"/><path fill="#090909" d="M346.449 75.975c.044.574.259 1.512.447 2.463.221 1.128.964 1.399 1.896 1.544 1.405.214 2.81.396 4.164.856.258.088.529.17.781.271 1.651.668 3.011 1.663 3.288 3.546.29 2.022-.699 3.522-2.236 4.718-1.001.781-2.142 1.248-3.376 1.506-.34.07-.869.1-.523.693.258.447 0 .655-.353.762-.39.113-.882.044-.907-.41-.05-.925-.655-.856-1.291-.95-4.983-.719-8.359-3.528-10.368-8.082-.133-.303-.403-.674.012-.92.441-.258.567.233.781.466 1.745 1.865 3.289 3.937 5.594 5.21 1.083.598 2.28.8 3.446 1.108.535.139.68-.151.522-.649a522 522 0 0 1-1.675-5.341c-.214-.693-.687-1.002-1.342-1.298-1.89-.844-3.603-1.915-4.088-4.182-.233-1.084.221-1.884.882-2.627.561-.624 1.241-1.102 1.946-1.543.58-.366 1.172-.719 1.266-1.518.032-.259.183-.593.517-.567.441.031.283.403.252.648-.088.605.277.63.731.712 2.803.517 4.925 1.934 5.984 4.68.138.36.459.788.075 1.134-.359.322-.819.076-1.178-.082-.749-.327-1.234-.995-1.751-1.593-.674-.775-1.449-1.374-2.419-1.726-1.033-.378-1.159-.296-1.07 1.153zm8.365 9.166c.026-.782-.585-1.48-1.656-1.947-1.348-.586-2.81-.655-4.221-.97-.73-.164-.774.082-.579.668.472 1.436.926 2.885 1.392 4.327.491 1.512.624 1.581 2.091 1.046a5 5 0 0 0 .756-.34c1.096-.656 2.016-1.45 2.224-2.778zm-9.562-5.94c-.119-.92-.17-1.745-.346-2.552-.139-.648.22-1.7-.46-1.877-.825-.214-1.417.7-1.99 1.292-.07.075-.133.157-.202.239-.113.145-.195.309-.038.46.888.882 1.449 2.154 3.03 2.431z"/><path fill="#000" d="M181.772 249.137c-.189-.107-.372-.213-.561-.319-.757-.57-1.634-.855-2.562-1.023-.332-.062-.774-.039-.67-.587.55-.062 1.134.005 1.61-.369 1.553-.202 2.756-.928 3.495-2.293.631-1.151 1.416-2.202 2.121-3.298.59-.923 1.243-1.823 1.57-2.891l.086-.218c.435-.134.722-.028.693.464-.034.548.241.9.671 1.186.04.044.086.089.126.134 1.822 2.275 3.661 4.545 5.455 6.843.493.632.94 1.157 1.868.934.281-.067.648.011.894.397-.63.229-1.301.391-1.553 1.084a15 15 0 0 1-.384-.139c-.372-.425-.659-.051-.888.139-1.117.912-1.92 2.03-2.166 3.467-.235.43-.39.877-.39 1.369-.166.095-.166.235-.12.392l-.092.391c-.229 1.499-.596 2.991-.24 4.523l.022.554c-.464.022-.722-.168-.842-.632a3.3 3.3 0 0 0-.453-.967c-1.776-2.779-3.753-5.423-5.982-7.878-.487-.537-1.026-1.006-1.725-1.258zm5.255-8.828c-1.513 2.784-1.536 6.429-5.324 7.726 3.513 1.728 5.668 4.512 7.794 7.509.183-.9.315-1.655.487-2.399.378-1.649.951-3.287 2.378-4.288.946-.665.865-1.017.132-1.621-.023-.023-.04-.051-.063-.079a8058 8058 0 0 1-5.404-6.848"/><path fill="#FBB95E" d="M187.027 240.309c-1.513 2.784-1.536 6.429-5.324 7.726 3.513 1.728 5.668 4.512 7.794 7.509.183-.9.315-1.655.487-2.399.378-1.649.951-3.287 2.378-4.288.946-.665.865-1.017.132-1.621-.023-.023-.04-.051-.063-.079a8058 8058 0 0 1-5.404-6.848"/></g><defs><clipPath id="a"><path fill="#fff" d="M0 0h392v323.46H0z"/></clipPath><clipPath id="b"><path fill="#fff" d="M202.369 277.403v-29.61h40.909v29.61z"/></clipPath></defs></svg>