<svg xmlns="http://www.w3.org/2000/svg" width="424" height="214" fill="none"><g clip-path="url(#a)"><path fill="#000" d="M366.822 140.187c.652-2.889 1.189-5.795 1.383-8.766.326-4.881-.051-9.71-.926-14.504-1.257-6.926-3.373-13.572-6.454-19.886-2.321-4.765-5.322-9.08-8.443-13.321-3.413-4.643-7.072-9.093-10.045-14.062-3.424-5.72-5.728-11.894-7.38-18.36-1.138-4.444-1.864-8.97-2.692-13.478-.195-1.066-.635-.944-1.31-.71-3.367 1.176-6.517.354-9.472-1.294-2.035-1.136-2.83-3.314-3.602-5.405-1.114-3.018-1.515-6.175-1.08-9.35.463-3.407 1.589-6.628 4.145-9.069 1.206-1.153 2.789-1.578 4.407-1.817.549-.082.978.221 1.315.553.903.886 1.944 1.631 2.635 2.732.138.216.269.519.595.425.349-.093.274-.437.263-.681-.097-1.654-.257-3.315-1.258-4.707-1.366-1.899-3.35-2.137-5.442-1.934-4.076.39-7.289 2.464-9.964 5.488-3.322 3.756-5.38 8.183-6.432 13.1-1.446 6.75-1.234 13.484.458 20.142.983 3.862 3.293 6.856 6.877 8.481 2.635 1.194 5.465 2.039 8.461 1.69 1.252-.146 2.315-.746 3.332-1.457.246-.169.475-.385.744-.501.211-.093.48-.379.703-.076.16.222-.069.425-.172.635-1.326 2.75-4.099 3.973-7.008 3.728-3.042-.256-5.717-1.52-8.244-3.186-.131-.087-.303-.117-.457-.175l-.223-.11-.052.227c2.682 4.095 4.94 8.446 7.404 12.675-.069.547.291.943.48 1.398 1.595 3.733 2.132 7.56.863 11.504-.486 1.514-1.206 2.912-2.235 4.13-.229.273-.658.547-.503.914.154.361.651.18.994.256.383.088.784.14 1.167.24 3.63.954 6.911 2.597 9.821 5.038 1.44 1.211 2.721 2.458 3.338 4.35.583 1.795.669 3.636.852 5.47.246 2.435-.086 4.8-1.092 7.008-.343.751-.074 1.071.395 1.334 1.292.739 2.206 1.863 2.864 3.133 2.418 4.649 2.99 9.536 1.32 14.557-.811 2.434-1.966 4.712-4.373 5.988-.314.169-.103.378.029.582 2.121 3.215 2.749 6.815 2.509 10.607-.166 2.604-.806 5.062-2.658 7.013-.503.525-.703.991-.686 1.847.069 3.477-.755 6.733-3.093 9.43-.148.175-.366.315-.28.6-1.863 1.736-3.933 3.146-6.311 4.048-.617.233-1.263.402-1.881.641-.251.093-.709.088-.646.472.074.443.498.192.743.163q3.106-.35 6.203-.751c5.316-.693 10.559-1.8 15.606-3.6 8.387-3 16.379-6.815 22.982-13.1.6-.571 1.383-1.049 1.526-1.998l-.04-.006c.091.111.189.111.28 0 .154-.215.297-.437.463-.641.269-.332.143-1.095.8-.961.549.117.984.571 1.212 1.113.12.291.115.664.092.996-.143 1.8-.818 3.372-1.95 4.759-.337.413-.829.722-1.057 1.287 2.87.361 5.579 1.113 8.283 1.858a741 741 0 0 1 12.303 3.501 866 866 0 0 1 13.742 4.176c3.619 1.136 7.221 2.336 10.816 3.536 1.487.495 2.979.996 4.316 1.858-.051.117-.108.233-.16.35-.806.454-1.6.227-2.401-.035-6.311-2.062-12.588-4.241-18.979-6.035-2.024-.571-4.013-1.27-6.025-1.887-7.066-2.167-14.235-3.926-21.404-5.708-1.812-.449-3.361.297-4.207 2.062.937.064 1.806.396 2.687.669 4.104 1.276 8.203 2.569 12.302 3.851 3.247 1.013 6.494 2.015 9.736 3.046a816 816 0 0 1 9.444 3.058c2.789.92 5.573 1.887 8.357 2.819 2.693.903 5.288 2.086 8.049 2.779.789.198.818.466.612 1.176-.24.845-.995 1.556-.709 2.552-1.652 2.545-1.623 2.458-4.453 1.497-6.58-2.243-13.131-4.579-19.757-6.676-6.66-2.108-13.291-4.287-19.934-6.448-3.396-1.106-6.837-2.103-10.153-3.407-1.286-.507-2.138-.356-3.218.285-4.071 2.412-8.387 4.258-12.869 5.726-10.564 3.46-21.351 4.782-32.402 3.576-3.452-.378-6.86-1.089-10.038-2.603-.743-.356-1.435-.391-2.212-.379-2.562.041-5.128-.227-7.495-1.165-1.955-.775-3.819-1.945-5.237-3.611-2.555-2.988-4.51-6.349-4.773-10.357-.103-1.532-.783-2.103-1.812-2.825-3.053-2.143-4.568-5.231-4.865-8.929-.263-3.309.097-6.524 1.864-9.425.2-.332.068-.484-.218-.623-4.716-2.284-5.733-9.326-4.624-13.939.566-2.348 1.274-4.666 2.898-6.542.223-.256.166-.413.023-.693-3.31-6.378-3.127-12.867-.2-19.25 1.446-3.158 4.224-4.94 7.557-5.843 7.741-2.097 15.647-2.656 23.599-2.814 2.018-.04 4.041-.035 6.059-.052.2 0 .429.04.509-.198.577-1.724 1.784-3.058 2.693-4.578 1.572-2.633 1.309-5.284.154-7.928-.806-1.835-1.881-3.53-2.864-5.266-3.573-6.314-7.592-12.453-9.518-19.571-2.115-7.823-2.499-15.762-.583-23.72 1.732-7.175 5.213-13.274 10.884-17.957 3.236-2.674 6.934-4.305 11.153-4.48 4.802-.198 9.782 2.179 11.657 7.206.611 1.637.68 3.36.766 5.068a251 251 0 0 0 2.412 24.662c.783 5.26 1.978 10.42 3.333 15.552 2.298 8.697 6.849 16.118 12.256 23.108 4.099 5.294 7.941 10.781 10.999 16.787 2.258 4.438 3.791 9.139 5.042 13.95.206.798.349 1.241 1.418.996 5.454-1.252 10.993-2.056 16.533-2.848 8.358-1.188 16.715-2.365 25.113-3.25 1.384-.146 2.778-.128 4.168-.082.943.035 1.429.554 1.377 1.468a40 40 0 0 1-.406 3.716c-.148.979-.697 1.439-1.76 1.515-10.902.804-21.741 2.202-32.557 3.792a963 963 0 0 1-12.388 1.718c-.406.053-.486.076-.446.583.229 2.994.229 5.993-.108 8.987-.338 3.012-.721 6.023-1.389 8.976-.612 2.686-1.298 5.348-2.321 7.911-.149-.041-.292-.088-.441-.128zm-81.709 13.101c.429 1.992 1.424 3.71 2.447 5.434 1.961 3.285 4.768 5.039 8.535 5.464 4.013.454 7.998.175 11.977-.227 3.67-.373 7.351-.734 10.896-1.975 3.733-1.31 6.562-3.407 7.283-7.648.143-.111.4-.175.251-.437-.108-.18-.263-.157-.491-.105-1.315.297-2.556.816-3.945.944-3.218.303-6.431.559-9.667.501-4.676-.082-9.33-.454-13.966-.996-4.299-.501-8.62-.92-12.805-2.132-.966-.28-.846.105-.703.716.034.158.126.303.194.455zm1.613-3.926 1.149.297c.12.169.268.192.445.099.183.029.366.064.549.093.44.21.881.46 1.389.239q.498.088.995.169c.195.18.412.204.646.087.183.023.366.052.549.076.309.297.674.227 1.035.151l.949.076c.331.204.686.221 1.046.093.383.035.76.07 1.143.111.395.239.812.221 1.241.116.646.041 1.292.088 1.938.128.274.175.56.164.851.047l2.333.122c.937.257 1.886.204 2.835.094q2.932.001 5.866.011c.748.099 1.497.134 2.229-.11q1.27-.063 2.533-.117c.423.151.834.093 1.246-.064.514-.047 1.029-.087 1.538-.134a.87.87 0 0 0 .846-.093c.245-.035.497-.076.743-.111a.6.6 0 0 0 .646-.093l.549-.087c4.619-.012 8.609-3.554 7.969-9.076-.246-2.12-.801-4.159-1.195-6.238-.183-.961-.48-.996-1.235-.728-1.532.542-3.116.944-4.728 1.118-5.894.653-11.799.944-17.727.664-6.111-.285-12.217-.687-18.299-1.351-1.103-.122-2.213-.437-3.344-.175-1.029-.39-2.127-.477-3.196-.658-.434-.07-.88.023-.903.647-.08 2.12-.349 4.223-.206 6.354.166 2.441.732 4.649 2.801 6.169 1.058.781 2.27 1.217 3.476 1.666.406.239.829.408 1.303.396zm38.57-56.659c-.869-.629-1.847-1.002-2.853-1.316-2.612-.816-5.305-1.171-8.02-1.224-10.273-.21-20.506.251-30.602 2.418-1.972.425-3.898.95-4.722 3.157-.4 1.072-.754 2.155-.948 3.285-.504 2.883-.458 5.767-.04 8.662.108.734.188 1.421.72 2.033.52.6 1.052.273 1.606.303 5.391.297 10.788.128 16.178.151 6.22.035 12.446-.029 18.665-.047 3.144.088 6.289.094 9.393-.407.754-.123 1.795 0 2.252-.74.863-1.381 1.641-2.854 2.092-4.433.807-2.807.458-5.65-.36-8.376-.491-1.631-1.749-2.796-3.355-3.466zm6.237 23.672c-.606-2.318-2.235-4.007-3.493-5.929-.103-.158-.24-.303-.395-.175-1.171.967-2.692.798-3.995 1.316-1.075.169-2.15.309-3.19.641-3.436.501-6.866 1.025-10.33 1.305-4.785.384-9.564.827-14.361 1.06-4.859.233-9.718.682-14.589.326-.949-.07-1.978.146-2.818-.355-.886-.524-1.109-.064-1.269.641-.743 3.343-1.155 6.704-.383 10.112.709 3.139 2.098 4.345 5.202 4.759 3.03.407 6.077.413 9.118.547 7.483.332 14.961.309 22.444.076.354.128.703.14 1.046-.047l2.332-.169c.286.128.572.14.846-.035l1.344-.122c.229.087.446.087.64-.087l1.144-.123c.234.105.451.093.64-.093l.949-.105c.228.093.446.099.64-.087.126-.018.252-.029.377-.047.246.105.44.012.618-.157.251-.041.497-.087.749-.128.165.081.32.07.445-.082.384-.093.772-.192 1.155-.285.235.087.423.07.52-.204l.498-.14c1.715-.163 3.133-.978 3.956-2.47 1.789-3.244 1.515-6.605.16-9.948zm-4.716-103.257c-.08-.757-.298-1.503-1.104-1.456-.6.035-1.446.099-1.64.932-.132.57 1.217 1.666 1.898 1.625.714-.047.788-.588.84-1.1zM104.73 26.894c.514-4.416.543-8.813-.223-13.211-.686-3.92-3.973-6.588-7.506-7.153-7.26-1.165-12.857 1.77-17.219 7.502-2.898 3.816-4.808 8.167-6.414 12.675-1.858 5.22-3.03 10.607-3.784 16.088-.6 4.352-1.035 8.726-1.55 13.089a32 32 0 0 1-.314 2.097c-.052.28-.074.676-.475.664a.78.78 0 0 1-.737-.57 4.5 4.5 0 0 1-.206-.98c-.572-8.422-.972-16.857.372-25.239 1.246-7.793 3.647-15.167 8.46-21.5 3.602-4.735 7.964-8.515 13.88-9.785 6.26-1.345 12.126-.413 17.11 4.008 2.796 2.481 4.128 5.795 4.642 9.46 1.109 7.944.303 15.814-1.006 23.654-.8 4.794-2.006 9.489-3.418 14.12-1.304 4.275-2.596 8.55-3.236 12.989-.715 4.951-.715 9.885.572 14.76.171.647.337 1.334.68 1.887.526.862 1.189.047 1.744-.064 7.123-1.363 14.308-1.934 21.546-1.567 4.121.21 8.237.647 12.113 2.313 4.494 1.934 7.444 5.295 8.684 10.077 1.343 5.184 1.498 10.467.492 15.733-.418 2.184-1.229 4.252-2.659 5.999-.177.216-.365.35-.091.746 2.281 3.268 3.047 7.019 3.196 10.933.137 3.612-1.412 6.582-3.579 9.273-.537.664-.663 1.16-.286 2.033 1.566 3.658 1.944 7.526.949 11.37-.926 3.559-3.247 6.169-6.385 7.963-.704.402-.761.88-.841 1.59-.383 3.326-1.509 6.384-3.304 9.198-2.372 3.733-5.591 6.477-9.535 8.288-4.414 2.027-9.136 2.657-13.921 2.86-5.819.245-11.576-.279-17.224-1.788-.606-.163-1.098.099-1.64.146-8.433.676-16.86 1.042-25.285-.076-4.214-.559-8.312-1.555-12.148-3.472-.275-.139-.515-.081-.76.024a70 70 0 0 1-6.37 2.516c-3.538 1.188-7.11 2.295-10.644 3.501-3.355 1.142-6.774 2.068-10.118 3.268-2.178.78-4.43 1.345-6.637 2.032-2.298.717-4.59 1.463-6.883 2.196-.343.111-.675.332-1.012 0 .069-.326-.091-.576-.217-.856-.6-1.31-1.2-2.627-1.76-3.955-.16-.373-.395-.839.29-1.031.893-.25 1.767-.571 2.665-.81a397 397 0 0 0 15.075-4.386 388 388 0 0 0 11.793-3.856c2.372-.821 4.74-1.683 7.112-2.51.251-.088 1.126.087.857-.577-.194-.489-.76-.938-1.452-.845-.194.024-.389.088-.577.14-1.344.356-2.681.74-4.03 1.066-5.826 1.41-11.645 2.825-17.482 4.183-4.74 1.1-9.507 2.091-14.32 2.807-.595.087-1.115.029-1.567-.396-.337-.093-.366-.419-.497-.67.303-.419.783-.483 1.223-.606q3.438-.988 6.883-1.951c4.048-1.13 8.09-2.301 12.16-3.367 5.533-1.45 11.09-2.825 16.68-4.24-.405-.816-.811-1.666-.965-2.592-.08-.466-.32-1.014.245-1.375.566-.361 1.138-.355 1.67.052q.789.612 1.543 1.276c3.75 3.332 8.015 5.743 12.777 7.182 4.368 1.322 8.89 1.625 13.411 1.94 4.574.314 9.124-.297 13.692-.187.034 0 .068-.093.131-.198-.377-.303-.777-.588-1.057-1.013-.8-1.212-1.504-2.482-1.87-3.885-.811-3.093-1.44-6.204-.148-9.343.148-.356-.098-.408-.36-.548-2.544-1.351-4.86-3.006-6.569-5.405-2.544-3.577-2.738-7.573-1.852-11.708.44-2.062 1.12-4.049 2.858-5.394.538-.42.475-.583.086-1.049-1.492-1.794-2.218-3.92-2.127-6.256.2-5.091 1.995-9.36 6.374-12.185.595-.385.418-.728.16-1.154-.897-1.462-1.183-3.028-.851-4.729.063-.315-.04-.664-.069-1.002.806-2.983 2.258-5.621 4.088-8.062l-.023.018c.24-.053.36-.257.508-.425.423-.135.698-.17.715.471.04 1.357-.383 2.656-.4 4.002-.469 1.584-.435 3.221-.429 4.846-.286 2.15.749 3.85 1.744 5.61.668 1.176 1.72 1.095 2.767 1.374 3.893 1.037 7.877 1.427 11.862 1.631 6.145.309 12.302.402 18.465.163 5.773-.221 11.45-1.002 17.041-2.469.206-.053.32-.14.423-.35.252-.507.554-.99.857-1.468 1.418-2.248 2.121-4.718 2.219-7.374.022-.122.04-.239.062-.361.172-.123.189-.28.098-.455.343-3.5-.08-6.931-.944-10.315-.337-1.328-.703-2.668-1.532-3.798-1.435-1.969-3.498-2.773-5.739-3.297-2.693-.623-5.443-.769-8.181-.897-6.357-.297-12.702-.216-19.002.792-2.081.332-4.19.553-6.226 1.153-1.989.327-3.99.612-5.968 1.002-.857.17-1.789.064-2.567.606-1.926.163-3.641.973-5.333 1.852-1.595.828-3.047 1.888-4.505 2.942-.246.175-.48.646-.806.32-.309-.308.097-.611.275-.862 2.218-3.11 5.179-5.306 8.466-7.095.143-.075.257-.192.389-.29 2.423-1.067 4.83-2.173 7.397-2.86.366-.1.503-.216.269-.618-1.973-3.413-2.83-7.147-2.985-11.073-.234-5.866.92-11.522 2.424-17.125.886-3.309 2.007-6.553 2.887-9.862 1.029-3.867 1.778-7.81 2.31-11.784.269-2.026.566-4.065.48-6.121zm29.926 94.316c-1.92.239-3.841.477-5.773.617-7.072.507-14.121.484-21.175-.233-2.092-.215-4.185-.6-6.305-.46-.572-.291-1.207-.309-1.818-.425-2.784-.513-5.551-1.089-8.107-2.417-1.486-.775-2.612-1.998-3.927-3.239-.103.652-.337 1.107-.589 1.567-.955 1.753-2.132 3.384-2.875 5.265-.515.362-.372.979-.486 1.468-1.046 4.433.617 6.874 4.242 8.406 3.075 1.299 6.425 1.77 9.73 2.231a272 272 0 0 0 22.906 2.19c6.18.332 12.217-.472 18.145-2.167.509-.146 1.235-.07 1.515-.554.846-1.479 2.035-2.749 2.681-4.345.852-2.114 1.206-4.304.726-6.582-.097-1.485-.743-2.848-.961-4.31-.091-.612-.405-.327-.691-.129-2.201 1.538-4.637 2.523-7.232 3.123zm-19.448 34.5c4.259-.052 8.369-.134 12.4-1.013 3.218-.705 6.448-1.404 9.301-3.215 1.943-1.235 3.43-2.831 3.996-5.179.709-2.953.32-5.982.646-8.964.063-.554-.332-.536-.635-.256-.526.483-1.155.774-1.772 1.1-5.019 2.639-10.427 3.49-15.978 3.356-10.582-.257-21.015-1.946-31.43-3.682-2.607-.437-5.225-.914-7.615-2.137-.806-.414-1.166-.14-1.44.535-.384.938-.584 1.928-.784 2.919-.966 4.805 1.086 9.407 5.271 11.743 1.452.809 3.03 1.328 4.625 1.77 7.717 2.126 15.601 2.907 23.415 3.029zm-6.111 16.549c2.676-.07 5.42-.128 8.146-.524 2.864-.414 5.683-.944 8.255-2.377 2.63-1.462 4.471-3.693 5.991-6.273.881-1.491 1.441-3.105 1.944-4.742.109-.349.2-.908-.103-1.147-.349-.28-.703.134-1.052.314-2.132 1.125-4.384 1.882-6.745 2.324-9.616 1.806-19.18 1.113-28.721-.634-1.92-.35-3.819-.816-5.654-1.509-.657-.245-1.154-.344-.92.734.217.978.217 2.004.354 3.005.64 4.724 4.19 8.761 9.004 9.926 3.11.757 6.266.868 9.501.903M237.379 174.128c-.354-.011-.657.152-.966.291-.229-.04-.446-.029-.623.152-.257.076-.52.157-.778.233-.222-.041-.44-.035-.611.14-.452.093-.909.192-1.361.285-.171-.058-.314-.006-.423.14-.188.023-.383.041-.571.064-.172-.058-.309 0-.424.134l-.56.099c-.171-.076-.314-.029-.434.099-7.466 1.281-14.984 1.876-22.558 1.608-4.202-.146-8.415-.28-12.508-1.393-3.127-.85-5.831-2.283-6.98-5.679-.103-.303-.366-.512-.692-.483-1.858.145-3.156-1.02-4.465-2.056-1.681-1.328-3.104-2.93-4.276-4.753-1.543-2.406-1.583-4.847-.206-7.346.738-1.328 1.63-2.539 2.624-3.675.355-.408.458-.6-.2-.763-1.315-.326-2.555-.891-3.779-1.48-1.131-.553-1.452-1.147-1.246-2.411.177-1.101.715-2.062 1.172-3.064.921-2.027 1.321-4.258 2.275-6.279.166-.35.012-.548-.285-.734-1.007-.641-1.978-1.328-2.99-1.963-2.458-1.532-4.213-5.901-3.676-9.005.6-3.478 2.727-5.988 5.002-8.412.64-.681 1.338-1.31 2.041-1.922.446-.39.903-.85 1.658-.506-.046-.298-.029-.484-.103-.618-2.081-3.646-1.195-7.141.577-10.555 2.024-3.902 5.088-6.867 8.489-9.494 4.019-3.099 8.433-5.563 12.743-8.196 1.098-.67 2.024-1.45 2.778-2.58 1.79-2.668 3.739-5.225 5.665-7.8.486-.646.498-1.59 1.292-2.027.12-.064.178-.256.109-.448-1.286-3.611-.835-7.403-1.08-11.12-.361-5.382-.04-10.723 1.297-15.972a32 32 0 0 1 1.778-5.131c2.355-5.318 5.923-9.594 11.136-12.046 2.887-1.357 6.157-1.724 9.301-.606 2.99 1.06 4.859 3.396 6.083 6.291 1.681 3.973 2.264 8.213 2.875 12.448.966 6.727 1.527 13.478.926 20.276-.44 5.027-2.012 9.664-4.727 13.91-1.235 1.934-2.539 3.803-4.116 5.65 2.018 0 3.916.14 5.796.454 4.054.67 8.049 1.585 11.668 3.676 6.203 3.582 9.032 10.153 7.523 17.276-.52 2.453-1.326 4.742-2.904 6.711a4.3 4.3 0 0 1-1.012.92c1.755 1.829 2.71 4.06 3.15 6.5.681 3.81.555 7.52-1.749 10.846-1.018 1.468-2.372 2.569-3.842 3.519-.423.273-.497.39-.217.902.68 1.27.743 2.721.783 4.13.097 3.28-.228 6.472-2.304 9.192-.634.833-1.434 1.491-2.258 2.114-.223.169-.548.257-.417.688 1.126 3.663.555 7.193-.989 10.578-1.835 4.019-5.105 6.436-9.078 7.956-.966.367-1.852.961-2.898 1.107-.16-.041-.309-.035-.423.117zm18.139-49.517c.126-.181.126-.338-.074-.46-.132-1.381-.526-2.674-1.275-3.845-.537-.832-1.178-1.374-2.275-1.019-.618.198-1.286.221-1.932.326-.126-.029-.258-.093-.378-.081-3.212.373-6.425.792-9.667.862-1.532-.122-3.052-.239-4.584-.478-5.694-.874-11.354-1.916-16.962-3.256-2.286-.547-4.556-1.165-6.78-1.951-.251-.088-.64-.152-.589-.431.075-.443.481-.192.744-.175.691.047 1.389.087 2.075.181 5.116.733 10.244 1.328 15.4 1.665 6.883.449 13.761.653 20.649.263 1.549-.088 2.778-.752 3.722-2.016 2.452-3.268 3.292-6.926 2.572-10.956-.537-2.989-2.241-5.115-4.79-6.6-1.938-1.13-4.031-1.84-6.209-2.29-4.001-.826-8.06-1.082-12.136-1.199-9.341-.268-18.671-.233-27.932 1.31-2.046.344-4.139.636-6.002 1.602-2.779 1.44-5.34 3.257-7.666 5.371-2.836 2.575-5.391 5.388-6.426 9.273-.234.111-.269.297-.194.524-.012.379-.029.752-.04 1.13-.12.42-.04.775.303 1.049-.115 1.363-.252 2.72-.338 4.083-.051.885-.36 1.59-.977 2.231-1.567 1.637-3.31 3.134-4.379 5.19-1.538 2.941-1.749 3.425.823 5.761.143.128.234.32.377.448.549.484 1.201.845 1.887.99.463.099.537-.617.926-.815.086-.047.149-.134.234-.186.446-.286.926-.367 1.418-.146.543.245.343.74.32 1.153-.017.402-.04.816-.137 1.2-1.086 4.398-1.595 8.924-2.91 13.263-.16.519-.068.746.52.729.658-.024 1.321.017 1.978.075 1.687.158 2.733 1.555 2.447 3.251-.068.396-.171.78-.257 1.176-.921 2.219-2.247 4.212-3.447 6.274-.189.326-.057.629.108.949a55.6 55.6 0 0 0 4.728 7.456c1.046 1.398 2.287 2.679 4.03 3.157a50 50 0 0 0 9.679 1.654c7.351.507 14.691.344 22.009-.611 4.527-.589 9.072-1.165 13.445-2.581 2.218-.722 4.345-1.613 5.877-3.553 1.824-2.313 2.624-4.94 2.584-7.887-.011-.786-.206-.99-.989-.792-4.11 1.013-8.306 1.246-12.519 1.299-3.939.052-7.884.064-11.817-.204-4.888-.326-9.787-.536-14.617-1.41-1.652-.297-3.276-.774-4.911-1.17-1.686-.647-3.327-1.416-5.065-1.917-.349-.099-.755-.215-.669-.705.08-.471.532-.337.812-.349.852-.035 1.704.012 2.555.029 1.732.262 3.482.384 5.231.524 9.221.757 18.454 1.055 27.692.554 4.493-.245 8.998-.49 13.354-1.829 2.098-.647 3.904-1.672 4.619-3.996.743-2.423.486-4.876.206-7.322-.069-.618-.509-.594-.978-.489-2.001.448-4.053.541-6.082.792-2.979.373-6.003.402-9.01.542-1.486.069-2.973.058-4.459.087a71 71 0 0 0-1.132-.134c-.126-.146-.257-.163-.394-.029-6.895-.536-13.686-1.829-20.5-2.924-2.613-.42-5.105-1.363-7.735-1.695-.16-.018-.331-.064-.36-.274-.034-.233.086-.385.263-.495.543-.35 1.149-.28 1.738-.257 3.698.169 7.397.356 11.09.536.235.262.56.175.841.187 7.403.303 14.8.652 22.209.454 4.67-.128 9.307-.524 13.823-1.846 1.269-.373 2.566-.717 3.555-1.672 1.973-1.911 3.299-4.107 2.813-7.042-.017-.169-.04-.338-.057-.501zm-38.45-46.046-.012-.034c-.303.157-.451.448-.634.722-1.029 1.526-2.007 3.087-3.116 4.55-2.052 2.708-4.144 5.399-7.106 7.181a3.8 3.8 0 0 0-1.663 1.136c.897.035 1.583-.192 2.235-.548.12-.029.24-.064.366-.093.171.041.326.035.429-.14 3.956-1.223 7.997-2.08 12.073-2.778.292.093.583.14.846-.082 1.075-.099 2.116-.355 3.15-.646 1.138.046 2.293.186 3.293-.571.806.035 1.612-.373 2.43 0 .268.122.383-.134.526-.332 1.32-1.812 2.652-3.611 3.978-5.423 2.859-3.908 4.74-8.219 5.334-13.094.72-5.907.36-11.79-.349-17.655-.508-4.247-1.074-8.493-2.441-12.565-1.286-3.826-3.184-4.875-6.757-3.792-.286.088-.56.204-.829.332-4.007 1.876-6.562 5.109-8.243 9.157-1.115 2.132-1.601 4.474-2.018 6.815-1.086 6.134-.88 12.337-.812 18.53.029 2.306.578 4.496 2.658 5.882.909.606 1.87 1.136 2.813 1.684.314.186.657.308 1.035.186.663.315 1.309.151 1.886-.192.766-.449 1.492-.973 2.224-1.48.263-.18.486-.594.823-.367.389.262.132.693 0 1.008-.423 1.06-1.332 1.712-2.121 2.458-2.132.92-4.241 1.014-6.254-.291-.806-.519-1.52-1.183-2.269-1.788-.24-.193-.498-.437-.789-.31-.315.135-.417.467-.417.828 0 .5-.012 1.008-.269 1.462-.017.03-.046.058-.046.087.006.059.034.117.052.17z"/><path fill="#000" d="M79.182 45.598c-.966 4.718-2.07 9.407-2.916 14.142-1.543 8.592-5.099 16.205-10.25 23.13-3.521 4.73-6.974 9.507-10.027 14.575a101 101 0 0 0-9.186 19.857c-2.07 6.133-3.682 12.372-4.185 18.866-.132 1.678-.137 3.367-.206 5.05-.017.356.063.734-.291 1.241-.269-1.707-.526-3.256-.755-4.805-.377-2.581-.126-5.19-.343-7.782.217-1.002.04-2.016.131-3.018.07-.739-.245-.827-.766-.495-1.08.688-2.315.921-3.51 1.223a908 908 0 0 1-15.698 3.781c-4.864 1.13-9.724 2.271-14.628 3.203-1.012.193-2.081.263-3.025.775-.703-.14-1.029-.623-.949-1.299.086-.74.784-.641 1.258-.716 4.51-.717 9.027-1.404 13.48-2.447 5.774-1.351 11.57-2.598 17.356-3.885q2.856-.64 5.728-1.217c.394-.082.697-.163.72-.647.035-.809.086-1.619.137-2.423.035-.548-.28-.489-.646-.431-3.11.478-6.22.932-9.323 1.427-6.769 1.083-13.538 2.161-20.295 3.291-2.4.402-4.807.775-7.157 1.462-1.269.367-1.63.088-1.612-1.252.011-1.206-.08-2.406.229-3.617.337-1.323 1.143-1.829 2.355-2.08 11.165-2.307 22.466-3.705 33.723-5.434 1.234-.187 2.458-.49 3.727-.356.491.053.469-.384.554-.687.83-2.726 1.635-5.464 2.653-8.126a108 108 0 0 1 6.117-13.292c2.326-4.264 5.236-8.12 8.02-12.063 1.807-2.563 3.768-5.027 5.305-7.788 2.681-4.806 4.31-9.96 5.323-15.378 1.04-5.563 2.223-11.096 3.698-16.56 1.532-5.673 3.316-11.26 5.42-16.74 1.698-4.428 3.733-8.68 6.345-12.629.926-1.398 2.041-2.65 3.401-3.64.984-.717 2.242-.874 2.242.337M407.308 190.036c-1.698 0-3.276-.635-4.756-1.276-6.032-2.592-11.983-5.37-17.991-8.026-5.213-2.307-10.347-4.777-15.303-7.614-.086-.052-.172-.099-.258-.151-.245-.14-.491-.326-.343-.629.149-.291.412-.082.612 0 1.909.746 3.813 1.509 5.728 2.243 4.196 1.601 8.392 3.215 12.605 4.782 4.74 1.759 9.433 3.634 14.132 5.481 2.15.845 4.242 1.87 6.563 2.184.594.082 1.246.134 1.28.973.029.845-.28 1.532-1.097 1.841-.366.134-.778.134-1.166.192zM46.905 157.807c.092 1.282-1.04 1.427-1.755 1.678-5.745 2.01-11.576 3.722-17.43 5.359-5.065 1.415-10.118 2.889-15.19 4.287-1.686.466-3.383.897-5.144.984-.189-.681.383-.699.743-.827 2.338-.809 4.7-1.573 7.032-2.394 1.554-.547 3.086-1.171 4.63-1.759.703-.041 1.332-.355 1.972-.594 5.997-2.272 11.988-4.538 17.968-6.856 1.372-.53 2.824-.862 4.116-1.608.92-.763 1.452-.559 2.23.647.245.384.445.804.834 1.078zM325.433 181.923c-6.505.04-12.056-.554-17.476-2.091a19.2 19.2 0 0 1-6.088-2.954c-.194-.145-.543-.268-.389-.6.115-.25.412-.145.629-.116 1.555.18 3.001.786 4.493 1.223 6.626 1.934 13.377 2.476 20.243 2.12 4.488-.227 8.861-1.054 13.171-2.26.778-.215 1.555-.32 2.356-.268.497.035.943.169 1.046.734.108.577-.44.635-.755.775-3.481 1.538-7.1 2.563-10.879 2.982-2.401.268-4.807.49-6.351.46zM418.478 162.63c-1.298.257-2.453-.355-3.619-.704-2.761-.828-5.579-1.404-8.335-2.226-3.578-1.066-7.168-2.085-10.753-3.122-.732-.209-1.475-.378-2.189-.64-.395-.146-.915-.263-.778-.95.126-.617.372-1.089 1.058-1.112 2.149-.082 4.276-.129 6.374.582 5.545 1.87 11.216 3.297 16.893 4.683.16.041.32.076.48.093 1.36.164 1.526 1.049 1.275 2.185l-.412 1.206zM387.11 43.978c-.074.454-.486.716-.852.978-2.584 1.818-5.168 3.635-7.786 5.4-1.772 1.194-3.693 2.19-5.385 3.489-2.058 1.573-4.305 2.854-6.466 4.229-2.858 1.817-5.659 3.786-8.746 5.225-.36.169-.64.227-.869-.064-.286-.367.051-.589.286-.822 2.55-2.498 5.482-4.49 8.38-6.518 6.306-4.41 12.943-8.27 19.626-12.057.411-.233.84-.39 1.303-.454.406-.059.538.151.52.6zM388.448 190.776c-.634.151-1.029-.367-1.515-.6-4.882-2.307-9.746-4.66-14.634-6.949-3.836-1.8-7.844-3.286-11.519-5.377-3.539-2.015-7.432-2.889-11.091-4.45-1.326-.565-2.698-1.008-4.036-1.543-.468-.193-.897-.536-.709-1.142.166-.553.641-.6 1.138-.559 1.406.116 2.681.699 3.99 1.159 2.71.961 5.385 2.015 7.987 3.262.794.378 1.474.938 1.549 1.916.034.408.326.361.531.478 1.933 1.147 4.094 1.701 6.174 2.452 5.534 1.998 11.102 3.909 16.23 6.891 2.115 1.229 4.07 2.708 5.985 4.235a3 3 0 0 1-.074.227zM413.213 91.788c.457.047.938.023 1.372.151.452.129.88.449.863.985-.017.553-.554.507-.92.547-2.338.268-4.625.822-6.917 1.34-5.557 1.27-10.999 2.948-16.441 4.62-2.373.727-4.751 1.456-7.123 2.178a3 3 0 0 1-.486.093c-.338.041-.709.064-.841-.332-.114-.361.212-.53.458-.699 1.217-.827 2.601-1.305 3.956-1.817 6.654-2.528 13.451-4.608 20.391-6.157 1.869-.42 3.756-.787 5.688-.909"/><path fill="#000" d="M.263 58.82c2.007 1.246 4.196 2.125 6.317 3.139 4.825 2.307 9.673 4.567 14.509 6.844 3.927 1.853 7.895 3.635 11.77 5.592 1.693.856 3.533 1.351 5.151 2.36-.091.092-.131.186-.028.296-7.243-2.627-14.566-5.038-21.54-8.405-2.436-1.177-4.917-2.284-7.284-3.56-2.72-1.467-5.505-2.929-7.854-5.038-.39-.35-.864-.6-1.298-.89.086-.111.171-.222.263-.333zM34.688 36.808c.606-.018 1.08.326 1.527.652 6.328 4.66 12.84 9.075 18.539 14.562.36.344.692.722 1.035 1.084.177.192.588.343.308.67-.223.261-.531.337-.96.157-1.292-.548-2.27-1.532-3.373-2.348-2.744-2.027-5.43-4.147-8.278-6.011-2.938-1.922-5.568-4.211-8.26-6.442-.406-.338-.755-.752-1.12-1.142-.224-.233-.327-.513-.184-.833.155-.332.458-.344.766-.355zM285.959 187.282c-.017.221 0 .408-.211.454-.177.041-.297-.07-.429-.186-.817-.74-1.195-1.789-1.732-2.703a563 563 0 0 1-9.918-17.486 30 30 0 0 1-.687-1.34c-.114-.245-.205-.518.063-.734.24-.186.498-.175.726.023.2.175.401.356.561.565 4.784 6.414 8.706 13.31 11.41 20.9.069.186.154.367.212.507zM75.54 185.347c2.121.728 4.31 1.176 6.54 1.322a74.8 74.8 0 0 0 15.27-.53 8 8 0 0 1 1.188-.058c.269 0 .63-.117.675.361.04.407-.246.512-.532.617-1.377.501-2.795.839-4.236 1.066-4.573.728-9.164.885-13.76.227-2.144-.308-4.019-1.24-5.574-2.807.04-.297.246-.222.43-.204zM171.7 205.577c.749-5.19 1.955-10.286 2.904-15.436.543-2.941.886-5.923 1.315-8.888.034-.233.04-.472.097-.699.086-.35.115-.763.635-.746.572.018.48.46.491.804a46 46 0 0 1-.6 8.656c-.766 4.648-1.961 9.191-3.413 13.665-.28.862-.811 1.637-.789 2.592-.205.111-.411.227-.64.052M385.647 116.224c.789-.647 1.709-.752 2.595-.897 8.038-1.317 16.093-2.522 24.262-2.546 1.658 0 3.31.041 4.956.222.326.035.646.122.966.203.16.047.315.169.298.35-.017.204-.206.239-.372.262-.526.058-1.058.175-1.578.152-7.174-.321-14.274.57-21.374 1.374-3.025.344-6.06.612-9.09.909-.217.023-.446-.023-.663-.035zM76.1 163.923c-.285.886-1.171.833-1.749.886-4.396.396-8.775.157-13.137-.583-3.367-.571-6.38-2.033-9.404-3.524-.143-.07-.177-.186-.085-.326 2.76-.507 5.539-.198 8.306-.128.126 0 .28-.018.331.151.063.198-.057.315-.194.414-.486.344-1.057.367-1.618.408-.76.058-1.515.099-2.338.582 6.654 1.369 13.2 2.388 19.883 2.126zM262.458 56.151c1.372-2.184 3.087-3.932 4.637-5.801 2.869-3.466 6.099-6.56 9.518-9.454.103-.087.188-.192.297-.268.429-.303.886-.757 1.401-.239.531.536-.052.955-.338 1.276-1.909 2.15-3.767 4.357-5.853 6.331a186 186 0 0 1-8.587 7.66c-.269.221-.497.536-1.08.49zM173.101 34.349c-.052.303.028.594-.246.693-.337.116-.526-.087-.72-.361-.858-1.206-1.367-2.604-2.013-3.92-1.698-3.46-3.167-7.02-3.967-10.823-.074-.361-.16-.722-.234-1.083-.086-.42-.098-.822.394-1.002.434-.163.772-.006 1.052.332.503.612.68 1.38.897 2.114 1.127 3.752 2.71 7.334 3.939 11.05.337 1.014.618 2.05.903 3zM157.62 80.104c-2.138-1.532-4.207-3.157-6.305-4.747-2.956-2.237-6.037-4.346-8.587-7.1-.091-.1-.177-.205-.274-.292-.2-.18-.486-.408-.314-.664.194-.297.463-.012.686.105 1.92.99 3.744 2.149 5.556 3.32 2.916 1.881 5.694 3.943 7.872 6.728.549.704 1.075 1.42 1.612 2.131.063.245.16.501-.246.513zM48.85 118.303c1.251-4.427 2.823-8.726 4.944-12.797 1.6-3.064 3.31-6.064 5.225-8.941.366-.554.778-1.049 1.515-1.276-.823 1.654-1.618 3.326-2.464 4.969-2.841 5.475-5.477 11.061-8.146 16.63-.229.477-.532.92-.8 1.38-.092.012-.183.029-.275.041zM418.26 117.242c-2.189-.017-4.344.373-6.522.49-2.876.157-5.729.646-8.615.594-.721-.012-1.064-.262-.909-1.025 3.327-.74 6.728-.915 10.107-1.253 1.966-.198 3.944-.303 5.922-.419.44-.023 1.098-.344 1.229.396.115.623-.377.949-.926 1.118a4 4 0 0 0-.28.099zM202.09 71.763c-.606-1.136-.646-2.12-.886-3.04-1.217-4.736-1.435-9.495-.228-14.272.057-.227.131-.448.194-.67.143-.5.423-.914.978-.757.6.169.211.664.188 1.02-.297 4.904-.457 9.814-.2 14.73.046.886.2 1.783-.051 2.989zM140.808 195.436c1.08-1.981 2.069-4.019 3.27-5.912.874-1.381 1.64-2.814 2.458-4.223 2.006-3.431 4.253-6.693 6.557-9.926l.371.017c-3.407 6.775-7.025 13.415-11.633 19.444-.223.291-.406.611-.606.92-.246.035-.383-.076-.412-.32zM88.889 60.683c.034.588.508.425.823.472 1.67.256 3.344.413 5.23.233-.548.955-1.286 1.392-2.08 1.747-1.39.624-2.887.664-4.362.845-.8-.734-1.83-1.09-2.778-1.515-.858-.384-1.235-1.1-1.698-1.765-.36-.512-.212-.897.514-.815 1.086.117 2.161.315 3.19.664.389.134.755.215 1.155.134zM215.478 196.029c.315.099.361.292.418.49 1.406 4.782 2.355 9.663 2.932 14.62.058.466.063.944.058 1.415-.006.332-.023.699-.486.746-.429.047-.606-.239-.681-.582-.24-1.154-.411-2.325-.697-3.466-.943-3.839-1.452-7.736-1.664-11.679-.022-.402-.011-.81 0-1.212 0-.087.063-.174.115-.326zM249.613 59.776c-.046-.204-.098-.327-.098-.449.115-4.042-.766-7.962-1.395-11.912a38 38 0 0 1-.388-3.203c-.029-.414-.269-1.037.291-1.224.692-.233.835.495 1.064.915.634 1.159.926 2.452 1.154 3.733.686 3.862.212 7.718-.223 11.569-.022.192-.097.39-.411.565zM28.463 77.564c-.863-.338-1.71-.717-2.59-.996-.411-.134-.674-.396-.571-.728.097-.327.497-.356.857-.274 2.384.547 4.67 1.41 6.986 2.178 2.601.862 5.202 1.73 7.78 2.662 1.841.664 3.665 1.363 5.54 1.928-.017.07-.04.146-.057.216-.218 0-.43-.006-.646-.012-.075-.25-.235-.204-.4-.11-5.489-1.364-10.908-2.977-16.299-4.69-.16-.18-.377-.18-.594-.18zM311.267 48.748c-1.292-1.847-1.658-4.014-1.909-6.18a29.9 29.9 0 0 1 .8-11.208c.034-.128.069-.262.109-.39.085-.28.263-.548.543-.49.4.088.188.438.131.67-.88 3.618-.829 7.282-.411 10.94.245 2.184.726 4.34 1.103 6.506a10 10 0 0 1-.366.152M372.808 74.856c5.591-4.27 11.719-6.926 18.836-6.658-6.648 1.113-12.622 4.24-18.836 6.658M219.394 24.016c-.143-5.936-.24-11.866-.137-17.801.012-.7-.074-1.416.2-2.097.086-.216.086-.46.418-.449.371.018.411.274.44.548.017.169.023.338.028.507.183 6.442-.108 12.878-.32 19.315-.211.128-.423.151-.629-.023M225.557 207.26c-.697-2.598-.812-5.231-1.035-7.84-.286-3.32-.886-6.617-.886-9.967 0-.489-.274-1.298.429-1.339.657-.041.72.792.76 1.334.252 3.867.463 7.741.703 11.609a59 59 0 0 1 .086 5.865c0 .117-.034.227-.051.344zM255.558 27.423c-.286 1.415-.92 2.872-1.669 4.281-1.069 2.004-2.092 4.037-3.384 5.907-.372.535-.686 1.106-1.064 1.636-.217.303-.394.88-.868.612-.561-.32-.195-.833.022-1.23a256 256 0 0 1 2.436-4.397c1.08-1.887 2.001-3.856 2.829-5.871a4.7 4.7 0 0 1 .972-1.509c.16-.169.343-.361.601-.215.24.133.245.378.131.786zM207.596 48.364c-.201 5.429.051 10.852.291 16.27.029.605.046 1.21.069 1.817.005.198.04.436-.229.471-.234.03-.372-.151-.434-.343a7 7 0 0 1-.275-1.072c-.583-3.85-.526-7.73-.371-11.603.074-1.812.274-3.618.417-5.423q.267-.063.526-.117zM313.439 38.357c.046.862.206 1.73.12 2.575-.308 3.064.989 5.62 2.35 8.172.514.961 1.132 1.876 1.349 2.97.052.251.166.577-.149.711-.291.128-.52-.11-.646-.337-1.286-2.26-2.738-4.427-3.481-6.973-.6-2.056-.566-4.112-.171-6.18q.058-.297.177-.577c.063-.145.166-.274.257-.413.063.017.131.035.194.058zM293.105 75.676a29.7 29.7 0 0 1 4.58-2.575c2.389-1.077 4.779-2.15 7.317-2.819.314-.082.692-.268.875.14.182.413-.189.559-.481.734-1.114.658-2.292 1.176-3.475 1.689-2.464 1.078-5.002 1.934-7.552 2.755-.406.134-.806.274-1.264.076M232.629 197.848c-1.052-3.576-2.115-7.159-3.156-10.741-.114-.39-.6-.938.08-1.188.578-.21.755.378.921.821 1.189 3.215 1.909 6.559 2.687 9.891.131.553.245 1.112.371 1.671-.303-.151-.6-.302-.903-.454M264.482 180.908c2.349 3.338 3.704 7.182 5.333 10.893-.171-.029-.337-.064-.508-.093-1.464-2.406-2.676-4.952-3.853-7.509-.486-1.048-.944-2.114-1.412-3.168zM144.329 171.95c-1.166 2.237-2.424 4.351-3.899 6.32-.36.478-.766.926-1.155 1.38-.228.274-.549.327-.789.105-.228-.209.075-.39.172-.582 1.303-2.61 3.407-4.625 4.996-7.025a.7.7 0 0 1 .303-.227c.08-.035.189.012.372.029M288.847 59.32c1.492-1.182 3.184-1.887 5.053-2.184-1.349 1.514-3.39 1.584-5.036 2.475zM329.972 116.497c.989 2.586 1.412 5.219.64 7.951-.217.78-.497 1.514-1.149 2.056-.543.454-.629.163-.651-.344.571-3.949.285-7.7-2.384-10.921-.378-.46-.721-.95-1.069-1.433-.126-.175-.389-.321-.223-.6.137-.233.394-.227.617-.233.515-.018.966.163 1.378.477 1.12.845 2.121 1.812 2.841 3.047M323.832 95.295c1.144.862 1.618 2.004 1.687 3.46.108 2.283-.04 4.479-1.081 6.553-.394.792-.966 1.439-1.6 2.021-.378.35-.829.478-1.355.134-.841-.553-.858-.687-.063-1.328.532-.431 1.143-.81 1.298-1.573 1.057-1.87.886-3.926.829-5.953-.018-.693-.098-1.421-.326-2.068-.258-.728-.092-1.077.6-1.246zM324.696 137.519c1.406-.151 1.423-.157 1.772 1.27.463 1.876.612 3.798.817 5.714.063.606-.085 1.194-.366 1.736-.131.256-.24.618-.611.519-.292-.076-.315-.397-.355-.665-.04-.291.063-.605-.108-.879-.069-2.179-.618-4.281-.926-6.425.137-.297.12-.553-.183-.734-.017-.175-.029-.355-.046-.53zM124.544 95.749c-.401.012-.686.03-.704-.367-.017-.431.343-.449.606-.536 2.419-.839 4.934-1.24 7.438-1.695.554-.099 1.097-.245 1.646-.35.217-.04.498-.122.612.164.131.332-.149.477-.372.617a.9.9 0 0 1-.371.122c-2.83.373-5.511 1.404-8.295 1.952-.229.046-.458.075-.56.093M122.16 89.598a46.8 46.8 0 0 1 9.655-.938c.412 0 1.115-.186 1.109.431 0 .455-.686.361-1.103.379q-4.802.216-9.604.425-.024-.148-.057-.297M134.01 95.871c.195-.017.412-.064.532.152.12.215-.028.384-.154.53-.195.227-.406.5-.715.495-1.298-.018-2.538.373-3.807.541-.28.035-.635.088-.8-.233-.189-.372-.063-.623.371-.728a37 37 0 0 1 4.573-.763zM127.762 92.37c-.314-.093-.669.186-.726-.262-.04-.326.251-.332.474-.396 1.881-.554 3.831-.67 5.746-.985.228-.035.52.03.497.332-.023.332-.366.385-.6.426-1.824.314-3.647.6-5.391.88zM114.019 163.282c4.665.123 9.21-.734 13.743-1.724.354-.076.709-.163 1.063-.215.309-.047.732-.228.858.198.103.355-.24.588-.549.751-1.664.885-3.481 1.282-5.299 1.608-3.225.582-6.472.961-9.759.926-1.435-.012-2.824-.268-4.184-.722-.263-.088-.703-.082-.606-.496.068-.285.463-.326.76-.326h3.973M191.914 128.684c.052-1.043.303-2.057.652-3.093.634-1.876 1.389-3.658 2.652-5.179.275-.332.109-.6.017-.926-.651-2.301-1.223-4.59-.937-7.042.28-2.382.806-4.631 2.361-6.512a10 10 0 0 1 .732-.822c.417-.413.943-.833 1.492-.565.577.286.314.961.24 1.468-.275 1.864-.652 3.711-.869 5.58-.32 2.756-.343 5.517.28 8.243.143.623-.011 1.118-.406 1.567-1.824 2.038-2.435 4.607-3.053 7.176-.045.198-.04.402-.091.6-.457 1.73-.543 3.454.166 5.143.08.186.205.39.051.559-.189.204-.434.093-.646 0-.863-.378-1.48-1.007-1.801-1.91-.486-1.369-.8-2.779-.834-4.276zM196.636 137.624c.744.047.435.559.258.891-.458.851-1.024 1.643-1.458 2.511-1.069 2.132-1.532 4.432-1.732 6.797-.023.297-.12.589-.189.886-.074.314-.309.431-.589.454-.303.023-.491-.157-.606-.431-.051-.122-.114-.25-.137-.379-.497-2.656-.56-5.306.429-7.863.686-1.783 2.269-2.435 4.019-2.866zM253.826 122.736c.617 1.019.509 2.173.572 3.291-.206 1.526-.452 3.041-1.304 4.363-.509.792-1.046 1.549-1.909 1.974-.155.076-.332.263-.526.053-.217-.233.028-.35.126-.495.68-1.049 1.297-2.126 1.68-3.332.629-1.45.389-2.947.246-4.439.069-.419.086-.827-.354-1.071l-.052-.344c.509-.513 1.012-.006 1.521 0M195.419 158.984c-.434 1.759-.251 3.582-.572 5.353-.074.413.018.868-.303 1.246-1.732-2.085-1.56-4.462-.988-6.809a2.31 2.31 0 0 1 1.903-1.718c-.011.64-.028 1.281-.04 1.928M254.466 106.484c.012 1.392-.114 2.761-.532 4.089-.051.157-.091.332-.194.448-.4.472-.823 1.282-1.418.996-.428-.203.138-.926.326-1.392.881-2.149 1.092-4.333.509-6.611-.126-.489-.474-1.351.143-1.503.634-.157.72.752.823 1.27.177.885.234 1.8.337 2.697zM220.36 70.248c-.811.541-.851-.041-.914-.635-.926-8.388-.6-16.636 2.629-24.564.052-.122.086-.256.126-.384.097-.169.309-.297.217-.548.532-1.328 1.258-2.528 2.27-3.53.189-.186.406-.349.635-.477.314-.175.731-.501.994-.245.343.338-.034.734-.251 1.054-3.859 5.656-5.168 12.11-5.591 18.815-.217 3.5-.28 7.001-.12 10.508zM423.999 148.493s0 .018-.005.024q-.018-.01-.034-.03h.039zM387.11 11.061a7 7 0 0 0-.457-1.55c.263.38.389.886.457 1.55"/><path fill="#DD2935" d="M327.743 37.075c-1.876 0-3.831-.582-5.98-1.776-1.841-1.02-2.595-3.081-3.333-5.074-1.12-3.029-1.475-6.075-1.058-9.086.521-3.816 1.818-6.67 3.968-8.726 1.155-1.107 2.721-1.462 4.099-1.666.034 0 .068-.006.097-.006.229 0 .463.128.732.402.263.262.537.507.806.746.663.594 1.292 1.159 1.743 1.881l.029.053c.126.215.389.658.932.658a.9.9 0 0 0 .268-.041c.126-.035.24-.087.332-.151.92 5.737 1.12 11.428 1.303 16.507.069 1.957.138 3.827.24 5.604a1.1 1.1 0 0 0-.32-.041c-.274 0-.543.087-.84.186a9.2 9.2 0 0 1-3.036.525z"/><path fill="#000" d="M325.542 11.323c.04 0 .148.047.343.239.274.268.554.518.823.763.635.57 1.229 1.107 1.635 1.748l.029.052c.137.233.554.944 1.417.944.046 0 .097 0 .143-.006.823 5.475 1.018 10.898 1.195 15.762.063 1.724.12 3.384.206 4.974-.252.035-.492.117-.738.198a8.6 8.6 0 0 1-2.847.495c-1.777 0-3.641-.559-5.705-1.706-1.652-.915-2.338-2.785-3.07-4.765l-.011-.03c-1.075-2.906-1.418-5.859-1.018-8.771.498-3.676 1.738-6.42 3.796-8.382 1.041-.996 2.498-1.323 3.79-1.515h.017m-.005-1.165c-.057 0-.12 0-.177.012-1.618.239-3.202.664-4.408 1.817-2.555 2.44-3.682 5.656-4.145 9.07-.434 3.168-.034 6.325 1.081 9.343.772 2.096 1.566 4.275 3.601 5.405 1.996 1.113 4.076 1.852 6.254 1.852a9.6 9.6 0 0 0 3.219-.559c.251-.087.469-.157.652-.157.314 0 .531.204.657.868.017.081.029.163.046.245.097-.035.194-.076.291-.111-.537-7.24-.24-16.368-1.978-25.606-.371-.443-.606-.845-.674-1.171.12.664.171 1.351.211 2.033.017.25.086.588-.263.681a.4.4 0 0 1-.114.018c-.246 0-.366-.256-.48-.443-.692-1.1-1.732-1.846-2.636-2.732-.297-.297-.668-.565-1.137-.565M387.11 11.061a7 7 0 0 0-.457-1.55c.263.38.389.886.457 1.55"/><path fill="#fff" d="M325.713 14.262c.806-.046 1.023.7 1.103 1.457h-.005c-.052.512-.126 1.054-.841 1.1-.68.041-2.029-1.054-1.898-1.625.195-.833 1.041-.897 1.641-.932"/><path fill="#000" d="M153.69 169.327c-.205-.115-.403-.23-.607-.345-.819-.617-1.767-.925-2.771-1.107-.359-.066-.837-.042-.725-.635.595-.066 1.227.006 1.742-.399 1.679-.217 2.981-1.004 3.78-2.479.682-1.246 1.531-2.383 2.294-3.568.638-.998 1.345-1.971 1.698-3.126l.093-.236c.471-.145.781-.03.75.502-.037.592.26.973.725 1.282.044.048.093.096.137.145 1.971 2.461 3.96 4.916 5.9 7.402.533.683 1.017 1.251 2.021 1.01.304-.073.7.012.967.429-.682.248-1.407.423-1.68 1.173a18 18 0 0 1-.415-.151c-.403-.46-.713-.054-.961.151-1.209.986-2.076 2.195-2.343 3.749-.254.466-.421.95-.421 1.482-.18.103-.18.254-.13.423l-.1.424c-.248 1.62-.644 3.235-.26 4.892l.025.599c-.502.024-.781-.182-.911-.684-.093-.369-.279-.725-.49-1.046-1.921-3.005-4.06-5.866-6.471-8.521-.527-.58-1.109-1.088-1.866-1.36zm5.684-9.549c-1.637 3.012-1.661 6.954-5.758 8.357 3.799 1.869 6.13 4.881 8.429 8.122.199-.974.341-1.79.527-2.594.409-1.784 1.029-3.556 2.572-4.639 1.023-.719.936-1.1.143-1.753-.025-.025-.044-.055-.068-.085a6664 6664 0 0 1-5.845-7.408"/><path fill="#FBB95E" d="M159.374 159.778c-1.637 3.012-1.661 6.954-5.758 8.357 3.799 1.869 6.13 4.881 8.429 8.122.199-.974.341-1.79.527-2.594.409-1.784 1.029-3.556 2.572-4.639 1.023-.719.936-1.1.143-1.753-.025-.025-.044-.055-.068-.085a6664 6664 0 0 1-5.845-7.408"/><path fill="#000" d="m280.191 19.096.175-.676c.385-.95.437-1.945.352-2.962-.028-.365-.175-.82.426-.865.218.557.312 1.187.836 1.58.645 1.565 1.742 2.619 3.374 3.01 1.379.336 2.697.861 4.04 1.291 1.129.359 2.252.79 3.459.831l.252.03c.262.417.231.746-.291.854-.582.117-.873.503-1.05 1.032-.036.054-.07.115-.105.17-1.868 2.54-3.724 5.097-5.623 7.615-.522.691-.946 1.305-.452 2.213.148.274.169.68-.165 1.045-.416-.595-.773-1.25-1.568-1.32q.017-.213.039-.44c.34-.507-.132-.702-.395-.888-1.265-.913-2.658-1.438-4.228-1.293-.515-.125-1.026-.161-1.54-.024-.146-.147-.292-.107-.443-.016l-.434.014c-1.63.18-3.292.215-4.793 1.015l-.572.179c-.153-.479-.027-.802.424-1.057.333-.186.629-.457.884-.744 2.406-2.634 4.615-5.44 6.556-8.456.424-.659.764-1.353.831-2.154zm10.694 3.02c-3.332-.802-7.147.195-9.563-3.4-.821 4.154-3.127 7.184-5.663 10.244.992-.06 1.817-.134 2.642-.162 1.829-.067 3.701.074 5.146 1.284.96.802 1.306.62 1.731-.316.017-.03.042-.056.064-.088 1.847-2.477 3.689-4.948 5.643-7.563"/><path fill="#FBB95E" d="M290.885 22.115c-3.332-.801-7.147.196-9.563-3.399-.821 4.154-3.127 7.184-5.663 10.244.992-.06 1.817-.134 2.642-.162 1.829-.067 3.701.074 5.146 1.284.96.802 1.306.62 1.731-.316.017-.03.042-.056.064-.088 1.847-2.477 3.689-4.948 5.643-7.563"/><path fill="#000" d="M127.897 56.436q-.581-.344-.876-.737-.294-.371-.3-.724-.008-.465.451-.76a.56.56 0 0 1 .243-.049 1.4 1.4 0 0 1 .466.08.84.84 0 0 1 .401.193 1.95 1.95 0 0 0 1.38.506q.354-.006 1.014-.172.858-.28 1.337-.687.501-.406 1.172-1.259a4.2 4.2 0 0 0 .6-1.116q.211-.579.203-1.043-.01-.509-.257-.791-.453-.59-1.01-.867-.537-.3-1.266-.288a4.6 4.6 0 0 0-1.257.199l-1.277.288a3 3 0 0 1-.243.048q-.132.003-.387.648-.253.645-.864 2.448-.441 1.313-.741 1.892-.299.558-.543.563-.264.004-.583-.477a14 14 0 0 0-.295-.437 1.25 1.25 0 0 1-.21-.637.9.9 0 0 1 .104-.378 2.4 2.4 0 0 0 .17-.401q.084-.201.167-.556.273-.867 1.583-4.318a200 200 0 0 1 2.076-5.21q.531-1.27.309-1.333a.5.5 0 0 0-.07-.197q-.069-.132-.048-.199-.002-.132.767-.411.791-.279 1.08-.24l.132-.003q.288-.004.286-.115.044 0 .397-.051a3.6 3.6 0 0 1 .796-.014q1.572.105 2.491.863.92.736.924 2.217-.035.576-.614 1.581-.58 1.005-1.276 1.659-.348.315-.806.677-.436.34-.568.43l.557.19q1.045.38 1.63.944.585.565.846 1.556.048.22.051.397.009.486-.158 1.108a7 7 0 0 1-.334 1.09q-.13.135-.217.291l-.107.2q-.02.09-.386.693-.365.582-.647.94-1.437 1.264-2.381 1.634-.922.436-2.204.459-1.15.02-1.708-.324m1.431-9.203.882-.192q.66-.166.945-.282l.263-.137q.241-.137.48-.384 1.37-1.33 1.905-2.378.536-.915.53-1.291-.004-.266-.252-.505-.429-.48-1.401-.462-.42.008-.706.101-.308.094-.46.23-.132.111-.127.355a.9.9 0 0 1-.104.4 1.5 1.5 0 0 1-.237.336.56.56 0 0 1-.128.267q-.086.135-.129.18 0 .045-.3.602-.278.558-.531 1.248-.636 1.58-.63 1.912m9.337 7.268a.84.84 0 0 1-.421-.081 3.3 3.3 0 0 1-.448-.324 4 4 0 0 1-.702-.939q-.252-.504-.192-.881a.57.57 0 0 0 .038-.31l-.003-.2q-.09-.086-.09-.108-.002-.044.043-.068.043-.045.064-.09.133 0 .085-.244-.048-.176.141-.776.188-.6.489-1.114.236-.403.69-1.008.475-.605.846-.921 1.09-.97 1.97-1.184.44-.12.86-.126.642-.01 1.001.336.49.19.718.563t.304.99q.025.132.03.441.028 1.636-1.178 3.426-.496.74-.997 1.19a9 9 0 0 1-1.222.906 2.3 2.3 0 0 1-.834.368 9 9 0 0 1-1.192.154m2.208-2.737q.413-.383.584-.762.192-.4.529-1.38.129-.201.118-.798-.009-.531-.165-.594a.4.4 0 0 0-.267-.084q-.198.003-.635.32a8.2 8.2 0 0 0-1.28 1.416 4.3 4.3 0 0 0-.679 1.648q-.021.09-.018.266.013.751.544.742.508-.009 1.269-.774m6.428-.82a.7.7 0 0 1-.199.026.84.84 0 0 1-.691-.32q-.25-.35-.262-1.057-.01-.552.175-1.374.298-.624.294-.934.103-.377.337-.956.232-.602.382-.914.089 0 .174-.157a.53.53 0 0 0 .105-.312 1.3 1.3 0 0 1 .059-.399 1 1 0 0 1 .172-.313q-.002-.066.084-.222a.7.7 0 0 0 .085-.245.3.3 0 0 1 .042-.133.4.4 0 0 0 .063-.178q.386-.67 1.106-2.519.719-1.848.736-2.135.08-.51.391-.45.108-.09.529-.097.066.021.245.106a1 1 0 0 1 .314.238.6.6 0 0 1 .183.373q.048.22.054.574a2.2 2.2 0 0 1-.186.733q-.17.378-.406.803t-.321.603l-.278.535q-.344.625-.341.736.002.088-.105.333a8 8 0 0 0-.171.38 5 5 0 0 0-.361.802q-.168.51-.166.622-.022.044-.064.156a.4.4 0 0 1-.107.2q-.066.002-.087.113a.6.6 0 0 0-.019.133q.002.11-.103.444-.105.333-.297.735-.714 2.157-.765 3.065-.036.465-.209.667a1.3 1.3 0 0 1-.392.338m-1.112 3.447q-.417.184-.705.19-.331.005-.757-.297-.337-.325-.343-.657-.01-.553.799-1.12.48-.319.702-.322.155-.002.578.167.67.408.679.895.01.62-.953 1.144M257.584 73.64q-.273-.484-.321-.885-.057-.385.084-.64.185-.335.635-.357a.45.45 0 0 1 .192.066q.16.088.3.249a.7.7 0 0 1 .207.302q.202.612.775.93.255.141.795.294.726.154 1.236.06.526-.083 1.354-.414.524-.23.888-.55.388-.325.574-.66.203-.366.142-.67a2.4 2.4 0 0 0-.363-1.034q-.26-.435-.784-.727a3.8 3.8 0 0 0-.979-.375l-1.029-.321a2 2 0 0 1-.193-.065q-.096-.054-.543.303-.447.355-1.624 1.39-.855.753-1.308 1.044-.443.274-.618.178-.192-.106-.22-.58-.004-.106-.031-.434-.011-.318.113-.54a.7.7 0 0 1 .23-.227q.159-.1.286-.217.142-.107.348-.327.552-.507 2.907-2.428a163 163 0 0 1 3.626-2.861q.901-.687.769-.823a.4.4 0 0 0 .032-.17q.005-.122.047-.16.053-.097.716.021.68.127.869.274l.096.053q.207.114.251.035.032.018.304.127.289.118.573.318 1.078.721 1.422 1.641.353.904-.254 1.962-.262.396-1.089.875a5.9 5.9 0 0 1-1.593.657q-.378.082-.854.151-.45.063-.582.073l.319.365q.59.701.774 1.345.185.643-.037 1.457-.057.177-.127.304-.195.351-.569.726a6 6 0 0 1-.688.64 1.1 1.1 0 0 0-.274.118l-.159.099q-.051.055-.56.335-.5.264-.849.404-1.545.309-2.371.184-.837-.068-1.76-.58-.828-.459-1.085-.934m4.81-5.973.707.226q.54.153.791.188l.244.01q.228.002.501-.076 1.524-.384 2.337-.911.76-.433.91-.703.106-.192.028-.464-.108-.517-.809-.906a2 2 0 0 0-.545-.219 1 1 0 0 0-.423-.026q-.14.027-.237.202a.74.74 0 0 1-.238.242 1.2 1.2 0 0 1-.308.142.47.47 0 0 1-.201.138q-.117.06-.166.075-.018.032-.462.306-.427.284-.892.671-1.105.867-1.237 1.105m3.666 9.028a.7.7 0 0 1-.267-.232 3 3 0 0 1-.186-.415 3.2 3.2 0 0 1-.114-.959q.028-.463.226-.707a.46.46 0 0 0 .155-.206l.08-.143q-.029-.099-.02-.115.018-.032.058-.03a.3.3 0 0 0 .083-.037q.096.052.161-.14.039-.145.421-.496.381-.35.807-.593.334-.19.907-.434.589-.236.983-.309 1.176-.243 1.893-.033.362.096.665.264.462.256.575.652.271.337.28.697t-.19.831q-.037.105-.16.328-.653 1.178-2.252 1.958a5.2 5.2 0 0 1-1.2.438 7.4 7.4 0 0 1-1.245.142 1.9 1.9 0 0 1-.747-.08 8 8 0 0 1-.913-.381m2.702-1.043q.453-.104.73-.303.302-.207.945-.767.175-.09.414-.52.211-.383.127-.492a.34.34 0 0 0-.156-.17q-.144-.078-.586-.032a6.7 6.7 0 0 0-1.495.482q-.649.306-1.163.896a1 1 0 0 0-.122.182q-.3.541.082.754.366.203 1.224-.03m4.922 2.062a.6.6 0 0 1-.153-.064.69.69 0 0 1-.361-.512q-.035-.352.249-.862.22-.398.69-.907.471-.323.594-.546.23-.226.634-.543.414-.333.649-.494.064.035.189-.041a.44.44 0 0 0 .203-.179q.08-.144.207-.26a.8.8 0 0 1 .251-.153.45.45 0 0 1 .152-.124.6.6 0 0 0 .161-.14.3.3 0 0 1 .085-.077.3.3 0 0 0 .118-.101q.551-.32 1.826-1.34 1.273-1.023 1.405-1.22.266-.332.463-.16.115-.02.417.148.04.042.131.177.093.135.126.298a.5.5 0 0 1-.022.342 2.6 2.6 0 0 1-.198.431 1.8 1.8 0 0 1-.435.447 9 9 0 0 1-.62.405 10 10 0 0 0-.477.298l-.419.267q-.502.304-.546.385a.9.9 0 0 1-.212.194 6 6 0 0 0-.278.2q-.242.136-.588.424-.331.296-.375.375a2 2 0 0 0-.11.085.3.3 0 0 1-.159.1q-.047-.027-.107.043a.4.4 0 0 0-.069.087q-.044.08-.257.275-.211.194-.514.402-1.398 1.245-1.807 1.87-.217.318-.424.39a1 1 0 0 1-.419.08m-2.213 2q-.373-.04-.58-.154-.239-.133-.418-.523-.106-.372.026-.61.22-.4 1.031-.47.474-.03.633.06.111.061.343.356.31.567.116.918-.247.445-1.151.424M169.488 96.645q-.577.148-1.006.087-.415-.048-.639-.265-.295-.285-.193-.756a.5.5 0 0 1 .121-.181q.135-.141.341-.24a.74.74 0 0 1 .37-.131 1.72 1.72 0 0 0 1.177-.545q.218-.225.525-.74.36-.711.406-1.263.058-.566-.054-1.517a3.7 3.7 0 0 0-.322-1.07 2.6 2.6 0 0 0-.524-.778q-.324-.311-.655-.333a2.6 2.6 0 0 0-1.171.09q-.522.145-.969.61a4 4 0 0 0-.66.908l-.618.976a2 2 0 0 1-.121.182q-.081.084.163.645.245.562.988 2.067.544 1.095.719 1.643.16.535.012.69-.163.168-.661.066a12 12 0 0 0-.457-.089 1.1 1.1 0 0 1-.529-.266.8.8 0 0 1-.171-.3 2 2 0 0 0-.144-.357 3 3 0 0 0-.242-.451q-.372-.71-1.707-3.682-1.32-2.985-1.955-4.546-.462-1.124-.639-1.024a.5.5 0 0 0-.167-.08q-.124-.039-.153-.094-.085-.081.221-.735.32-.668.524-.823l.081-.084q.177-.183.106-.25.027-.029.216-.28.203-.266.488-.505 1.047-.916 2.093-1.016 1.033-.116 1.96.807.337.38.603 1.37.266.988.239 1.83-.02.414-.08.926-.061.484-.086.622l.465-.229q.89-.416 1.607-.428t1.498.443q.167.108.279.216.309.298.594.79.297.478.471.888.002.165.046.317.044.15.059.192.042.069.191.673.135.591.183.99-.108 1.686-.467 2.506-.303.846-1.088 1.66-.705.73-1.268.864m-4.849-6.635.43-.67q.309-.515.414-.765l.079-.25q.065-.235.059-.54.027-1.683-.295-2.67-.236-.907-.475-1.137-.168-.163-.472-.158-.566-.03-1.162.586a2.1 2.1 0 0 0-.378.503 1.1 1.1 0 0 0-.144.43q-.011.152.143.302a.8.8 0 0 1 .185.314q.059.192.062.357a.5.5 0 0 1 .087.247q.03.138.031.193.027.027.189.562.174.522.447 1.11.59 1.383.8 1.586m10.36-1.29a.75.75 0 0 1-.314.212q-.15.044-.481.077a3.5 3.5 0 0 1-1.024-.148q-.471-.157-.67-.43a.5.5 0 0 0-.169-.217l-.126-.122q-.11.002-.125-.012-.027-.026-.015-.069a.3.3 0 0 0-.015-.096q.081-.084-.1-.205-.14-.08-.397-.573a4.8 4.8 0 0 1-.39-1 10 10 0 0 1-.197-1.059 5.8 5.8 0 0 1-.047-1.103q.073-1.284.49-1.968.2-.348.458-.615.393-.407.834-.414.425-.187.799-.097t.808.427q.097.067.294.257 1.039 1.004 1.402 2.873.151.77.121 1.364a8 8 0 0 1-.198 1.328q-.075.416-.29.75a8 8 0 0 1-.648.84m-.33-3.086q.02-.495-.111-.84-.13-.37-.531-1.19-.046-.207-.424-.572-.338-.325-.474-.268a.36.36 0 0 0-.219.114q-.122.126-.196.597a7.2 7.2 0 0 0 .084 1.682q.138.756.605 1.452.042.068.155.176.477.461.802.124.312-.323.309-1.275m3.499-4.521a.6.6 0 0 1-.108.14.74.74 0 0 1-.631.231q-.373-.062-.822-.496-.352-.339-.748-.966-.204-.577-.4-.766-.171-.3-.387-.807a12 12 0 0 1-.331-.809q.054-.055.01-.207a.46.46 0 0 0-.129-.26 1.1 1.1 0 0 1-.212-.286.9.9 0 0 1-.088-.302.5.5 0 0 1-.086-.191.6.6 0 0 0-.1-.206.3.3 0 0 1-.057-.109.34.34 0 0 0-.072-.15q-.177-.66-.881-2.262-.703-1.602-.873-1.792-.268-.368-.037-.523.012-.125.27-.392.054-.027.219-.086a.9.9 0 0 1 .344-.047.53.53 0 0 1 .347.118q.167.107.392.324.197.218.341.573.13.343.248.755.118.413.175.576l.161.508q.176.605.246.672.057.054.143.273.073.206.13.343.074.288.275.726.214.424.285.492.013.041.057.137a.34.34 0 0 1 .059.192q-.04.042.016.124a.6.6 0 0 0 .07.096q.07.067.213.34.143.275.274.644.9 1.792 1.435 2.39.267.312.285.547.031.22-.033.456m1.457 2.844q-.145.375-.322.558-.202.21-.657.287-.414.008-.624-.196-.351-.339-.2-1.197.1-.498.237-.639.095-.097.464-.256.674-.164.982.134.393.38.12 1.31"/></g><defs><clipPath id="a"><path fill="#fff" d="M0 0h424v214H0z"/></clipPath></defs></svg>