<svg xmlns="http://www.w3.org/2000/svg" width="424" height="418" fill="none"><g clip-path="url(#a)"><path fill="#000" d="M209.558 417.816c.244-6.292.534-12.592.603-18.891.107-9.537.328-19.074.855-28.604.023-.428.046-.878.176-1.283.817-2.55.03-4.681-1.558-6.696-2.909-3.688-6.177-7.056-9.277-10.576-6.537-7.437-12.554-15.249-18.258-23.35-5.887-8.377-11.98-16.601-17.761-25.061-5.444-7.964-10.606-16.112-15.317-24.542-1.802-3.222-3.734-6.375-5.315-9.72-.313-.657-.587-.909-1.397-.405-6.658 4.139-12.584 9.209-18.326 14.493a303 303 0 0 0-20.517 20.762c-8.743 9.751-16.593 20.174-23.328 31.429-4.566 7.636-8.285 15.646-10.972 24.121-2.596 8.155-4.36 16.501-5.574 24.977-.52 3.604-.955 7.208-1.413 10.82-.932 7.414-1.1 14.867-1.512 22.312 0 .069.061.137.092.214h-2.84c.572-.199.137-.611.144-.894.474-12.606 1.176-25.183 3.238-37.659 1.412-8.568 3.344-16.982 6.3-25.153 2.03-5.627 4.65-10.98 7.505-16.218 9.736-17.876 22.51-33.392 36.851-47.709 5.246-5.238 10.514-10.438 16.188-15.218a126 126 0 0 1 11.247-8.422c1.84-1.23 1.894-1.253 1.283-3.322-.786-2.672-.397-5.078 1.123-7.43 1.824-2.817 4.047-5.329 6.017-8.032 1.038-1.428 2.023-2.917 3.016-4.368 1.565-2.276 3.275-4.482 4.902-6.735 2.413-3.344 4.994-6.559 7.521-9.812 1.619-2.084 1.711-1.985.038-4.436-2.878-4.2-5.299-8.644-7.582-13.172-2.527-5.009-3.848-10.392-4.841-15.875-.489-2.711-1-5.421-1.489-8.132-.13-.725-.451-1.1-1.26-1.077-2.275.061-4.184-.847-5.895-2.306-3.245-2.756-5.459-6.253-7.307-10.01-2.016-4.085-3.933-8.224-5.91-12.332-.382-.794-.947-1.313-1.833-1.688-8.109-3.428-16.15-7.063-23.702-11.606-4.008-2.413-8.101-4.673-12.11-7.094-10.117-6.101-19.235-13.378-26.664-22.625-3.299-4.108-5.94-8.613-7.338-13.752-1.993-7.315-.245-13.828 4.215-19.792 4.192-5.604 9.445-10.003 15.378-13.622 6.414-3.917 13.355-6.704 20.304-9.499 7.697-3.1 15.691-5.093 23.747-6.933 3.597-.817 7.132-1.917 10.744-2.68 4.039-.856 8.132-1.505 12.209-2.177.711-.114 1.001-.473 1.245-1.046 1.726-4.077 3.375-8.193 5.2-12.232 3.925-8.698 8.048-17.295 13.798-25 3.131-4.192 6.956-7.475 11.904-9.33 2.192-.818 4.169-.482 6.078.992 3.604 2.794 6.796 5.963 9.667 9.499 1.611 1.985 3.391 3.833 5.078 5.757 2.1 2.39 4.902 3.734 7.582 5.307 2.826 1.657 5.979 2.245 9.003 3.253 1.344.45 2.489 1.183 3.505 2.092.679.603 1.161.58 1.832.1 3.093-2.238 6.17-4.506 9.393-6.56 5.413-3.444 10.957-6.643 17.127-8.544 4.36-1.344 8.842-2.176 13.408-1.62 5.857.719 10.308 3.613 13.577 8.66 1.817 2.81 3.405 5.673 4.726 8.72 1.42 3.276 2.581 6.635 3.818 9.98.977 2.65 1.772 5.33 2.589 8.018.481 1.573.885 3.176 1.313 4.772.107.405.183.74.718.764 3.619.137 7.025 1.305 10.446 2.328a207 207 0 0 1 27.275 10.24c12.301 5.635 23.93 12.408 34.002 21.579 4.536 4.123 8.659 8.613 11.461 14.15 2.833 5.604 3.146 11.468 1.459 17.439-2.688 9.484-8.613 16.776-15.99 22.992-8.941 7.536-19.013 13.225-29.695 17.89-5.888 2.566-11.943 4.62-18.128 6.315-.076.023-.145.061-.221.069-2.428.321-3.726 1.512-3.879 4.146-.099 1.741-1.489 3.085-2.505 4.467-3.298 4.49-7.231 8.415-11.27 12.225-.71.672-1.535 1.229-2.306 1.833-.245.191-.512.488-.817.191-.344-.329.053-.55.214-.795 1.588-2.313 3.451-4.398 5.261-6.528 3.077-3.635 6.284-7.17 8.704-11.316.375-.642 1.085-1.405.711-1.986-.321-.496-1.192.153-1.825.29-1.459.313-2.902.733-4.368 1.024-1.069.213-1.466.588-1.321 1.832.55 4.849-1.68 8.583-5.116 11.729-1.016.931-2.115 1.748-3.39 2.336-1.069.497-2.131.817-3.291.42-.97-.336-1.375.122-1.543 1.023-.702 3.834-1.428 7.667-2.145 11.492-.902 4.803-2.39 9.438-4.047 14.02-1.474 4.062-3.459 7.888-5.567 11.637-.932 1.657-.756 2.886.359 4.245 2.871 3.505 5.773 6.995 8.262 10.782 4.032 6.132 8.636 11.828 12.973 17.73.748 1.024 1.252 2.177 1.581 3.398.527 1.97.534 3.902-.596 5.697-.473.748-.336 1.221.42 1.748 6.223 4.314 12.309 8.827 17.715 14.142 7.812 7.674 15.959 15.027 22.877 23.564 5.78 7.132 11.713 14.141 16.929 21.708 5.65 8.201 10.667 16.769 14.302 26.061 1.397 3.574 2.504 7.27 3.886 10.859 2.887 7.513 4.116 15.432 5.49 23.304.497 2.825.802 5.673 1.054 8.537.222 2.535.58 5.078.886 7.613.618 5.223.595 10.491.191 15.745h-2.367c.305-.878.03-1.764-.016-2.642-.328-5.979-.458-11.988-1.428-17.906-1.527-9.369-2.664-18.807-4.993-28.031-.978-3.887-2.719-7.521-3.986-11.316-4.208-12.6-11.11-23.71-18.861-34.385-6.421-8.842-13.347-17.264-20.662-25.358-5.208-5.757-11.095-10.851-16.753-16.165-4.49-4.215-9.11-8.262-14.226-11.69-3.39-2.268-2.336-2.306-4.344.901-2.375 3.787-4.658 7.628-7.01 11.423-3.49 5.635-6.888 11.324-10.568 16.837-7.72 11.568-16.02 22.701-24.61 33.635-8.087 10.294-16.822 20.022-25.741 29.582-.191.198-.359.42-.557.61-2.253 2.093-3.238 4.666-3.459 7.735-.306 4.246-.664 8.484-.451 12.752.291 5.842-.023 11.66-.412 17.479-.328 4.879-.176 9.766.252 14.645.054.626.031 1.26.046 1.886h-4.261zM246.996 254.6c.26-.717.145-1.046-.718-.809-1.68.458-3.375.855-5.1 1.092-1.734.359-3.421.87-5.086 1.458-4.39 1.558-8.75 3.184-13.24 4.452-1.337.382-2.917.428-3.856 1.771-.161.23-.436.176-.642.031-.817-.565-1.848-.611-2.611-.351-1.443.488-2.467.076-3.765-.558-4.337-2.115-9.124-2.924-13.721-4.283-2.108-.619-4.246-1.108-6.3-1.925-1.558-.618-3.245-.84-4.894-1.114-.665-.115-.924.129-.932.817-.008.962.107 1.893.443 2.779.672 1.749.863 3.589.97 5.421.236 4.086.275 8.186.542 12.264.214 3.23 1.428 6.009 4.299 7.842 1.145.733 2.291.931 3.558.366 1.993-.893 3.749-2.107 5.353-3.589 2.695-2.489 4.81-5.551 7.628-7.903 1.176-.977 2.329-2.138 4.024-2.207.374-.015.809-.061 1.023.405.191.412-.16.642-.313.947-.183.359-.763.618-.489 1.107.26.466.817.405 1.283.413 3.047 0 6.109.168 9.056-.886.306-.107.733-.061 1.039.061 3.23 1.328 6.154 3.161 8.865 5.353.206.168.664.351.374.725-.244.305-.595.046-.847-.099-1.291-.726-2.543-1.527-3.856-2.207-1.352-.703-2.581-1.626-4.04-2.13-.343-.115-.634-.1-.863.16-.305.336.046.58.191.825.329.549.81.962 1.329 1.321 1.405.985 2.848 1.916 4.222 2.939 2.009 1.497 3.956 3.078 5.941 4.605 1.604 1.237 3.413 1.901 5.46 1.848.717-.016 1.145-.275 1.359-1.016.603-2.115 1.153-4.238 1.55-6.406.603-3.314 1.642-6.529 2.138-9.874.29-1.954.389-3.917.565-5.864.229-2.581.298-5.185.053-7.781zm12.194-36.781a74 74 0 0 0 3.04-6.491c2.428-5.986 4.413-12.11 6.009-18.364.832-3.26 1.481-6.559 2.176-9.85.687-3.23 1.084-6.506 1.726-9.736.038-.206.145-.458-.176-.588-.992-.389-2.634.619-2.794 1.672-.604 3.887-.711 7.85-1.551 11.699-2.145 9.827-5.116 19.372-9.789 28.328-.519 1.001-.985 2.07-2.038 2.787-.039-.206-.107-.343-.069-.42 1.183-1.962 2-4.085 2.779-6.223 1.856-5.093 3.635-10.216 5.009-15.47.978-3.734 1.749-7.513 2.459-11.308.611-3.253 1.023-6.529 1.665-9.774.061-.306.259-.71-.367-.764-2.023-.16-2.688.283-2.795 2.298-.244 4.864-1.313 9.576-2.428 14.287-1.008 4.253-2.038 8.491-3.68 12.561-.947 2.337-1.863 4.688-2.833 7.017-.214.512-.412 1.115-1.199 1.535.672-1.993 1.298-3.757 1.879-5.521 2.458-7.483 4.306-15.103 5.742-22.838.45-2.436.74-4.902 1.435-7.292.382-1.299.138-1.551-1.183-1.505-.863.031-1.741.038-2.597.153-6.658.893-13.355 1.1-20.051 1.252-13.997.306-27.978-.16-41.944-1.229-11.614-.886-23.067-2.787-34.483-4.941-4.169-.786-8.3-1.771-12.37-3.023-1.26-.39-1.428-.275-1.199.87.382 1.848.603 3.726.924 5.574.977 5.536 2.169 11.034 3.245 16.555 1.275 6.536 2.864 12.996 5.353 19.173 3.352 8.323 8.957 15.066 15.447 21.144 5.17 4.841 11.042 8.75 16.776 12.851 3.322 2.375 6.911 4.337 10.568 6.109 2.092 1.007 4.467 1.321 6.765 1.695 8.278 1.351 16.127-.13 23.702-3.543 6.636-2.994 12.714-6.888 18.509-11.255 6.781-5.101 12.263-11.324 16.18-18.891 2.894-5.59 4.75-11.538 6.315-17.609 1.802-6.979 2.612-14.134 3.902-21.197.344-1.87.542-3.772.351-5.688-.824.137-1.557.29-2.298.381-.962.115-1.321.573-1.458 1.589a186 186 0 0 1-1.696 10.445c-.908 4.697-1.962 9.354-3.451 13.913-1.306 3.993-2.695 7.949-4.536 11.736-1.351 2.78-2.832 5.483-4.573 8.041l-.413-.138zm-44.822-85.842c-13.401-.145-26.664-1.367-39.675-4.811-10.416-2.756-20.472-6.337-29.75-11.919-5.971-3.597-10.903-8.224-14.584-14.157-.557-.901-1.145-1.802-1.382-2.856-.084-.366-.298-.832.046-1.122 1.458-1.253 1.939-3.047 2.466-4.734 1.619-5.185 2.635-10.53 4.2-15.73 1.428-4.742 2.314-9.637 3.818-14.363a144 144 0 0 1 3.069-8.644c.527-1.344.405-1.52-1.046-1.329-2.695.36-5.375.772-8.055 1.23-3.566.61-7.193.886-10.691 1.909a2705 2705 0 0 1-15.882 4.566c-2.459.702-4.986 1.206-7.376 2.084-6.346 2.33-12.347 5.414-18.25 8.69-5.65 3.138-10.866 6.811-15.027 11.843-2.451 2.963-4.528 6.14-5.674 9.828-1.29 4.153-.48 8.162 1.138 12.072 2.474 5.979 6.483 10.85 11.164 15.187a142.3 142.3 0 0 0 27.756 20.121c7.063 3.917 14.294 7.483 21.602 10.919 7.208 3.39 14.683 6.047 22.197 8.613 2.917.993 6.002 1.504 8.98 2.398 3.329 1.008 6.773 1.626 10.155 2.451 3.589.87 7.208 1.535 10.82 2.268 3.872.786 7.781 1.466 11.729 1.848 4.039.381 8.04 1.153 12.08 1.519 11.98 1.084 23.984 1.481 36.018 1.298a265 265 0 0 0 31.956-2.405c1.939-.267 3.879-.657 5.841-.802 2.94-.214 5.818-.832 8.705-1.39 2.466-.481 4.933-1.053 7.391-1.557 1.879-.382 3.811-.741 5.689-1.146 3.474-.756 6.887-1.855 10.293-2.909 6.903-2.146 13.729-4.52 20.403-7.323 9.98-4.192 19.326-9.407 27.558-16.485 6.383-5.483 11.705-11.729 14.424-19.915 1.962-5.925 1.634-11.469-1.688-16.867-4.161-6.773-9.842-12.072-16.066-16.83-7.086-5.413-14.744-9.934-22.693-13.958-10.248-5.184-20.8-9.605-31.872-12.72-2.52-.711-5.04-1.39-7.56-2.108-.694-.199-.756.06-.572.641.473 1.504.649 3.115 1.122 4.582.779 2.42 1.275 4.902 1.848 7.353a196 196 0 0 1 1.565 7.307c.436 2.245.97 4.475 1.451 6.712.619 2.864 1.367 5.704 1.802 8.59.298 2.009 1.023 3.895 1.291 5.903.114.87.466 1.779 1.703 1.917.771.091 1.588.633 1.702 1.45.206 1.436.26 2.902-1.107 3.994-1.008.802-2.1 1.619-2.581 2.856-.382.969-.97 1.641-1.787 2.199-.32.221-.61.496-.901.763-4.245 3.986-9.292 6.735-14.447 9.324-3.016 1.519-6.269 2.451-9.376 3.749-6.43 2.688-13.126 4.413-19.884 5.948-4.07.924-8.193 1.558-12.309 2.268-7.193 1.245-14.416 1.825-21.709 1.687zm.176-102.618c-1.031-.595-1.749-1.145-2.566-1.45-1.725-.642-3.573-.894-5.299-1.589-3.879-1.565-7.804-3.092-10.797-6.14-3.696-3.764-7.002-7.902-10.461-11.88-1.008-1.161-1.993-2.337-3.016-3.482-.252-.29-.634-.65-1.008-.45-.443.228-.138.694-.038 1.045.412 1.39.87 2.772 1.267 4.17 2.245 7.841 6.094 14.737 12.149 20.265 3.688 3.367 7.918 5.78 12.988 6.444 4.047.535 8.041.023 11.981-.74 7.934-1.535 15.21-4.849 22.289-8.621 4.841-2.58 9.27-5.796 13.645-9.087.321-.244.71-.817 1.199-.274.458.503-.061.84-.336 1.198-1.543 2.07-3.52 3.704-5.368 5.475-7.789 7.46-16.913 12.462-27.39 15.02-8.918 2.184-17.471 1.191-25.732-2.81-5.2-2.52-8.751-6.727-12.065-11.225-4.452-6.04-7.094-12.843-8.308-20.22-.153-.916-.458-1.053-1.313-.816-2.741.748-4.857 2.367-6.582 4.543-7.124 8.964-12.172 19.097-16.524 29.612-2.764 6.688-5.338 13.446-7.834 20.234-1.482 4.024-2.795 8.11-4.62 12.011-1.329 2.841-2.215 5.888-3.322 8.828-.633 1.68-.488 2.23 1.077 3.252 10.156 6.62 20.876 11.973 32.643 15.165 6.246 1.695 12.53 3.123 18.937 4.001 11.118 1.52 22.281 2.085 33.491 1.268 8.414-.619 16.752-1.749 25.014-3.497 6.857-1.451 13.508-3.62 20.144-5.819 2.245-.74 4.467-1.642 6.712-2.428 2.252-.794 4.459-1.695 6.666-2.596.649-.267.832-.634.641-1.275-.084-.298-.107-.619-.122-.932-.298-5.162-.955-10.278-2.222-15.294-.84-3.322-1.68-6.636-2.543-9.95-.107-.405-.053-.97-.847-.802-1.65.36-3.322.65-4.994.901-.665.1-.787.39-.81 1.008-.061 1.413-.229 2.826-.381 4.23-.52 4.826-1.955 9.492-2.467 14.318a9.7 9.7 0 0 1-.496 2.176c-.298.84-.955 1.298-1.871 1.405-.924.1-1.474-.382-1.939-1.077-.611-.909-.596-1.947-.627-2.963-.137-5.871-.145-11.743.451-17.6.069-.718.046-.993-.893-.87-1.787.229-3.62.244-5.429.251-1.413 0-2.161-.786-2.276-2.191-.13-1.65.504-2.62 1.97-2.825 4.566-.634 9.133-1.276 13.767-1.016 1.489.084 2.994.008 4.49.015.703 0 1.138-.023.764-.992-.458-1.16-.672-2.42-1-3.635-2.742-10.178-5.582-20.334-9.82-30.024-.138-.305-.313-.626-.122-.985.313.015.382.252.481.466.947 2.145 1.863 4.307 2.848 6.437 4.406 9.567 6.895 19.807 10.553 29.642.374 1.008.206 2.031.45 3.024a521 521 0 0 1 1.802 7.567c1.382 5.94 3.009 11.828 3.803 17.89.046.337.015.917.634.741.946-.267 1.87-.595 2.802-.916.458-.16.321-.52.275-.863-.336-2.55-1.069-5.017-1.627-7.521-1-4.513-2.237-8.972-3.298-13.47-1.611-6.818-3.643-13.515-5.597-20.227-1.039-3.566-2.444-7.017-3.681-10.522-1.504-4.276-3.184-8.483-5.543-12.362-1.871-3.07-4.444-5.407-8.056-6.254-3.925-.924-7.834-.512-11.698.42-7.155 1.718-13.622 5.024-19.884 8.773-4.917 2.948-9.59 6.315-15.027 8.331-.924.344-1.863.618-2.833.771-.344.054-.725-.023-.87-.443-.1-.297-.023-.58.267-.702 1.153-.497 1.779-1.764 3.367-2.07zm47.235 200.982a1796 1796 0 0 1-4.94 4.276c-7.231 6.239-15.234 11.332-23.824 15.394-5.925 2.803-12.355 3.902-18.937 3.994-3.673.053-7.208-.619-10.659-1.795-3.513-1.206-6.682-3.138-9.904-4.948-3.543-1.985-7.086-3.963-10.263-6.513-1.13-.909-2.008-2.161-3.207-2.947a74 74 0 0 1-10.468-8.262c-.184-.176-.375-.52-.665-.375-.359.176-.168.55-.137.848.756 8.407 2.115 16.684 4.444 24.839 1.779 6.231 3.619 12.447 5.742 18.563 2.39 6.88 5.093 13.66 7.598 20.502 2.871 7.85 6.551 15.356 9.552 23.152 2.39 6.215 4.948 12.362 7.239 18.616 2.191 5.994 4.1 12.095 6.215 18.12.84 2.397 1.535 4.871 2.994 7.017 1.038 1.543 1.809 1.55 2.55-.137 1.863-4.246 4.207-8.27 5.979-12.561.733-1.772 1.557-3.513 2.298-5.284 4.597-11.011 9.514-21.884 14.218-32.85 4.009-9.338 8.117-18.623 11.82-28.084 2.726-6.979 5.132-14.088 7.499-21.205.084-.252.297-.519-.069-.71-.382-.198-.474.145-.611.359-1.252 1.985-3.146 3.161-5.208 4.101-.595.274-.817.557-.862 1.198-.268 3.459-.672 6.903-1.65 10.248-1.29 4.413-2.604 8.819-4.864 12.866-.435.779-.351 1.718-.702 2.558-.947 2.245-1.734 4.559-2.657 6.819-2.024 4.955-4.345 9.766-7.109 14.363-.184.297-.321.656-.84.328 2.512-5.063 4.627-10.293 6.742-15.524 1.084-2.687 2.214-5.352 3.291-8.04.412-1.023.275-1.153-.847-.978-1.1.168-2.192.321-3.261-.106-3.131-1.245-6.002-2.948-8.667-4.994-2.901-2.23-5.818-4.46-8.407-7.071-.649-.657-1.336-.283-1.977-.137-.626.137-.405.74-.405 1.198-.023 8.438.603 16.86.817 25.29.344 13.378.122 26.726-1.428 40.027-.038.359.023.787-.397 1.092-.351-.519-.198-1.084-.183-1.603.427-21.526-.122-43.051-.069-64.569 0-.916-.282-1.191-1.138-1.122a78 78 0 0 1-4.016.236c-.642.016-.84.222-.695.848.069.298.038.626.046.939.13 7.407.214 14.821.397 22.228.244 9.812.97 19.609.702 29.428-.19 6.789-.763 13.584.237 20.487-1.153-.466-1.038-1.489-1.145-2.298-.687-5.238-1.115-10.507-1.382-15.776-.634-12.522-.825-25.06-.764-37.598.031-5.712.122-11.431.603-17.135.031-.367.191-.863-.267-1.054-.412-.176-.733.168-1.016.451-.786.778-1.603 1.519-2.336 2.336-2.627 2.97-5.505 5.597-9.079 7.437-3.887 2.001-6.628.917-9.102-1.993-1.733-2.038-2.825-4.535-3.169-7.276-.557-4.46-1.153-8.911-1.672-13.371-.092-.779-.367-1.115-1.123-1.199a5.34 5.34 0 0 1-2.993-1.313c-1.473-1.313-2.863-2.718-3.886-4.429a31 31 0 0 1-1.276-2.39c-.129-.267-.267-.649.084-.855.42-.252.512.191.688.42.702.901 1.458 1.764 2.092 2.703 1.237 1.825 2.894 3.07 4.91 3.91.71.297.947.343.908-.573-.091-2.046-.084-4.1-.107-6.147-.015-.802.176-1.573.474-2.298.58-1.405 2.42-2.52 3.505-1.879 1.512.901 3.191 1.039 4.78 1.558 6.154 2.001 12.324 3.955 18.532 5.788 3.711 1.1 7.269 1.71 11.171.367 6.124-2.116 12.233-4.33 18.479-6.086 2.161-.611 4.322-1.207 6.528-1.634 1.787-.352 3.009.236 3.421 1.68.222.786.283 1.641.298 2.466a97 97 0 0 1-.107 8.025c-.046.794.298 1.016.993.573.534-.336 1.107-.626 1.58-1.031 2.902-2.436 5.391-5.185 6.208-9.033 1.199-5.666 2.054-11.393 2.642-17.158.176-1.703.634-3.39.206-5.33zm-49.037-101.365c4.635-.13 9.43-.305 14.218-.68 3.688-.29 7.33-.878 10.965-1.512 3.505-.61 6.956-1.542 10.423-2.374 3.138-.749 6.269-1.52 9.361-2.421 4.528-1.321 8.865-3.169 13.241-4.887 5.268-2.069 10.354-4.551 14.989-7.826 2.626-1.856 5.253-3.727 6.704-6.773.29-.611.374-1.146.221-1.802-.702-3.078-1.786-6.056-2.252-9.194-.099-.657-.367-1.145-1.283-.81-1.504.55-3.085.886-4.589 1.428-3.085 1.123-6.116 2.406-9.224 3.46-3.94 1.336-7.934 2.497-11.904 3.741-1.818.565-3.597 1.352-5.46 1.657-2.321.382-4.559 1.046-6.849 1.535-2.406.511-4.796 1.145-7.216 1.558-2.596.435-5.2.809-7.812 1.153-3.749.488-7.498.924-11.262 1.168-6.689.435-13.378.496-20.083.153-4.008-.207-8.01-.451-11.995-.917-2.536-.298-5.055-.679-7.575-1.069-1.863-.282-3.711-.664-5.551-1.092-2.222-.519-4.414-1.176-6.636-1.702-2.55-.596-5.07-1.337-7.559-2.108-3.268-1.008-6.46-2.314-9.568-3.734-6.666-3.046-13.057-6.612-19.097-10.774-1.016-.703-1.123-.19-1.39.504-1.26 3.253-2.504 6.506-3.787 9.75-.68 1.711-1.275 3.239.091 5.071 3.078 4.116 6.773 7.56 10.935 10.484 3.642 2.558 7.597 4.582 11.805 6.116 5.459 2.001 10.759 4.414 16.402 5.903 4.146 1.092 8.261 2.291 12.476 3.115 4.521.878 9.079 1.398 13.669 1.856 5.138.519 10.27.878 15.584 1.023zm-3.948 227.654c.168-.244.069-.466-.046-.672-1.313-2.344-2.206-4.864-3.176-7.353-1.81-4.65-3.963-9.156-5.926-13.737-4.558-10.66-8.811-21.434-12.98-32.246-3.062-7.941-6.17-15.852-9.041-23.862-2.558-7.155-4.803-14.409-6.788-21.739a220 220 0 0 1-5.307-25.427c-.061-.405.015-.993-.413-1.123-.435-.13-.702.39-.992.71-3.078 3.436-5.628 7.277-8.285 11.034a1898 1898 0 0 1-10.828 15.195c-1.229 1.695-1.588 3.436-.847 5.422.549 1.473 1.305 2.848 2.031 4.238 6.36 12.179 13.37 23.961 21.182 35.277 7.742 11.209 15.661 22.297 24.098 32.994 5.414 6.865 10.415 14.058 16.387 20.472.282.305.435.764.931.825zm56.811-126.823c-.413 2.39-.886 4.543-1.146 6.719-.565 4.765-1.244 9.507-2.291 14.203-1.825 8.186-4.077 16.249-6.818 24.167-2.925 8.453-6.155 16.799-9.774 24.992-3.765 8.529-7.338 17.15-11.049 25.71-3.902 8.965-8.239 17.715-13.332 26.076-1.153 1.902-1.955 4.002-3.223 5.849-.198.291-.183.627.077 1.001.336-.29.641-.481.855-.749 3.428-4.329 7.453-8.124 11.003-12.339 7.659-9.102 15.096-18.379 22.075-28.016 6.621-9.148 13.378-18.204 19.319-27.809 4.742-7.667 9.758-15.173 14.012-23.137.633-1.191 1.542-2.352 1.763-3.627.344-2.008-.168-3.955-1.359-5.735-4.131-6.162-8.705-12.011-12.782-18.211-2.1-3.192-4.414-6.215-7.308-9.071zm-117.027-50.229c-.328-1.741-.672-3.474-.993-5.215-.091-.473-.313-.672-.809-.588-2.535.413-4.513-.718-6.002-2.558-1.962-2.42-3.665-5.032-1.924-8.369.275-.519-.069-.672-.481-.832-1.176-.466-2.405-.756-3.627-1.046-.733-.176-1.672-.932-2.161-.359-.573.672.107 1.642.481 2.405 2.069 4.246 4.444 8.323 7.048 12.264 1.466 2.214 3.283 4.13 5.612 5.482.672.389 1.451.641 2.238.267.618-.298.542-.893.611-1.458zm133.176 1.734c1.52 0 2.673-.802 3.749-1.756 2.902-2.551 3.543-6.3 5.055-9.583.26-.565-.114-.703-.595-.611-1.046.206-1.756.832-2.199 1.779-.565 1.214-1.191 2.39-1.94 3.497-1.176 1.749-1.512 1.924-3.489 1.298-.657-.206-.84.031-1.024.542-.397 1.115-.473 2.306-.778 3.444-.306 1.145.297 1.39 1.229 1.39zm-141.843-17.089c.214 2.062 1.077 3.825 2.536 5.299.885.893 1.947 1.436 3.214 1.558.68.069.939-.138.756-.855-.435-1.711-.832-3.437-1.252-5.155-.115-.473-.367-.908-.84-1.069a65 65 0 0 0-3.146-.931c-.985-.267-1.39.16-1.268 1.153m146.058 6.643c-1.023.191-1.893.496-2.756.84-.497.198-.558.618-.329.954.229.344.558.947 1.077.642.878-.527 1.794-1.115 2.008-2.436"/><path fill="#000" d="M215.23 417.817c-.183-1.596.084-2.993 1.657-3.84 1.642-.879 3.344-1.207 5.055-.321 1.649.855 2.367 2.413 2.741 4.161h-3.787c-.268-.695-.26-1.672-1.314-1.657-1.023.016-1.198.833-1.282 1.657h-3.078zM137.697 232.8c-.13 3.52-1.153 6.437-2.085 9.347a584 584 0 0 1-5.062 15.08c-2.192 6.246-5.124 12.126-9.087 17.456-.71.954-1.581 1.748-2.413 2.588-.893.894-2.008.993-3.07.718-5.497-1.405-11.125-2.069-16.7-3.024-3.092-.527-6.161-1.26-9.254-1.771-4.955-.825-9.82-2.1-14.767-2.948-5.85-1-11.752-1.695-17.547-3.008-5.376-1.214-10.568-2.993-15.662-5.07a426 426 0 0 0-5.451-2.192c-.924-.359-1.23-.954-1.291-1.977-.199-3.582-.489-7.148-.29-10.736.008-.184-.03-.451-.153-.55-1.466-1.252-1.787-2.879-1.71-4.712.03-.817-.634-1.42-1.176-1.985-1.306-1.344-2.886-2.306-4.543-3.138-2.589-1.298-5.086-2.703-6.628-5.315-.58-.977-.94-1.985-.802-3.138.084-.695.458-1.184 1.084-1.436.642-.259 1.16.092 1.573.527.32.336.657.718.802 1.146.603 1.825 1.932 2.802 3.696 3.298 2.642.749 5.284 1.482 7.918 2.245.573.168.672-.129.74-.572.589-3.543 1.444-7.018 2.467-10.454.672-2.26 1.382-4.505 2.367-6.651.52-1.122 1.298-2.069 2.245-2.863 1.474-1.237 2.673-1.161 3.925.275.29.336.603.481 1.015.489 9.21.145 18.273 1.695 27.375 2.825 9.148 1.138 18.288 2.367 27.527 2.627 5.154.145 10.278.954 15.378 1.718 3.017.45 6.071.42 9.072.946 1.809.321 3.543.947 5.406 1.1.97.076 1.771.863 2.352 1.672 1.672 2.36 2.68 4.956 2.764 7.476zm-97.983 12.042c-.015-.076.008-.13.084-.153.489-.32.527-.84.573-1.344.435-5.161-4.063-7.193-8.247-6.986 1.825 1.359 3.444 2.84 4.406 4.94.39.848.091 1.917.908 2.589-.626.106-1.122.229-.862 1.114.221.764.511 1.214 1.374 1.283 1.008.077 1.52-.389 1.756-1.29.03 0 .061-.016.092-.023a2 2 0 0 0-.092-.13zm3.803-2.764c.099 1.038-.199 2.153-.535 3.245-.435 1.42-1.52 2.367-2.672 3.215-.78.572-1.505.03-2.238-.199-.343-.107-.664-.13-.695.329-.091 1.412-.397 2.863-.16 4.23.237 1.374.58 2.741.68 4.146.038.535.198.886.794.977 1.924.291 3.665 1.146 5.452 1.833 5.398 2.085 10.888 3.818 16.577 4.933 5.024.985 10.08 1.809 15.134 2.604 4.513.71 8.957 1.786 13.44 2.664 4.352.856 8.689 1.803 13.034 2.696 3.932.809 7.864 1.603 11.789 2.428.756.16 1.054-.038 1.176-.817.183-1.153.588-2.314 1.016-3.337.557-1.336 1.046-2.695 1.405-4.062 1.863-7.04 3.55-14.126 5.719-21.083 1.336-4.276 2.275-8.681 3.78-12.912.74-2.069 1.466-4.146 2.206-6.215.39-1.077.229-1.321-.924-1.337-1.954-.022-1.901-.007-2.26 1.909-.488 2.635-.977 5.269-1.649 7.858-1.52 5.826-3.192 11.614-4.742 17.44-.993 3.726-1.687 7.514-2.986 11.171-1.03 2.902-2.68 5.505-3.642 8.415-.099.298-.244.626-.672.45-.389-.16-.511-.504-.427-.878.175-.802.297-1.642.611-2.39 1.687-3.993 2.962-8.124 4.069-12.301 1.512-5.704 2.818-11.462 4.345-17.165 1.214-4.551 2.398-9.125 3.971-13.577.328-.932.237-1.336-.878-1.397-2.085-.107-4.162-.336-6.239-.55-3.917-.397-7.811-1.092-11.744-1.268-10.125-.465-20.212-1.336-30.245-2.756-7.178-1.016-14.333-2.169-21.587-2.566-2.985-.168-5.986-.29-8.964-.572-1.55-.153-2.023.381-2.52 1.595-.74 1.81-1.466 3.627-2.107 5.475-1.169 3.383-2.215 6.804-2.925 10.316-.32 1.573.153 1.97 1.672 1.466.634-.213 1.23-.32 1.703.313 1.237 1.65 2.42 3.33 2.23 5.674zm75.999 30.459c.733-.443.977-1 1.267-1.481 2.757-4.49 5.223-9.125 7.102-14.065a153 153 0 0 0 5.658-18.242c.794-3.268 1.099-6.613-.023-9.912-.267-.779-.519-1.817-1.405-1.855-1-.046-.695 1.092-.894 1.718-2.069 6.399-3.978 12.843-5.627 19.357-1.039 4.092-1.985 8.208-3.314 12.217-.71 2.146-1.092 4.375-1.634 6.559-.443 1.81-.733 3.658-1.13 5.689zm-1.825-.664c-.489.832-.993 1.649-1.474 2.489-.198.351-.596.771.046 1.061.473.214.886.161 1.168-.397.489-.977.581-2 .26-3.153m1.832.702-.038.084h.077zM382.806 192.857c.595-.031 1.489.114 2.382.275.321.061.672.114.71.496.046.473-.358.519-.702.626-2.016.664-4.131.557-6.193.809-4.512.558-8.85 1.902-13.278 2.849-8.858 1.878-17.647 4.062-26.344 6.612-11.018 3.23-22.06 6.391-33.063 9.682-7.078 2.115-14.187 4.192-20.96 7.209-1.039.465-2.146.786-3.192 1.244-.42.183-.725.13-.886-.221-.175-.382.229-.504.481-.68 3.62-2.497 7.613-4.222 11.752-5.635 4.94-1.695 9.812-3.581 14.821-5.07 4.406-1.306 8.834-2.551 13.233-3.895 8.124-2.481 16.233-4.993 24.488-7.002 5.085-1.237 10.216-2.298 15.325-3.42 5.261-1.153 10.507-2.406 15.829-3.284 1.748-.29 3.497-.618 5.597-.595M384.883 223.699c-4.261.321-8.3.664-12.347.924-8.735.565-17.394 1.779-26.053 3.008-7.606 1.085-15.196 2.245-22.793 3.345-7.407 1.077-14.867 1.657-22.289 2.588-3.635.459-7.17 1.459-10.774 2.1-1.405.245-2.818.252-4.231.39-.252.023-.588.183-.672-.229-.068-.359.268-.436.489-.573 1.894-1.214 4.055-1.688 6.193-2.176 7.574-1.718 15.302-2.482 23.006-3.345 4.895-.542 9.744-1.42 14.608-2.153 9.384-1.413 18.723-3.207 28.199-3.871 8.17-.581 16.356-1.161 24.557-.481.236.023.481 0 .702.053.412.099.809.244 1.397.42zM354.349 379.022c-4.032 1.412-7.845 2.789-11.687 4.088-8.291 2.806-16.341 6.22-24.387 9.649-7.065 3.016-14.096 6.101-21.15 9.13-6.876 2.957-13.932 5.448-20.86 8.269-3.392 1.383-6.548 3.264-9.863 4.817-1.294.599-2.657.972-3.986 1.471-.237.087-.52.329-.708-.048-.159-.329.145-.489.324-.679 1.515-1.663 3.479-2.68 5.418-3.705 6.872-3.62 14.139-6.358 21.357-9.185 4.588-1.791 9.044-3.894 13.553-5.861 8.699-3.793 17.255-7.944 26.236-11.038 7.741-2.675 15.498-5.354 23.595-6.82.235-.039.465-.125.693-.13.424-.011.845.026 1.458.044zM52.901 191.484c1.298-.176 2.375.275 3.436.504 6.071 1.329 12.15 2.619 18.166 4.169 7.04 1.81 14.073 3.665 20.999 5.918 7.658 2.489 15.325 4.978 23.014 7.368 5.773 1.795 11.629 3.345 17.394 5.162 3.475 1.092 6.796 2.619 10.11 4.139.306.145.771.198.619.695-.168.527-.588.198-.901.16-4.528-.573-8.721-2.321-13.058-3.604-4.375-1.29-8.827-2.329-13.194-3.635-5.353-1.596-10.637-3.405-15.974-5.047-11.065-3.39-21.915-7.46-33.094-10.476-5.513-1.482-11.034-2.902-16.432-4.773-.336-.114-.756-.114-1.085-.595zM348.139 168.117c-2.794 1.909-5.795 3.352-8.689 4.971-8.354 4.666-16.509 9.644-24.557 14.814-5.009 3.214-10.362 5.818-15.493 8.819-6.727 3.94-13.492 7.819-19.807 12.408-.428.313-.794.397-1.123-.023-.42-.527.008-.832.367-1.168 4.444-4.131 9.545-7.353 14.729-10.408 13.332-7.849 26.718-15.615 40.104-23.373 4.306-2.497 8.735-4.765 13.576-6.101.321-.092.588-.015.893.046zM150.502 207.527c-.909-.389-1.84-.74-2.734-1.176-6.498-3.153-12.973-6.345-19.188-10.056-8.102-4.841-16.341-9.461-24.511-14.187-4.36-2.52-8.812-4.872-12.943-7.774a182 182 0 0 1-4.009-2.916c-.397-.291-.832-.581-.931-1.367 1.626.97 3.123 1.871 4.62 2.749 6.88 4.031 14.034 7.529 21.089 11.24 6.048 3.184 11.958 6.605 17.883 10.002 5.345 3.07 10.759 6.033 16.013 9.255 1.802 1.1 3.39 2.474 4.711 4.23M106.604 210.413c-5.911-.985-11.737-2.123-17.486-3.658-10.27-2.741-20.693-4.795-31.101-6.941-6.292-1.298-12.698-1.832-19.02-2.94-2.864-.504-5.774-.794-8.568-1.687-.443-.145-.909-.26-1.245-.771.787-.306 1.543-.107 2.283-.046 7.415.657 14.737 2.016 22.106 3.062 8.499 1.206 16.89 2.993 25.297 4.711 7.407 1.512 14.676 3.513 21.885 5.78 1.779.558 3.504 1.299 5.253 1.971.252.091.534.183.596.519M303.088 267.872c5.437 3.199 10.423 7.01 15.073 11.255 5.07 4.627 9.682 9.675 13.775 15.195.206.283.412.581.573.894.122.252.153.572-.13.74-.275.161-.473.527-.924.321-.634-.282-1.084-.741-1.55-1.229-5.032-5.307-9.69-10.996-15.188-15.837a282 282 0 0 1-11.499-10.675c-.138-.13-.229-.305-.336-.458.153.008.214-.069.206-.214zM320.154 245.683c8.339-1.176 16.738-1.398 25.122-1.734 8.3-.336 16.623-.679 24.878.611-4.131-.282-8.148 1.008-12.302.939-4.207-.068-8.414.413-12.622.55-4.169.138-8.346.206-12.522.214-4.185 0-8.385.206-12.554-.58M330.89 261.587c1.275-.687 2.467-.649 3.658-.473 3.314.473 6.62 1.023 9.934 1.496 3.894.558 7.834.848 11.698 1.634 2.94.596 5.78 1.512 8.567 2.589.474.183 1.214.351.94 1.099-.245.672-.84.443-1.413.336-4.169-.817-8.354-1.573-12.523-2.397-6.299-1.252-12.553-2.711-18.876-3.818-.588-.107-1.244.008-1.977-.458zM140.835 187.856c-1.107-.802-1.939-1.421-2.787-2.009-1.497-1.038-3.054-2.092-4.291-3.336-2.245-2.253-4.643-4.345-6.781-6.705-4.276-4.696-9.102-8.788-14.126-12.652-.283-.214-.619-.382-.748-.733-.1-.26-.092-.573.137-.764.229-.198.428.023.619.161 9.873 6.75 18.723 14.653 26.488 23.755.504.595 1.107 1.175 1.489 2.275zM10.247 260.877c4.124-.076 8.155-.549 11.653-3.062.565-.404 1.267-.626 1.924-.878.97-.366 1.596.138 2.038.924.436.779.085 1.337-.58 1.795-2.199 1.527-4.688 2.374-7.208 3.123-3.23.954-6.552 1.336-9.904 1.557-.908.062-1.893-.748-1.977-1.603-.077-.771.916-1.802 1.81-1.848.748-.03 1.496 0 2.244 0zM8.628 245.383c-2.26.039-4.46-.389-6.635-.946-1.352-.352-2.04-1.169-1.993-2.253.053-1.237.939-2.023 2.122-1.672 1.535.45 3.009 1.084 4.513 1.634 1.497.55 3.001.542 4.498.03.488-.168.916-.259 1.244.245.336.511.573 1.046.145 1.626-.504.68-1.06 1.268-2.008 1.26-.626 0-1.26.054-1.886.076M25.786 219.193c-.023 1.153-.687 1.528-1.55 1.543-1.023.023-1.893-.626-2.008-1.504-.199-1.512-1.13-2.367-2.153-3.2-1.886-1.542-3.834-3.016-5.75-4.52-.328-.26-.863-.497-.603-.993.198-.374.633-.015.962.031 4.46.672 7.529 3.482 10.293 6.742.489.58.725 1.283.81 1.901M345.375 282.647c2.39.29 4.46.863 6.453 1.749 2.825 1.252 5.597 2.611 8.2 4.276.214.137.573.183.443.573-.061.183-.244.16-.397.137-4.459-.641-8.857-1.443-12.606-4.207-.764-.565-1.489-1.169-2.062-1.932-.191-.26-.328-.565-.031-.603zM306.104 168.279c-.29.893-.488 1.863-.992 2.71-2.054 3.467-4.49 6.613-7.819 8.972-.184.13-.352.314-.497.489-.213.267-.412.741-.786.481-.283-.198-.077-.656.091-.977.649-1.252 1.329-2.489 2.276-3.558q3.026-3.38 6.04-6.758c.412-.466.84-.932 1.031-1.558.061-.198.129-.511.465-.359.207.092.176.329.184.558zM16.043 231.717c-2.146-.244-4.314-1.26-6.36-2.504-1.375-.833-2.635-1.863-3.925-2.818-.268-.198-.741-.45-.474-.817.275-.374.642.069.917.222 3.42 1.863 6.956 3.443 10.705 4.52.428.122 1.16.069 1.023.847-.122.734-.763.504-1.237.55-.114.016-.237 0-.657 0zM18.02 227.967c-2.939-1.306-5.932-2.489-8.597-4.322-.244-.168-.642-.283-.496-.687.106-.298.42-.153.618-.084 2.97 1.069 5.712 2.542 8.2 4.49.161.122.398.267.276.603"/><path fill="#E32824" d="M303.088 267.871c.008.146-.061.222-.206.214-.313-.275-.626-.55-.931-.832.481.061.847.275 1.145.618zM300.629 265.711c-.022.076-.045.13-.061.191-.053-.061-.122-.107-.145-.176-.03-.068-.015-.145-.023-.221.077.076.161.145.229.214zM301.362 266.566l.008-.069-.107.031z"/><path fill="#000" d="M285.091 277.493c-.352 1.756-1.245 3.07-1.94 4.459-3.772 7.598-8.353 14.722-12.866 21.885-5.2 8.269-10.851 16.218-16.891 23.885-7.116 9.025-13.79 18.402-21.601 26.862-3.23 3.498-6.605 6.865-9.759 10.446-.198.222-.374.512-.748.458-.237-.267 0-.45.122-.618 6.445-8.904 13.21-17.54 20.464-25.809 7.04-8.026 13.416-16.593 19.647-25.267 7.17-9.995 13.744-20.35 19.914-30.979.832-1.428 1.733-2.81 2.589-4.222.229-.374.496-.695 1.061-1.085zM243.308 364.068c-.772-.031-1.642-.031-2.474-.306-.268-.091-.52-.236-.443-.588.053-.244.275-.267.466-.244 2.39.244 4.444-.871 6.559-1.665 3.94-1.489 8.002-2.596 12.057-3.68 8.124-2.176 15.714-5.635 23.228-9.331 4.054-1.993 7.979-4.215 11.95-6.361.282-.152.634-.549.893-.084.191.344-.206.535-.458.71-8.521 5.888-17.196 11.492-27 15.119-3.826 1.421-7.56 3.062-11.431 4.36-4.307 1.451-8.766 1.856-13.355 2.062zM241.185 349.269c7.574-11.912 16.684-22.686 25.274-34.239-.221 3.047-21.449 31.742-25.274 34.239M216.612 377.644c.069-1.252.901-2.97 2.986-3.871 1.122-.481 1.832-.046 1.764 1.137-.031.581.328.527.641.611 1.359.359 2.588.878 3.344 2.199s.756 2.291-.282 3.429c-.901.993-1.901 1.909-3.276 2.191-3.016.611-5.291-1.496-5.177-5.696m3.826.221c-1.092-.045-1.283.588-1.36 1.207-.061.435.13.977.703.763.695-.259 1.917.42 2.016-.801.061-.802-.817-1.107-1.352-1.176zM301.531 337.205c1.13-1.008 2.222-2.047 3.382-3.009 5.483-4.551 10.897-9.186 15.623-14.538 2.474-2.803 4.971-5.582 7.102-8.667.091-.13.175-.26.274-.382.283-.359.596-.977 1.077-.649.42.29-.092.756-.298 1.1-3.55 5.856-7.933 11.034-12.965 15.668-2.344 2.161-4.65 4.368-6.957 6.567-1.931 1.84-4.184 3.162-6.666 4.124-.168.061-.297.045-.572-.214M220.728 402.842c-1.58-.061-3.039-.397-4.047-1.779-1.275-1.756-.611-5.467 1.245-6.559.664-.389 1.466-.344 1.825.42.282.603.679.641 1.191.702.664.077 1.344.107 1.978.306 1.458.45 2.451 1.71 2.458 2.993 0 1.367-1.145 2.955-2.573 3.513-.664.259-1.351.42-2.077.397zm-1.237-3.375c.367-.351 1.321.367 1.428-.626.054-.466-.489-.595-.863-.565-.527.038-.969.298-1.084.878-.069.359.191.351.519.313M323.461 305.929c-8.53-8.521-17.525-16.6-25.13-26.015-.16-.199-.397-.405-.244-.726 2.359.787 24.289 23.786 25.374 26.741M295.002 281.54a157 157 0 0 1 12.156 12.355c3.2 3.634 6.315 7.338 9.278 11.163.229.298.573.542.511 1.077-8.155-7.552-15.332-15.898-22.273-24.457.107-.039.214-.085.328-.13z"/><path fill="#E32824" d="M295.002 281.54c-.107.045-.214.084-.328.129-.466-.336-.871-.717-1.047-1.328.459.397.917.802 1.375 1.199"/><path fill="#000" d="M186.443 363.632c-6.375.054-12.4-1.55-18.234-3.94-4.413-1.809-8.903-3.413-13.233-5.429-4.535-2.115-8.827-4.673-13.133-7.208-2.367-1.39-4.734-2.795-7.094-4.2a4 4 0 0 1-.832-.641c-.191-.199-.313-.489-.1-.748.207-.252.42-.069.619.061 3.047 2 6.33 3.573 9.613 5.146 7.216 3.452 14.516 6.697 22.152 9.125 4.536 1.443 9.148 2.634 13.699 4.016 2.435.741 4.825 1.627 7.215 2.505.924.336 1.833.382 2.78.221.321-.053.756-.358.855.207.076.427-.313.588-.672.687-1.199.32-2.428.206-3.635.198M171.333 320.337c9.56 8.972 17.455 19.295 24.785 30.268-.641.13-.771-.168-.946-.344-9.11-9.04-15.791-20.028-23.839-29.932zM128.862 337.472c-2.421-.481-4.253-1.68-5.902-3.222-6.415-6.002-12.6-12.217-17.868-19.281-.84-1.122-2.131-1.893-2.566-3.321-.076-.26-.198-.519-.214-.779-.007-.267.038-.565.352-.687.397-.153.45.214.587.42 5.139 7.506 11.233 14.141 18.189 19.998 2.466 2.077 4.665 4.459 7.201 6.452.076.061.099.191.221.42M203.319 371.535c.756 9.873 1.833 19.777-.038 29.681-1.802-9.874-.81-19.762.038-29.681M183.321 345.46c-2.94-2.489-10.477-11.53-14.608-17.471 1.245.542 14.318 16.081 14.608 17.471"/><path fill="#E32824" d="M212.741 128.976a211 211 0 0 1-15.584-1.023c-4.582-.466-9.148-.977-13.669-1.855-4.215-.817-8.33-2.016-12.476-3.116-5.651-1.496-10.95-3.909-16.402-5.902-4.208-1.543-8.163-3.559-11.805-6.117-4.162-2.924-7.857-6.368-10.935-10.484-1.366-1.832-.771-3.36-.091-5.07 1.283-3.245 2.527-6.498 3.787-9.75.267-.696.382-1.207 1.39-.505 6.04 4.162 12.431 7.728 19.097 10.775 3.115 1.42 6.307 2.725 9.568 3.733 2.489.772 5.009 1.512 7.559 2.108 2.222.519 4.414 1.176 6.636 1.703 1.832.427 3.688.809 5.551 1.092 2.52.381 5.039.771 7.575 1.069 3.993.465 7.987.71 11.995.916a173 173 0 0 0 20.083-.153c3.764-.244 7.513-.679 11.262-1.168 2.612-.344 5.216-.71 7.812-1.153 2.42-.412 4.81-1.039 7.216-1.558 2.283-.488 4.528-1.153 6.849-1.535 1.863-.305 3.642-1.092 5.46-1.657 3.97-1.236 7.964-2.405 11.904-3.741 3.108-1.054 6.139-2.344 9.224-3.46 1.504-.541 3.085-.877 4.589-1.427.916-.336 1.184.153 1.283.81.473 3.138 1.55 6.116 2.252 9.193.153.657.069 1.191-.221 1.802-1.451 3.047-4.078 4.917-6.704 6.773-4.643 3.283-9.721 5.757-14.989 7.827-4.376 1.718-8.713 3.566-13.241 4.887-3.1.901-6.223 1.672-9.361 2.42-3.467.832-6.911 1.764-10.423 2.375-3.635.634-7.27 1.222-10.965 1.512-4.788.382-9.583.55-14.218.679zm70.12-32.39c-.344.045-.504.03-.642.09-4.23 1.841-8.72 2.895-13.118 4.185-4.261 1.245-8.56 2.337-12.859 3.436-5.368 1.367-10.743 2.696-16.203 3.666-.389.068-.947.076-.893.549.061.604.634.42 1.054.367 2.451-.336 4.917-.611 7.353-1.031 3.665-.634 7.338-1.283 10.973-2.085 2.642-.58 5.23-1.42 7.842-2.138 5.161-1.42 10.209-3.168 14.989-5.604.572-.29 1.229-.527 1.512-1.42zm-16.768 16.5c.549-.137 1.153-.313 1.764-.45 3.55-.779 6.918-2.085 10.178-3.627 3.948-1.879 7.544-4.345 10.927-7.125.763-.626 1.497-1.275 2.092-2.061.191-.252.26-.619 0-.87-.382-.375-.588.09-.725.282-.787 1.13-1.963 1.787-3.078 2.489-4.749 3.009-9.85 5.33-15.004 7.552-2.123.916-4.368 1.573-6.33 2.848-.283.183-.588.298-.481.68.076.282.351.275.657.267zm-1.421-4.383c1.871.13 3.612-.466 5.361-.977 5.841-1.718 10.972-4.78 15.722-8.522 1.107-.87 2.115-1.863 2.886-3.07.199-.312.252-.648 0-.847-.267-.214-.504.122-.679.305-.489.505-.901 1.093-1.436 1.535-3.856 3.238-8.163 5.765-12.691 7.919-2.962 1.412-6.108 2.359-9.155 3.657zm5.368 5.544c3.887.718 20.335-8.438 21.465-11.859-6.689 4.971-13.523 9.4-21.465 11.859"/><path fill="#FBB95E" d="M246.995 254.6c.245 2.596.184 5.207-.053 7.781-.176 1.954-.275 3.917-.565 5.864-.504 3.344-1.535 6.559-2.138 9.873-.397 2.161-.947 4.291-1.55 6.406-.214.741-.642 1.001-1.359 1.016-2.054.053-3.856-.618-5.46-1.848-1.985-1.527-3.94-3.1-5.941-4.604-1.374-1.031-2.817-1.963-4.222-2.94-.519-.359-1-.771-1.329-1.321-.145-.244-.496-.489-.191-.825.229-.252.527-.275.863-.16 1.459.504 2.688 1.428 4.039 2.13 1.314.68 2.566 1.482 3.857 2.207.252.145.61.405.847.099.298-.374-.168-.557-.374-.725-2.711-2.192-5.635-4.032-8.865-5.353-.306-.13-.733-.175-1.039-.061-2.947 1.062-6.009.894-9.056.886-.466 0-1.023.061-1.283-.412-.274-.489.298-.749.489-1.108.153-.305.504-.534.313-.946-.206-.466-.649-.42-1.023-.405-1.695.069-2.848 1.222-4.024 2.207-2.818 2.359-4.933 5.413-7.628 7.903-1.604 1.481-3.36 2.695-5.353 3.589-1.275.572-2.413.374-3.558-.367-2.871-1.84-4.085-4.612-4.299-7.842-.267-4.085-.306-8.178-.542-12.263-.107-1.833-.306-3.673-.97-5.422-.336-.885-.451-1.824-.443-2.779 0-.687.267-.932.932-.817 1.657.283 3.336.496 4.894 1.115 2.054.817 4.192 1.306 6.3 1.924 4.596 1.359 9.384 2.176 13.721 4.284 1.298.634 2.322 1.046 3.765.557.771-.259 1.802-.214 2.611.351.206.146.481.199.642-.03.939-1.344 2.519-1.397 3.856-1.772 4.49-1.275 8.85-2.894 13.24-4.451 1.665-.596 3.352-1.108 5.086-1.459.366.237.763.138 1.145.107 1.558-.122 3.115-.259 4.673-.389zm-2.588 1.519c-1.207 8.705-2.031 17.479-5.643 25.794.764-.046.939-.344 1.092-.664 3.864-7.949 5.337-16.326 4.543-25.13zm-50.282 24.29c-.244-2.329-.473-4.666-.733-6.987-.344-3.077-.786-6.147-1.558-9.155-.366-1.436-.664-2.879-1.015-4.315-.084-.343.214-1-.306-.969-.565.03-.32.717-.282 1.076.244 2.444.496 4.887.832 7.323.504 3.65 1.1 7.292 1.879 10.896.175.825.351 1.566 1.183 2.131m11.156-7.499c-.023-.336-.305-.488-.832-.29-2.291.871-4.108 2.36-5.513 4.353-.138.198-.359.511-.016.71.268.153.565.015.726-.229.656-.993 1.779-1.367 2.688-2.016.847-.603 1.825-1.039 2.527-1.856.176-.206.389-.389.42-.679z"/><path fill="#E32824" d="M259.602 217.964c-.374.802-.962 1.451-1.649 2.054l1.237-2.199q.207.08.412.145M37.446 243.887c-.817-.672-.526-1.741-.908-2.589-.962-2.107-2.574-3.581-4.406-4.94 4.184-.206 8.682 1.825 8.247 6.987-.046.504-.084 1.023-.573 1.344-.596.595-1.466.565-2.123.549s.527-.794-.061-1.191c-.061-.046-.115-.107-.168-.16z"/><path fill="#000" d="M211.726 134.139c2.115 0 4.23.038 6.345 0 6.353-.138 12.653-.871 18.945-1.665 5.666-.718 11.316-1.543 16.928-2.612 3.353-.641 6.636-1.58 9.927-2.474 7.254-1.977 14.149-4.879 20.731-8.498 2.887-1.588 5.658-3.352 8.193-5.521 1.573-1.351 3.192-2.634 4.697-4.085 4.161-4.001 5.352-8.819 4.413-14.363-.473-2.787-1.573-5.177-3.826-6.956-.252-.199-.481-.42-.519-.756-.023-.23-.061-.489.222-.603.206-.084.351.045.504.19 4.108 3.971 6.047 8.766 5.368 14.486-.291 2.428-1.344 4.65-2.856 6.528-3.788 4.696-7.857 9.087-13.225 12.141-4.597 2.612-9.37 4.78-14.318 6.575-4.795 1.741-9.552 3.703-14.592 4.589-5.933 1.046-11.927 1.703-17.913 2.374-4.818.543-9.629 1.077-14.455 1.497-3.81.328-7.552-.366-11.324-.366h-3.245v-.481M78.908 76.449c-.107.52-.557.725-.94.962-5.36 3.322-8.979 8.086-11.079 13.935-1.107 3.078-.809 6.3.466 9.354 2.925 6.995 8.071 12.34 13.302 17.578 4.161 4.169 8.498 8.163 13.233 11.683.427.32.755.779 1.038 1.298-.779-.474-1.55-.924-2.306-1.405-5.192-3.306-10.232-6.811-14.745-11.019-4.864-4.543-9.285-9.46-11.92-15.684-1.198-2.825-2.091-5.757-1.725-8.926.199-1.672.756-3.2 1.443-4.703 2.581-5.659 6.865-9.713 12.134-12.836.328-.199.633-.268.992-.252l.046.03h.061z"/><path fill="#000" d="M305.081 90.438c.611.054.71.55.924.878 3.94 6.2 3.726 12.447-.611 18.41a43.7 43.7 0 0 1-9.079 9.224 97.5 97.5 0 0 1-21.304 12.241c-4.062 1.695-8.292 2.993-12.721 3.474-.847.092-1.672.321-2.359.45 2.481-1.573 5.467-2.321 8.384-3.214a60 60 0 0 0 13.897-6.33c3.375-2.093 6.941-3.887 10.087-6.323 3.352-2.588 7.002-4.818 9.758-8.132 2.085-2.504 3.994-5.116 4.834-8.292.985-3.704.611-7.33-1.199-10.767-.26-.496-.672-.962-.618-1.626zM86.918 76.128c.55-2.443 1.71-4.451 3.665-6.017 3.078-2.45 6.59-4.062 10.202-5.49 5.818-2.29 11.751-4.223 17.868-5.536 4.879-1.046 9.819-1.848 14.722-2.78 1.664-.312 3.306-.717 4.963-1.053.519-.107 1.069-.283 1.687.1a37.5 37.5 0 0 1-6.704 2.091c-6.964 1.497-13.805 3.406-20.617 5.475-4.818 1.459-9.598 2.955-14.217 4.964-3.49 1.52-6.705 3.45-9.522 6.016-.741.68-1.375 1.482-2.054 2.223zM88.003 121.859c-1.901-1.122-3.383-2.68-4.902-4.184-4.047-4.001-7.827-8.224-10.08-13.561-1.206-2.856-2.512-5.712-2.489-8.88.023-3.864 1.428-7.216 4.17-9.965.236-.237.48-.833.9-.466.32.282-.175.61-.366.87-1.55 2.047-2.528 4.33-2.917 6.857-.504 3.245.588 6.208 1.672 9.171 2.192 6.002 6.2 10.789 10.285 15.539 1.29 1.496 2.49 3.077 3.727 4.619"/><path fill="#000" d="M285.091 128.419c.183-.588.725-.71 1.16-.939 4.429-2.306 8.698-4.879 12.752-7.781 4.696-3.367 8.697-7.43 11.019-12.828 1.825-4.23 2.733-8.613 1.489-13.233-.138-.504-.665-1.428.175-1.596.81-.16.726.878.825 1.413 1.581 8.178-.305 15.5-5.918 21.647-4.406 4.826-9.735 8.522-15.684 11.255-1.779.817-3.642 1.444-5.475 2.146-.084.031-.213-.046-.343-.084M143.691 119.828c-.962-.053-1.642-.672-2.375-1.16-3.07-2.062-6.391-3.795-9.14-6.277-4.879-4.413-8.293-9.774-9.53-16.302-.641-3.406-.16-6.682 2.207-9.454.099-.122.191-.267.313-.35.298-.2.611-.772.924-.49.397.367-.175.657-.412.917-2.489 2.749-2.314 5.994-1.558 9.247 1.245 5.299 4.299 9.652 7.583 13.851 2.558 3.268 5.91 5.643 9.208 8.071.909.672 1.848 1.298 2.772 1.947z"/><path fill="#000" d="M118.477 90.019c-.275 5.444 1.359 10.117 3.917 14.546 2.535 4.39 6.338 7.681 9.835 11.232-4.39-2.886-8.544-5.971-11.339-10.56-2.596-4.253-3.803-8.759-3.146-13.73.061-.465.115-.931.733-1.488M114.476 66.294c-7.888 2.406-15.31 5.04-21.716 10.064-.191-.573.168-1.015.504-1.466 1.641-2.207 3.886-3.627 6.269-4.894 3.642-1.948 7.513-3.154 11.553-3.857 1.031-.175 2.084-.274 3.39.153"/><path fill="#000" d="M116.148 86.979c-1.763 3.863-2.42 7.872-1.26 12.003 1.115 3.955 2.704 7.727 5.147 11.095-7.254-5.59-9.942-15.89-3.887-23.098"/><path fill="#E32824" d="M78.908 76.45h-.06l-.047-.022c.962-1.176 2.55-1.07 3.665-1.932q.069.14.138.267c-1.23.565-2.466 1.123-3.696 1.688"/><path fill="#000" d="M161.383 82.71c-4.399-.32-8.049-2.016-10.561-5.887-.779-1.199-1.702-2.237-1.603-3.795.091-1.52.954-2.07 2.268-1.329 1.168.657 2.26 1.444 3.443 2.062 1.948 1.008 4.04 1.306 6.193.84 2.459-.534 2.718-1.321 1.145-3.253-1-1.23-2.29-2.16-3.459-3.207-2.107-1.886-3.879-3.955-4.696-6.78-1.596-5.544 1.39-9.415 6.017-11.363 2.91-1.229 5.788-.633 8.644.252.779.245 1.329.833 1.84 1.436.718.832 1.428 1.68 2.138 2.52 1.856 2.191 1.604 5.856-.527 7.811-2.359 2.161-6.375.947-7.322-2.199-.344-1.16-.39-2.321-.184-3.505.207-1.176-.045-1.496-1.237-1.573-1.603-.114-3.046.329-3.833 1.795-.947 1.756-.565 3.49.565 5.085 1.237 1.749 3.024 2.848 4.727 4.047 2.268 1.604 3.848 3.719 4.505 6.43.916 3.772-2.199 9.376-5.673 10.361-.772.214-1.55.237-2.39.26zM182.641 60.797c-.42 1.954-.725 3.818-2.1 5.55 2.199-.702 4.169-.9 6.177-.808 1.268.06 2.184.687 2.658 1.832.511 1.245.298 2.474-.39 3.604-.267.436-.786.497-1.252.58-2.176.398-4.36.749-6.574.436-.863-.122-1.291.122-1.352.962-.069.9-.512 1.703-.748 2.642 2.39-.191 4.658-.787 6.994-.603 1.642.13 2.711.931 3.291 2.428.749 1.916-.74 4.795-2.772 5.185-2.955.557-5.956.671-8.941.412-2.589-.221-4.078-1.97-4.429-4.856-.435-3.551.336-6.987 1.115-10.4.756-3.291 2.13-6.392 3.253-9.568.237-.664.404-1.352.634-2.024.61-1.786 1.664-2.267 3.413-1.52.534.23.97.238 1.557.108 2.963-.672 5.949-1.214 9.003-.611 1.642.32 2.825 1.458 3.1 3.008.306 1.718-.382 3.078-1.649 4.177-.244.214-.642.32-.985.351-2.673.252-5.345.252-8.01-.099-.657-.084-1.283-.351-1.993-.794zM239.734 68.821c2.008-.931 3.978-1.244 5.956-1.496a9 9 0 0 1 2.115-.038c2.405.267 3.314 1.091 3.474 3.07.153 1.817-.931 3.313-2.932 3.878-2.092.588-4.276.641-6.429.802-2.154.16-2.146.107-2.268 2.199-.038.695-.16 1.39-.252 2.184 1.955-.313 3.833-.626 5.719-.924.901-.137 1.802-.145 2.68.19 1.413.55 2.07 1.497 2.001 2.963-.061 1.344-1.039 2.62-2.337 2.902-2.581.565-5.23.603-7.857.863-.97.1-1.947.29-2.94.122-1.275-.221-1.947-.916-2.038-2.214-.497-7.025-.161-14.012.84-20.968.145-1.016.229-2.031.366-3.047.053-.405.191-.832.695-.81 3.07.123 5.826-1.412 8.835-1.618 2.038-.137 3.779.229 5.192 1.878 2.023 2.36.45 5.46-2.176 5.85-2.367.35-4.75.717-7.163.48-.313-.03-.679-.145-.779.283-.244 1.092-.442 2.191-.694 3.451zM201.066 69.844c-.076 2.23.229 4.223.519 6.208.283 1.94 1.207 2.772 3.23 2.955 2.1.19 4.177-.046 6.216-.527.832-.199 1.359.069 1.848.657 1.107 1.336 1.091 1.97-.069 3.268-.611.687-1.329 1.267-2.169 1.603-3.726 1.482-7.498 1.81-11.209.039-2.848-1.36-4.406-3.81-5.215-6.796-1.627-6.048-.94-11.69 2.825-16.83 2.924-3.993 8.529-6.047 13.301-4.856.459.114.917.26 1.329.473 1.374.71 1.856 2.146 1.115 3.46-.321.572-.779 1.084-1.191 1.603-.604.771-1.306.825-2.192.428-2.199-.993-4.146-.566-5.772 1.206-1.902 2.07-2.94 4.452-2.566 7.109M222.714 75.435c.962.405 1.634.618 2.237.94 2.314 1.22 3.787 4.29 3.184 6.543-.542 2.024-2.329 2.718-4.123 1.596-1.375-.855-2.337-2.085-3.131-3.467-.237-.404-.504-.801-.725-1.214-.443-.84-.741-1.565-1.688-.282-.481.656-1.519.802-2.413.473-.947-.351-1.42-1.076-1.527-2.061-.145-1.383.107-2.757.244-4.124.458-4.658 1.031-9.308 1.802-13.928.207-1.244.84-1.825 2.085-1.954 1.374-.145 2.741-.283 4.123-.214 5.063.252 10.011 5.81 8.11 11.645-.581 1.771-2.055 2.848-3.62 3.718-1.397.779-2.848 1.459-4.566 2.329zm-1.474-4.123c.603.015 1.031-.39 1.535-.58 2.397-.94 3.39-5.033 1.725-7.01-.198-.237-.465-.413-.717-.604-.695-.542-1.092-.45-1.23.504-.275 1.94-.572 3.872-1.145 5.758-.183.61-.435 1.267-.168 1.94zM240.567 35.048c1.321-1.03 2.619-2.092 3.963-3.092 2.787-2.077 5.093-4.689 7.788-6.865.153-.122.275-.283.435-.405.344-.252.787-.71 1.115-.397.443.42-.175.733-.42 1.031-2.718 3.413-5.879 6.345-9.575 8.667-.985.618-2.008 1.183-3.176 1.351q-.069-.15-.138-.29zM260.664 186.229c-.436 1.077-1.36 1.207-2.154 1.405-5.986 1.474-12.041 1.833-18.173 1.138a1013 1013 0 0 0-15.157-1.581c-3.428-.336-6.773-1-10.018-2.153-.29-.107-.825-.092-.718-.573.092-.382.535-.183.832-.198 3.65-.161 7.209.633 10.79 1.145 9.69 1.375 19.395 2.36 29.199 1.756 1.795-.114 3.543-.565 5.406-.931zM199.088 315.535c-.046.358.061.656-.229.748-.267.091-.443-.161-.55-.351-.611-1.1-1.282-2.169-1.771-3.322-3.299-7.735-6.697-15.432-9.453-23.381-.451-1.29-.848-2.604-1.268-3.909-.099-.298-.229-.68.16-.825.436-.16.474.321.596.565 2.482 4.803 4.49 9.82 6.62 14.775 2.009 4.673 3.803 9.438 5.529 14.226.183.511.267 1.061.366 1.466zM282.861 96.586c-.282.9-.932 1.13-1.512 1.42-4.787 2.436-9.827 4.177-14.989 5.605-2.611.717-5.2 1.557-7.842 2.138-3.635.801-7.307 1.45-10.973 2.084-2.435.42-4.902.695-7.353 1.031-.42.061-.993.244-1.054-.367-.045-.473.512-.488.894-.549 5.459-.97 10.827-2.291 16.203-3.666 4.299-1.099 8.598-2.183 12.859-3.436 4.406-1.29 8.888-2.344 13.118-4.184.13-.061.298-.046.641-.092zM266.093 113.087c-.305 0-.58.015-.656-.267-.1-.39.206-.504.481-.68 1.97-1.267 4.207-1.932 6.33-2.848 5.154-2.222 10.255-4.543 15.004-7.552 1.107-.702 2.291-1.359 3.077-2.489.138-.19.344-.657.726-.282.259.251.183.626 0 .87-.596.786-1.336 1.435-2.092 2.062-3.383 2.771-6.98 5.245-10.927 7.124-3.253 1.55-6.628 2.856-10.179 3.627-.611.137-1.214.305-1.764.45zM264.673 108.704c3.039-1.298 6.192-2.245 9.155-3.658 4.528-2.153 8.842-4.681 12.691-7.918.534-.45.939-1.039 1.435-1.535.176-.183.413-.52.68-.305.259.198.206.534 0 .847-.771 1.207-1.779 2.2-2.886 3.07-4.75 3.741-9.874 6.811-15.723 8.521-1.741.512-3.482 1.108-5.36.978zM270.041 114.247c7.941-2.459 14.775-6.887 21.464-11.858-1.13 3.428-17.57 12.583-21.464 11.858M161.307 285.807c1.771 2.383 3.573 4.735 5.299 7.148 6.536 9.155 12.729 18.562 19.937 27.229 3.642 4.39 6.452 9.3 9.171 14.279.122.229.152.435.038.779-12.569-15.753-23.977-32.231-34.445-49.442zM147.7 262.664c.236-1.863 13.889-24.267 15.042-24.816-.152 2.29-11.935 21.785-15.042 24.816M240.269 326.752c.71-1.505 1.573-2.749 2.428-4.001 6.315-9.255 12.958-18.265 19.631-27.26 3.383-4.559 6.376-9.369 9.232-14.272 2.97-5.1 6.239-10.018 9.125-15.172q.231-.414.542-.771c2.001-2.283 1.306-2.421.244-4.46-3.016-5.772-7.009-10.987-9.88-16.844-.107-.214-.207-.42-.306-.642-.153-.351-.175-.771.153-.962.428-.259.611.214.802.474 2.023 2.749 3.642 5.727 5.131 8.804 1.687 3.489 4.108 6.597 5.536 10.247.26.657.344 1.23.015 1.787-1.748 2.917-2.955 6.109-4.696 9.041-4.658 7.865-9.002 15.936-14.302 23.396a251 251 0 0 1-7.406 9.911c-3.024 3.833-5.681 7.926-8.591 11.836-2.084 2.802-4.123 5.65-6.521 8.216-.259.275-.458.656-1.137.679zM244.407 256.12c.794 8.804-.679 17.188-4.543 25.13-.153.32-.336.618-1.092.664 3.612-8.316 4.436-17.089 5.643-25.794zM194.125 280.41c-.832-.566-1.007-1.306-1.183-2.131-.779-3.604-1.375-7.246-1.879-10.896-.335-2.436-.587-4.879-.832-7.323-.038-.359-.282-1.046.283-1.077.519-.03.221.627.305.97.351 1.436.649 2.887 1.016 4.314.771 3.009 1.214 6.071 1.557 9.156.26 2.329.489 4.658.733 6.987M205.289 272.911c-.031.291-.245.474-.42.68-.703.817-1.673 1.245-2.528 1.856-.908.649-2.031 1.023-2.688 2.015-.16.237-.458.382-.725.23-.344-.199-.13-.512.015-.711 1.405-1.993 3.223-3.482 5.513-4.352.527-.199.81-.053.833.29zM101.938 267.681c-4.665.122-9.208-.527-13.698-1.55-7.636-1.734-15.272-3.452-22.915-5.177-.321-.069-.688-.077-1.123-.741 13.004 1.359 25.328 4.658 37.736 7.46zM116.041 252.051c-1.451 4.826-3.161 9.56-5.024 14.248-.458 1.146-.84 2.329-1.26 3.49-.099.275-.038.763-.489.641-.465-.13-.122-.511-.046-.763 1.497-5.2 3.391-10.263 5.399-15.287.313-.787.695-1.55 1.038-2.329z"/><path fill="#E32824" d="M116.041 252.05h-.381c.137-.382.275-.771.488-1.374.245.656.061 1.015-.107 1.374"/><path fill="#000" d="M54.272 245.271q-.822-.145-1.155-.89-.33-.764.133-2.015.318-.771.947-1.71.63-.938 1.588-2.02.368-.945.545-1.72.177-.777.234-1.554.08-.793.14-1.711.08-.793.508-1.161.431-.388 1.273-.24t1.187.936q.365.79.072 2.455l-.545-.117a12 12 0 0 1 2.304-1.733q1.209-.674 2.384-.932 1.18-.276 2.255-.086 1.038.183 1.641.652.607.45.856 1.1.252.63.203 1.368-.047.717-.33 1.415a4.9 4.9 0 0 1-1.048 1.591 7.1 7.1 0 0 1-1.695 1.255q-1.002.53-2.276.89-1.275.36-2.78.54.747.696 1.775 1.382 1.03.686 2.162 1.249.84.39 1.063.833a.93.93 0 0 1 .07.86q-.26.681-.883.894-.624.213-1.582.044-.51-.09-1.29-.47a15 15 0 0 1-1.64-.995 18 18 0 0 1-1.668-1.303 13.5 13.5 0 0 1-1.42-1.442q-.599-.73-.844-1.4-.1-.34.076-.773.18-.453.544-.792.365-.36.774-.389 1.913-.086 3.32-.403 1.41-.317 2.33-.739.946-.44 1.466-.872.524-.453.642-.775.135-.32.037-.559-.075-.255-.467-.324-.314-.055-.9.063-.582.1-1.385.422-.785.326-1.699.932-.894.609-1.828 1.554-.91.93-1.772 2.271t-1.582 3.132a3 3 0 0 1-.452.848q-.255.298-.576.403t-.712.036m17.42 3.011q-1.41-.249-2.284-.786-.854-.534-1.269-1.273a3.24 3.24 0 0 1-.383-1.602 4.9 4.9 0 0 1 .373-1.77 6.4 6.4 0 0 1 1.145-1.918 8.3 8.3 0 0 1 1.832-1.574 7.5 7.5 0 0 1 2.247-.956 6.2 6.2 0 0 1 2.513-.061q1.155.204 1.846.749.69.545.885 1.388.198.821-.21 1.88a3.3 3.3 0 0 1-.937 1.308 3.8 3.8 0 0 1-1.402.741 6.7 6.7 0 0 1-1.679.249 9.5 9.5 0 0 1-1.75-.147q-1.35-.238-1.83-.726-.455-.504-.294-.96.107-.264.287-.373a.7.7 0 0 1 .498-.074q.195.034.479.145t.792.2q.626.111 1.284.045a3.4 3.4 0 0 0 1.143-.303q.505-.234.653-.612.15-.396.009-.624-.139-.246-.647-.336a2.84 2.84 0 0 0-1.243.064q-.632.15-1.207.554a5.4 5.4 0 0 0-1.023.99q-.443.568-.727 1.264a1.94 1.94 0 0 0-.113.868q.045.433.395.736.35.305 1.094.435 1.096.193 1.874.129a6 6 0 0 0 1.32-.272q.561-.204.99-.35.429-.147.762-.088.568.1.671.542.105.442-.08.915-.207.488-.74.878-.534.39-1.34.612a8.3 8.3 0 0 1-1.822.264 9.7 9.7 0 0 1-2.112-.151m11.678 2.059q-1.878-.331-2.825-1.144-.923-.828-1.07-1.944-.146-1.116.333-2.343a6.4 6.4 0 0 1 1.145-1.917 8.2 8.2 0 0 1 1.831-1.574 7.4 7.4 0 0 1 2.248-.956 6.15 6.15 0 0 1 2.513-.062q1.722.304 2.421 1.376.7 1.072.1 2.641-.41 1.058-1.332 1.602a5.1 5.1 0 0 1-2.094.66 9 9 0 0 1-2.342-.111q-1.35-.237-1.83-.726-.456-.504-.295-.96.108-.264.288-.373.204-.125.498-.074.195.035.479.145.282.111.792.2.626.111 1.283.045a3.4 3.4 0 0 0 1.144-.303q.505-.234.652-.611.15-.398.01-.624-.139-.247-.648-.336a2.93 2.93 0 0 0-1.648.193 4.3 4.3 0 0 0-1.497 1.048 5.4 5.4 0 0 0-1.054 1.631q-.158.436-.113.868t.395.735q.35.305 1.094.435 1.095.194 1.874.129.781-.084 1.32-.272.56-.204.99-.35t.762-.087q.567.1.671.542.104.441-.08.914-.207.488-.74.878-.534.392-1.34.612a8.3 8.3 0 0 1-1.822.264 9.6 9.6 0 0 1-2.113-.151m10.405 1.855a4.4 4.4 0 0 1-.958-.29 2.2 2.2 0 0 1-.833-.651q-.365-.448-.515-1.201-.13-.75.054-1.908.204-1.155.84-2.818a76 76 0 0 1 1.11-2.63q.555-1.213 1.109-2.287.555-1.093 1.18-2.113.375-.64.799-.868.423-.228.971-.131.744.13.957.754.217.603-.236 1.795-.22.565-.553 1.194-.313.63-.71 1.388a80 80 0 0 0-.822 1.692q-.447.93-.899 2.122a17 17 0 0 0-.564 1.595q-.165.597-.182.917.007.304.127.426a.7.7 0 0 0 .3.133q.234.042.398.03.183-.007.323-.003.144-.015.281.009.568.1.62.493.056.372-.16.9a2.15 2.15 0 0 1-.625.919q-.405.352-.936.501-.528.13-1.076.032m6.96 1.207q-1.606-.283-2.427-.771-.8-.504-.997-1.104t.028-1.186q.154-.417.512-.616.38-.215.89-.125.274.047.511.191.237.142.487.328.273.168.644.355.375.168.961.271.901.159 1.565.054.665-.105 1.086-.435-.115-.262-.581-.485a14 14 0 0 0-1.06-.51q-.599-.267-1.21-.577a5.5 5.5 0 0 1-1.078-.755 2.13 2.13 0 0 1-.634-.98q-.162-.573.13-1.309.338-.888 1.032-1.392a4.4 4.4 0 0 1 1.621-.723 7.7 7.7 0 0 1 1.907-.168q1.005.015 1.922.197.881.156 1.326.496.464.344.564.806t-.088.954q-.18.452-.542.671a1.1 1.1 0 0 1-.769.127 5 5 0 0 1-.466-.103 4 4 0 0 0-.401-.131 4 4 0 0 0-.6-.146q-.92-.162-1.662-.071-.72.075-1.235.367.05.291.472.527a10 10 0 0 0 1.024.484q.622.25 1.234.56.63.313 1.123.723t.674.987q.204.561-.094 1.335-.325.811-.898 1.315-.57.485-1.34.733a6 6 0 0 1-1.702.265 9.8 9.8 0 0 1-1.929-.159"/><g fill="#0E0E0E" clip-path="url(#b)"><path d="M217.085 213.21c-.033 4.422-2.203 7.304-5.896 8.248-1.292.331-2.568.116-3.81-.248-.944-.282-1.838-.547-2.832-.232-.281.083-.662.215-.845-.182-.149-.348.083-.613.315-.845 1.143-1.259 2.65-1.772 4.24-2.087.745-.149 1.507-.331 2.253-.364 1.358-.034 2.02-.845 2.401-1.988 1.027-3.031.795-6.095.282-9.176-1.011-6.111-2.137-12.206-2.435-18.417-.05-1.043-.066-2.087-.099-3.13 0-.398.082-.713.497-.862.48-.182.828.083 1.01.431.248.497.464 1.043.546 1.573 1.359 8.895 3.114 17.739 4.307 26.666.049.315.049.646.049.629zM214.865 236.662c-4.853-.083-9.424-1.59-13.399-4.77-1.275-1.027-2.219-2.303-2.633-3.926-.083-.331-.183-.811.132-1.027.381-.248.629.216.878.431 6.343 5.979 13.73 7.155 21.78 4.439 4.919-1.656 8.413-5.052 10.55-9.805.099-.215.182-.447.315-.646.298-.431.347-1.275 1.076-1.027.596.199.53.911.464 1.491-.514 4.505-2.716 7.999-6.344 10.616-3.759 2.7-8.016 3.975-12.819 4.207z"/></g><path fill="#000" d="M253.284 407.173q-.135-.115-.58-.214t-.466-.148q-.042-.098-.236-.216a3 3 0 0 0-.34-.259q-.278-.113-.27-1.382.008-1.27.167-3.065.085-.209.148-.668.089-.47.142-.549a.25.25 0 0 1 0-.202q.031-.128.13-.17l.029-.473q.005-.26.506-1.453.502-1.191.865-1.692.33-.513.866-.741.585-.25 1.145-.083l.897.281q.99.3 1.129.356l1.245.422.103 1.395q.06.752.308 1.337a3.45 3.45 0 0 0 1.248 1.515q.235.216.493.28.281.053.644-.043.578-.13.764.309.228.537.147.888a.92.92 0 0 1-.319.538 6 6 0 0 1-.516.277 2.6 2.6 0 0 1-1.448.182q-.74-.117-1.552-.809a4 4 0 0 1-.497-.423 4 4 0 0 1-.398-.464 5.7 5.7 0 0 1-.292.873q-1.435 3.603-2.997 4.266a1.86 1.86 0 0 1-1.065.135m.482-2.594q.411-.117 1.14-1.52l.175-.333q.084-.209.193-.428.445-.851.655-1.372.225-.556.387-1.258l.164-1.106q-.471-.434-.739-.521-.278-.112-.473-.03-.488.208-.847 1.396-.37 1.164-.649 3.356-.081.553-.045 1.113.025.536.039.703m18.496-13.551q-.008.522.247 2.141.28 1.608.479 2.214.283.802.428 1.143.207.487.47.837.381.558.495.826.166.391.043.644-.088.268-.461.541-.415.176-.721.134-.271-.03-.563-.309a45 45 0 0 1-.482-.457 7 7 0 0 1-.488-.541 2.5 2.5 0 0 1-.273-.575 3 3 0 0 1-.215-.37q-.149-.282-.12-.352l-.159-.306q-.239-.561-.623-2.212a7 7 0 0 0-.179.594 1.7 1.7 0 0 0-.092.327 2 2 0 0 1-.119.396 58 58 0 0 1-.364 1.45q-.137.49-.232.876a2.2 2.2 0 0 0-.041.651q.068.431-.089.671a1.05 1.05 0 0 1-.44.388q-.098.041-.921-.271a1.23 1.23 0 0 1-.694-.684 3 3 0 0 1-.127-.436 172 172 0 0 0-.604-1.355q-.553-1.234-1.166-1.866l-.866 5.693a2.15 2.15 0 0 0-.093.932q-.039.794-.428.959-.195.083-.473-.029-.627-.05-.911-.247-.295-.22-.61-.893.034-.532.218-.639.533-3.02.656-3.474.137-.49.173-.678.005-.464.269-1.266-.003-.142.212-.925.239-.792.379-.938l.012-.379q-.137-.662.57-.962.147-.062.254-.079a1.3 1.3 0 0 1 .529.092q.258.063.441.158l.348.141.312.328q.035.216.075.313.073.17.568.796.028.132.464.753.568.795.588 1.046.258-1.089 2.083-5.606.241-.447.436-.531a.7.7 0 0 1 .359-.037q.39.036.501.162.1.102.368.189.354.225.499.566a.9.9 0 0 1 .078.456m7.643 5.45q-1.39.59-2.576.172-1.185-.418-1.796-1.857-.238-.562-.455-1.276-.2-.606-.22-1.806.004-1.211.322-2.498.342-1.296 1.146-2.184.37-.417.656-.624a2.7 2.7 0 0 1 .69-.409q1-.424 1.766-.317.789.096 1.23.457.465.35.61.691l.052.122.031.073q.125.292.114 1.218t-.477 1.93q-.441.993-1.581 1.564a7.4 7.4 0 0 1-1.188.389q-.589.105-.735.168-.366.155-.35.465t.286.944q.363.651.77.796.43.133 1.016-.115.293-.125.611-.461.307-.36.668-1.003a4 4 0 0 1 .318-.538.9.9 0 0 1 .373-.274q.22-.093.637.075.417.17.555.427.076.313-.164 1.106-.239.792-.823 1.587t-1.486 1.178m-1.642-6.241q.464-.197.593-.367.192-.225.473-.921.294-.73.236-.935a.49.49 0 0 0-.385-.297q-.267-.087-.654.019l-.269.114q-.317.134-.699.93a6.1 6.1 0 0 0-.517 1.63q.076.112.459.064.373-.072.763-.237m8.04 10.261a.43.43 0 0 1-.459-.064 7 7 0 0 1-.343-.199q-.31-.186-.527-.698a3 3 0 0 1-.117-.411q-.167-1.139-.332-1.529a2 2 0 0 1-.107-.386 5 5 0 0 0-.102-.446q.024-.213-.057-.609a2.5 2.5 0 0 0-.162-.652.9.9 0 0 1-.051-.323q.036-.189.116-.337a2.2 2.2 0 0 1-.113-.471 21 21 0 0 0-.089-.48q-.158-.71-.374-3.526a108 108 0 0 1-.273-4.577q.003-.807-.05-1.476t-.157-.912a.32.32 0 0 1-.024-.191 3 3 0 0 1 .116-.337.75.75 0 0 1 .429-.413q.415-.176.919-.073.285.195.441.36.156.163.26.408.03.073.147.484.218.512.101 1.051t-.102.504q.884-1.239 1.909-1.674 1.098-.465 2.087.035.98.477 1.425 1.526.177.414.138 1.41-.048.97-.199 1.293-.146.063-.173.678-.128.514-.77 1.306-.63.756-.963.783-.026.01-.042.104-.029.07.013.167.042.098-.587.652-.628.555-1.165.783a3 3 0 0 1-.449.162 1 1 0 0 1-.365-.047q-.099.243-.037.39.104.243.088.884-.026.616-.173.678a1 1 0 0 0-.032.129q.007.083.146.139.031.073.12.352.09.279.054.467.094.219.176.616.091.421.078.658.123.293.14.602.051.324-.046.366-.126.11.154.769.224.596.054 1.215-.144.608-.461.743zm-.292-9.98q.342-.145 1.113-.905.786-.794 1.069-1.346.365-.702.492-1.216.127-.515-.039-.905a1.23 1.23 0 0 0-.499-.565q-.285-.197-.626-.051-.805.342-1.57 2.134a5 5 0 0 0-.283 1.502q-.052.828.103 1.194.093.22.24.158m13.757-2.529a1.9 1.9 0 0 1-.604-.406q-.278-.314-.783-.963a1.5 1.5 0 0 1-.225-.394l-.176-.415a7 7 0 0 1-.037.592q-.042.306-.147.465-.324.8-.77 1.306-.574.82-1.135 1.058-.682.29-1.44-.138-1.05-.303-1.423-1.181a5 5 0 0 1-.147-.484 11 11 0 0 1-.492-1.835q-.132-.923-.096-2.464l.111-1.775.069-.921q.102-.1.37-.215.39-.165.794-.164t.531.235q.115.066.229.335.332.78.221 2.353l.002.546q.006 1.236.059 1.904.054.668.219 1.058.166.39.511.388a.6.6 0 0 0 .323-.051q.489-.207.85-1.253.387-1.057.363-3.148a6.2 6.2 0 0 0-.31-1.884q-.163-.247-.103-.647t.295-.73a.65.65 0 0 1 .175-.333q.13-.171.22-.093l.38-.19q.063-.055.313.126.273.171.368.189.327.092.575.677.342.806.357 2.468-.05 1.173.008 1.782.071.574.253 1.073.218.511.415.774.212.227.677.374.505.103.856 1.134.024.192-.154.382a1.4 1.4 0 0 1-.496.326q-.536.227-1.006.139m8.243-14.093q.278.112.423.454.135.316.123.696a1.6 1.6 0 0 1-.145.608q-.413.723-.886 1.643-1.047 1.942-1.59 2.834.24.158 1.076.839l.486.398q.16.105.41.287t.462.207q.202 0 .592-.165.522.01.737.176a.84.84 0 0 1 .298.363q.083.195.159.307l.019.453-.12.396q-.094.385-.705.645-.219.093-.637.126-.751.06-1.836-.459-.263-.147-1.81-1.62-.795-.786-1.245-1.17.027.88.225 1.344-.064.459.023 1.141.089.683.102.849.113.672-.301 1.395-.501.241-.787.247-.272-.028-.789-.298a1.9 1.9 0 0 1-.492-.684 3 3 0 0 1-.182-.7q-.023-.19-.16-2.753-.129-2.133-.146-2.241a5 5 0 0 1-.018-.654q.036-.39.057-.543.118-.942.023-1.507-.058-.407.117-.74.19-.368.506-.503.415-.177.863.065l-.01-.024a.5.5 0 0 1 .222.05.6.6 0 0 1 .233.073q.472.232.669.695.135.318.078.658l-.094.932a8.4 8.4 0 0 0-.127 1.667q.432-.27.621-.437.188-.166.294-.528l.379-.938q.249-.565.474-1.122.301-.646.54-1.237.003-.059.067-.316.078-.292.186-.511.133-.23.322-.396.508-.158.794-.164a.65.65 0 0 1 .5.162m4.756 8.028q-.136-.115-.581-.214t-.465-.148q-.042-.097-.236-.216a4 4 0 0 0-.34-.259q-.279-.113-.271-1.382.008-1.27.168-3.065.084-.209.148-.668.089-.47.141-.549a.26.26 0 0 1 .001-.202q.032-.128.129-.17l.03-.473q.004-.26.506-1.453.502-1.191.865-1.691.329-.514.866-.742.585-.248 1.145-.083l.897.281q.99.3 1.129.356l1.244.422.103 1.395q.06.751.309 1.338a3.44 3.44 0 0 0 1.247 1.514q.236.217.494.28.281.054.643-.043.579-.13.765.309.228.537.146.888a.92.92 0 0 1-.318.538 6 6 0 0 1-.516.277q-.708.3-1.448.182-.741-.117-1.553-.809a4.4 4.4 0 0 1-.496-.422 4 4 0 0 1-.398-.465 6 6 0 0 1-.292.873q-1.435 3.603-2.997 4.266a1.86 1.86 0 0 1-1.065.135m.482-2.594q.411-.116 1.139-1.52.081-.15.176-.333a6 6 0 0 1 .192-.428q.446-.85.656-1.372.225-.556.387-1.258l.164-1.106q-.472-.434-.739-.521-.278-.112-.474-.03-.488.207-.846 1.396-.37 1.165-.649 3.356-.082.554-.045 1.113.025.536.039.703m15.668-12.754q.057.408-.007.867a10 10 0 0 0-.075.636q-.015.44-.02.7a3 3 0 0 0-.001.403q.58.013.894.887l-.113.48-.666.6q.078.456.154.769.137.46.225 1.344l.091.623q.044.443-.099.647-.12.195-.454.423-.166.014-.477.03a2.7 2.7 0 0 1-.463-.005 1.4 1.4 0 0 1-.326-.092.9.9 0 0 1-.344-.401q-.093-.22-.17-.878a34 34 0 0 0-.197-1.615l-.383.249q-.356.18-.53.312a3 3 0 0 0-.272.173q-.154.18-.739.429a5 5 0 0 1-.885.289q.002.143.023.393.01.227.046.585.061.55.144.745l.182.7q.034.216.182.7.194.522.087.884a.73.73 0 0 1-.436.531q-.561.239-1.604-.183l-.242-.3-.407-2.044a8 8 0 0 0-.038-.359 2.6 2.6 0 0 0-.082-.397l-.074-.717-.052-.87q-.094-1.17-.061-1.701a15 15 0 0 1-.077-.86 52 52 0 0 1-.004-.689q.018-.094-.06-.954a32 32 0 0 1-.103-1.194q-.012-.57.5-.788a1.4 1.4 0 0 1 1.027-.09q.514.127.736.58.04.097.12.352.069.23.051.324l.055 3.316q.209-.118.505-.301.286-.209.433-.27.31-.218.823-.436.512-.217.836-.268.039-.247-.008-.832a4.6 4.6 0 0 1-.05-.727 6.3 6.3 0 0 1 .019-1.448 2 2 0 0 0-.034-.215q-.037-.157.041-.853.308-.36.625-.495.488-.207.964-.035.5.162.697.625.073.17.093.421m7.278 6.008q-1.39.59-2.575.172t-1.796-1.857a13 13 0 0 1-.455-1.275q-.2-.607-.22-1.807.004-1.211.322-2.497.342-1.297 1.145-2.185.37-.417.657-.624.274-.232.69-.408 1-.425 1.765-.318.79.097 1.23.457.466.35.61.691l.052.122.031.073q.125.293.114 1.218t-.476 1.93q-.442.993-1.582 1.564-.585.248-1.188.389-.588.105-.734.168-.366.155-.35.465t.285.944q.364.651.77.796.431.134 1.017-.115.292-.125.61-.461.308-.36.668-1.003.19-.369.319-.538a.9.9 0 0 1 .373-.274q.22-.093.637.075.417.17.555.427.075.313-.164 1.106-.24.792-.823 1.587a3.5 3.5 0 0 1-1.487 1.178m-1.641-6.241q.463-.197.592-.367.193-.225.473-.92.296-.73.237-.936a.49.49 0 0 0-.385-.297q-.268-.087-.655.019l-.268.114q-.317.134-.699.93a6 6 0 0 0-.517 1.63q.077.111.459.064.372-.072.763-.237m15.098-1.256q.36 1.459.018 3.908-.089.47-.212.925l.014-.035q-.117.741-.605.948-.513.217-1.207-.266l-.159-.306a3 3 0 0 1-.175-.617 90 90 0 0 1-.087-.884q-.048-.181.02-.901.087-1.016-.006-1.235l-1.035 1.36a8.5 8.5 0 0 1-.737.773q-.352.322-.841.732l-.746.345q-.804.342-1.32.417-.48.089-.96-.025-.807-.204-1.233-.801-.425-.595-.553-1.032-.11-.327-.129-.981a33 33 0 0 1-.031-1.023q.08-1.1-.032-2.722a60 60 0 0 1-.059-.953q-.046-.787-.115-1.017-.151-.627.017-1.044.169-.417.629-.756a1.5 1.5 0 0 1 .561-.036q.27.028.657.124a.98.98 0 0 1 .443.502q.166.391.226 1.142.027.334.035 2.116-.03.473-.015 1.187.063 2.046.198 3.111.316.068.634-.067.34-.145.645-.447.328-.312.621-.638.307-.36.448-.506l-.043-.644a58 58 0 0 0-.127-2.537 87 87 0 0 1-.103-1.396 11 11 0 0 1-.012-.773 3.5 3.5 0 0 1-.203-1.497q.058-.744.414-1.126.16-.096.405-.2a1 1 0 0 1 .619-.033q.63.193.82.372.18.154.377.617-.018.094.02.453.037.359-.003.605-.13.574-.058.745l.063 2.046.067 1.583.195-.082a.4.4 0 0 1 .088-.066l.341-.145q.283-.149.592-.165.324-.051.675.03.113-.076.51.388z"/><path stroke="#E32824" stroke-linejoin="bevel" stroke-width="6.117" d="M-13.067 366.776c24.753-26.915 28.61-33.008 58.025-54.059"/><path stroke="#E32824" stroke-linejoin="bevel" stroke-width="6.117" d="M46.04 328.217c-.12-3.364.396-11.932 3.424-19.285-5.884 1.681-18.55 4.143-22.163.546"/><g clip-path="url(#c)"><path fill="#E32824" d="M107.536 374.089c-.184.766-.369 1.518-.553 2.283-.269 1.163-.666 2.34-.709 3.531-.425.283-.624.85-.128 1.247a48 48 0 0 0 5.502 3.786c-2.368.44-4.722.865-7.061 1.418-.383.099-.497.496-.426.837-.524 2.155-1.063 4.253-1.829 6.309-1.262-2.24-2.367-4.537-3.63-6.777a.56.56 0 0 0-.439-.27.54.54 0 0 0-.241-.099c-2.212-.369-4.466-.482-6.72-.595a41 41 0 0 1 1.956-1.56c.992-.723 2.198-1.276 2.978-2.226a.633.633 0 0 0-.284-1.035c-.34-2.439-1.149-4.892-1.716-7.331.808.454 1.602.922 2.396 1.418 1.106.695 2.127 1.574 3.375 1.985.17.057.298.043.425-.028.1.057.241.071.397.028 2.297-.751 4.523-1.857 6.707-2.935z"/><path fill="#000" d="M114.469 384.625c.568.312.497 1.361-.198 1.475-2.892.496-5.771 1.035-8.663 1.417-.383 2.808-1.333 5.53-2.467 8.111-.227.553-1.035.439-1.305 0-1.503-2.51-3.034-5.147-3.998-7.926-2.85.127-5.757-.17-8.607-.34-.694-.029-1.176-.922-.595-1.447a40 40 0 0 1 3.346-2.779c.88-.652 1.843-1.46 2.892-1.914-1.375-2.623-1.9-6.012-2.396-8.847-.113-.638.497-1.177 1.106-.851 2.198 1.177 5.218 2.439 6.891 4.381 2.467-1.645 5.289-2.85 7.926-4.168.695-.341 1.475.226 1.304 1.006-.553 2.382-.808 5.317-1.857 7.543 2.098 1.645 4.31 3.063 6.65 4.353zm-7.486-8.252c.184-.766.369-1.517.553-2.283-2.183 1.078-4.409 2.184-6.706 2.935a.52.52 0 0 1-.397-.028c-.114.071-.256.085-.426.028-1.233-.425-2.268-1.304-3.374-1.985a60 60 0 0 0-2.396-1.418c.567 2.439 1.375 4.892 1.715 7.331.425.127.61.638.284 1.035-.78.95-1.985 1.503-2.978 2.226a41 41 0 0 0-1.956 1.56c2.24.113 4.508.226 6.72.595.1 0 .184.043.241.099.17 0 .34.1.44.27 1.262 2.24 2.368 4.537 3.63 6.777.765-2.056 1.304-4.154 1.829-6.309-.086-.327.028-.738.425-.837 2.339-.553 4.707-.978 7.061-1.418a48 48 0 0 1-5.501-3.786c-.497-.397-.298-.964.127-1.247.029-1.191.44-2.382.709-3.531z"/></g><g clip-path="url(#d)"><path fill="#E32824" d="m130.154 389.289-.345 1.426c-.169.727-.417 1.463-.443 2.207-.266.177-.39.532-.08.78a30 30 0 0 0 3.438 2.366c-1.48.275-2.951.54-4.413.886-.239.062-.31.31-.266.523-.328 1.347-.664 2.658-1.143 3.943-.788-1.4-1.48-2.835-2.268-4.236a.35.35 0 0 0-.275-.168.34.34 0 0 0-.151-.062c-1.382-.23-2.791-.301-4.2-.372.399-.337.806-.665 1.223-.975.62-.452 1.373-.798 1.861-1.391a.396.396 0 0 0-.178-.647c-.212-1.524-.717-3.057-1.072-4.582.505.284 1.002.576 1.498.886.691.435 1.329.984 2.109 1.241a.3.3 0 0 0 .266-.018c.062.036.15.045.248.018 1.435-.47 2.827-1.161 4.191-1.834z"/><path fill="#000" d="M134.488 395.871c.354.195.31.85-.124.921-1.808.31-3.607.647-5.415.886-.239 1.755-.833 3.456-1.542 5.069-.141.346-.647.275-.815 0-.939-1.568-1.896-3.216-2.499-4.953-1.781.079-3.598-.107-5.379-.213-.434-.018-.736-.576-.372-.904a25 25 0 0 1 2.091-1.737c.55-.407 1.152-.913 1.808-1.196-.86-1.64-1.188-3.758-1.498-5.53-.071-.399.31-.735.692-.532 1.373.736 3.261 1.525 4.306 2.739 1.542-1.028 3.306-1.782 4.954-2.606.434-.212.922.142.815.63-.345 1.488-.505 3.323-1.161 4.714a31 31 0 0 0 4.157 2.72zm-4.679-5.158.345-1.427c-1.364.674-2.756 1.365-4.191 1.835a.33.33 0 0 1-.248-.018c-.071.044-.16.053-.266.018-.771-.266-1.418-.816-2.109-1.241-.496-.31-.993-.602-1.498-.886.355 1.524.86 3.057 1.072 4.581.266.08.382.399.178.647-.488.594-1.241.94-1.861 1.392-.417.31-.824.638-1.223.974 1.4.071 2.818.142 4.2.373.062 0 .115.026.151.062.106 0 .213.062.275.168.788 1.4 1.48 2.836 2.268 4.236.479-1.285.815-2.597 1.143-3.944-.053-.203.018-.46.266-.522 1.462-.346 2.942-.612 4.413-.887a30 30 0 0 1-3.438-2.366c-.31-.248-.186-.602.08-.779.017-.745.274-1.489.443-2.207z"/></g></g><defs><clipPath id="a"><path fill="#fff" d="M0 0h424v417.375H0z"/></clipPath><clipPath id="b"><path fill="#fff" d="M198.75 183.844h35.328v52.818H198.75z"/></clipPath><clipPath id="c"><path fill="#fff" d="M88.352 371.411h26.5v24.586h-26.5z"/></clipPath><clipPath id="d"><path fill="#fff" d="M118.165 387.614h16.563v15.366h-16.563z"/></clipPath></defs></svg>