<svg xmlns="http://www.w3.org/2000/svg" width="440" height="348" fill="none"><g clip-path="url(#a)"><path fill="#000" d="M124.029 336.388c.265-.019.523-.039.788-.052.672.013 1.35.065 2.009-.157.129-.013.259-.019.394-.032a8.2 8.2 0 0 0 2.397-.203l.595-.019c.542.019 1.085.072 1.608-.137.272.072.53.032.789-.059 1.408-.013 2.81-.15 4.212-.339.271.084.53.032.788-.059.478.052.956.039 1.409-.144l.387-.032c.672.013 1.351.039 2.01-.157l.588-.052c.135-.013.271-.02.4-.033s.265-.02.394-.033c.22.053.427.053.62-.084l.983-.079c2.209-.045 4.406-.294 6.596-.581a1.9 1.9 0 0 0 1.008-.072c.278.059.549.053.801-.104.265-.02.53-.033.788-.052 1.215.019 2.423-.072 3.605-.346l.588-.039c.873.019 1.745-.013 2.604-.222q.4-.038.788-.085c.414.078.808-.02 1.208-.111l.795-.059c.943-.019 1.893-.052 2.811-.294l.387-.039c1.893.118 3.741-.326 5.621-.45 3.463-.235 6.913-.633 10.37-.96q.397-.03.794-.052c2.785-.215 5.563-.405 8.348-.653 6.486-.581 12.979-1.168 19.479-1.573 4.82-.3 9.633-.692 14.446-1.077 5.298-.431 10.609-.764 15.92-1.077 1.389-.078 2.771-.248 4.161-.379.264.092.523.098.775-.045q2.78-.254 5.563-.516c.226-.02.497-.033.504-.359 0-.281-.227-.268-.42-.287-3.606-.314-7.178-.849-10.842-.412-3.198.379-6.454.248-9.671.523-7.159.607-14.311 1.403-21.47 1.984-7.701.62-15.415 1.058-23.129 1.377-2.559.105-5.111.229-7.656.542l-1.196.059c-1.55.046-3.101.078-4.651.144-1.118.045-2.249-.085-3.354.182-.4-.078-.794-.019-1.188.072-.743-.052-1.48-.046-2.21.124-.2 0-.394.013-.594.02l-1.202.039c-.33.006-.659.02-.995.026-.937-.026-1.88-.085-2.811.118a.73.73 0 0 0-.587.032c-1.202-.046-2.404-.006-3.599.183-4.497-.013-8.981.32-13.471.49-4.988.189-9.975.443-14.963.705-10.441.541-20.875 1.07-31.31 1.677-8.437.49-16.881.868-25.3 1.756-2.313.242-4.645.327-6.97.49-.363.026-.854.15-.886-.353-.032-.489.497-.333.782-.359 9.303-.966 18.607-1.932 27.936-2.565 13.949-.953 27.904-1.828 41.866-2.546 11.003-.568 22.012-1.018 33.015-1.554 10.874-.522 21.741-1.057 32.601-1.808 9.297-.64 18.588-1.345 27.866-2.298 2.319-.241 4.645-.352 6.971-.522.956.085 1.906.059 2.856-.326-1.286-.248-2.578-.49-3.864-.738-.491-.137-.976-.267-1.467-.405a1.17 1.17 0 0 0-.717-.274c-1.376-.711-2.868-1.247-3.779-2.643-.201-.314-.537-.216-.827-.229a409 409 0 0 0-30.463.085c-6.118.248-12.25.3-18.368.581-14.866.679-29.733 1.449-44.599 2.174-12.34.6-24.674 1.181-37.014 1.769-1.428.065-2.856.163-4.284.228-.239.013-.594.176-.652-.228-.065-.464.317-.412.607-.438 4.116-.313 8.231-.646 12.347-.933 15.745-1.116 31.509-1.9 47.274-2.709 13.037-.673 26.062-1.443 39.107-1.965 11.92-.477 23.84-.47 35.76-.405.472 0 .853.02 1.092-.574 1.467-3.623 4.122-6.156 7.294-8.297 4.82-3.251 10.189-4.902 15.778-6.13 4.865-1.064 9.749-1.71 14.717-1.827.427-.013 1.041.346 1.273-.157.233-.49-.452-.731-.672-1.129-.303-.555-.736-1.032-1.098-1.554-.136-.189-.265-.45-.032-.64.174-.143.374-.006.529.131.892.803 1.874 1.534 2.649 2.441.459.536.873.634 1.506.647 2.532.058 5.059-.327 7.585-.066.614.066.698-.209.53-.711-.052-.157-.11-.314-.143-.477-.575-2.892.123-4.288 2.779-5.581.239-.117.471-.241.717-.352.529-.235.665-.497.29-1.064-4.457-6.731-8.198-13.885-12.062-20.968-3.192-5.861-6.176-11.834-9-17.879-4.522-9.681-9.484-19.133-14.537-28.539-4.425-8.245-9.245-16.267-13.774-24.46-2.636-4.772-5.123-9.602-7.1-14.674-2.662-6.848-4.478-13.924-4.827-21.326-.051-1.077-.478-2.135-.051-3.251.116-.307-.453-.248-.698-.183a63 63 0 0 0-3.03.947c-7.895 2.689-15.577 5.907-23.072 9.569-4.832 2.363-9.038 5.647-12.624 9.687-3.34 3.767-7.365 6.672-11.462 9.505-2.849 1.971-5.743 3.864-8.87 5.346-2.714 1.286-5.421 2.585-8.309 3.434-.969.287-1.945.548-2.901.868-.342.117-1.111-.17-.749.809.116.307-.62.301-.834.059-.458-.522-.982-.346-1.479-.235-8.018 1.828-16.017 3.714-24.041 5.49-7.217 1.593-14.466 3.035-21.682 4.595-5.11 1.104-10.215 2.226-15.396 2.971-3.664.522-7.346 1.037-11.01.117-4.522-1.142-7.946-4.008-10.938-7.474-.743-.862-1.453-1.75-2.177-2.624-.246-.294-.42-.412-.788-.059-3.45 3.283-7.275 6.084-11.1 8.878-4.613 3.361-9.22 6.736-14.097 9.7-3.36 2.043-6.726 4.08-10.525 5.216a9.9 9.9 0 0 1-2.649.443c-3.101.053-4.781-2.48-3.489-5.313.427-.94.879-1.887 1.602-2.657.149-.157.42-.313.246-.581-.168-.274-.407-.072-.627-.026-2.248.463-4.393 1.332-6.687 1.599-1.428.17-2.855.19-4.277-.065-1.835-.333-2.326-1.142-1.783-2.983.039-.124.052-.255.084-.451-.62.04-1.202.131-1.783.105-2.268-.085-3.676-1.756-3.43-4.021.012-.131 0-.32.077-.385 1.001-.856.155-1.358-.35-1.913-1.95-2.128-1.963-3.812-.025-5.986 1.725-1.932 3.799-3.466 5.737-5.157.343-.3.698-.587 1.015-.979-1.099 0-2.158.111-3.224-.085-1.848-.346-3.114-1.449-3.709-3.159-.581-1.671.29-3.016 1.538-4.054a73 73 0 0 1 8.354-6.012c3.301-2.037 6.531-4.204 10.175-5.621 1.654-.639 3.308-1.24 5.092-1.344.69-.039.775-.131.368-.777-2.287-3.636-4.316-7.389-5.182-11.678-.478-2.363-.271-4.589.995-6.685 1.835-3.035 5.363-3.094 7.314-.13 1.072 1.625 1.873 3.401 2.765 5.118 1.841 3.538 4.555 6.136 7.986 8.055 3.1 1.736 6.428 3.107 9.258 5.268 1.538 1.175 2.946.261 4.406.398.226.02.368-.111.356-.372-.078-2.089.6-4.034 1.201-5.986 1.047-3.427 1.855-6.933 3.101-10.301.698-1.873 1.506-3.695 2.565-5.385-.07-.079-.103-.144-.148-.163-.375-.177-1.034.359-1.13-.549-.098-.901.561-.626.955-.724 2.972-.751 6.015-1.123 9.039-1.56 3.424-.503 6.848-.986 10.266-1.495 3.463-.516 6.952-.94 10.383-1.619 1.912-.385 3.812-.914 5.756-1.09 3.676-.34 7.191-1.417 10.758-2.265 6.441-1.541 12.682-3.656 18.626-6.659 6.254-3.159 12.747-5.77 19.596-7.311 5.123-1.155 10.35-1.782 15.551-2.487 3.262-.444 6.499-1.018 9.633-2.082 5.336-1.808 10.641-3.721 15.861-5.856 1.738-.711 3.476-1.436 5.24-2.082 1.751-.64 3.411-1.521 5.123-2.278a263 263 0 0 0 11.132-5.222c4.064-2.024 8.16-3.976 12.25-5.947 3.353-1.619 6.319-3.865 9.265-6.084 5.433-4.093 11.597-6.077 18.206-6.906 1.719-.216 3.431-.412 5.169-.066 1.757.346 3.269 1.201 4.665 2.259.529.398.923.607 1.582.248 2.798-1.527 5.944-2.082 8.878-3.225 1.867-.73 1.692-.228 1.331-2.271 0-.033-.013-.066-.02-.098-.355-1.73-.349-1.69-2.003-1.665-4.522.079-8.638-.992-11.493-4.843-2.21-2.977-3.373-6.417-3.341-10.158.026-3.153 2.094-4.915 4.73-5.979 2.862-1.155 5.763-.98 8.683.444-.078-1.182-.162-2.298-.22-3.42-.278-4.87-.691-9.734-.278-14.616.039-.483-.09-.607-.529-.542-.362.052-.73.085-1.092.11-.394.027-.414.216-.42.595-.071 3.12-.188 6.24-.284 9.36-.013.334-.13.627-.498.647-.433.02-.291-.379-.336-.6-.633-2.977-.678-6.006-.672-9.028 0-.888-.271-1.078-1.027-1.078-3.243 0-6.442-.47-9.588-1.207-2.701-.633-5.304-1.534-7.456-3.42-3.133-2.749-3.514-6.391-1.04-9.78 1.79-2.454 4.174-4.242 6.635-5.9 8.477-5.719 17.122-11.143 26.264-15.726 3.275-1.645 6.531-3.342 9.801-5.006.439-.222.904-.399 1.369-.575 1.325-.496 1.331-.49 1.079-1.932-.187-1.07-.213-2.089.181-3.16 1.292-3.544 4.613-3.831 7.172-1.436 1.227 1.156 1.918 2.677 2.054 4.354.071.823.375 1.045 1.092 1.188 3.489.705 6.965 1.476 10.447 2.207 4.038.848 7.966 2.089 11.894 3.322a179 179 0 0 1 17.955 6.71c2.378 1.039 4.658 2.28 6.726 3.892 4.07 3.172 4.471 7.036 1.117 11.018-2.971 3.525-6.615 6.208-10.492 8.604-.568.352-1.105.803-1.725.992-1.105.346-1.473 1.097-1.622 2.154-.361 2.54-1.195 5.027-.865 7.73 1.176-.517 2.377-.902 3.611-1.098 3.935-.633 7.708.718 9.265 4.713.982 2.52.439 5.04-.756 7.39-2.177 4.282-5.556 7.402-9.536 9.935-.401.255-1.156.49-.905.986.259.516.989.17 1.435-.059 2.423-1.253 4.516-2.95 6.37-4.955 2.119-2.278 3.883-4.915 6.338-6.84 6.241-4.883 13.258-7.175 21.205-6.189 7.268.907 13.419 4.217 18.956 8.89 4.393 3.702 7.733 8.31 11.106 12.913 4.096 5.587 8.069 11.254 11.397 17.35 2.959 5.412 5.511 11.019 7.849 16.738 3.593 8.806 6.5 17.846 9.188 26.959.865 2.944 1.712 5.901 2.442 8.884.749 3.062 1.382 6.163 2.164 9.211 1.758 6.809 3.211 13.689 4.607 20.576 1.079 5.339 2.061 10.699 2.687 16.11.369 3.192.995 6.378.808 9.628-.168 2.892-.988 5.392-3.153 7.488-1.822 1.769-3.876 3.087-6.176 3.916-2.132.771-3.198 2.239-3.857 4.256-1.17 3.578-2.772 6.946-5.046 9.962-.608.809-1.286 1.56-2.094 2.154-.542.405-.51.777-.387 1.351.387 1.802 1.305 3.44 1.55 5.294.382 2.833-.297 5.497-1.35 8.042-1.576 3.832-3.515 7.488-6.093 10.758-5.175 6.56-11.39 11.848-18.813 15.621-3.78 1.926-7.876 2.82-12.037 3.479-3.301.523-6.596.953-9.93.327-.62-.118-.821.052-.937.737-1.286 7.553-1.958 15.197-3.502 22.704-.588 2.859-1.059 5.744-1.596 8.616-.116.621.007.79.653.594 3.541-1.057 7.113-1.991 10.764-2.585 7.43-1.201 14.898-2.154 22.406-2.709 5.847-.43 11.694-.809 17.541-1.148 3.456-.196 6.919-.281 10.382-.386.298-.006.827-.195.84.399.007.607-.523.633-.943.672-3.114.294-6.235.555-9.349.842-7.061.653-14.123 1.273-21.159 2.219-5.608.758-11.229 1.43-16.83 2.259-4.807.712-9.536 1.854-14.24 3.094-.717.19-1.027.66-1.124 1.221-.175 1.012-.233 2.024-.691 2.983-.285.594.174.477.51.392 1.899-.483 3.793-1.019 5.705-1.443 5.214-1.142 10.499-1.782 15.809-2.245 7.728-.679 15.468-1.319 23.227-1.404 6.493-.065 12.986-.065 19.46.581.349.033.853-.157.84.542-.013.659-.381.738-.918.731-7.061-.078-14.123-.059-21.178.228-11.151.451-22.277 1.228-33.305 3.042-3.935.647-7.831 1.561-11.746 2.35-.478.098-.885.275-1.105.758-.065.143-.233.359-.317.346-1.195-.209-1.085.77-1.318 1.436-.077.222-.122.457-.226.659-.362.731-.058.757.575.646 3.502-.639 6.978-1.423 10.499-1.978 5.434-.855 10.899-1.403 16.372-1.886 6.138-.535 12.262-1.188 18.426-1.397 6.622-.229 13.245-.47 19.867-.039.297.019.594 0 .898 0 .213 0 .517-.137.588.183.065.3-.052.522-.381.711-.595.346-1.221.313-1.842.333-6.622.183-13.251.392-19.86.888-10.99.829-21.986 1.619-32.905 3.153-3.954.554-7.882 1.273-11.765 2.271-.989.255-1.512.731-1.68 1.697-.058.333-.148.653-.22.986-.303 1.391-.297 1.417 1.034 1.064 7.146-1.893 14.447-2.781 21.786-3.349 7.469-.581 14.944-1.129 22.419-1.553 7.682-.438 15.37-.686 23.065-.398.271.013.73-.151.711.261-.013.326-.201.744-.756.764-1.564.052-3.127.182-4.684.248-6.319.267-12.631.711-18.93 1.272-9.517.849-19.079 1.097-28.577 2.233-5.323.633-10.64 1.305-15.816 2.781-1.305.372-2.5.744-2.849 2.343-.123.588-.601 1.097-1.001 1.789a10.2 10.2 0 0 0 2.797-.242c6.474-1.429 12.974-2.728 19.531-3.649 6.959-.979 13.975-1.462 20.991-1.827 8.716-.451 17.438-.568 26.16.026.214.013.504-.131.524.254.019.32-.039.62-.446.66-.498.045-.995.104-1.493.11-9.885.229-19.763.692-29.642 1.156-11.836.548-23.504 2.291-35.095 4.687-.717.15-1.421.398-2.138.463-1.926.177-3.076 1.227-4.064 2.879-1.551 2.598-3.767 4.569-6.629 5.653-1.189.45-2.462.581-3.728.627a76 76 0 0 1-6.887-.085c-2.785-.144-5.576-.196-8.36-.222-3.528-.033-6.965-.692-10.318-1.678-2.087-.62-4.2-1.279-6.157-2.311-1.202-.633-2.152-1.481-2.824-2.709-.375-.685-1.04-1.214-1.531-1.84-1.241-1.58-2.093-3.284-1.609-5.386.213-.914-.168-1.136-1.027-1.083-5.44.313-10.887.607-16.314 1.122-8.748.823-17.495 1.691-26.243 2.566-2.32.228-4.626.542-6.939.816-.31.039-.776.222-.834-.235s.453-.398.75-.451c3.799-.646 7.604-1.273 11.403-1.906.149.059.284.046.394-.078l2.824-.392c.122-.013.245-.019.374-.032.944-.124 1.887-.242 2.83-.366.336.065.659.02.976-.104.142-.026.284-.053.42-.072 1.537-.013 3.043-.287 4.554-.483 8.716-1.13 17.477-1.717 26.225-2.461.426-.039.853-.17 1.279-.189.472-.027.556-.457.569-.705.019-.373-.407-.229-.633-.229-1.997 0-3.993-.013-5.99.059-8.147.307-16.268.927-24.389 1.606-1.686.143-3.366.339-5.046.515-.129.013-.265.02-.394.033l-.401.02c-.4-.02-.801-.033-1.189.117l-1.007.098c-.13 0-.259.013-.395.013-.471-.013-.956-.131-1.395.157-.336.013-.666.032-1.001.045-.408-.032-.821-.065-1.202.157-.601.026-1.208-.065-1.796.124-.233-.144-.407.059-.614.111-.2 0-.394.007-.594.013-.472 0-.957-.091-1.396.157a13.4 13.4 0 0 0-2.843.274c-.523.059-1.04.124-1.563.183-.595.078-1.189.15-1.79.228-.278-.039-.556-.065-.808.105l-1.195.098c-.148-.053-.297-.072-.413.071-.465-.013-.931 0-1.383.15-.155-.084-.284-.039-.413.059-3.36.157-6.674.731-10.008 1.123-1.712.196-3.437.313-5.13.679-.271.059-.485 0-.543-.281-.077-.352.239-.346.446-.398 1.583-.405 3.198-.627 4.807-.894 6.764-1.13 13.561-1.946 20.358-2.814.362-.045.717-.137 1.072-.209 1.351.007 2.682-.202 4-.457.265-.032.523-.065.788-.091.148.078.284.065.407-.059.543.013 1.085.013 1.602-.189 3.734-.339 7.469-.685 11.203-1.025.536.078 1.06.02 1.583-.078 1.208-.033 2.423-.085 3.612-.333.4.046.801.026 1.188-.098a8 8 0 0 0 .401-.085c.136.098.265.065.381-.039.879.013 1.758 0 2.63-.176l.575-.04c5.013-.287 10.027-.561 15.034-.881 1.557-.098 3.127-.032 4.671-.372.724-.156 1.254-.509 1.557-1.305-.794-.164-1.518-.04-2.229.052-8.612 1.116-17.276 1.645-25.927 2.376-5.265.444-10.544.809-15.835.855h-.86q-.89.031-1.783.052a1.76 1.76 0 0 0-1.021.013h-.381c-.407-.104-.814-.137-1.221.026-.123 0-.252.007-.375.014a1.95 1.95 0 0 0-1.221 0c-3.262-.105-6.519.11-9.775.254-4.426.196-8.845.437-13.264.783-14.324 1.117-28.654 2.148-42.971 3.297-12.178.979-24.344 2.089-36.516 3.114-11.675.985-23.35 1.958-35.031 2.898-10.582.849-21.185 1.554-31.761 2.474-12.967 1.129-25.96 1.9-38.952 2.761-.827.052-1.66.026-2.468.281-.29.091-.633.157-.704-.281-.059-.398.284-.378.536-.431 2.552-.509 5.136-.724 7.714-.985 11.43-1.175 22.884-2.024 34.326-2.99 8.231-.692 16.462-1.293 24.7-1.932.433-.033.859-.105 1.286-.157 1.008.039 2.009 0 3.004-.222.265-.019.53-.032.788-.052.213.052.427.072.614-.078.265-.02.523-.04.788-.053.743.026 1.486.053 2.21-.15.265-.019.523-.039.788-.065.136-.007.271-.02.407-.026l.388-.039c.148.052.29.039.413-.072zm255.692-102.426.084.032.078-.039c.724-.124 1.415-.333 2.054-.712l3.728-.933c-.206.144-.458.163-.652.274-2.352 1.319-4.775 2.487-7.372 3.244-.581.17-.433.614-.459.96-.032.45.304.392.627.353 1.357-.177 2.681-.47 3.999-.823 2.488-.659 5.033-.946 7.592-1.077 1.563-.078 2.319 1.103 1.828 2.618-.284.887-.988 1.312-1.706 1.742-2.209 1.332-4.574 2.318-6.997 3.16-1.686.587-3.404 1.09-5.104 1.632-.956-.065-1.395.392-1.408 1.351-.007.464-.116.927-.162 1.397-.252 2.291-.833 4.53-.988 6.835-.013.143-.02.28-.032.424-.246.711-.407 1.443-.362 2.2l-.058.418c-.175.248-.143.522-.117.796-.026.137-.045.274-.071.418-.129.117-.097.261-.051.398-.052.405-.11.809-.162 1.214a.76.76 0 0 0-.116.601l-.039.411a1.44 1.44 0 0 0-.162 1.005q-.036.51-.084 1.018c-.135.111-.161.242-.09.405-.039.268-.071.542-.11.81-.174.169-.168.378-.129.594l-.213 1.618c-.11.255-.207.516-.155.81-.033.274-.058.542-.091.816-.116.254-.187.516-.123.803-.025.202-.058.411-.083.613-.143.111-.156.248-.072.399-.045.404-.084.809-.129 1.214-.226.79-.349 1.593-.278 2.415-.013.131-.019.261-.032.392-.013.346-.265.894.491.587l.407-.098c.271.053.543.092.795-.072.478.066.943 0 1.402-.137a.58.58 0 0 0 .594-.091c.136-.02.272-.039.414-.065.219.078.42.045.594-.124.265-.039.536-.085.801-.124.155.085.285.058.401-.072.135-.026.271-.046.407-.072.22.065.413.013.594-.124.201-.046.401-.098.601-.144.446.144.827-.039 1.195-.261.427.02.821-.104 1.209-.267a.52.52 0 0 0 .581-.164c.42-.026.84-.058 1.215-.287.633-.039 1.24-.176 1.789-.502a7.3 7.3 0 0 0 2.016-.64c.472-.072.943-.137 1.318-.483.226-.052.465-.078.678-.17 3.78-1.586 7.385-3.453 10.609-6.051 6.215-5 11.533-10.712 14.769-18.173.866-2.004 1.797-4.048 1.254-6.293-.847-3.492-2.442-6.717-3.883-9.988-.291-.835-.549-1.69-.879-2.513-3.159-7.924-6.312-15.849-9.517-23.754-1.098-2.716-2.119-5.477-3.45-8.095-.103-.319-.187-.646-.316-.946a276 276 0 0 0-11.52-23.905c-4.329-7.996-9.09-15.718-14.776-22.821-2.92-3.649-6.086-7.069-10.292-9.236-4.891-2.52-9.82-2.827-14.608.254-3.062 1.972-5.136 4.942-7.061 7.957-1.363 2.129-2.462 4.42-3.528 6.724-1.053 2.272-1.854 4.641-2.487 7.037-.646 2.441-1.273 4.902-1.699 7.409-.298 1.749-.866 3.46-1.099 5.216-.278 2.108-.749 4.177-.943 6.305-.2 2.213-.704 4.4-.859 6.613-.207 2.983-.582 5.947-.782 8.93-.078 1.234.058 2.428.627 3.545.032.587.762.913.594 1.586-.071.254.103.418.22.6-1.616.085-1.842.294-1.977 1.822q-.078.9-.117 1.801c-.064 1.273-.045 2.553-.2 3.812-.155 1.254.175 2.468.071 3.741-.258 3.127-.155 6.286-.2 9.432-.091.738-.136 1.476-.058 2.213a1.9 1.9 0 0 0 0 1.012 5.2 5.2 0 0 0 0 1.612c-.084 2.69-.175 5.386-.259 8.075-.194 2.944-.09 5.888-.097 8.832-.006 2.442.059 4.883.097 7.324a17 17 0 0 0 .039 3.225q.001.61.013 1.208c.013 2.52.013 5.039.058 7.559.013.607-.304 1.351.498 1.762.129.066.135.379-.033.438-.956.333-.51 1.142-.62 1.762a1.17 1.17 0 0 0-.052.797c-.491 3.348-.148 6.736-.374 10.105-.123 1.788.064 3.649.2 5.476l.039 1.6c-.097 1.619.019 3.231.148 4.843-.045 1.417 0 2.827.123 4.237-.006 2.676-.032 5.353-.013 8.029.007 1.162-.097 2.337.168 3.492-.071.209-.032.398.058.594.026 1.325.129 2.637.369 3.943.064.346.058.783.62.548.187 0 .381 0 .568-.006.226.254.504.274.808.189.084.02.161.033.245.052 1.609.823 3.366 1.117 5.117 1.443.117.137.259.189.427.131 1.906.496 3.857.731 5.808.946l.388.059a3.7 3.7 0 0 0 1.809.333c.187.098.374.143.581.085.911.352 1.861.359 2.811.352a.71.71 0 0 0 .588.046c.452.189.923.307 1.415.267a.78.78 0 0 0 .594.066c.717.222 1.441.411 2.203.372.523.117 1.04.293 1.596.235 1.253.307 2.52.476 3.799.6.129.02.258.039.387.066.175.169.388.189.608.137l.387.078q1.324.43 1.506-.907c.013-.098.013-.196.019-.301.116-.124.168-.267.116-.437.143-.118.11-.268.078-.418.11-.391.162-.79.11-1.201.077-.215.194-.431.232-.653.582-3.512 1.15-7.023 1.738-10.529.853-5.098 1.648-10.209 2.585-15.294.833-4.524 1.621-9.061 2.145-13.63.71-6.215 1.738-12.37 2.616-18.559.692-4.85 1.512-9.687 2.262-14.53.93-6.039 1.938-12.07 3.043-18.076.484-2.643 1.285-5.209 1.847-7.833.194-.405.336-.823.291-1.286.194-.209.31-.444.317-.738q.066-.313.142-.626c.258-.163.252-.457.329-.705a235 235 0 0 0 3.127-10.849q.639-2.41 1.267-4.811c.252-.431.471-.927 1.117-.562q.145.188.291.366l.091.796c.006 3.656-.13 7.292-.802 10.895-.336 1.802-.684 3.597-1.027 5.398l-.039.216c-.529 2.082-1.014 4.165-1.208 6.312l-.31 1.384c-.174.986-.465 1.958-.465 2.97-.013.065-.019.131-.032.196-.369.868-.388 1.808-.55 2.722q-.04.196-.071.392c-.135.111-.148.261-.096.418-.026.202-.046.404-.072.6-.135.105-.161.248-.116.411-.258.705-.316 1.449-.4 2.187-.285.796-.407 1.619-.42 2.461q-.038.194-.084.398c-.227.385-.181.803-.149 1.221l-.039.424c.013.327-.31.823.401.784l.775-.059c.2.032.388 0 .523-.17zm-126.599 91.819c1.027.098 2.067 0 3.049-.209 1.48-.313 3.043.176 4.458-.555.582-.313 1.157-.183 1.616-.052-.453.085-1.028.209-1.603.045-.258.262-.568.098-.853.098-2.228-.045-4.451-.15-6.667.209-.304.033-.834-.235-.801.307.026.424.504.202.801.163zm65.338-8.147c.213.131.381 0 .543-.104 1.983-1.339 4.038-2.566 5.924-4.048.362-.287.982-.443.517-1.142-.271-.411-.278-.979-.691-1.305-.091-.072-.284-.118-.362-.066-.904.607-1.983.425-2.972.653-.581.131-.898.307-.969 1.005-.174 1.652-.64 3.212-1.867 4.426-.078.079-.071.248-.104.372q-1.907 1.156-3.824 2.311c-.937.366-1.861.757-2.869.966-4.167.868-8.399.966-12.618 1.097-4.871.143-9.665.855-14.479 1.501-.575-.013-1.091.255-1.673.398.582.079 1.131.151 1.66-.091.194.013.395.033.588.033 4.361.019 8.671-.777 13.084-.281 3.954.45 7.953-.437 11.939-.614 1.906-.085 3.004-1.795 4.561-2.598q1.803-1.251 3.606-2.513zm-26.657-108.178v-.019c-.045-.098-.078-.19-.117-.287.033-.164 0-.314-.129-.431-1.273-3.486-2.616-6.939-4.122-10.327-1.085-2.441-2.048-4.955-3.489-7.226a1.02 1.02 0 0 0-.394-.731c-.045-.379-.232-.673-.504-.927-.898-1.88-2.209-3.506-3.23-5.307-.472-.836-1.085-1.515-1.958-1.946-.336-.169-.833-.346-.607-.855.226-.496.698-.378 1.137-.248 1.053.313 1.848 1.051 2.727 1.652 5.375 3.701 9.717 8.277 12.307 14.432 1.764 4.191 3.483 8.395 5.201 12.606 2.585 6.338 4.659 12.859 6.997 19.282.647 1.776 1.422 3.46 2.423 5.04.201.313.381.751.905.633-.414.3-.039.542.116.699 1.544 1.592 2.752 3.446 4.161 5.15 2.416 2.911 4.826 5.823 7.171 8.793 1.163 1.475 2.423 2.885 3.295 4.582.278-.176.239-.359.233-.509-.233-5.346.103-10.692.123-16.039.032-8.375 0-16.75-.149-25.131-.019-1.09-.465-1.75-1.144-2.409-1.292-1.26-2.61-2.494-3.87-3.786-7.152-7.318-14.297-14.655-21.443-21.979-6.215-6.371-12.689-12.475-19.318-18.395-5.827-5.209-11.881-10.164-17.974-15.06-3.049-2.454-6.241-4.543-10.143-5.176-2.358-.385-4.755-.555-7.146-.731-4.387-.333-8.715-.111-12.812 1.769-3.398 1.56-5.524 4.04-5.898 7.924-.317 3.258-.42 6.522-.033 9.772.627 5.314 1.551 10.575 3.347 15.628 2.649 7.448 6.261 14.452 10.066 21.345 4.671 8.447 9.672 16.698 14.117 25.269 4.923 9.492 9.685 19.061 14.395 28.657 5.226 10.66 10.75 21.157 16.907 31.301 1.234 2.03 2.552 4.008 3.806 6.025.879 1.403.568 2.05-1.014 2.298-1.409.222-2.817.437-4.103 1.162-.782.437-.976 1.07-.601 1.749 1.202 2.187 2.649 4.171 4.8 5.529.853.646 1.751 1.227 2.766 1.586l.181.078c.232.438.717.418 1.085.627.11.157.265.157.426.137.201.274.446.444.802.385.09.033.174.066.264.098 1.551.81 3.205 1.293 4.936 1.508q.196.04.382.072c.568.3 1.188.346 1.815.339l.388.059c.187.163.4.203.633.144l.291.059c2.339.496 4.697.639 7.081.567 2.061.118 4.122.111 6.183.046.807.124 1.615.385 2.423 0h.374c.207.17.414.144.614-.013.271.092.53.039.788-.046 1.215.013 2.43-.013 3.612-.339.271.072.53.013.782-.091.568.071 1.124-.053 1.679-.157.575-.111.782-.431.672-1.005-.426-2.265-.252-4.557-.297-6.841-.013-.647.414-1.28.168-1.887-.749-1.847-1.008-3.825-1.634-5.699-1.39-4.125-2.817-8.238-4.122-12.396-2.527-8.068-4.982-16.156-7.463-24.237-.801-2.618-1.583-5.236-2.474-7.827-.75-2.174-1.344-4.419-2.016-6.632-1.505-4.948-3.321-9.792-4.619-14.805-.711-2.755-1.913-5.359-2.746-8.088-1.047-3.427-2.094-6.874-3.405-10.209-1.57-3.989-3.34-7.899-5.143-11.79-1.337-2.885-2.894-5.587-4.968-7.983-.53-.607-1.034-1.273-2.003-1.593.245.94.891 1.462 1.279 2.135 2.248 3.916 4.264 7.951 6.157 12.063 2.714 5.895 4.917 11.992 7.043 18.121.684 1.965 1.124 4.002 1.692 5.999 1.389 4.942 2.824 9.863 4.213 14.805 1.557 5.529 3.069 11.065 4.626 16.587 1.647 5.842 3.308 11.678 5.13 17.462 1.55 4.922 2.933 9.896 4.593 14.792 1.667 4.908 3.567 9.785 3.411 15.124-.51.418-1.027.816-1.421-.124.084-.881-.065-1.749-.265-2.591-.898-3.891-2.145-7.683-3.346-11.496-2.055-6.521-3.955-13.088-5.97-19.622-1.809-5.862-3.489-11.763-5.188-17.664-2.914-10.111-5.654-20.282-8.787-30.328-.924-2.963-1.841-5.934-2.972-8.825q-.167-.49-.323-.98c-.258-.437-.168-1.038-.62-1.39-.02-.516-.278-.94-.491-1.39.026-.229-.007-.425-.246-.529zM231.73 313.391c-.775.229-1.066.934-1.395 1.547-1.053 1.985-.769 2.846.82 3.721.595.326 1.195.698 1.842.862 1.75.437 3.443 1.083 5.278 1.24 1.815.15 3.612.542 5.44.614 1.189.13 2.371.332 3.566.385 7.146.306 14.285.026 21.431 0 .665.045 1.331.078 1.983-.144 1.603-.111 3.205-.215 4.807-.326.272.085.536.085.788-.092.55.072 1.086 0 1.616-.163.135.085.264.085.387-.026 3.379-.32 6.758-.627 10.131-.979.891-.092 1.777-.34 2.565-.784.542-.306 1.576-.424 1.35-1.207-.162-.562-1.111-.242-1.686-.15-3.521.581-7.075.79-10.622 1.064-3.25.248-6.48.679-9.717 1.025-.136-.079-.271-.079-.394.026l-4.206.372a.63.63 0 0 0-.588.039c-2.617.196-5.233.424-7.85.581-4.522.274-9.038.091-13.555-.163-.491-.066-.982-.137-1.479-.203-3.463-.47-6.913-1.005-9.995-2.839-1.686-.999-1.899-2.102-.691-3.571.471-.248.969-.437 1.505-.483 1.383-.124 2.604-.685 3.818-1.338 3.037-1.619 6.093-3.186 9.149-4.772 2.158-1.116 4.477-1.821 6.7-2.787l.342-.079c1.292-.287 2.585-.581 3.883-.868 3.502-.424 7.01-.692 10.538-.77.207 0 .581.274.555-.248-.019-.411-.336-.346-.594-.313-1.686.208-3.379.176-5.072.208-1.828.04-3.65.118-5.446.477-.129 0-.265-.02-.394 0-5.582.907-11.022 2.389-16.236 4.589-3.153 1.332-6.086 3.107-8.567 5.542zm83.732 28.559c3.211.907 6.493 1.292 9.808 1.482 5.53.313 11.035-.118 16.533-.633 1.796-.17 3.56-.542 5.033-1.704 2.268-1.789 4.051-3.969 5.169-6.678-.537-.242-.724.248-.911.45-1.092 1.143-2.307 2.148-3.651 2.931-5 2.905-10.382 4.472-16.191 4.648a84.7 84.7 0 0 1-15.796-1.005c-1.124-.464-2.287-.757-3.502-.803a10.2 10.2 0 0 0 3.508 1.318zm16.63-2.598c-.471-.229-.969-.15-1.46-.131a.65.65 0 0 0-.549-.006c-.426-.072-.853-.183-1.279-.203-5.337-.248-10.544-1.462-15.829-2.088-.724-.085-1.435-.288-2.139-.497-.975-.293-1.499-1.018-1.421-2.043.09-1.214.349-2.376 1.001-3.446a13.3 13.3 0 0 1 3.27-3.636c4.677-3.604 9.322-7.259 14.162-10.647a4.9 4.9 0 0 0 1.253-1.286c.278-.411.045-.698-.271-.933-.298-.222-.517-.138-.75.163-1.176 1.501-2.726 2.559-4.309 3.557-4.368 2.755-8.877 5.294-12.625 8.956-1.505 1.469-3.107 2.84-4.031 4.805-1.053 2.252-.33 4.386 1.977 5.255 2.08.783 4.199 1.521 6.364 1.991 5.278 1.148 10.641 1.129 16.003.776.194.007.394.053.582.02.258-.046.697.17.723-.235.02-.313-.368-.398-.678-.392zm-96.996-22.384c1.48.359 2.811 1.143 4.316 1.436 2.216.438 4.432.764 6.694.888 3.03.17 6.066.313 9.064-.032 4.678-.542 9.362-1.064 14.039-1.58 5.634-.627 11.339-.47 16.973-1.286 2.229-.327 4.471-.594 6.687-.992 1.945-.353 3.915-.372 5.86-.386 3.275-.013 6.564.301 9.833-.13 1.564-.202 3.198-.104 4.645-.934.595-.195 1.189-.385 1.777-.594.2-.071.504-.137.439-.443-.071-.32-.368-.229-.575-.164-.956.281-1.944.294-2.926.399-1.732-.085-3.457-.066-5.188-.02-1.228.033-2.494.144-3.683-.098-2.39-.483-4.813-.816-7.159-1.514-1.957-.588-4.005-.875-5.898-1.685-1.215-.522-2.391-1.129-3.567-1.729-.303-.157-.672-.405-.904-.19-.278.261.071.555.232.842a33 33 0 0 1 1.28 2.559c.129.288.232.699-.104.914-.29.189-.549-.065-.788-.261a8.2 8.2 0 0 1-1.899-2.252c-.73-1.299-1.215-2.735-2.165-3.91-.349-.438-.672-.718-1.331-.607-.665.117-.626.574-.756 1.005-.277.966-.62 1.09-1.208.268-.555-.771-1.221-.895-2.041-.849-.433.026-.866.013-1.299.007-1.344-.02-1.492.215-.84 1.423.549 1.018.872 2.082.892 3.25.006.457-.026.947-.478 1.13-.511.209-.834-.261-1.015-.614-.84-1.632-1.919-3.101-2.92-4.628-.401-.607-.801-.907-1.531-.777-2.565.457-5.162.353-7.753.477-.375.019-.995-.294-1.053.372-.052.561.575.535.943.711.116.053.265.039.388.079 1.686.496 3.159 1.344 4.341 2.676.155.17.381.346.201.601-.136.189-.362.098-.556.052s-.407-.046-.582-.131c-1.634-.79-3.288-1.527-4.813-2.546-1.253-.842-2.526-1.769-4.206-1.429-.807.163-1.634.248-2.436.457-4.083 1.07-7.862 2.957-11.771 4.504-2.946 1.162-5.427 3.153-8.238 4.563-.193.006-.387.019-.575.019-.284 0-.672-.111-.743.262-.077.385.285.58.608.659.588.13 1.15.516 1.789.228M69.241 158.501c2.261 1.56 4.439 3.225 6.106 5.444 6.24 8.303 10.376 17.573 12.346 27.815 1.079 5.62 1.59 11.247.407 16.913-.11.529-.006.751.595.627 1.757-.372 3.527-.673 5.278-1.064 3.573-.803 7.191-1.378 10.725-2.35.853-.235 1.486-.457.885-1.554-.194-.352-.168-.855-.161-1.286.077-5.992-1.293-11.743-2.934-17.429-1.938-6.71-4.354-13.245-7.462-19.498-2.035-4.087-4.27-8.049-7.12-11.633-.368-.457-.704-.62-1.337-.535-5.673.77-11.326 1.73-17.03 2.252-.589.052-1.209.052-1.674.522-.808-.222-1.557-.79-2.513-.45.084.143.103.228.155.248q.969.487 1.938.966c.077.209.265.183.426.202.071.151.207.209.362.222.09.229.271.288.491.274.175.105.343.216.517.32zm188.307-20.497a49 49 0 0 0-3.774-4.818c-1.04-1.181-2.164-2.278-3.417-3.238-.33-.254-1.124-.228-.782-.887.265-.503.846-.118 1.266.019.246.079.472.242.705.379 1.401.855 2.661 1.906 3.85 3.029 3.063 2.892 6.093 5.823 9.174 8.701 4.678 4.367 9.194 8.871 13 14.061 2.493 3.401 5.013 6.789 7.791 9.968 4.232 4.843 8.884 9.282 13.29 13.956 7.075 7.494 14.382 14.766 20.901 22.775 1.221 1.502 2.52 2.951 3.76 4.433.194.228.394.346.672.346.284 0 .304-.222.284-.425-.239-2.689.272-5.378.007-8.068-.026-.261-.033-.516-.213-.757-1.066-1.371-2.158-2.722-3.244-4.073-7.055-8.8-13.955-17.723-19.847-27.391-3.198-5.248-6.416-10.496-8.71-16.241-2.073-5.202-3.114-10.607-3.036-16.241.052-3.44.711-6.821.762-10.255.013-.698-.2-.973-.685-1.24-2.422-1.345-4.716-2.879-6.777-4.759-4.199-3.825-7.327-8.375-9.297-13.747-.821-2.239-1.467-4.524-2.119-6.815-.11-.379-.188-.77-.704-.575-2.617.98-5.376 1.508-7.967 2.572q-1.602.66-.885 2.252c1.751 3.904 2.546 7.977 2.087 12.259-.123 1.13-.226 2.272-.659 3.343-.097.241-.103.568-.472.548-.374-.02-.342-.346-.394-.601-.407-1.978-.672-3.975-.717-5.999-.064-3.068-.982-5.855-2.584-8.447-1.861-3.009-4.406-4.588-8.011-4.06-.821.124-1.654.196-2.475.34-5.828.985-10.938 3.629-15.745 6.971-4.71 3.264-9.62 6.189-14.75 8.708-4.077 2.004-8.263 3.767-12.431 5.568-3.45 1.489-6.874 3.042-10.382 4.374-7.023 2.67-14.046 5.327-21.256 7.455a87 87 0 0 1-11.882 2.637c-3.805.568-7.656.881-11.442 1.534-4.419.764-8.78 1.828-13.012 3.355-2.138.771-4.251 1.586-6.305 2.559q-3.633 1.723-7.256 3.466c-2.009.973-4.135 1.632-6.222 2.403-.768.287-.827.496-.394 1.253 2.268 3.962 4.691 7.84 6.668 11.972a434 434 0 0 1 7.339 16.195c2.908 6.776 5.343 13.715 7.114 20.882.084.346.2.62.575.483 1.57-.574 3.243-.718 4.832-1.227.343-.111.537-.274.44-.737-.44-2.076-1.002-4.126-1.118-6.261-.162-3.035.904-5.796 1.919-8.564.148-.411.452-.783.982-.685.685.13.4.665.368 1.057-.155 2.076-.568 4.132-.446 6.228.02.313-.064.75.272.913.368.183.594-.215.827-.424 2.655-2.396 5.285-4.817 7.946-7.206 2.178-1.952 4.581-3.558 7.372-4.472 3.87-1.266 7.837-1.397 11.849-.966 1.17.124 2.358.281 3.386.79.704.346.943.156 1.369-.274 3.231-3.258 6.694-6.254 10.745-8.402 6.822-3.616 13.936-6.566 21.262-8.956 2.591-.842 5.13-1.854 7.87-2.219.691-.091 1.453-.464 1.402-1.632-.091-1.971.529-3.864 1.324-5.64 1.428-3.179 3.96-5.261 7.049-6.639 7.074-3.166 14.401-2.709 21.766-1.377 2.578.463 5.104 1.149 7.495 2.265 1.802 1.188 3.592 2.376 5.407 3.545.22.143.511.496.782.195.297-.326.078-.672-.174-.979-.905-1.116-1.738-2.284-2.578-3.453-1.228-1.71-2.339-3.505-3.741-5.078zm35.334-7.912h.077v.81c.045 6.899 1.26 13.577 4.038 19.89 3.961 8.982 9.188 17.22 14.737 25.262 4 5.79 8.29 11.365 12.631 16.9.136.17.239.477.517.372.271-.104.142-.411.175-.626.755-6.104 1.13-12.253 2.125-18.33 1.241-7.599 2.785-15.118 5.705-22.26 2.016-4.922 4.652-9.504 8.341-13.362 3.831-4.008 8.444-6.104 14.072-5.444.187.019.413.163.555-.033.188-.254-.064-.411-.174-.607-2.145-3.917-2.701-8.062-1.661-12.409.627-2.611 1.622-5.092 2.83-7.481.168-.326.188-.907.763-.731.523.163.342.672.303 1.044-.2 1.88-.853 3.656-1.331 5.471-1.182 4.438-1.059 8.714 1.635 12.611 1.027 1.488 1.957 3.016 3.98 3.558 2.5.672 4.852 1.854 6.861 3.557 3.198 2.716 5.95 5.869 8.47 9.231 4.51 6.005 8.47 12.376 12.218 18.884 3.353 5.817 6.447 11.783 9.394 17.821.982 2.004 1.905 4.041 2.836 6.071.355.777.685 1.181 1.55.463 1.725-1.429 3.709-2.421 5.796-3.231 4.238-1.645 7.972-.907 11.138 2.383 2.669 2.774 5.137 5.738 7.165 9.034 2.223 3.617 4.335 7.305 5.13 11.58.097.516.33.49.685.288.724-.405 1.441-.836 2.184-1.201 1.499-.732 1.996-1.907 2.015-3.584.059-6.241-1.13-12.318-2.216-18.402-1.266-7.069-2.817-14.087-4.509-21.058-.853-3.506-1.809-6.992-2.701-10.491-2.074-8.107-4.671-16.051-7.255-24.002-2.682-8.225-5.854-16.254-9.44-24.107-1.964-4.315-4.07-8.564-6.493-12.638-3.553-5.96-7.669-11.528-11.836-17.057-3.857-5.117-8.205-9.713-13.768-12.99-7.184-4.223-14.685-5.3-22.58-2.245-7.217 2.787-11.862 9.589-11.992 17.39-.058 3.72.659 7.297 1.758 10.796.536 1.698.949 3.506 2.177 4.916.116.137.168.333-.058.404-.291.092-.446.594-.853.294-.265-.196-.536-.398-.762-.633-1.344-1.403-2.191-3.114-2.862-4.915-1.499-4.002-2.494-8.082-1.874-12.423.168-1.194.187-2.408.465-3.59.045-.183.155-.418-.084-.529-.213-.098-.368.085-.504.229-.09.098-.161.222-.265.307-2.397 2.036-4.781 4.132-8.263 3.655-.465-.065-.485.176-.478.516.019.705.045 1.41.052 2.121.083 7.044-.123 14.048-2.456 20.811-2.222 6.443-5.478 12.207-10.492 16.854-2.19 2.024-4.535 3.839-7.204 5.183-3.043 1.534-6.305 2.07-9.665 2.115-.724.014-.956.235-.93 1.012.103 2.99.155 5.986.587 8.956.827 5.699 2.094 11.3 4.588 16.509 2.229 4.667 5.123 8.936 8.489 12.86.149.169.394.346.252.6-.161.294-.433.209-.704.118-1.37-.47-2.404-1.423-3.386-2.429-2.377-2.428-4.173-5.307-6.04-8.127-2.32-3.499-4.413-7.121-5.873-11.071-2.184-5.894-2.126-11.919-.646-17.964.148-.601.045-.823-.55-.973-1.899-.489-3.798-.972-5.62-1.703-.64-.255-.802-.124-.789.535.026 1.749.007 3.499.007 5.248zM274.83 49.468v.254h-5.685c-.388 0-.698-.026-.685.555.071 2.892-.065 5.797.168 8.676.497 6.155.898 12.311 2.074 18.408.833 4.315 1.518 8.669 2.345 12.984.452 2.356 1.518 4.582 2.171 6.912.885 3.173 2.061 6.235 3.857 8.963 4.865 7.363 11.423 12.383 20.022 14.616 5.821 1.508 11.093.587 15.758-3.231 3.321-2.723 6.26-5.823 8.502-9.577 3.25-5.444 5.44-11.273 6.474-17.527.491-2.99.452-6.031.336-9.06-.142-3.695-.504-7.35-1.04-11.013-.549-3.786-.704-7.63-.943-11.456-.246-3.923-1.041-7.813-.634-11.763.078-.777-.142-1.005-.878-1.031a328 328 0 0 1-7.579-.379c-5.905-.372-11.778.079-17.625.803-4.613.575-9.245 1.045-13.82 1.985-2.384.49-4.897.248-7.345.568-1.797.235-3.644.202-5.466.326zm49.897-6.365c2.513.568 5.498-.874 8.393-2.65 2.229-1.37 4.257-3.01 6.376-4.537a46 46 0 0 0 5.537-4.687c1.137-1.129 1.163-2.408.136-3.649-1.092-1.318-2.332-2.474-3.876-3.218-3.767-1.814-7.573-3.531-11.539-4.889-3.199-1.097-6.326-2.37-9.601-3.27-2.559-.705-5.059-1.645-7.618-2.403-3.114-.914-6.305-1.488-9.426-2.35-1.996-.554-4.025-.776-6.079-.927-.414-.032-.847-.104-1.112.235-.31.399-.077.849.162 1.208.898 1.404 1.609 2.905 2.39 4.367.931 1.73 1.784 3.493 2.203 5.431.072.34.317.868-.2 1.064-.459.177-.846-.143-1.092-.522-.394-.607-.827-1.181-1.176-1.834-1.247-2.337-2.868-4.446-4.16-6.743-.937-1.658-2.63-2.083-3.877-3.186-.084-.072-.323-.02-.459.04-.904.41-1.828.789-2.694 1.272a222 222 0 0 1-7.552 4.067 368 368 0 0 0-8.38 4.458c-1.357.745-2.662 1.593-3.999 2.376-2.281 1.326-4.594 2.599-6.849 3.956-3.476 2.096-6.913 4.263-10.253 6.574-2.1 1.449-4.07 3.048-5.64 5.098-.847 1.103-.847 2.102-.02 3.212 1.241 1.651 2.972 2.689 4.833 3.322 3.657 1.234 7.449 1.913 11.326 1.887 5.479-.04 10.957.045 16.417-.536 2.758-.293 5.537-.352 8.295-.744 2.178-.307 4.374-.548 6.565-.835 2.061-.268 4.128-.555 6.189-.797 4.116-.49 8.225-1.057 12.385-1.103 4.458-.046 8.916-.02 14.401.307zM53.91 180.937c-.078.248.064.359.168.483 1.556 1.893 2.235 4.093 2.196 6.534-.006.614.007 1.312-.801 1.397-.717.078-1.02-.47-1.227-1.09-1.687-5.105-5.195-8.467-9.97-10.614-2.92-1.312-5.698-2.879-8.237-4.85-2.184-1.698-4.07-3.656-5.292-6.202-.943-1.958-1.95-3.877-2.926-5.816-.814-1.612-2.048-1.717-3.147-.261-.18.235-.336.503-.452.777-.724 1.658-.53 3.277 0 4.98 1.68 5.366 4.432 10.007 8.58 13.807 1.887 1.729 4.116 2.95 6.125 4.497.659.509 1.33.999 1.9 1.626.264.293.316.587.167.913-.174.373-.53.235-.788.17-.575-.15-1.15-.326-1.706-.548-3.217-1.319-6.338-2.781-8.638-5.562-.549-.666-1.279-.861-2.145-.796-1.518.104-2.913.613-4.328 1.11-3.928 1.37-7.385 3.629-10.874 5.842a89 89 0 0 0-8.07 5.744c-.594.477-1.02 1.097-.794 1.926.226.809.769 1.397 1.576 1.521 1.318.196 2.688.313 3.954-.157 4.542-1.671 8.878-3.812 13.161-6.064 1.557-.823 3.101-1.671 4.678-2.441.504-.248 1.272-.575 1.621 0 .323.522-.135 1.129-.613 1.566a21.7 21.7 0 0 1-3.89 2.801c-3.379 1.932-6.842 3.688-10.337 5.405-2.636 1.299-4.697 3.499-6.862 5.483-1.279 1.168-2.648 2.265-3.585 3.76-.595.953-.53 1.899.161 2.585.724.718 1.37.065 1.977-.222 4.174-1.991 8.115-4.419 12.16-6.645 3.773-2.07 7.481-4.243 10.686-7.174a35 35 0 0 0 1.589-1.528c.42-.437.846-.457 1.325-.124.458.32.206.692.084 1.058-.162.476-.408.894-.698 1.312-1.39 1.978-3.218 3.512-5.156 4.869-6.215 4.348-12.773 8.114-19.615 11.372-.465.222-.892.587-1.234.979-.2.228-.407.568-.2.992s.53.47.898.477c.665.006 1.324-.033 1.97-.255 2.85-.999 5.55-2.35 8.27-3.642a499 499 0 0 0 11.378-5.549c2.345-1.188 4.916-1.808 7.197-3.114.523-.3 1.04-.587 1.628-.692.485-.084 1.027-.241 1.318.359.297.614-.155.934-.556 1.241a7 7 0 0 1-1.014.639c-3.902 2.057-7.792 4.139-11.72 6.136-4.077 2.07-8.205 4.035-12.308 6.065-.71.352-1.466.685-1.886 1.429-.155.281-.44.614-.265.921.155.267.55.117.84.117 3.527 0 6.816-1.129 10.06-2.324 2.687-.985 5.239-2.343 7.933-3.309 3.147-1.129 6.177-2.526 9.233-3.852.859-.372 1.634-.953 2.597-1.077.33-.045.704-.202.904.151.24.404-.187.561-.407.789-.446.47-1.001.79-1.57 1.058-3.967 1.893-7.74 4.171-11.668 6.129-3.172 1.58-5.46 3.845-6.68 7.2-.382 1.045.032 1.646 1.117 1.561a10.9 10.9 0 0 0 3.56-.901c4.542-2.017 8.697-4.7 12.819-7.461 6.208-4.165 12.281-8.506 18.051-13.284 2.92-2.416 5.401-5.046 5.84-9.074.052-.47.181-1.234.873-1.149.646.079.736.784.814 1.351.039.262.045.542.013.803-.194 1.463-.226 2.951-.679 4.374-.077.235-.349.522-.103.731.245.209.581.052.834-.104 1.279-.803 2.745-1.123 4.134-1.645 4.878-1.835 9.698-3.839 14.783-5.072 1.55-.379 1.55-.431 1.253-2.057-.976-5.261-2.558-10.32-5.04-15.072-.322-.62-.645-.692-1.246-.575-7.96 1.547-15.713 4.021-23.718 5.255zm60.143-32.378c-.181.026-.316.033-.446.065-4.716 1.156-9.432 2.35-14.213 3.205-.756.138-.42.425-.175.784 1.693 2.526 3.482 4.994 5.033 7.611 2.856 4.831 5.117 9.961 7.288 15.145a93.7 93.7 0 0 1 6.254 22.292c.245 1.651.581 3.316-.271 4.928-.246.457.032.594.471.49.776-.19 1.551-.385 2.326-.562 5.22-1.181 10.441-2.376 15.668-3.531.717-.157.697-.477.542-1.071-1.44-5.633-3.644-10.979-5.84-16.332a341 341 0 0 0-9.317-20.739c-1.944-3.969-3.934-7.911-6.37-11.6-.239-.359-.433-.789-.943-.678zM324.779 321.89c.749.15 1.563.346 1.957-.045.659-.653 1.221-.484 1.887-.255 1.77.6 3.695.117 5.466.829 1.46.587 3.01.946 4.303 1.926.42.319.878.659.491 1.22-.356.509-.866.555-1.493.268-2.274-1.051-4.723-1.482-7.178-1.763-1.873-.215-3.786-.032-5.666-.13-1.925-.098-3.321.809-4.807 1.697-.252.15-.626.313-.555.627.084.365.51.235.781.215 1.906-.104 3.786.098 5.654.444.956.176 1.893.483 2.707 1.09.374.281.678.607.523 1.084-.174.542-.653.633-1.15.548-.917-.15-1.815-.391-2.752-.378-.465.006-.737.189-1.073.541-1.602 1.665-2.19 4.034-3.896 5.627-.336.314-.29.673.291.725 2.804.254 5.595.64 8.406.751 3.488.143 6.971.3 10.44.633 2.035.196 3.806-.157 5.149-1.874.388-.489.905-.874 1.37-1.299 1.699-1.534 3.424-3.048 4.762-4.935a164 164 0 0 0 3.269-4.778c.833-1.273 1.292-2.703 1.421-4.23.033-.366.058-.725-.484-.816-2.352-.379-4.697-.836-7.055-1.181-2.003-.301-4-.634-5.99-.98-3.094-.541-6.183-1.083-9.297-1.534-.588-.085-1.13-.15-1.169.62-.039.712.581.588 1.014.647 1.544.215 3.153.15 4.646.489 2.881.653 5.491 2.024 7.908 3.754a6.6 6.6 0 0 1 1.589 1.586c.155.215.426.463.065.777-.272.235-.537.274-.814.085-1.667-1.13-3.619-1.574-5.46-2.279-2.778-1.057-5.614-1.945-8.58-2.336-1.176-.157-2.306-.281-3.075.979-.368.607-.995.829-1.738.659-.814-.189-1.389.196-1.88.973zM170.327 178.13c-3.14.026-6.526.75-9.562 2.689-4.684 2.983-8.884 6.6-13.025 10.288-1.047.933-1.538 2.128-1.499 3.577.045 1.593.181 1.73 1.725 1.397 5.278-1.155 10.053-3.512 14.698-6.208 3.095-1.795 5.712-4.276 8.768-6.11 1.783-1.07 3.327-2.448 4.806-3.91.239-.235.485-.496.388-.875-.11-.424-.517-.385-.821-.417-1.686-.183-3.366-.418-5.485-.425zm253.108 36.15c-.071-.15-.174-.359-.265-.574-1.324-3.31-3.476-6.097-5.498-8.976-2.927-4.164-6.558-7.683-9.988-11.391-1.189-1.279-1.499-1.344-3.076-.659-1.111.483-1.175.659-.684 1.834.116.281.193.575.31.849 1.621 3.74 3.269 7.468 4.865 11.215a722 722 0 0 1 4.438 10.725c.252.62.504.731 1.118.476.911-.385 1.88-.653 2.823-.953 1.835-.581 3.702-1.09 5.434-1.965.226-.117.543-.13.51-.581zm-10.163-24.498c-1.46.072-2.881.587-4.322 1.149-.982.385-.756.646-.187 1.168a201 201 0 0 1 3.411 3.244c5.434 5.255 10.034 11.091 12.54 18.383.168.496.414.483.827.319 1.545-.6 3.102-1.155 4.646-1.743.878-.332 1.169-.92.898-1.879-.498-1.789-1.234-3.473-2.055-5.118-2.752-5.516-6.667-10.086-11.326-14.028-1.227-1.038-2.739-1.463-4.438-1.495zM93.727 152.626c-.788.124-1.576.235-2.364.378-.207.04-.537-.065-.588.242-.039.242.213.398.387.555 2.326 2.147 4.232 4.648 5.912 7.324 4.561 7.278 7.76 15.157 9.95 23.461 1.699 6.436 3.172 12.925 3.185 19.648 0 .457.155.535.517.398.878-.333 1.764-.587 2.713-.535.401.02.491-.248.31-.509-.814-1.175-1.001-2.546-1.117-3.897-.963-10.817-3.967-21.072-8.432-30.909-2.429-5.353-5.181-10.523-8.722-15.236-.445-.594-.91-1.083-1.75-.92M266.67 74.763c-.039-.483-.058-.744-.084-1.012-.258-2.911-.588-3.427-3.469-3.969-2.3-.43-4.691-.718-6.364 1.62-.045.058-.187.038-.278.078-1.027.417-1.454 1.194-1.363 2.304.161 1.958.601 3.838 1.415 5.633 2.08 4.583 5.356 7.364 10.589 7.24 1.376-.033 1.376-.007 1.228-1.39-.013-.132.064-.269.038-.393-.2-.992-.064-2.036-.465-2.996-.795-1.906-2.313-3.27-3.657-4.739-1.499-1.632-3.249-2.892-5.679-2.52-.297.046-.626-.124-.943-.189-.329-.072-.329-.45-.226-.542.646-.594 1.021-1.547 2.016-1.704a7.25 7.25 0 0 1 3.54.294c1.338.457 2.378 1.423 3.715 2.278zm65.119-12.5c.833-.875 1.512-1.665 2.351-2.253 1.635-1.142 3.36-1.906 5.395-1.149.375.137.795.275.691.823-.103.561-.413.9-1.02.888-2.804-.072-4.581 1.664-6.267 3.59-.705.81-1.008 1.664-.789 2.755.349 1.749.472 3.525.563 5.307.019.404.058.6.497.32 3.909-2.481 6.771-5.895 8.742-10.086.607-1.292.949-2.741.277-4.08-1.15-2.284-3.101-3.29-5.646-3.179-1.784.079-3.334.803-4.891 1.58-.44.222-.44.542-.401.914.149 1.43.31 2.86.491 4.57zm-8.206 223.992c.407-.378.252-.803.272-1.188.265-6.541-.827-12.997-1.228-19.498-.019-.281-.116-.522-.349-.692-1.544-1.149-2.668-2.716-3.902-4.158-1.299-1.528-2.526-3.121-3.792-4.681-.136-.169-.259-.476-.537-.326-.277.15-.084.418-.019.627.065.222.161.437.239.659.646 1.723 1.305 3.434 1.822 5.203 1.001 3.44 1.996 6.886 3.037 10.32a632 632 0 0 0 3.391 10.836c.311.966.485 1.997 1.066 2.898m.924-26.698c-.116-1.75-.433-3.623-1.847-5.138-.64-.678-1.131-1.494-1.732-2.212-2.539-3.023-5.22-5.921-7.591-9.081-1.667-2.219-3.263-4.491-4.904-6.73-.123-.169-.22-.509-.491-.404-.304.117-.252.45-.155.705.349.94.691 1.886 1.072 2.813 1.066 2.592 1.977 5.248 3.47 7.657 1.97 3.179 4.425 5.953 6.861 8.754 1.428 1.645 2.817 3.316 4.523 4.674.174.137.355.378.594.287.271-.098.162-.405.194-.62.026-.163 0-.333 0-.705zm100.356-41.334c-.42.078-.846.15-1.266.235-2.714.509-5.408 1.071-8.025 1.965-.659.222-.924.659-.672 1.299 1.125 2.859 1.932 5.842 3.199 8.649.245.542.491.614.923.137 1.234-1.338 2.126-2.898 3.063-4.445 1.37-2.278 2.306-4.726 3.017-7.278.065-.229.342-.614-.233-.562zM317.588 312.83c-.672 1.122-1.68 1.592-2.707 2.056-2.242 1.005-4.594 1.547-7.03 1.762-3.708.34-7.436.373-11.144.751-.995.105-.944.679-.976 1.364-.039.823.568.601.963.608 2.435.039 4.865-.164 7.281-.451 3.67-.437 7.359-.783 10.899-1.991 1.867-.64 2.895-2.03 2.714-4.099M75.766 210.879c-.846-.757-1.75-1.397-2.539-2.199-1.931-1.972-3.489-4.224-4.949-6.548-.194-.307-.349-.679-.794-.666-1.544.053-3.03.294-4.33 1.241-.4.293-.38.509-.057.77.44.359.937.653 1.35 1.031 2.416 2.233 5.098 4.048 7.992 5.575 1.047.555 2.152.731 3.327.79zM319.12 328.692c-2.817-.241-3.767.059-5.149 1.423-.847.836-1.409 1.808-1.015 2.97.375 1.097 1.48 1.338 2.488 1.613 1.111.3 1.957.019 2.713-.908 1.099-1.351 2.152-2.728 3.095-4.197.355-.555.491-.973-.439-.907-.562.039-1.131.006-1.693.006M62.082 161.334c-.82 2.213-1.434 4.465-2.002 6.736-.646 2.599-1.422 5.164-1.906 7.801-.059.32-.246.803.135.894.782.19 1.603.046 2.352-.221.691-.249-.065-.732.052-1.11.084-.281.064-.594.097-.895.297-2.656 1.014-5.248 1.234-7.924.142-1.763.278-3.506.032-5.275zM291.816 2.566c-.918.02-1.939.96-2.023 1.815-.161 1.625 1.054 3.792 2.527 4.537.374.189.736.287 1.124.045.878-.535 1.596-2.05 1.402-2.996-.259-1.299-1.816-3.238-2.701-3.368-.129-.02-.265-.02-.329-.026zm55.059 333.254c.316.157.536.092.736-.045.859-.575 1.764-1.09 2.559-1.743 2.519-2.063 4.315-4.72 5.821-7.592.807-1.547 1.589-3.114 1.615-4.922 0-.365.207-.881-.355-1.018-.621-.144-.608.483-.672.783-.756 3.499-2.694 6.319-4.891 9.008-1.544 1.887-3.121 3.741-4.807 5.529zm30.96-93.164c2.972.098 10.473-3.126 11.087-4.713-.336-.104-.653.014-.976.085-2.81.607-5.408 1.808-8.044 2.905-.84.346-1.621.718-2.067 1.73zm-107.14 59.801c.278.627.711.496 1.092.548.859.105 1.68-.189 2.533-.202.995-.013 1.99-.078 2.985-.144.329-.026.891.164.872-.365-.019-.424-.549-.215-.834-.196-2.183.105-4.367.235-6.648.366zM75.243 173.012c.64.268 1.008-.091 1.428-.046.194.02.446-.039.375-.32-.078-.319-.407-.306-.556-.163-.31.287-.64.49-1.247.529m231.4 59.683c-.155.686-.071 1.299.64 1.795.11-.796-.381-1.247-.64-1.795m-233.26-58.919c-.834-.287-1.228.039-1.7.528.704.105 1.06-.326 1.7-.528M20.21 218.987c.045.033.11.078.18.124.066-.098.143-.196.195-.3.006-.013-.13-.137-.175-.131-.116.026-.22.105-.194.3z"/><path fill="#F7DDC9" d="M233.926 322.34c1.286.248 2.578.489 3.864.737-.943.386-1.893.412-2.856.327-.142-.548-1.059-.333-1.008-1.064M272.503 332.451c-.316.124-.639.17-.975.105.258-.686.594-.601.975-.105M231.742 321.654c.272.02.511.098.717.274-.303.085-.62.19-.717-.274M268.694 332.917c-.121.013-.242.019-.37.032.026-.141 0-.334.211-.308.063.006.102.18.159.276M265.495 333.336c-.109.121-.242.141-.389.077.083-.263.204-.347.389-.077"/><path fill="#DD2935" d="M324.727 43.103c-5.485-.327-9.943-.353-14.401-.307-4.155.046-8.27.614-12.386 1.103-2.067.248-4.128.53-6.189.797-2.19.287-4.381.528-6.564.835-2.759.392-5.537.45-8.296.744-5.466.581-10.945.49-16.417.536-3.876.032-7.669-.653-11.326-1.887-1.867-.626-3.592-1.67-4.832-3.322-.834-1.104-.827-2.109.019-3.212 1.57-2.043 3.54-3.65 5.64-5.098 3.347-2.305 6.778-4.478 10.254-6.574 2.261-1.358 4.567-2.63 6.848-3.956 1.344-.776 2.642-1.631 3.999-2.376a368 368 0 0 1 8.38-4.458 222 222 0 0 0 7.553-4.067c.865-.483 1.789-.862 2.694-1.273.135-.065.381-.117.458-.039 1.247 1.103 2.94 1.521 3.877 3.186 1.292 2.297 2.914 4.406 4.161 6.743.349.653.775 1.227 1.176 1.834.245.379.633.698 1.091.522.517-.195.272-.724.201-1.064-.414-1.939-1.273-3.701-2.203-5.43-.782-1.463-1.493-2.97-2.391-4.368-.233-.365-.465-.81-.161-1.207.264-.34.697-.268 1.111-.236 2.048.157 4.083.38 6.079.927 3.121.869 6.313 1.437 9.427 2.35 2.558.751 5.059 1.698 7.617 2.403 3.276.9 6.403 2.173 9.601 3.27 3.967 1.358 7.772 3.075 11.539 4.89 1.537.744 2.784 1.899 3.876 3.218 1.028 1.24 1.002 2.52-.135 3.648a45.5 45.5 0 0 1-5.537 4.687c-2.119 1.521-4.148 3.166-6.377 4.537-2.901 1.782-5.879 3.218-8.393 2.65zM234.023 315.799c2.804-1.41 5.291-3.401 8.237-4.563 3.909-1.54 7.689-3.433 11.772-4.504.795-.209 1.628-.293 2.436-.457 1.68-.346 2.952.588 4.206 1.43 1.525 1.018 3.178 1.756 4.813 2.546.175.085.388.085.582.13.193.046.419.144.555-.052.181-.254-.045-.431-.2-.6-1.182-1.332-2.656-2.181-4.342-2.677-.129-.039-.271-.026-.387-.078-.369-.176-1.002-.15-.944-.712.065-.659.685-.352 1.053-.372 2.585-.124 5.188-.013 7.753-.476.73-.131 1.131.169 1.532.777 1.001 1.527 2.08 2.996 2.92 4.628.181.359.504.822 1.014.613.452-.182.485-.666.478-1.129-.019-1.162-.342-2.232-.891-3.251-.653-1.207-.498-1.442.84-1.423.432 0 .865.02 1.298-.006.821-.053 1.486.078 2.042.848.588.823.93.699 1.208-.267.123-.431.084-.888.756-1.006.659-.117.975.17 1.331.607.95 1.175 1.428 2.618 2.164 3.91a8.2 8.2 0 0 0 1.9 2.253c.232.195.497.45.788.261.336-.216.233-.627.103-.914a34 34 0 0 0-1.279-2.559c-.161-.287-.51-.575-.233-.842.233-.222.601.032.905.189 1.176.601 2.358 1.208 3.566 1.73 1.893.816 3.941 1.097 5.899 1.684 2.345.705 4.768 1.038 7.159 1.515 1.188.241 2.455.13 3.682.097 1.732-.052 3.457-.065 5.188.02-.032 1.025.73.744 1.286.803-1.447.822-3.082.725-4.645.933-3.269.431-6.552.118-9.834.131-1.951.007-3.915.033-5.86.385-2.216.398-4.458.666-6.687.992-5.627.823-11.338.666-16.972 1.286-4.678.523-9.362 1.045-14.039 1.58-2.998.346-6.035.202-9.065.033-2.261-.131-4.477-.457-6.693-.888-1.506-.294-2.837-1.084-4.316-1.436-.2-.535-.588-.894-1.073-1.169zM324.778 321.891c.491-.777 1.066-1.162 1.88-.973.743.17 1.37-.059 1.738-.659.769-1.26 1.9-1.136 3.075-.979 2.966.391 5.802 1.279 8.58 2.337 1.842.698 3.793 1.142 5.46 2.278.278.189.542.143.814-.085.362-.313.09-.555-.065-.777a6.7 6.7 0 0 0-1.589-1.586c-2.423-1.73-5.033-3.101-7.908-3.754-1.499-.339-3.101-.274-4.645-.489-.44-.059-1.06.065-1.015-.646.045-.764.582-.705 1.17-.621 3.107.444 6.202.993 9.297 1.535 1.99.345 3.986.678 5.989.979 2.358.352 4.697.803 7.055 1.181.543.085.517.444.485.816-.13 1.528-.588 2.951-1.422 4.23a172 172 0 0 1-3.269 4.778c-1.337 1.887-3.062 3.408-4.762 4.935-.471.425-.988.81-1.369 1.299-1.344 1.717-3.114 2.063-5.149 1.874-3.47-.333-6.959-.49-10.441-.633-2.804-.111-5.602-.496-8.406-.751-.581-.052-.626-.411-.29-.725 1.705-1.586 2.293-3.955 3.895-5.626.336-.353.608-.536 1.073-.542.943-.02 1.841.228 2.752.378.498.085.976-.006 1.15-.548.155-.477-.148-.803-.523-1.084-.808-.607-1.751-.913-2.707-1.09-1.861-.346-3.747-.548-5.653-.444-.272.013-.698.151-.782-.215-.071-.313.297-.477.556-.627 1.486-.887 2.888-1.801 4.806-1.697 1.881.098 3.786-.085 5.667.131 2.455.28 4.903.711 7.177 1.762.627.287 1.138.242 1.493-.268.388-.554-.071-.9-.491-1.22-1.292-.973-2.843-1.338-4.303-1.926-1.77-.711-3.696-.235-5.466-.829-.665-.228-1.234-.398-1.886.255-.394.391-1.209.196-1.958.045z"/><path fill="#fff" d="M319.118 328.692c.562 0 1.131.032 1.693-.007.937-.065.795.353.439.907-.936 1.469-1.996 2.846-3.094 4.198-.756.927-1.609 1.214-2.714.907-1.001-.274-2.112-.516-2.487-1.612-.401-1.162.168-2.135 1.014-2.97 1.376-1.365 2.332-1.672 5.149-1.423"/><path fill="#F7DDC9" d="M291.815 2.565c.065 0 .194.007.33.026.885.13 2.442 2.076 2.701 3.369.193.953-.524 2.46-1.402 2.996-.395.241-.75.143-1.125-.046-1.473-.744-2.681-2.911-2.526-4.537.084-.848 1.105-1.795 2.022-1.814zM231.73 313.391c-.058.28-.116.561-.175.835-1.208 1.469-.995 2.572.692 3.571 3.081 1.834 6.532 2.363 9.995 2.839.491.066.982.138 1.479.203v.535c-1.828-.072-3.624-.463-5.44-.614-1.828-.15-3.528-.802-5.278-1.24-.646-.156-1.247-.535-1.842-.861-1.589-.875-1.873-1.737-.82-3.721.329-.62.62-1.325 1.395-1.547zM256.946 303.899a20 20 0 0 0-.026-.646c1.797-.359 3.625-.437 5.447-.476 1.693-.033 3.385 0 5.072-.209.258-.033.575-.098.594.313.026.516-.355.242-.556.248-3.527.085-7.035.346-10.537.77zM377.427 244.386a852 852 0 0 1-.672 4.197c-.013.098-.058.216-.129.268-1.447 1.025-.84 2.677-1.202 4.028-.109.424.13.992-.562 1.096.155-2.304.743-4.549.989-6.841.051-.463.155-.927.161-1.397.013-.959.453-1.423 1.409-1.351zm-1.072 3.649c.032-.176.071-.267.064-.346-.006-.065-.077-.117-.122-.183-.026.085-.071.17-.065.255 0 .065.058.131.129.274zM270.694 302.456c2.281-.131 4.465-.262 6.648-.366.285-.013.815-.222.834.196.026.529-.543.339-.872.365-.995.072-1.99.131-2.985.144-.853.013-1.674.307-2.533.202-.381-.045-.814.079-1.092-.548zM253.122 325.31c2.216-.359 4.438-.255 6.667-.209.284 0 .595.163.853-.098h-.019c-1.415.738-2.979.255-4.452.568-.988.209-2.022.307-3.049.209zM313.2 313.964c-.555-.058-1.318.216-1.285-.802.982-.105 1.97-.124 2.926-.399.207-.058.504-.15.575.164.071.3-.232.372-.439.443-.588.216-1.182.399-1.777.594"/><path fill="#F7DDC9" d="M234.023 315.799c.485.274.866.64 1.073 1.168-.64.288-1.202-.098-1.79-.228-.323-.072-.678-.274-.607-.659.071-.373.465-.255.743-.262.193 0 .387-.013.575-.019zM315.455 341.433c0 .17 0 .346.006.515a10.2 10.2 0 0 1-3.508-1.318c1.215.046 2.378.339 3.502.803M318.472 317.419c0 .072-.013.144-.013.215-1.201.836-2.403 1.671-3.605 2.514-.065-.138-.136-.275-.2-.418a1487 1487 0 0 1 3.825-2.311zM67.864 156.718c-.142.255-.278.509-.42.764q-.969-.478-1.938-.966c-.052-.026-.071-.105-.155-.248.956-.34 1.705.228 2.513.45M372.433 270.953c.214.842.537 1.697-.277 2.415-.078-.822.045-1.625.277-2.415M75.243 173.01c.608-.039.937-.241 1.247-.528.149-.144.478-.157.556.163.064.281-.188.339-.375.32-.42-.039-.788.32-1.428.045M308.949 234.804c.117-.32.175-.64.045-.979-.103-.255-.045-.497.24-.549.284-.045.413.19.426.444.019.522.013 1.045-.704 1.077zM284.688 323.292q.001.156-.006.313c-.536.242-1.079.164-1.661.092.582-.144 1.092-.412 1.674-.398zM306.642 232.694c.259.549.75.999.64 1.795-.717-.496-.801-1.109-.64-1.795M374.824 254.398c.536.712-.291 1.43.019 2.148l-.374.059c-.046-.764.116-1.489.361-2.2zM268.711 321.758c.621-.626 1.299-.378 1.984-.143-.646.215-1.318.183-1.984.143M73.382 173.775c-.64.209-.995.64-1.7.529.472-.489.866-.816 1.7-.529M331.465 339.951c-.013-.437.51-.307.626-.607.31-.006.698.085.679.392-.026.398-.472.189-.724.235-.187.032-.388-.013-.581-.02M276.709 328.072c.498-.653 1.034-.555 1.583-.078-.523.098-1.053.156-1.583.078M384.618 271.749c.33.144.659-.346.989 0-.55.333-1.157.464-1.79.503.077-.47.646-.157.801-.509zM281.904 327.667c.349-.614.75-.581 1.189-.098a2.8 2.8 0 0 1-1.189.098M379.617 273.232c.356-.287.698-.646 1.195-.261-.368.222-.749.404-1.195.261M387.622 271.111c.019-.542.646-.222.795-.575.174.033.349.059.523.092-.375.345-.846.411-1.318.483M373.867 260.848c.582.437.181.718-.161 1.005a1.37 1.37 0 0 1 .161-1.005M372.123 273.761c.316.065.491.254.491.587-.756.307-.504-.241-.491-.587M260.642 324.999c.575.159 1.15.032 1.602-.045-.452-.127-1.034-.249-1.615.051zM372.833 267.918c.692.385.188.574-.122.803-.065-.281.012-.548.122-.803M275.501 321.29c.22-.398.491-.359.789-.091-.246.176-.511.176-.789.091M373.08 266.299c.555.385.142.587-.156.809-.051-.287.046-.548.156-.809M374.407 257.016c.273.313.343.594-.114.796-.031-.274-.063-.555.114-.796M373.021 274.251c.233-.389.504-.351.795-.07-.252.159-.524.121-.795.07M245.523 326.473c.239-.313.504-.287.776-.045-.252.147-.511.134-.776.045M375.218 274.041c.155-.325.349-.344.594-.089a.58.58 0 0 1-.594.089M376.219 273.891c.123-.405.329-.411.594-.124-.168.17-.368.203-.594.124M378.422 273.499c.123-.399.323-.431.594-.124a.6.6 0 0 1-.594.124M382.021 272.703c.096-.405.297-.431.581-.163-.162.183-.355.228-.581.163M286.504 327.275c.013-.209.059-.392.317-.372.2.013.245.17.258.333zM265.713 320.381c-.174.293-.374.293-.588.038a.64.64 0 0 1 .588-.038M374.013 259.844c.273.261.298.47-.114.6a.8.8 0 0 1 .114-.6M373.418 264.087c.285.268.26.476-.127.594-.038-.215-.044-.424.127-.594M373.619 262.873c.134.007.293.039.287.19-.013.222-.223.19-.375.216-.07-.157-.045-.295.088-.406M372.624 269.335c.28.19.166.307-.07.399-.082-.15-.063-.288.07-.399M374.228 258.23c.26.171.19.295-.051.4-.045-.144-.076-.282.051-.4M270.302 319.983c-.115.224-.243.263-.389.025.121-.102.255-.102.389-.025M67.871 157.684c.35-.32.343-.026.356.223-.153-.013-.286-.072-.356-.223M283.493 327.487c.109-.218.23-.276.376-.039-.114.103-.242.129-.376.039M68.724 158.18c.316-.137.497-.039.516.32-.174-.104-.342-.215-.516-.32M377.614 273.64c.09-.25.204-.347.396-.071q-.165.194-.396.071M277.898 321.037c.115-.231.243-.269.383-.025-.121.109-.249.109-.383.025M330.632 339.219c-.188.211-.369.217-.549-.006a.66.66 0 0 1 .549.006M252.727 304.851c.089-.109.204-.141.332-.077z"/><path fill="#000" d="M356.268 306.282c.271-2.67.478-5.347.872-8.003 1.04-6.946 2.3-13.852 3.437-20.778 1.124-6.861 2.01-13.761 3.024-20.647.801-5.451 1.389-10.934 2.604-16.313.019-.092 0-.203 0-.301.025-.137.058-.274.084-.404.129-.163.129-.346.097-.536.284-1.501.575-3.002.859-4.504.142-.111.161-.248.116-.411a3.4 3.4 0 0 0 .297-1.397.59.59 0 0 0 .168-.613l.892-3.408q.04-.215.071-.431c.523-1.651.976-3.322 1.253-5.039.142-.105.155-.255.123-.411.22-.444.265-.921.284-1.397a.38.38 0 0 0 .136-.418c.187-.379.252-.784.258-1.201.162-.177.207-.385.162-.614.22-.307.246-.646.213-1.012.226-.222.31-.502.304-.816l.472-2.017c.109-.111.167-.241.122-.404.86-2.579 1.725-5.157 2.585-7.742.135-.059.264-.111.4-.17-.161.607-.387 1.208-.278 1.854-.62 1.273-.736 2.67-.943 4.04-.161.418-.284.843-.207 1.299h.02c-.033.072-.058.151-.091.222-.155.138-.168.314-.103.497-.142.881-.278 1.762-.42 2.643-.633 2.128-.866 4.341-1.273 6.515-.672 3.636-1.764 7.161-2.636 10.745-1.389 5.692-2.119 11.488-2.92 17.279-1.157 8.349-2.132 16.73-3.521 25.047-.885 5.3-1.887 10.574-2.843 15.862-.833 4.628-1.357 9.302-1.9 13.969-.193.477-.213.979-.219 1.482-.401.45-.898.078-1.344.157-.246-.235-.09-.555-.174-.829a.35.35 0 0 0 0-.398v-1.41zM395.899 196.283c.943 2.95 2.429 5.666 3.695 8.473 1.797 3.995 3.289 8.127 4.956 12.18 1.77 4.302 3.198 8.735 4.936 13.043.233.574.394 1.181.588 1.775a71 71 0 0 1 1.68 6.215c.613 2.839.006 5.451-1.118 8.029-1.538 3.525-4.006 6.371-6.467 9.23-3.263 3.793-6.745 7.383-10.997 10.027-4.619 2.879-9.6 4.471-15.124 3.303-.64-.137-1.59-.287-1.506-.992.091-.777 1.002-.314 1.525-.294 6.267.222 11.882-1.593 16.701-5.64 4.103-3.447 7.786-7.331 11.152-11.522 3.624-4.51 4.386-9.589 3.056-15.079-1.493-6.129-3.709-12.024-5.88-17.931-1.932-5.275-4.115-10.451-6.079-15.713-.679-1.814-1.273-3.662-1.893-5.496-.059-.183-.039-.392-.059-.633.634.111.427.822.84 1.031zM364.196 237.022c-1.454 5.725-2.488 11.534-3.347 17.377-.737 5.046-1.525 10.085-2.3 15.131-.582 3.747-1.092 7.507-1.803 11.228a339 339 0 0 0-2.565 15.49c-.303 2.121-.613 4.243-.717 6.391-.265 1.129-.323 2.278-.381 3.427-.142.189-.103.398-.052.607-.058.085-.123.163-.181.248-.349.339-.672.039-1.001-.052-.026-.131-.045-.268-.071-.399.11-.333.097-.665.032-1.005a1.1 1.1 0 0 0 .039-.809c.09-.268.116-.536.026-.81a1.65 1.65 0 0 0 .097-1.012c.032-.535.071-1.07.103-1.599.187-.392.174-.803.123-1.221.097-.326.148-.652.084-.992.123-.124.116-.267.071-.424l.039-.594.038-.607c.64-4.589 1.189-9.191 1.971-13.761.782-4.563 1.576-9.125 2.294-13.701.613-3.917 1.053-7.86 1.705-11.763 1.254-7.481 2.455-14.975 4.484-22.293 1.124-4.066 2.222-8.14 3.566-12.148.53-1.579.937-3.198 1.428-4.791.123-.405.368-.77.556-1.149.064.163.168.209.316.111-.193.881-.387 1.769-.588 2.65a2.16 2.16 0 0 0-.316 1.123c-.53 2.004-1.189 3.975-1.454 6.045-.194.163-.213.385-.174.613-.556 1.711-.834 3.493-1.254 5.236-.168.319-.187.665-.193 1.018-.039.13-.072.261-.11.392-.181.221-.22.476-.181.75l-.291 1.293z"/><path fill="#DD2935" d="M368.763 217.902c-.149.098-.252.053-.317-.111.246-1.194.75-2.291 1.163-3.427l.239.059c-.581 1.09-.575 2.363-1.085 3.473z"/><path fill="#F7DDC9" d="M375.017 206.329c.285 0 .407.157.427.418-.117.183-.226.365-.343.555l-.4.169c-.11-.437.077-.796.31-1.142zM384.616 271.741s-.051-.025-.07-.038c.026.013.045.032.07.045zM388.416 270.534l-.076-.038c.025.013.044.032.069.045z"/><path fill="#000" d="M294.755 225.194c1.628 4.569 2.791 9.282 4.128 13.936 2.19 7.612 4.193 15.269 6.222 22.926 1.957 7.389 4.018 14.759 6.086 22.116 1.357 4.83 3.308 9.413 5.899 13.702.995 1.645 1.783 3.374 1.77 5.365-.032.229-.026.477-.104.686-.116.307.052.816-.504.842-.549.026-.736-.359-.839-.81-.201-.907-.395-1.821-.595-2.735.052-.313-.09-.581-.194-.868-.568-1.638-1.692-2.944-2.584-4.387.123-.587-.304-.972-.51-1.442-.801-1.88-1.603-3.767-2.397-5.647l-.453-1.188c-.051-.143-.103-.28-.155-.424q.051-.108-.045-.176c-.039-.372-.064-.744-.342-1.032-.039-.28-.007-.574-.201-.816-.019-.28 0-.574-.226-.796l-.122-.581c.064-.333-.065-.594-.291-.822a7.1 7.1 0 0 0-.646-2.409c.039-.17.013-.313-.129-.424-.065-.399.006-.856-.42-1.117h-.007c.155-.065.149-.169.078-.3-.013-.287-.046-.568-.207-.816-.271-1.234-.549-2.461-.982-3.649a.72.72 0 0 0-.136-.581c.026-.215.007-.424-.161-.587-.091-.771-.201-1.534-.575-2.233-.233-1.397-.659-2.748-1.099-4.086-.064-.255-.129-.509-.187-.771l-.174-.581c.077-.319-.078-.58-.227-.842-.135-.966-.426-1.886-.756-2.793-.012-.503-.168-.96-.413-1.384.078-.314-.013-.588-.207-.836.039-.163.033-.313-.11-.424-.032-.124-.064-.255-.097-.379a.37.37 0 0 0-.116-.418c-.097-.398-.2-.796-.297-1.194a.395.395 0 0 0-.149-.464c-.019-.071-.032-.137-.051-.209a43 43 0 0 0-1.286-5.209 1.44 1.44 0 0 0-.187-.816c-.117-.404-.226-.803-.343-1.207a.7.7 0 0 0-.155-.581c-.071-.705-.11-1.423-.53-2.037-.038-.196-.071-.392-.109-.587.038-.164.038-.314-.13-.412-.084-.333-.168-.672-.258-1.005 0-.431-.084-.842-.349-1.194l-.058-.399c.019-.45-.058-.868-.323-1.246.032-.719-.317-1.339-.478-2.011.045-.157.039-.307-.097-.424l-.31-1.195c-.272-1.377-.582-2.742-1.04-4.073-.13-.96-.317-1.9-.692-2.794.02-.229.026-.451-.161-.62 0-.353-.065-.686-.239-.999-.033-.144-.059-.287-.091-.431-.155-.463-.071-1.018-.478-1.39-.039-.346.103-.725-.187-1.019-.071-.385-.136-.776-.207-1.161.258-.105.129-.379.233-.555z"/><path fill="#DD2935" d="M294.755 225.193c-.104.176.019.45-.233.555-.388-.359-.149-1.045-.678-1.325q-.04-.265-.071-.529c-.052-.215-.097-.437-.149-.653.071-.176.071-.339-.045-.496l-.007.013c.097 0 .194.013.297.013q.193.45.395.901c0 .268.129.477.303.659-.032.17.013.307.155.405l.039.444z"/><path fill="#000" d="M284.514 56.517c.737 0 1.163-.431 1.667-.634 1.841-.73 3.663-.75 5.563-.235 1.796.49 2.642 1.704 3.114 3.408 1.26 4.543 1.925 9.132 1.163 13.845-.323 2.004-1.04 3.884-2.042 5.634-1.066 1.853-1.124 3.727-.349 5.685.543 1.384 1.545 2.141 2.985 2.305 3.476.398 6.965.672 10.409-.17 2.003-.49 2.849-1.867 2.242-3.832-.731-2.356-1.616-4.66-2.507-6.965-1.351-3.48-2.158-7.102-2.908-10.745-.465-2.278-.756-4.576-.62-6.906.026-.418-.168-1.064.472-1.175.717-.13.878.535.995 1.025.258 1.11.42 2.245.62 3.368.808 4.596 1.706 9.165 3.573 13.467 1.027 2.363 1.983 4.758 2.675 7.233.949 3.4.109 6.083-4.168 7.206-4.257 1.116-8.657 1.077-12.921-.19-2.714-.809-4.226-3.12-4.387-5.985-.129-2.343.323-4.543 1.395-6.606 1.054-2.03 1.557-4.184 1.609-6.476.091-3.688-.278-7.31-1.221-10.881-.213-.797-.607-1.104-1.402-1.097-2.545.033-4.768.816-6.506 2.774a59 59 0 0 1-1.492 1.626c-.239.248-.459.692-.892.444-.388-.222-.665-.555-.685-1.104-.045-1.325.504-2.467.976-3.642.885-2.193 1.873-4.328 3.579-6.032.575-.574 1.266-1.005 1.719-1.723.297-.477.846-.32 1.259-.144.511.229.065.6-.019.849-.426 1.28-1.357 2.213-2.248 3.166-.666.711-1.286 1.436-1.654 2.507zM293.262 102.453c-2.565.092-5.259.222-7.921-.378-2.009-.451-3.554-2.396-2.649-4.668.323-.81.678-1.599.995-2.408.245-.627.691-1.156 1.331-.875.465.209.536.894.388 1.469-.181.711-.395 1.423-.511 2.147-.304 1.893-.045 2.2 1.841 2.396 3.063.313 6.119 0 9.175-.176 3.288-.196 6.519-.712 9.672-1.802 5.285-1.828 10.24-4.132 13.961-8.545.407-.483.931-.861 1.402-1.286.343-.313.692-.228.989.033.316.28.168.6-.026.894-.646.986-1.486 1.815-2.294 2.65-2.726 2.814-5.549 5.438-9.258 6.998-5.065 2.128-10.26 3.46-15.764 3.46-.401 0-.795.059-1.325.098zM311.295 52.64c.065-.287-.039-.522-.226-.724-.717-.758-.834-1.789-1.208-2.71-.091-.228-.071-.509.148-.633.259-.143.582-.248.859-.104.324.163.634.379.886.633 2.584 2.553 4.794 5.38 6.118 8.826a1 1 0 0 0 .045.091c.259.6.491 1.456.149 1.815-.44.457-.963-.333-1.409-.6-2.099-1.26-4.057-2.795-6.383-3.65-1.505-.555-3.043-.927-4.658-.496-.271.072-.562.078-.653-.26-.09-.308-.019-.569.285-.778 1.621-1.11 3.295-2.01 5.356-1.442.226.065.445.13.684.026zM300.718 108.857c-2.248.026-3.96-1.391-4.154-3.284-.091-.901.407-1.651 1.098-2.232.246-.203.433-.079.575.143.104.163.2.34.284.522 1.021 2.181 2.068 2.612 4.31 1.933 1.899-.575 3.695-1.339 5.388-2.389.42-.262.995-.523 1.422-.027.458.536.303 1.058-.194 1.561-1.9 1.906-4.2 3.022-6.804 3.511-.749.144-1.511.209-1.925.262M324.507 84.705c.045.823-.11 1.671-.756 2.344-.291.3-.679.6-.937 0-.795-1.854-2.229-3.238-3.36-4.844-.73-1.031-.697-1.71.207-2.063.698-.267 1.389.079 2.022.3 1.396.484 3.03 2.135 2.824 4.263"/><path fill="#FBB95E" d="M382.589 112.638c-.92-.852-1.86-1.687-2.755-2.564-2.019-1.979-3.987-4.001-6.031-5.956-1.13-1.078-2.229-2.266-3.987-2.51 1.676-.395 3.339-.822 5.022-1.175 2.52-.536 4.221-2.09 5.58-4.069 1.155-1.687 2.279-3.398 3.415-5.098.692-1.035.883-1.09 1.841-.267 1.359 1.169 2.191 2.759 3.378 4.074.578.64 1.181 1.291 1.631 2.016 1.054 1.675 2.711 1.7 4.432 1.65.501-.011 1.003 0 1.695 0-.616.591-1.251.713-1.822.786-1.168.14-2.292.488-3.454.658-2.076.305-3.841 1.212-4.837 3.143a35 35 0 0 0-3.384 9.818c-.019.085-.133.158-.197.231-.14-.268-.209-.572-.521-.724zm-9.834-10.329a8.5 8.5 0 0 1 2.73 1.504c2.336 1.919 4.457 4.038 6.215 6.475.165.225.254.566.616.511.114-.018.222-.256.267-.414.419-1.352.781-2.723 1.244-4.062.819-2.351 1.549-4.751 4.063-6.103.921-.494 1.911-.682 3.016-.938-2.571-2.09-4.241-4.727-6.076-7.461-.466 1.626-1.208 2.946-1.951 4.27l-.017.03c-1.955 3.49-4.685 5.902-9.059 6.048-.349.012-.699.085-1.048.134z"/><path fill="#FBB95E" d="M372.755 102.309a8.5 8.5 0 0 1 2.73 1.504c2.336 1.919 4.457 4.038 6.215 6.475.165.225.254.566.616.511.114-.018.222-.256.267-.414.419-1.352.781-2.723 1.244-4.062.819-2.351 1.549-4.751 4.063-6.103.921-.494 1.911-.682 3.016-.938-2.571-2.09-4.241-4.727-6.076-7.461-.466 1.626-1.208 2.946-1.951 4.27l-.017.03c-1.955 3.49-4.685 5.902-9.059 6.048-.349.012-.699.085-1.048.134z"/><path fill="#000" d="M382.589 112.638c-.92-.852-1.86-1.687-2.755-2.564-2.019-1.979-3.987-4.001-6.031-5.956-1.13-1.078-2.229-2.266-3.987-2.51 1.676-.395 3.339-.822 5.022-1.175 2.52-.536 4.221-2.09 5.58-4.069 1.155-1.687 2.279-3.398 3.415-5.098.692-1.035.883-1.09 1.841-.267 1.359 1.169 2.191 2.759 3.378 4.074.578.64 1.181 1.291 1.631 2.016 1.054 1.675 2.711 1.7 4.432 1.65.501-.011 1.003 0 1.695 0-.616.591-1.251.713-1.822.786-1.168.14-2.292.488-3.454.658-2.076.305-3.841 1.212-4.837 3.143a35 35 0 0 0-3.384 9.818c-.019.085-.133.158-.197.231-.14-.268-.209-.572-.521-.724zm-9.834-10.329a8.5 8.5 0 0 1 2.73 1.504c2.336 1.919 4.457 4.038 6.215 6.475.165.225.254.566.616.511.114-.018.222-.256.267-.414.419-1.352.781-2.723 1.244-4.062.819-2.351 1.549-4.751 4.063-6.103.921-.494 1.911-.682 3.016-.938-2.571-2.09-4.241-4.727-6.076-7.461-.47 1.638-1.219 2.966-1.968 4.3-1.955 3.49-4.685 5.902-9.059 6.048-.349.012-.699.085-1.048.134z"/><g fill="#000" clip-path="url(#b)"><path d="M72.963 278.183c-.688 1.366-.88 2.815-1.08 4.258-.084.604.244 1.048.527 1.525 1.454 2.466 2.56 5.04 2.508 7.963-.051 2.93-1.016 5.504-3.106 7.633-2.836 2.891-6.084 5.274-9.473 7.48a.63.63 0 0 1-.309.114c-1.068.006-1.826.896-2.881.985-.367.032-.72.299-.946.642-.527.807-.392 1.423.412 1.957 1.66 1.1 3.518 1.799 5.332 2.593.996.432 1.968.915 2.945 1.405.212.108.425.286.553.483.174.26.193.546-.263.559-.47.013-.837.261-1.203.508-.2.14-.335.261-.077.509.501.483.257.661-.328.737-2.824.388-5.64.845-8.502.972a30 30 0 0 0-3.994.477c-.27.051-.56.07-.836.051-.393-.026-1.017.121-1.03-.413-.006-.471.438-.922 1.023-.89 1.229.07 2.438-.064 3.653-.184 2.76-.267 5.518-.464 8.264-.858.148-.019.335.051.483-.216-.405-.166-.817-.121-1.196-.089-2.624.216-4.67-.649-5.892-3.057-.077-.146-.147-.318-.36-.261-.27.07-.199.286-.173.471.09.654.193 1.309.263 1.97.02.171.09.419-.18.483-.212.044-.263-.121-.308-.299-.129-.502-.354-.254-.573-.064-.489.426-1.055.941-1.653.928-1.64-.044-3.228.598-4.868.299-.302-.057-.611-.07-.907-.14-.225-.051-.411-.203-.45-.445-.052-.273.18-.381.373-.489.823-.451 1.563-1.03 2.566-1.15.778-.089 1.158-.75 1.396-1.405q.435-1.201.668-2.459c.11-.604-.096-.896-.688-.966-1.054-.134-2.116-.293-3.177-.178-1.93.203-3.852.235-5.788.127-1.73-.095-3.203.273-4.418 1.665-1.055 1.201-2.335 2.218-3.55 3.279-1.717 1.506-3.885 2.269-5.853 3.356a17.4 17.4 0 0 1-5.505 1.919c-2.051.343-3.807-.432-4.56-1.996-.238-.489-.47-.991.457-.966.225.007.322-.203.45-.336 1.827-1.92 3.91-3.553 5.917-5.275 1.8-1.544 3.363-3.292 4.47-5.402.276-.527.61-1.004 1.086-1.354 3.403-2.491 6.09-5.681 8.863-8.789 3.511-3.94 6.843-8.039 10.155-12.144a11.3 11.3 0 0 1 2.386-2.206c1.44-.997 2.913-1.944 4.103-3.26.598-.661 1.524-.896 2.283-1.354 1.3-.775 2.097-1.766 1.878-3.38a19 19 0 0 1-.154-2.733c.019-2.517 1.498-3.947 4.032-3.756 3.19.248 6.058 1.226 8.097 3.896.682.889.855 2.002 1.44 2.923.059.089.046.33-.025.381-.701.547-.129.896.193 1.271.81.935 1.781 1.672 2.842 2.301.599.356 1.203.705 1.788 1.08.386.248.727.572.573 1.087a1.23 1.23 0 0 1-1.016.883c-.547.089-1.12.096-1.647-.139-1.698-.757-3.428-1.456-4.99-2.523zm4.528.616c-.129.21.122.178.174.274.025-.026.045-.051.07-.077-.09-.057-.173-.12-.263-.178-1.287-1.029-2.547-2.084-3.827-3.45-.058.699-.2 1.163.077 1.474.99 1.131 2.264 1.779 3.769 1.957m-25.841 21.76c4.405-2.313 8.052-5.319 9.66-10.295.321.477.206.934.09 1.373-.335 1.309-.997 2.453-1.833 3.508-2.45 3.095-5.666 5.211-9.145 6.997-.483.248-1.087.394-1.255 1.036.226.108.38.019.534-.032 5.608-1.862 9.59-5.771 12.985-10.308 1.48-1.983 1.132-4.137-.482-6.107-1.023-1.246-2.032-2.498-2.656-3.998-.123-.298-.232-.584.096-.807.341-.235.502.064.682.261 1.453 1.563 3.035 3.018 4.2 4.836a5.1 5.1 0 0 1 .823 2.567c.135 2.67-1.184 4.697-2.978 6.489-1.318 1.316-2.766 2.51-4.045 3.864-3.017 3.19-6.895 4.677-11.043 5.681-.656.159-1.19.039-1.543-.508-.367-.553-.708-.451-1.17-.146-1.345.896-2.715 1.76-4.059 2.65a8 8 0 0 0-.9.737c-.206.191-.225.445-.058.68.2.28.424.184.656.038.7-.451 1.498-.565 2.302-.699.855-.146 1.73-.152 2.585-.254 2.438-.305 4.843-.852 7.313-.852.276 0 .392-.158.52-.343.13-.171.264-.426.515-.337.277.096.155.382.142.579-.058 1.226.456 2.11 1.55 2.707.88.483.874.521 1.273-.477.341-.851.663-1.722 1.524-2.205.425-.235.393-.368.065-.705-.74-.763-1.64-1.316-2.457-1.983-.283-.235-.675-.483-.373-.864.29-.363.579-.045.842.178.425.362.856.711 1.293 1.055 2.032 1.576 3.087 1.614 5.158.127 1.473-1.055 2.945-2.11 4.367-3.235 1.53-1.208 2.99-2.51 4.232-4.01 2.334-2.809 2.54-6.031 1.697-9.412-.598-2.39-1.556-4.557-3.871-5.847-.264-.146-.495-.362-.72-.572-.573-.527-1.165-1.042-1.576-1.709-.09-.147-.135-.318-.02-.464.084-.108.22-.032.29.038.804.801 1.987 1.074 2.772 1.824.727.699.746.152.887-.293.335-1.08.682-2.16.946-3.26.173-.724.456-1.392-.135-2.218-.605-.839-1.383-1.582-1.795-2.555-.096-.222-.34-.489-.109-.673.309-.242.489.101.656.299.714.864 1.64 1.537 2.238 2.58.933-2.167.81-3.21-.54-4.373-1.087-.934-2.328-1.614-3.73-1.982-1.049-.274-2.103-.337-3.151-.077-1.178.293-1.68.954-1.692 2.142l-.039 3.483c0 .241-.012.457.18.686.509.604.29 1.398-.482 1.468-1.203.114-1.89.985-2.765 1.582-.348.242-.65.452-.322.992.174.299.309.985-.566.629-.392-.159-.79.038-1.112.254-2.116 1.436-4.277 2.796-5.872 4.881-3.801 4.97-7.917 9.666-12.683 13.778-.996.864-1.826 1.919-2.662 2.809.083.006.283-.083.463-.216 2.2-1.608 4.45-3.159 6.347-5.142 2.084-2.173 3.91-4.55 5.699-6.952.295-.4.527-.902 1.17-1.03-.032.553-.373.903-.592 1.297-2.122 3.762-4.598 7.257-8.064 9.946-2.18 1.69-4.45 3.26-6.676 4.88-.843.617-1.71 1.214-2.283 2.256.418-.025.669-.152.932-.311 1.293-.769 2.605-1.506 3.904-2.269 2.708-1.601 5.396-3.247 7.988-5.033 2.257-1.557 3.897-3.711 5.576-5.815.212-.26.36-.496.733-.534-.29 1.042-.888 1.9-1.466 2.739-1.93 2.797-4.47 4.97-7.326 6.826-3.762 2.446-7.511 4.906-11.73 6.539-.611.235-.984.693-1.094 1.341.316.178.553-.025.804-.114 2.528-.909 4.94-2.053 7.293-3.343 5.068-2.771 9.776-6.025 14.001-9.933 1.505-1.392 3.139-2.669 4.45-4.264.097-.121.206-.312.393-.153.135.114.026.229-.064.35-.393.527-.727 1.086-1.158 1.595-1.633 1.925-2.997 4.054-4.675 5.942-.04.063-.123.14-.11.178.058.133.161.076.257.019zm-16.953 9.914c-4.521 1.055-8.605 2.911-11.924 6.483 4.528-1.386 8.6-3.241 11.924-6.483m-11.936 7.665c.598.146 1.087.025 1.575-.057 1.756-.299 3.364-.992 4.959-1.729 3.055-1.411 5.936-3.051 8.11-5.688.334-.407.726-.775.855-1.303.039-.152.103-.362-.058-.457-.083-.051-.276 0-.386.057-.726.413-1.473.788-1.916 1.557-.251.426-.598.788-.978 1.131-3.222 2.898-6.933 4.906-11.152 5.993-.328.083-.72.083-1.022.502zm28.625-2.32c1.357-.286 2.689-.559 4.007-.858.347-.076.495-.368.476-.693-.039-.826-.077-1.658-.174-2.478-.07-.566-.405-1.023-.88-1.354-.2-.14-.541-.279-.554.134-.026 1.023-.534 1.894-.804 2.834-.25.871-.662 1.57-1.608 1.849-.199.058-.43.153-.463.566m6.477-4.213c-.039.381.135.622.276.839.888 1.391 1.852 2.764 3.672 2.967.959.108 1.95-.057 2.92-.101.168-.007.36-.013.393-.216.032-.191-.116-.305-.277-.369a4.5 4.5 0 0 0-.624-.222c-1.858-.534-3.62-1.265-5.241-2.326-.335-.223-.618-.56-1.113-.572zm-7.73-2.759c.784.147 1.556.032 2.27.331.122.051.36.108.36-.032.013-.343-.058-.693-.123-1.036-.025-.133-.18-.114-.276-.063-.688.362-1.524.324-2.225.794z"/><path d="M109.319 313.88a15.1 15.1 0 0 1-4.913.921c-9.262.223-18.516.763-27.777 1.036-1.794.051-3.582-.038-5.37-.12-.303-.013-.656.05-.689-.394-.032-.452.329-.452.624-.496 1.782-.248 3.576-.146 5.364-.242q11.569-.61 23.146-1.144c2.682-.12 5.37-.146 8.052-.387.971-.089 1.235-.521.811-1.354-.129-.248-.335-.165-.509-.165-1.202.013-2.205-.496-3.189-1.119-1.525-.972-3.075-1.9-4.612-2.847-.07-.044-.16-.07-.199-.133-.83-1.201-2.18-.985-3.325-1.036-2.206-.102-4.438.197-6.624-.006-1.602-.153-2.997.317-4.464.648-.495.114-.913.394-1.337.661-4.071 2.497-8.258 4.753-12.901 6.056-1.827.515-3.653.483-5.46-.063-1.891-.579-2.374-2.104-1.165-3.674.56-.73 1.267-1.321 1.962-1.925 2.772-2.434 5.859-4.404 9.107-6.158 2.746-1.487 5.183-3.47 7.949-4.932 5.08-2.682 9.35-6.406 13.499-10.283 4.335-4.048 8.843-7.893 13.686-11.337.862-.617 1.852-1.03 2.656-1.729.148-.127.418-.184.63-.171 1.447.082 2.611-.801 3.936-1.093 1.486-.325 1.942-1.163 2.135-2.593.341-2.498 1.988-4.15 4.264-5.154 2.02-.89 4.193-.331 5.808 1.525 1.389 1.595 2.353 3.444 3.035 5.44.032.102.116.191.187.267 1.299 1.411 2.476 2.93 4.077 4.048.315.222.804.426.579.96-.225.54-.637.781-1.261.743-.842-.044-1.44-.635-2.205-.864-.502-.153-.946-.47-1.435-.674-.578-.241-1.331-1.048-1.62-.756-.618.629-1.242 1.417-1.338 2.402-.064.718-.135 1.43-.187 2.148-.025.337.084.649.245.947 2.283 4.347 3.447 8.91 2.566 13.823-.412 2.275-1.73 4.099-3.209 5.808-1.769 2.04-3.872 3.68-6.136 5.148-1.852 1.201-3.826 2.116-5.91 2.822-.315.108-.708.178-.791.546-.097.432.302.629.585.826 3.518 2.403 7.126 4.665 10.953 6.565.373.185.739.394 1.119.572.225.108.379.229.347.496-.045.337-.302.267-.515.26-.688-.025-1.222.337-1.775.668-1.125.68-2.302 1.252-3.665 1.239-.412 0-.888.044-1.216-.14-.63-.362-1.1-.114-1.672.102-1.113.419-2.27.75-3.492.54-.29-.051-.598-.133-.598-.464 0-.273.328-.305.54-.413.071-.038.154-.057.225-.089.199-.083.514-.114.476-.369-.039-.247-.341-.247-.56-.228-2.148.165-4.315.019-6.437.502-1.698.387-3.409.635-5.152.673-.251 0-.508.026-.752-.006-.348-.044-.682-.197-.785-.534-.109-.349.283-.413.482-.578 1.017-.845 2.213-1.386 3.383-1.964 1.801-.89 1.872-1.15.823-2.758zm14.503-36.396c.057-.032.109-.083.147-.076 1.518.464 3.036.928 4.547 1.411.226.076.425.222.508-.115.283-1.175.901-2.288.772-3.54-.148-1.461.129-2.739 1.377-3.679.302-.229.334-.496.173-.864a13.6 13.6 0 0 0-2.322-3.629c-1.144-1.278-2.617-1.538-4.186-.839-2.232.998-3.261 2.847-3.589 5.128-.071.477-.264.744-.624.992-.945.648-1.987 1.118-3.029 1.595-.469.216-.765.502-1.042.972-.501.852-1.415 1.538-2.392 1.411-1.113-.14-1.827.362-2.566.909-2.02 1.481-3.898 3.146-5.879 4.677-5.26 4.068-10.29 8.415-15.518 12.52-.122.095-.457.114-.245.381.123.153.283 0 .438-.07 1.691-.724 3.273-1.633 4.778-2.675 2.232-1.544 4.225-3.362 6.136-5.269.25-.247.463-.635 1.003-.584-.727 1.379-1.73 2.485-2.766 3.546-3.273 3.355-7.228 5.688-11.557 7.474-1.665.686-3.473 1.093-4.965 2.173a49 49 0 0 1-4.058 2.644c-.199.114-.488.203-.385.572.565.057 1.1-.127 1.633-.248 2.483-.572 4.843-1.532 7.287-2.224 6.309-1.786 11.602-5.11 15.84-10.067.489-.572 1.003-1.118 1.492-1.684.186-.216.412-.343.656-.184.27.178.18.425.019.648-3.17 4.442-7.093 8.026-12.161 10.263-3.891 1.716-7.994 2.828-12.065 4.036-1.26.375-2.56.737-3.879.451-.501-.108-.855-.07-1.234.197-.315.223-.637.445-.952.68-.212.165-.592.28-.534.572.07.362.489.318.772.337 1.987.121 3.968.102 5.949-.127 3.37-.394 6.63-1.297 9.904-2.123 4.688-1.188 8.959-3.196 12.734-6.196 2.071-1.646 3.904-3.565 5.872-5.326.225-.203.411-.514.9-.381-1.042 1.646-2.077 3.203-3.511 4.506.148.057.205.108.244.095 2.27-.788 4.322-1.906 5.73-3.915.553-.794 1.055-1.627 1.415-2.529.097-.241.161-.635.521-.527.437.133.18.502.103.762-.714 2.434-2.052 4.442-4.225 5.847-1.447.94-3.023 1.652-4.567 2.421-1.318.661-2.797.998-4 1.856-2.09 1.5-4.27 2.828-6.708 3.705-.283.102-.54.203-.694.547 1.903.133 3.691-.147 5.473-.528.206-.044.463-.216.598.064.141.298-.135.457-.341.578-.547.337-1.151.559-1.762.763-.444.146-.952.139-1.473.54 3.023.248 5.177 1.97 7.428 3.489.688.464 1.37.953 2.039 1.455.334.248.649.299.99.057.971-.661 2.078-1.061 3.132-1.569.476-.229.624-.433.399-.947-.392-.896-.424-1.882-.579-2.835-.077-.457.2-.769.624-.851.386-.077.637.197.708.559.27 1.354.623 2.701.739 4.074.09 1.061.56 1.639 1.46 2.103.611.311.958.114 1.209-.381.682-1.328 1.023-2.733.817-4.239-.071-.528-.296-.915-.785-1.195-.379-.216-.816-.419-1.009-.845-.11-.242-.232-.553-.033-.788.232-.273.515-.076.759.044 1.171.56 2.013 1.398 2.264 2.695.103.521.245.566.695.299.707-.407 1.492-.68 2.186-1.093 2.972-1.774 5.731-3.82 8.085-6.362 2.154-2.326 3.138-5.04 2.919-8.192-.16-2.307-.739-4.518-1.337-6.743-.631-2.351-2.116-3.959-4.232-5.077-.566-.299-1.139-.598-1.685-.922-.245-.146-.585-.241-.592-.623zM82.34 307.588c-.174-.203-.367-.089-.553-.076-1.672.146-3.351.299-5.03.172-1.517-.115-3.087-.146-4.309-1.278-.263-.248-.443.007-.643.153-1.376.998-2.74 2.002-4.135 2.974-.675.47-1.21 1.03-1.698 1.691-.489.66-.18.934.36 1.175.779.35 1.66.496 2.457.401 1.454-.172 2.907-.452 4.296-.96 2.984-1.087 5.763-2.625 8.708-3.8.219-.089.444-.197.534-.452zm45.578 9.635c-.058-.083-.083-.159-.141-.197a3.5 3.5 0 0 0-.431-.254c-3.196-1.634-6.341-3.362-9.229-5.504-.322-.235-.778-.775-1.106-.477-.476.433-.675 1.132-.444 1.824.077.235.199.464.347.655 1.615 2.078 3.692 3.565 6.123 4.588.225.096.489.108.733.14 1.46.184 2.791-.273 4.155-.782zm-8.116-.242c-1.492-.921-2.72-1.894-4.373-2.11-1.576-.209-3.145.013-4.798-.152.302.648.579 1.239.791 1.69a16 16 0 0 0-4.386 2.364c4.212-.591 8.348-1.506 12.76-1.792zm-7.808-4.124c.721-.127 1.55-.064 2.309-.382.258-.108.573-.247.579-.54.013-.349-.386-.203-.585-.317q-.213-.126-.425-.261c-.842-.508-1.71-.419-2.456.229-.316.273-.541.629-.399.998.135.349.572.254.971.266zm23.153-37.254c-.244-.655-.63-.985-.945-1.36a7 7 0 0 0-1.415-1.277c-.54-.363-1.003.031-1.203.362-.238.394.283.445.579.565.276.115.527.305.791.458.688.388 1.286.921 2.193 1.252m-21.159 38.321c1.093.083 2.09.522 3.145.712a13 13 0 0 0-1.164-1.417c-.116-.127-.296-.222-.444-.083-.431.42-1.029.49-1.543.788zm-3.344-3.857c-.65.159-1.138.489-1.595.877-.174.146-.238.318-.013.457.174.109.45.318.56.051.231-.534.868-.743 1.041-1.391z"/><path d="M104.438 301.094c-.476 0-.952-.007-1.428 0-.412.006-.65-.191-.65-.585 0-.439.348-.407.669-.426 3.936-.222 7.551-1.481 10.856-3.533 4.605-2.854 6.226-8.218 4.033-13.028-.534-1.17-1.492-1.983-2.502-2.739-.225-.166-.47-.115-.72-.102-.264.013-.521-.089-.579-.381-.058-.299.173-.426.418-.541 1.035-.47 2.379-.133 3.434.89 1.582 1.525 2.212 3.47 2.483 5.567.707 5.402-2.804 10.931-8.297 13.181-2.469 1.01-5.023 1.716-7.724 1.684zM128.883 268.88c.225-.045.36.12.514.228.656.458.965 1.138 1.158 1.862.148.553-.187.846-.772.687-.694-.191-1.273-.579-1.64-1.208-.405-.692 0-1.538.74-1.569"/></g><path fill="#000" d="M21.41 111.965q-.123-1.014-.115-1.399 0-.501-.074-1.34a23 23 0 0 1-.057-1.033l.21-1.182q-.055-.773.073-2.241.072-1.167.162-1.932l.103-1.056q.062-1.117.194-1.822-.41.07-.611.032a.9.9 0 0 1-.366-.277q-.219-.344-.458-1.015a1.7 1.7 0 0 1 .516-.53q.277-.198.454-.249l1.159-.786q2.864-1.584 3.26-1.699a2.5 2.5 0 0 1 .463-.132l.177-.051 1.31-.59q.157-.117.467-.206.302-.111.4-.186a.6.6 0 0 1 .245-.142q.11-.032.25-.048l.343-.05q.33.071.52.232.183.14.394.46l.124.848q-.054.063-.359.413-.284.344-.645.662-.369.297-.7.392a1 1 0 0 1-.371.035 2 2 0 0 0-.404-.075.4.4 0 0 1-.158-.05l-.369-.205q-.16.188-.49.284-.354.101-.527.246-.458.154-1.364.654-.914.477-1.087.622l-.137 1.185a22 22 0 0 0-.304 2.522l-.264 3.489q-.05.324-.11 1.535-.042 1.182.012 1.453.022.327.048 1.418-.002 1.075.096 1.5.045.155.01.284a1 1 0 0 1-.044.179 1.3 1.3 0 0 1-.551.326 8 8 0 0 1-.564.114q-.369-.037-.517-.139-.126-.106-.344-.45m14.934-13.114q.375.226.571.41a.9.9 0 0 1 .272.446q.132.464-.037 1.204-.03.558-.125 1.063-.072.498-.144.662l-.172 1.314a53 53 0 0 1-.33 1.932 38 38 0 0 0-.313 2.071l-.154.546q-.597 2.08-.99 2.957-.359.58-.887 1.233-.523.675-.9.855a4.7 4.7 0 0 1-.902.354q-.904.26-1.699.153-.795-.106-1.03-.516l-.12-.252a.72.72 0 0 1 .137-.684 1.14 1.14 0 0 1 .583-.382q.22-.063.363.015.05.01.422.142t.901-.02q.993-.285 1.568-1.858.503-1.743.735-2.765-.517-.138-1.113-.635-.603-.52-.628-.775l-.07-.242q-.176.05-.454-.586-.256-.643-.534-1.613-.305-1.059-.38-1.491a3.7 3.7 0 0 0-.158-.885 23 23 0 0 0-.174-.69.92.92 0 0 1-.042-.561q.085-.288.192-.413.255-.194.432-.243 1.014-.291 1.634 1.87.12.42.161.646.26 1.07.386 1.513.487 1.698 1.096 2.072.065-.52.141-.756.126-.729.119-.917 0-.168.097-.577l.116-.678.046-.92q.035-.798.15-1.309.038-.2.12-.583.075-.403.14-.59a.52.52 0 0 1 .187-.267.59.59 0 0 1 .33-.262.85.85 0 0 1 .457.012m9.005-2.129q.345.285.508.69.186.4.26.737.088.31.135.391.033.945.031 2.521-.008 1.554-.03 1.226.012.212-.019.602-.024.58.004.93.048.416-.122.656-.155.211-.5.502a.8.8 0 0 1-.187.101q-.396.113-.923-.141-.309-.413-.366-.611-.057-.199-.026-.59.015-.864.017-2.105-.005-1.264.004-2.15l.006-.646a2.7 2.7 0 0 0-.136-.724 2.5 2.5 0 0 0-.404.091 2.5 2.5 0 0 0-.554.23 9 9 0 0 1-.087 1.697 43 43 0 0 1-.426 2.509q-.176.885-.487 1.715l-.163.429-.573.999-.532.726a.6.6 0 0 1-.249.214.9.9 0 0 1-.324.117l-.287.082q-.312-.006-.659-.217a3 3 0 0 0-.432-.258l-.186-.233a.7.7 0 0 1-.038-.299q.035-.13.192-.413.078-.309.32-.379a.7.7 0 0 1 .206-.034q.138-.183.421-.527.277-.366.441-.628.18-.29.27-.555.285-.845.641-2.26.148-.568.304-1.687l-.29-.012a7 7 0 0 1-.309-.079l-.564-.888q-.159-.551.333-.835.371-.203 1.112-.534.532-.225.882-.42.261-.17.68-.29a2.9 2.9 0 0 1 1.188-.103q.499.073.918.453m8.491 5.872a1.7 1.7 0 0 1-.476-.412q-.205-.3-.571-.911a1.3 1.3 0 0 1-.152-.362l-.107-.375q-.032.224-.094.505a1 1 0 0 1-.177.384q-.36.653-.8 1.041-.578.643-1.086.789-.617.177-1.223-.27-.87-.371-1.098-1.165a4 4 0 0 1-.076-.432 9.3 9.3 0 0 1-.228-1.629q-.017-.807.177-2.128l.283-1.513.156-.784q.099-.077.34-.146a1.7 1.7 0 0 1 .7-.057q.347.043.432.258.092.069.161.312.203.705-.058 2.045l-.056.47a24 24 0 0 0-.15 1.642q-.024.58.077.933t.397.387q.13.035.284-.01.441-.126.863-.987.443-.867.643-2.667.094-.839-.067-1.651-.114-.23-.02-.568.095-.336.33-.596a.56.56 0 0 1 .186-.268q.129-.132.199-.056l.346-.124q.06-.04.256.142.217.176.296.201.27.114.423.643.209.728.046 2.159-.165 1.002-.181 1.532 0 .501.105.948.132.463.275.709.158.218.542.393.423.142.616 1.065 0 .168-.173.312a1.2 1.2 0 0 1-.46.228q-.486.138-.88.013m3.427-5.04a2.5 2.5 0 0 1-.803.11q-.552.159-.92-.213a.46.46 0 0 1-.193-.255q-.108-.375 1.09-.861 1.3-.708 2.999-1.194 1.058-.304 1.676.02.255.142.332.406a.49.49 0 0 1-.107.46q-.154.212-.476.256l-1.512.553q-.111.031-.753.288-.65.234-1.333.43m6.855 2.164q-.124-1.015-.115-1.4 0-.5-.074-1.339-.054-.773-.057-1.034l.21-1.182q-.055-.773.073-2.24.072-1.167.162-1.933l.103-1.056q.062-1.116.194-1.822-.41.07-.612.032a.9.9 0 0 1-.365-.277q-.218-.343-.459-1.014.234-.353.517-.53.277-.2.454-.25l1.159-.785q2.863-1.585 3.26-1.699.303-.11.463-.133l.177-.05 1.31-.591q.157-.117.466-.205.303-.11.4-.187a.6.6 0 0 1 .246-.142q.11-.031.25-.047l.343-.051q.33.072.52.233.183.138.394.46l.124.847q-.053.063-.359.413-.283.344-.645.663-.37.297-.7.391a1 1 0 0 1-.372.035 2 2 0 0 0-.403-.075.4.4 0 0 1-.158-.05l-.369-.205q-.16.19-.491.284-.352.102-.526.247-.458.154-1.364.654-.915.476-1.087.621l-.138 1.186q-.24 1.405-.303 2.521l-.264 3.49q-.05.324-.11 1.534-.042 1.183.012 1.453.022.328.048 1.419-.002 1.074.096 1.5.045.154.01.283a1 1 0 0 1-.044.18 1.3 1.3 0 0 1-.551.325 8 8 0 0 1-.564.114q-.37-.038-.517-.138-.126-.107-.344-.45m14.934-13.114q.375.226.571.409a.9.9 0 0 1 .272.447q.132.463-.037 1.204a8 8 0 0 1-.125 1.062q-.072.498-.145.662l-.172 1.315a54 54 0 0 1-.329 1.932q-.24 1.406-.313 2.071l-.154.545q-.597 2.08-.99 2.958-.358.579-.888 1.233-.522.675-.9.855a4.7 4.7 0 0 1-.901.354q-.905.258-1.699.152-.795-.105-1.03-.515l-.12-.252a.72.72 0 0 1 .137-.684q.23-.282.583-.382.22-.064.362.015.051.009.423.141t.901-.019q.993-.286 1.568-1.858.502-1.743.735-2.765-.517-.138-1.113-.635-.603-.52-.628-.775l-.07-.243q-.176.051-.454-.586-.256-.642-.534-1.613-.305-1.059-.38-1.49a3.8 3.8 0 0 0-.158-.886 23 23 0 0 0-.174-.69.9.9 0 0 1-.042-.56q.085-.288.192-.414.255-.193.431-.243 1.016-.29 1.635 1.87.12.42.161.647.26 1.071.386 1.512.487 1.698 1.096 2.073.065-.52.14-.757.126-.727.12-.917 0-.167.097-.577l.116-.678.046-.92q.034-.798.15-1.308.038-.201.12-.583a4 4 0 0 1 .14-.59.52.52 0 0 1 .187-.268.58.58 0 0 1 .33-.262.85.85 0 0 1 .457.013m9.005-2.129q.344.283.508.69.185.4.26.737.088.309.135.39.033.946.03 2.522-.007 1.554-.03 1.226.014.21-.018.602-.024.58.004.93.048.416-.122.656-.155.21-.5.501a.7.7 0 0 1-.187.101q-.396.114-.923-.14-.31-.414-.366-.612-.057-.198-.026-.59.014-.863.017-2.105-.005-1.263.004-2.15l.006-.645a2.7 2.7 0 0 0-.136-.725 2.5 2.5 0 0 0-.404.092 2.5 2.5 0 0 0-.554.23 9 9 0 0 1-.087 1.696 43 43 0 0 1-.426 2.51 11 11 0 0 1-.487 1.714l-.164.43-.572.999-.532.725a.6.6 0 0 1-.249.215.9.9 0 0 1-.325.117q-.176.05-.286.082-.312-.006-.66-.217a3 3 0 0 0-.431-.258l-.186-.233a.7.7 0 0 1-.038-.3q.035-.129.191-.413.08-.309.322-.378a.7.7 0 0 1 .204-.035q.139-.183.422-.527a9 9 0 0 0 .44-.627q.18-.291.271-.555.284-.845.641-2.26.148-.568.304-1.687l-.29-.012a7 7 0 0 1-.309-.079l-.565-.888q-.158-.552.334-.836a17 17 0 0 1 1.112-.533q.533-.225.882-.42.26-.17.68-.291a2.9 2.9 0 0 1 1.188-.102q.498.072.918.453m8.491 5.872a1.7 1.7 0 0 1-.476-.413 19 19 0 0 1-.571-.91 1.3 1.3 0 0 1-.152-.362l-.107-.375q-.032.224-.095.504a1 1 0 0 1-.176.385q-.36.653-.8 1.04-.578.645-1.086.79-.618.177-1.223-.27-.87-.372-1.098-1.165a4 4 0 0 1-.076-.432 9.3 9.3 0 0 1-.228-1.63q-.016-.805.177-2.127l.282-1.513.157-.785q.098-.076.34-.145.354-.102.7-.058.347.045.432.258.092.07.161.312.203.706-.058 2.046l-.056.47a24 24 0 0 0-.15 1.642q-.024.579.077.933.101.353.397.387.13.035.284-.01.441-.126.863-.987.443-.867.643-2.667.094-.84-.068-1.652-.113-.23-.02-.567a1.45 1.45 0 0 1 .331-.596.56.56 0 0 1 .186-.268q.129-.132.199-.057l.346-.123q.06-.04.255.141.218.177.297.202.27.113.423.642.208.728.046 2.16-.166 1.001-.181 1.531 0 .5.105.949.133.463.274.709.158.218.543.393.423.142.615 1.065 0 .167-.172.312a1.2 1.2 0 0 1-.46.227q-.486.139-.88.014m3.427-5.04a2.6 2.6 0 0 1-.803.11q-.552.159-.921-.213a.46.46 0 0 1-.192-.255q-.108-.375 1.09-.862 1.3-.707 2.998-1.194 1.059-.303 1.677.02.255.142.332.407a.49.49 0 0 1-.107.46q-.155.211-.476.256l-1.512.553q-.111.031-.753.287-.65.235-1.333.43m9.421 3.122q-.675-.189-1.075-.503-.394-.292-.496-.646-.132-.463.249-.883a.6.6 0 0 1 .229-.113q.221-.063.489-.045a.9.9 0 0 1 .454.085q.725.365 1.519.137.353-.101.97-.445.785-.511 1.156-1.048.393-.542.837-1.576.26-.672.301-1.28.056-.637-.076-1.1-.145-.507-.471-.725-.612-.469-1.245-.597-.618-.158-1.346.052a4.7 4.7 0 0 0-1.206.536l-1.204.632q-.081.048-.23.114-.132.038-.213.753-.082.715-.209 2.686-.09 1.434-.234 2.096-.151.64-.394.71-.264.075-.712-.322a15 15 0 0 0-.413-.359 1.3 1.3 0 0 1-.382-.582.9.9 0 0 1 .002-.407q.054-.23.063-.447.031-.225.018-.602.04-.943.428-4.754.409-3.816.681-5.78.19-1.416-.049-1.419a.5.5 0 0 0-.123-.18q-.104-.113-.101-.185-.038-.132.658-.618.718-.493 1.018-.53l.132-.039q.287-.082.255-.192.045-.013.385-.158.362-.152.794-.228 1.604-.317 2.729.196 1.12.49 1.521 1.975.121.586-.19 1.749-.31 1.163-.834 2.005-.264.41-.626.896-.346.458-.453.584l.608.04q1.15.1 1.889.509.737.408 1.265 1.332.107.207.158.384.138.485.139 1.153.023.663-.043 1.182-.094.17-.138.35t-.053.23q.003.095-.201.798a12 12 0 0 1-.396 1.116q-1.102 1.652-1.949 2.277-.807.685-2.085 1.052-1.147.33-1.8.134m-1.037-9.609.832-.429q.617-.344.873-.537l.226-.208a2.2 2.2 0 0 0 .378-.514q1.016-1.7 1.271-2.894.291-1.063.184-1.438-.076-.264-.388-.437-.558-.366-1.529-.087-.419.12-.68.29-.283.177-.4.354-.101.148-.031.39.051.177.003.43a1.5 1.5 0 0 1-.147.4.6.6 0 0 1-.057.302 1.3 1.3 0 0 1-.082.215q.013.043-.138.684-.128.633-.197 1.393-.213 1.755-.118 2.087m11.311 4.777a.9.9 0 0 1-.444.032 3.5 3.5 0 0 1-.536-.204 4.1 4.1 0 0 1-.956-.752q-.388-.439-.429-.832a.6.6 0 0 0-.045-.322l-.056-.198q-.114-.063-.12-.085-.013-.045.025-.079a.4.4 0 0 0 .041-.107q.132-.038.018-.268-.094-.164-.067-.816a5.7 5.7 0 0 1 .191-1.248q.13-.468.422-1.195.314-.735.601-1.151.83-1.264 1.656-1.716.41-.237.828-.357.64-.184 1.094.068.541.06.87.371.328.312.572.91.06.127.148.435.468 1.632-.261 3.75-.299.875-.679 1.46a9.3 9.3 0 0 1-.983 1.237q-.32.378-.737.593a9 9 0 0 1-1.153.474m1.478-3.336q.312-.495.381-.92.085-.454.159-1.526.076-.237-.095-.832-.152-.53-.325-.551a.43.43 0 0 0-.29-.013q-.199.058-.551.493a8.5 8.5 0 0 0-.903 1.762 4.5 4.5 0 0 0-.238 1.835 1.2 1.2 0 0 0 .054.27q.215.75.744.599.507-.146 1.064-1.117m9.159-3.796q-.179.626-.764 1.413-.57.76-1.319 1.643.41.432.811 1.08.416.622.59 1.144.586-.287.741-.331.107.04.422.141.321.123.511.283a.83.83 0 0 1 .287.42q.117.157.016.472-.078.308-.337.407-.147.066-.5.167-.706.203-.955.417a4.3 4.3 0 0 0-.129.8 9.5 9.5 0 0 1-.278 1.608q-.192.747-.765 1.58a4 4 0 0 1-.544.681q-.275.294-.473.35-.856.51-1.408.667-.486.14-.939.055-.47-.056-1.082-.359l-1.037-.872a4 4 0 0 1-.171-.428q-.146-.507.103-1.056.674-1.482 2.276-2.634.303-.278.523-.34l.205-.203a.22.22 0 0 1 .135-.11q.117-.01.133-.038.03-.224.283-.177l.457-.322q.312-.161.708-.442a7 7 0 0 0-.148-.602q-.234-.816-.597-.998a1.5 1.5 0 0 1-.441-.375 4 4 0 0 0-.206-.299 4 4 0 0 0-.315-.434q-.089-.31-.01-.451a.86.86 0 0 1 .274-.294q.201-.129.299-.205.687-.602 1.401-1.69.73-1.117 1.06-2.047a.74.74 0 0 0 .019-.435.66.66 0 0 0-.332-.406.78.78 0 0 0-.599-.09q-.639.181-1.606 1.558-.299.205-.475.255a.56.56 0 0 1-.476-.078q-.234-.148-.486-.53-.083-.453-.029-.683.047-.252.182-.53.157-.283.217-.492a8 8 0 0 0 .309-.422q.207-.274.396-.448a1.3 1.3 0 0 1 .498-.262 1 1 0 0 0 .23-.114 1 1 0 0 1 .312-.16q1.204-.3 2.14.388.845.617 1.061 1.367.24.838-.178 2.461m-3.387 10.663a5.3 5.3 0 0 0 .513-.959q.226-.542.169-.908l-.035-.372-.797.3a8 8 0 0 0-1.153.976q-.516.53-.676.886l-.346.958q.523.16 1.119-.01.75-.216 1.206-.871m11.84-24.424q.635.63.767 1.093.082.285.067.649-.016.361-.094.838-.063.448-.084.621-.186.936-.723 1.974a11.4 11.4 0 0 1-1.373 2.04q-.692 1.081-1.448 1.776l-.189.174q.618-.01 1.394.364.255.141.337.428.02.067.026.255.054.271.101.52.041.227.098.426a5 5 0 0 0-.021.841q.013.546-.027.987a5.5 5.5 0 0 1-.195.987q-.21.847-.399 1.188-.173.312-.799 1.04l-.504.575-.463.133q-.392.135-.873.035a1.7 1.7 0 0 1-.845-.45 5 5 0 0 1-.518-.639 3 3 0 0 1-.325-.718.9.9 0 0 1-.042-.394 45 45 0 0 1-.175-2.36q-.032-.78-.02-.902l.066-.52q.031-.224.047-.42a1.4 1.4 0 0 0-.054-.437l-.092-.237q-.202-.538.084-.955.264-.41.324-.785.047-.42.188-1.175.163-.764.276-1.035l.264-.744q.161-.523.283-.844.139-.351.356-.675.116-.51.421-1.028.321-.546.777-1.202.372-.535.451-.678.078-.141.362-.318.305-.183.595-.338l.447-.272q.167-.167.665-.095.514.044.867.277m-.924 2.77q.17-.907.03-1.392-.05-.177-.113-.23-.266.243-1.221 1.902-1.825 3.29-1.966 4.55l.161-.023q.885-.66 1.549-1.59.68-.959 1.079-1.813.393-.877.481-1.403m-2.141 8.683q-.214-.75-.294-.942a2.1 2.1 0 0 0-.271-.448l.002-.406-.359.246a.56.56 0 0 0-.22.397q-.006.145.007.523.013.379-.082.549-.063.114.03 1.519.093 1.406.188 1.736.057.199.211.155.11-.031.227-.209.138-.182.239-.498.252-.621.244-1.812.037-.703.078-.81m5.815 8.93a.37.37 0 0 1-.387-.103 5 5 0 0 1-.275-.208q-.246-.192-.378-.655a3 3 0 0 1-.058-.366q-.022-.996-.124-1.349a2 2 0 0 1-.051-.343 4 4 0 0 0-.041-.394q.044-.18.015-.53 0-.334-.07-.576a.7.7 0 0 1-.009-.284 1 1 0 0 1 .135-.278 2 2 0 0 1-.048-.416q-.016-.305-.025-.422-.061-.627.05-3.07t.249-3.962q.088-.693.112-1.273t-.039-.8a.3.3 0 0 1 0-.167q.041-.108.136-.278a.65.65 0 0 1 .412-.31q.375-.106.798.035.223.198.34.356t.18.378q.02.066.076.431.133.465-.024.914-.157.45-.141.423.89-.972 1.817-1.237.993-.285 1.79.25.792.514 1.064 1.461.107.375-.031 1.226-.144.83-.307 1.091-.133.038-.22.565-.164.428-.8 1.04-.62.585-.91.572-.023.006-.047.085-.032.057-.007.145t-.573.498-1.083.55q-.265.075-.404.092a.9.9 0 0 1-.309-.079q-.11.198-.072.331.063.22-.018.77-.088.525-.22.563a1 1 0 0 0-.041.108q-.003.072.11.135.02.067.067.315a.83.83 0 0 1-.003.407q.057.198.086.548.034.373-.003.574.077.264.057.532.01.284-.078.31-.12.081.051.677.129.535-.081 1.05-.189.507-.475.59zm.802-8.608q.31-.088 1.052-.66.76-.6 1.061-1.044.388-.564.551-.993t.062-.782a1.07 1.07 0 0 0-.369-.538.53.53 0 0 0-.533-.11q-.728.208-1.574 1.668a4.3 4.3 0 0 0-.402 1.262q-.132.705-.037 1.037.057.198.189.16m7.509.138q-.104-.113-.476-.245t-.384-.176q-.025-.089-.18-.211a3 3 0 0 0-.265-.258q-.227-.126-.087-1.217.141-1.09.468-2.616.094-.171.198-.558.125-.394.179-.457a.22.22 0 0 1 .022-.174q.04-.106.129-.132l.075-.404q.031-.223.588-1.195.558-.97.922-1.362.337-.407.823-.546a1.43 1.43 0 0 1 .992.05l.741.336q.82.36.934.424l1.024.494-.058 1.21q-.028.654.124 1.182.24.84.912 1.433.18.212.394.293.237.075.558.031.51-.05.624.346.14.486.033.779a.8.8 0 0 1-.331.429 5 5 0 0 1-.472.183 2.25 2.25 0 0 1-1.264.004q-.625-.18-1.249-.859a4 4 0 0 1-.382-.416 3.3 3.3 0 0 1-.293-.44 5 5 0 0 1-.343.718q-1.614 2.945-3.026 3.35a1.6 1.6 0 0 1-.93.004m.689-2.178q.365-.057 1.139-1.186.085-.12.186-.268.094-.171.211-.347.472-.685.708-1.11a7 7 0 0 0 .465-1.04l.258-.934q-.36-.422-.58-.526-.227-.126-.404-.075-.441.126-.875 1.11-.44.962-.911 2.816a4.6 4.6 0 0 0-.157.952q-.034.462-.04.608m19.097-4.927a.76.76 0 0 1 .275.374.6.6 0 0 1-.041.442q-.103.22-.214.252-.53.151-1.26.099-.715-.081-.855-.567l-.392-1.367q-.253-.882-.445-.97-.382-.082-.737.76-.362.82-.776 2.37-.17.575-.327.858-.164.262-.34.313a.43.43 0 0 1-.29-.013q-.741-.002-.905-.576a2 2 0 0 1-.039-.299 65 65 0 0 0-.017-1.642 24 24 0 0 0-.036-1.541.24.24 0 0 0-.259-.07q-.22.064-.444.367-.069.09-.267.315-.183.195-.356.508-.157.285-.286.75-.044.18-.176.552-.622 1.993-.801 2.283-.022.34-.094.504a.28.28 0 0 1-.189.174.54.54 0 0 1-.24-.003 1.9 1.9 0 0 1-.842-.356 1.65 1.65 0 0 1-.495-.812q-.096-.33-.181-1.38-.087-1.05-.09-1.98.075-.404.056-.803-.005-.428-.048-.584a11 11 0 0 1-.058-1.2q-.01-.785.059-.876.095-.17.447-.272.243-.069.489-.045a.58.58 0 0 1 .384.177q.382.248.546.822.153.53.102 1.188-.075.57-.127 1.636l.031-.057q.315-.901.887-2.068.27-.556.686-.937.438-.389.747-.477.554-.063 1.034.277.495.311.798 1.036.076.264.146.674.063.388.073.504.056-.135.289-.656.249-.548.645-1.163.377-.514.797-.635a.85.85 0 0 1 .699.11q.568.148 1.016.711.47.558.704 1.374.082.287.105.447.021.161.104.448.089.309.237.576.142.246.271.448m5.552-8.467q.375.227.571.41a.9.9 0 0 1 .272.447q.132.463-.037 1.204a8 8 0 0 1-.125 1.062q-.072.498-.145.662l-.172 1.314a53 53 0 0 1-.329 1.933 37 37 0 0 0-.313 2.07l-.154.546q-.597 2.08-.99 2.957-.359.58-.887 1.233-.523.675-.901.856a4.7 4.7 0 0 1-.901.353q-.904.26-1.699.153-.794-.106-1.031-.516l-.12-.252a.73.73 0 0 1 .138-.684q.23-.28.583-.382.22-.063.362.016.051.009.423.141t.901-.02q.993-.285 1.568-1.857.502-1.744.735-2.765-.518-.138-1.113-.636-.603-.519-.628-.775l-.07-.242q-.176.05-.454-.586a17 17 0 0 1-.534-1.613q-.304-1.06-.38-1.49a3.8 3.8 0 0 0-.158-.886 26 26 0 0 0-.174-.69.9.9 0 0 1-.042-.561q.085-.287.192-.413.255-.193.432-.243 1.014-.29 1.634 1.87.12.42.161.646.26 1.072.386 1.513.487 1.698 1.096 2.073.066-.521.141-.757.125-.728.119-.917 0-.167.097-.577l.116-.678q.006-.144.046-.92.035-.798.15-1.308.038-.203.12-.583a4 4 0 0 1 .141-.59.52.52 0 0 1 .186-.268.58.58 0 0 1 .33-.262.85.85 0 0 1 .457.012m9.005-2.128q.344.284.508.69.187.4.259.737.089.309.136.39.033.945.031 2.522-.008 1.554-.031 1.226.013.21-.018.602-.024.579.004.93.048.415-.122.655a3 3 0 0 1-.501.502.7.7 0 0 1-.186.1q-.396.115-.923-.14-.309-.413-.366-.611t-.026-.59q.014-.863.017-2.105-.005-1.263.004-2.15l.006-.645a2.7 2.7 0 0 0-.136-.725 2.5 2.5 0 0 0-.404.092 2.4 2.4 0 0 0-.554.23 9 9 0 0 1-.087 1.696 43 43 0 0 1-.426 2.509q-.176.885-.487 1.715l-.164.429-.572 1-.532.725a.6.6 0 0 1-.249.214.9.9 0 0 1-.324.117l-.287.083q-.312-.007-.659-.217a3 3 0 0 0-.432-.258l-.186-.233a.7.7 0 0 1-.038-.3q.035-.13.191-.413.08-.309.322-.378a.7.7 0 0 1 .204-.035q.139-.183.422-.527a9 9 0 0 0 .441-.628 2.8 2.8 0 0 0 .27-.555q.284-.844.641-2.26.148-.567.304-1.686l-.29-.013a8 8 0 0 1-.309-.078l-.565-.888q-.158-.552.334-.836.37-.202 1.112-.534.532-.225.882-.42.261-.17.68-.29a2.9 2.9 0 0 1 1.188-.102q.498.072.918.453m8.491 5.871a1.7 1.7 0 0 1-.476-.412q-.205-.3-.571-.91a1.3 1.3 0 0 1-.152-.363l-.107-.375q-.032.225-.095.505a1 1 0 0 1-.176.385q-.361.653-.799 1.04-.58.644-1.087.79-.617.175-1.223-.27-.87-.372-1.098-1.166a4 4 0 0 1-.076-.431 9.3 9.3 0 0 1-.228-1.63q-.016-.806.177-2.127l.282-1.513.157-.785q.098-.076.341-.146.352-.1.699-.057t.432.258q.092.069.161.312.203.705-.058 2.046l-.056.47a24 24 0 0 0-.15 1.641q-.025.58.077.933.101.354.397.388.13.035.284-.01.441-.127.863-.987.443-.868.643-2.668a5.3 5.3 0 0 0-.068-1.65q-.113-.23-.019-.568t.33-.596a.57.57 0 0 1 .186-.268q.129-.133.199-.057l.346-.123q.06-.041.255.141.218.177.297.202.272.113.423.642.208.728.046 2.159-.166 1.002-.181 1.532 0 .5.105.949.132.462.275.708.158.217.542.394.423.141.616 1.065 0 .166-.173.312a1.25 1.25 0 0 1-.46.227q-.486.139-.88.014"/></g><defs><clipPath id="a"><path fill="#fff" d="M0 0h440v347.642H0z"/></clipPath><clipPath id="b"><path fill="#fff" d="M19.57 264.228h118.773v60.012H19.57z"/></clipPath></defs></svg>