<svg xmlns="http://www.w3.org/2000/svg" width="390" height="346" fill="none"><mask id="a" width="356" height="332" x="25" y="14" maskUnits="userSpaceOnUse" style="mask-type:luminance"><path fill="#fff" d="M380.777 14.396h-355v331.113h355z"/></mask><g mask="url(#a)"><path fill="#000" d="M131.718 45.34c.418 1.362 1.176 2.553 2.069 3.621.964 1.15 1.993 2.254 2.834 3.503.311.464.511.435.976.194 5.449-2.817 9.57-7.118 13.309-11.848.246-.311.37-.405 1.105-.722-.159 1.044-.806 1.807-1.335 2.6-2.751 4.113-6.278 7.4-10.557 9.905-2.158 1.262-4.351 2.412-6.802 2.988-1.646.387-3.309.422-5.144.17.359-.37.688-.393 1-.464 1.634-.375 3.309-.58 4.867-1.267.6-.265.612-.476.159-.922-3.057-3.028-4.944-6.772-6.543-10.698-.241-.593-.112-1.085.253-1.496.37-.417.87-.575 1.458-.34 1.093.434 2.016 1.167 3.062 1.695 1.882.95 3.663.804 5.591.165 6.854-2.266 12.286-6.585 17.153-11.714 3.886-4.09 7.754-8.198 12.198-11.713 3.674-2.91 7.66-4.988 12.515-4.536 2.446.229 4.821.716 7.184 1.572 3.545 1.285 6.213 3.703 9.012 5.998.97.792 1.575 1.895 2.257 2.917.176.264.2.38.517.217 3.451-1.814 6.837-1.133 10.146.381 4.304 1.972 7.795 4.965 9.976 9.155 2.616 5.035 4.109 10.428 3.927 16.179-.018.645-.153 1.291-.658 1.89.67.046 1.117-.34 1.628-.47 3.233-.816 5.326-.082 7.101 2.723 2.446 3.861 3.051 8.051 1.617 12.377-1.029 3.098-3.245 5.31-6.273 6.625-1.557.675-1.587.645-1.34 2.283.935 6.085 1.382 12.212 1.546 18.362.024.816.083 1.543.606 2.306.511.746.582 1.784.852 2.694.2.692.417 1.379.606 2.077.129.487.487.499.887.523a60.4 60.4 0 0 0 8.565-.053c7.46-.587 14.655.833 21.833 2.529 4.526 1.074 8.959 2.465 13.315 4.073 2.386.88 4.767 1.801 7.154 2.67 8.941 3.257 16.859 8.286 24.513 13.797 9.347 6.731 18.253 14.019 27.041 21.443 5.014 4.237 9.494 9.055 14.038 13.79 5.137 5.352 10.293 10.693 14.984 16.444 5.573 6.836 10.569 14.078 14.426 22.024 2.463 5.076 4.285 10.399 5.002 16.032.741 5.81.665 11.579-1.446 17.148-3.333 8.802-8.741 15.938-16.701 21.161-5.613 3.68-11.727 5.892-18.252 7.201-3.451.692-6.843 1.666-10.293 2.335-4.286.834-8.595 1.532-12.915 2.195-10.411 1.596-20.875 2.8-31.28 4.431-4.473.704-8.941 1.549-13.491 1.749-.647.029-1.182.422-1.781.628-2.24.757-4.568 1.079-6.878 1.473-2.439.416-4.891.739-7.342 1.079-.523.071-1.076.182-1.581-.117-.218-.129-.665-.053-.577-.469.077-.358.247-.64.706-.781 4.091-1.244 8.277-2.107 12.409-3.169.817-.211 1.617-.235 2.434-.317.453-.047.911-.229.488-.769-1.734-2.188-2.369-4.888-3.521-7.353-2.687-5.768-4.168-11.924-5.744-18.051-.629-2.447-1.281-4.882-1.928-7.324-.17-.633-.394-.874-1.175-.54-3.322 1.409-6.678 2.735-10.041 4.044-.964.375-2.004.522-3.104.592.288.945.841 1.755 1.123 2.682 1.676 5.523 2.781 11.18 4.097 16.784 1.053 4.501 1.817 9.067 2.757 13.591.106.523.283 1.033.471 1.538.305.839.1 1.578-.547 1.825-.788.299-1.711-.147-1.963-.998-.118-.387-.136-.81-.177-1.22-.041-.417-.17-.493-.617-.37-3.627 1.021-7.154 2.283-10.522 3.99-.612.311-1.441.458-1.84.869-.306.317.446 1.103.605 1.719.717 2.782 1.235 5.575.423 8.427-.352 1.233-1.017 2.318-1.804 3.304-2.616 3.257-5.544 6.18-9.177 8.322-.346.205-.47.428-.458.827a33.3 33.3 0 0 1-.447 6.532c-.1.575.235.405.464.375a11.7 11.7 0 0 1 2.27-.058c3.156.246 4.726 1.966 4.72 5.129 0 3.192-1.828 4.935-4.961 5.839-.43.123-.823.123-1.035-.382-.206-.487.029-.769.447-.986.752-.399 1.493-.833 2.245-1.226 1.693-.88 2.105-1.99 1.617-4.448-.288-1.468-1.188-2.184-2.939-2.289-1.3-.082-2.599-.118-3.898-.164-.752-.03-1.14-.364-1.205-1.157-.147-1.701-.758-3.345-.705-5.07.006-.293-.188-.757.164-.845.447-.111.329.423.471.669.105.188.105.44.417.61.323-.774 0-1.531-.012-2.277 0-.176-.188-.217-.364-.14-.324.135-.547 0-.706-.288-.188-.352-.011-.593.23-.833.558-.558 1.099-1.127 1.651-1.684.083-.083.265-.206.306-.177.894.623 1.399-.211 1.911-.592 3.15-2.324 6.101-4.859 8.2-8.228.794-1.273 1.199-2.629 1.029-4.143-.177-1.578-.418-3.139-.853-4.665-.17-.593-.452-.904-1.158-.781-.652.118-1.328.088-1.992.124-.206.011-.471.14-.577-.153-.1-.299.018-.522.277-.734.564-.451 1.281-.522 1.898-.827 2.805-1.385 5.591-2.799 8.413-4.149 1.651-.792 3.309-1.608 5.184-1.743.347-.023.753-.141 1.035-.012.993.458.935.047.788-.745-1.399-7.506-3.404-14.876-4.897-22.359-.265-1.332-.588-2.652-.876-3.984-.088-.405-.159-.875-.453-1.121-.476-.387-.658.282-.987.434a407 407 0 0 0-7.595 3.656c-3.468 1.708-6.849 3.58-10.082 5.693-8.283 5.41-16.236 11.238-22.673 18.837-4.75 5.61-9.135 11.496-12.786 17.899-3.015 5.293-4.967 10.944-5.972 16.948-.853 5.058-1.276 10.123-.782 15.234.259 2.7.864 5.323 2.439 7.606.906 1.308 2.034 2.329 3.786 2.37.553.012.811-.252.982-.704.958-2.511 1.358-5.111 1.428-7.799.136-5.387-.17-10.774.159-16.156.247-3.996 1.235-7.793 3.333-11.249.241-.405.576-.752.847-1.133.205-.293.288-.728.823-.329.476.352.623.687.27 1.186a14.7 14.7 0 0 0-1.475 2.735c-1.499 3.585-2.123 7.341-2.064 11.208.071 4.783.341 9.566.182 14.354-.088 2.588-.576 5.082-1.886 7.365-1.247 2.171-3.204 2.629-5.379 1.409-2.957-1.655-4.162-4.413-4.926-7.447-1.341-5.294-.97-10.634-.241-15.963.587-4.307 1.528-8.544 2.933-12.658 1.84-5.381 4.538-10.34 7.707-15.046 3.538-5.258 7.283-10.37 11.662-14.971 3.792-3.99 8.166-7.312 12.586-10.563 4.162-3.063 8.53-5.815 13.015-8.38.453-.258.776-.546.823-1.144.341-4.272 1.699-8.298 3.11-12.294 2.757-7.794 5.937-15.423 9.317-22.969 2.287-5.106 4.95-10.018 7.783-14.836 4.862-8.274 9.723-16.555 14.038-25.134a91 91 0 0 0 5.25-12.875c.182-.558.399-1.104.764-1.603-.641 7.682-3.216 14.777-6.725 21.579.458.275.688-.071.964-.247 2.733-1.737 4.227-4.372 5.32-7.3.176-.476.323-.957.506-1.426.094-.241.088-.64.511-.534.335.082.517.34.529.698.029.875-.217 1.702-.488 2.506-.682 2.042-1.611 3.979-2.951 5.686-.435.558-.423.933.071 1.45 2.639 2.77 5.631 5.105 8.788 7.247 8.835 5.998 17.618 12.083 26.559 17.923 2.863 1.872 5.908 3.444 8.677 5.469 1.058.775 2.275 1.174 3.662.998.682-.089 1.005-.259 1.082-.992.335-3.375 1.216-6.596 3.021-9.507 1.816-2.917 4.144-5.27 7.46-6.461a8 8 0 0 1 1.752-.393c.634-.071 1.122.264 1.328.856.182.546-.288.775-.664 1.004-1.152.716-2.475 1.115-3.604 1.89-4.42 3.057-6.772 7.317-7.424 12.593-.065.528.047.652.582.581.811-.111 1.781.223 2.422-.217.617-.423.529-1.426.787-2.165 1.117-3.122 2.71-4.331 6.044-4.296 4.097.041 8.041.986 11.892 2.341 1.152.405 2.257.945 3.392 1.409.294.117.511.24.446.61-.07.382-.376.417-.652.411-.864-.012-1.67-.317-2.498-.517-3.851-.927-7.695-1.907-11.675-2.124-1.246-.07-2.504-.111-3.621.722-1.152.857-1.352 2.154-1.764 3.357-.147.434.235.334.465.311a17.7 17.7 0 0 1 7.489.933c.688.24 1.369.522 1.875 1.08.217.24.394.51.235.862-.147.335-.429.452-.776.434-.476-.029-.964 0-1.422-.111-4.221-1.021-8.501-1.009-12.78-.657-2.499.205-4.909.909-7.325 1.578-7.183 1.978-14.261 4.29-21.256 6.837-4.633 1.684-9.183 3.591-13.762 5.428-4.75 1.908-9.488 3.85-14.232 5.775-.176.07-.358.123-.541.17-.764.194-1.034.423-.723 1.385.941 2.893 1.74 5.833 2.487 8.785 1.652 6.526 3.621 12.946 6.272 19.143a90 90 0 0 1 2.07 5.281c.217.605.488.669 1.046.558 3.856-.763 7.713-1.503 11.598-2.078 8.118-1.209 16.195-2.699 24.355-3.662 5.314-.627 10.581-1.719 15.86-2.634 6.936-1.203 13.755-2.911 20.527-4.801 5.603-1.561 10.47-4.501 14.961-8.175 5.814-4.753 9.758-10.756 12.063-17.804 1.904-5.828 1.74-11.813.323-17.74-1.828-7.647-5.267-14.548-9.499-21.174-5.72-8.955-12.786-16.76-20.028-24.442-5.832-6.185-11.663-12.37-18.041-17.998-4.445-3.92-9.018-7.694-13.615-11.438-6.073-4.941-12.216-9.8-18.711-14.189-4.098-2.764-8.453-5.082-12.862-7.307-4.48-2.253-9.282-3.644-13.979-5.316-6.631-2.365-13.45-4.061-20.393-5.229-3.033-.511-6.084-.916-9.176-.91-3.051 0-6.09-.199-9.1-.745-.664-.117-1.276-.469-2.016-.446.264 1.978.599 3.938.77 5.91.629 7.376.311 14.676-1.852 21.83-2.245 7.435-5.714 14.319-9.488 21.056-.911 1.625-1.857 3.274-3.221 4.595-.318.305-.711.962-1.252.188-.1-.141-.212 0-.318.047-1.452.604-2.962.299-3.909-.84-.241-.287-.359-.369-.652-.082-4.827 4.713-10.682 8.005-16.213 11.755-4.198 2.846-8.406 5.669-12.463 8.72a16.4 16.4 0 0 1-2.827 1.731c-1.399.663-2.263.476-3.392-.716-1.634-1.725-2.734-3.797-3.798-5.886-2.815-5.551-4.597-11.431-5.378-17.605-.306-2.429-.394-4.865-.124-7.3.071-.622.153-.951-.717-.581-2.475 1.068-4.891 2.224-7.189 3.638-1.188.734-2.14.2-2.181-1.209-.065-1.983.405-3.89.946-5.786 1.846-6.485 4.215-12.77 7.372-18.738.382-.727.84-1.414 1.299-2.095.388-.587.476-.915-.435-.986-2.275-.164-4.556-.34-6.79-.856-3.256-.752-4.097-1.597-4.685-4.871a40 40 0 0 1-.364-2.635 48 48 0 0 1-.2-2.271c-.024-.288-.059-.505-.435-.423-2.528.552-5.138.27-7.66.751-3.415.652-6.889 1.133-9.923 3.052-1.71 1.086-3.098 2.518-4.391 4.043-5.62 6.637-10.37 13.885-14.896 21.285-3.692 6.027-6.649 12.418-9.541 18.849-.352.781-.558 1.673-1.334 2.23-.312.223-.177.599-.082.886a925 925 0 0 0 3.021 8.967c.112.323.376.546.711.722 3.621 1.919 6.878 4.278 9.3 7.658 1.799 2.512 2.739 5.394 3.633 8.304.253.816.506 1.638.576 2.494.029.358.182.834-.335.957-.459.111-.529-.329-.676-.64-1.052-2.265-1.675-4.694-2.833-6.924-1.429-2.747-3.363-5.053-5.708-7.043-1.264-1.073-2.54-2.147-4.145-3.239.6 1.901.641 3.644 1.958 5.076 2.192 2.377 4.244 4.912 5.196 8.087.729 2.435 1.182 4.929.859 7.494-.018.158-.024.317-.077.469-.094.27-.206.57-.558.564-.412-.012-.359-.358-.394-.634-.224-1.631-.447-3.263-.682-4.894-.423-2.888-1.493-5.47-3.562-7.588-.189-.194-.277-.487-.418-.734-.129-.217-.27-.428-.552-.557.599 4.612.399 9.207.975 13.761-.811-1.121-1.075-2.418-1.428-3.668-.729-2.564-.964-5.228-1.534-7.822-1.535-7.03-3.686-13.867-6.29-20.569a359 359 0 0 1-7.825-22.276c-1.675-5.341-3.345-10.687-4.756-16.103-.152-.593-.464-.476-.834-.405q-9.965 1.856-19.928 3.72c-2.84.534-5.626 1.262-8.418 1.996-.835.217-1.094.592-.97 1.549.388 2.946.576 5.915.67 8.896.082 2.512.494 5.018.511 7.53.024 2.945.27 5.88.453 8.808.264 4.225.723 8.433 1.146 12.646.806 7.94 1.687 15.875 3.04 23.744.846 4.924 1.91 9.8 3.79 14.466.524 1.302.894 2.67 1.3 4.02.118.393.276.604.717.563 7.401-.757 14.843-.452 22.262-.845.794-.041.993-.223.864-1.051-.323-2.136-.329-4.289-.106-6.443.106-1.033.659-1.649 1.576-2.16 4.497-2.511 9.4-2.324 14.285-2.183 3.492.1 6.978.159 10.47-.017 2.222-.112 4.144.493 5.308 2.593.429.781.388 1.655.441 2.5.111 1.708.158 3.416.241 5.129.011.247.047.505.135.734.076.199.311.188.5.17.235-.023.182-.193.164-.352-.617-5.44.224-10.768 1.264-16.085 1.364-6.96 2.657-13.932 3.992-20.898a4870 4870 0 0 1 3.239-16.695c.417-2.136.875-4.261 1.322-6.391.053-.252 0-.669.371-.651.323.017.335.399.37.686.353 2.864-.118 5.693-.459 8.521-.87 7.265-2.457 14.413-3.627 21.625-1.24 7.623-2.798 15.199-3.938 22.84-.276 1.843-.723 3.662-1.099 5.493-.13.628-.512 1.133-.894 1.737.993.235 1.934.147 2.863.106 6.401-.282 12.791-.834 19.205-.945 2.727-.047 5.473-.188 8.147.493 2.898.739 5.35 2.136 6.672 4.994.629 1.361.477 2.864.718 4.29.053.311.053.633.317.903.476-.252.535-.727.623-1.185.318-1.614.635-3.228 1.094-4.812.311-1.086.922-1.913 1.792-2.688.383.616.065 1.209-.035 1.725-.564 2.852-1.199 5.693-1.834 8.533-.106.469-.159 1.027-.982.599-.705-.37-.464.287-.429.604.494 4.566 1.076 9.125 1.488 13.697.664 7.447 1.675 14.87 1.599 22.364-.03 2.759-.418 5.44-2.34 7.641-1.628 1.872-3.809 2.846-5.984 3.914-2.587 1.268-5.22.986-7.913.834-6.525-.376-13.044-.898-19.587-.916-.87 0-1.129.229-1.105 1.092.035 1.367-.006 2.752.3 4.072.74 3.216-2.669 4.724-4.785 4.138-1.288-.358-2.61-.511-3.892-.875-.588-.17-.764-.053-.676.622.153 1.115.359 2.277-.3 3.328-.776 1.238-1.922 1.913-3.362 2.054-1.252.117-2.51.381-3.78.152-.435-.082-.464.065-.441.434.658 8.915.635 17.858 1.235 26.772.129 1.925.099 3.862.117 5.798.006.939-.241 1.086-1.14.786-.212-.07-.435-.158-.635-.011-.071.053-.112.229-.088.328.094.347.405.223.634.247 2.176.229 2.252.152 2.311-1.984.106-3.861.205-7.728.335-11.59.053-1.531-.241-3.028-.341-4.542-.053-.804-.476-1.76.464-2.406.036-.023.059-.141.036-.164-.988-1.027-.606-2.377-.771-3.562-.411-2.987-.47-5.998.124-8.985.041-.211.135-.411.306-.904.776 2.095.999 4.026 1.14 6.062 1.893-1.373 4.044-2.048 6.114-2.846 1.081-.416 1.44-.986 1.704-1.913.177-.604.447-1.179.694-1.755.094-.211.112-.604.435-.522.365.088.218.481.212.74a45 45 0 0 1-.106 2.365c-.03.416-.024.633.529.539 2.069-.352 4.168-.352 6.255-.522.558-.047 1.058-.141 1.469-.546.153-.152.4-.369.547-.334 1.511.346 1.681-.963 2.163-1.784.788-1.35 1.952-2.048 3.386-2.576 2.258-.834 4.627-1.121 6.943-1.644 1.416-.316 2.921-.234 4.373-.422 3.81-.505 7.642-.599 11.463-.739 3.139-.118 6.279.023 9.335.909 2.552.74 3.763 2.606 4.151 5.035.546 3.474-1.123 5.376-4.68 6.497-2.698.85-5.526.71-8.306.892-5.261.346-10.534.181-15.801.475-2.111.117-4.245-.012-6.361-.123-1.334-.071-2.669-.264-3.539-1.497-.141-.199-.329-.252-.576-.246-3.362.111-6.707.44-10.046.792-1.534.164-2.845.769-3.974 1.837-1.634 1.543-3.216 3.163-5.208 4.266-.459.252-.341.622-.341.986.017 5.323.194 10.645-.2 15.962-.088 1.197-.176 2.4-.629 3.533-.159.405-.041.563.341.481 1.328-.293 2.827.094 3.962-.992.294-.281.564-.217.746.176.206.446.629.669 1.053.746 2.657.487 3.433 3.579 1.699 5.575-1.076 1.238-2.387 2.177-4.045 2.511-1.458.294-2.916.652-4.391.84-.776.099-.876.428-.929 1.085-.353 4.196.077 8.351.547 12.512.217 1.948.335 3.914.5 5.868h-1.905c-.582-4.114-.611-8.263-.946-12.394-.183-2.265-.794-4.495-.618-6.79.018-.258-.053-.381-.317-.475-.682-.235-.911-.053-.87.786l.846 18.873h-5.143c.576-1.749 1.763-3.116 2.862-4.53.265-.341.447-.646.336-1.08-1.858 1.848-3.434 3.961-5.479 5.61h-7.813c-.43-.329.023-.452.164-.622 1.47-1.755 2.946-3.503 4.422-5.252-.042-.159.023-.229.182-.229l.029-.024-.023.03c.023.146-.053.217-.194.235-1.311 1.332-2.646 2.652-3.934 4.008-.529.557-1.14 1.074-1.41 1.842h-3.046c.553-.98 1.44-1.66 2.193-2.459 4.204-4.448 8.413-8.884 12.622-13.327.376-.399.676-.921 1.422-.592.435.187.388-.341.424-.552.188-1.056.117-2.142.405-3.198.141-.505-.294-.329-.546-.317-1.329.058-2.663.17-3.998.041-2.169-.211-3.55-1.461-3.991-3.58-.359-1.713.111-2.377 1.563-3.339 1.729-1.144 3.533-.622 5.332-.64.182 0 .371.047.6.077-1.005-3.551-1.041-7.142-1.147-10.722-.029-.915-.129-1.831-.182-2.746-.029-.546-.211-.705-.682-.341-2.58 1.996-5.179 3.973-7.742 5.992-1.47 1.156-2.863 2.406-4.327 3.568-.329.264-.393.487-.364.868.264 3.175-2.47 7.694-5.385 8.938-2.986 1.273-6.437-.252-7.995-3.533-1.257-2.646-.787-5.774 1.17-7.752 2.452-2.476 5.444-2.993 8.612-1.491.059.03.106.077.159.106.423.2.864.581 1.27.552.576-.041.364-.775.611-1.156.412-.652.917-1.186 1.517-1.679 3.88-3.175 7.478-6.654 10.917-10.293.088-.094.164-.246.258-.264 1.37-.194 1.029-1.215 1.041-2.077.053-3.932-.535-7.841-.412-11.772.041-1.38.053-1.38-1.375-1.338-.888.023-1.776.093-2.663.082-1.382-.03-1.94-.933-1.482-2.224.465-1.327.576-2.717.635-4.114.024-.628-.353-.341-.629-.299-2.17.334-4.344.528-6.537.193-1.258-.193-2.028-.827-2.252-2.083-.329-1.884-.323-3.797-.105-5.681.1-.851-.136-.974-.841-.991-4.474-.13-8.947-.188-13.415-.529-3.104-.234-6.184-.586-9.235-1.261-2.786-.616-4.297-2.254-4.808-5.035-.788-4.261-.8-8.574-1.094-12.87-.364-5.246-.74-10.493-1.052-15.739s-.723-10.498-.123-15.757c.287-2.494 1.634-4.213 3.967-5.123.624-.24.706-.387.294-.962-1.028-1.45-1.728-3.075-2.375-4.724-1.904-4.894-3.18-9.959-3.991-15.135-1.54-9.829-2.869-19.688-3.404-29.635-.47-8.697-.917-17.4-1.364-26.103-.264-5.182-1.299-10.229-2.492-15.264-.553-2.335-1.223-4.665-1.334-7.083-.1-2.189 1.646-3.985 3.985-4.119-.217.545-.676.856-1.017 1.249-.229.265-.488.511-.558.869-.077.411-.03.622.529.534 8.459-1.285 16.836-3.075 25.319-4.255 1.787-.246 3.55-.657 5.314-1.021.758-.158 1.075.317 1.228.875.259.945.394 1.919.6 2.875 1.37 6.367 2.986 12.67 5.114 18.838 1.546 4.477 2.922 9.014 4.409 13.515 1.475 4.46 3.157 8.849 4.797 13.251.036.088.071.182.118.258.211.334 0 1.015.47 1.027.547.017.447-.663.564-1.039 1.611-4.941 3.998-9.524 6.479-14.061a163 163 0 0 1 14.537-22.106c1.575-2.024 3.169-4.043 4.867-5.968 2.734-3.093 6.261-4.765 10.317-5.358 4.027-.587 8.048-.381 12.045.223.805.123.829-.117.758-.763-.405-3.814-1.128-7.582-1.622-11.385-.265-2.042-.459-4.09-.647-6.144-.047-.493-.147-.669-.682-.551-1.722.375-3.127-.311-4.067-1.667-2.481-3.556-4.039-7.441-3.675-11.883.159-1.943 1.611-3.598 3.457-4.067.3-.077.611-.082.776.176.2.31-.076.516-.3.698-.1.082-.176.194-.282.252-2.322 1.368-2.075 3.475-1.57 5.605a22.2 22.2 0 0 0 3.234 7.335c.258.382.482 1.162 1.046.828.6-.358 1.534-.658 1.411-1.673-.2-1.66-.465-3.31-.653-4.976-.493-4.384-1.458-8.72-1.34-13.163.018-.628-.159-.593-.635-.423-2.24.793-4.532 1.297-6.889.599-1.423-.422-2.599-1.227-2.91-2.817-.094-.463-.341-.493-.712-.546-1.798-.275-3.55-.68-4.808-2.17-.2-.241-.423-.47-.482-.793.176-.229.335-.076.494.006 4.003 2.107 8.006 1.725 12.015.017 4.785-2.036 8.542-5.404 11.875-9.278 2.116-2.464 4.079-5.058 6.319-7.411 1.246-1.315 2.593-2.512 4.197-3.392 1.141-.622 2.064-.435 3.228.27 3.756 2.288 7.7 4.295 12.233 4.419 4.779.123 8.494-2.09 11.545-5.634 1.793-2.09 3.01-4.53 4.474-6.82.276-.433.558-.862.928-1.243.171 1.608-.27 3.063-.823 4.495a14.7 14.7 0 0 1-3.262 5.064c-.482.493-.335.652.17.916 2.346 1.209 4.556 2.623 6.537 4.372 2.557 2.259 4.092 5.2 5.491 8.227.846 1.831 1.646 3.68 3.086 5.158 1.558 1.597 2.628 1.726 4.667.787a10.4 10.4 0 0 0 2.299-1.403c.37-.299.364-.54-.035-.804-.694-.463-1.488-.498-2.275-.545-.941-.053-1.123-.382-.659-1.192.412-.721.97-1.056 1.84-1.097 3.245-.158 2.775-.106 2.845-3.052.03-1.302-.364-2.57-.482-3.861-.023-.264-.176-.64.153-.769.365-.14.418.276.582.487.982 1.28 1.969 2.559 2.951 3.844.118.153.224.364.423.335.277-.041.271-.335.312-.534.247-1.168.088-2.336-.088-3.492-.606-3.997-1.681-7.864-3.504-11.473-1.846-3.65-4.767-6.326-8.271-8.35-2.169-1.256-4.444-2.313-7.03-2.354-1.511-.023-2.881.206-3.774 1.684-.477.787-1.335.687-1.864-.234-1.957-3.44-5.067-5.646-8.318-7.623-3.415-2.072-7.254-2.84-11.228-2.541-2.692.205-4.997 1.496-7.119 3.127-4.967 3.809-9.346 8.234-13.632 12.764-4.85 5.123-10.411 9.208-17.13 11.602-2.433.869-4.861 1.127-7.365.423-.1-.07-.2-.177-.318-.041s-.006.217.094.299zm47.01 129.041c.541-.3.935-.728 1.211-1.28-.558.276-.946.716-1.228 1.262q-.134.132-.259.264c-.429.305-1.052.616-1.34.147-.347-.564-.753-1.139-.911-1.831-.594-2.529-1.288-5.029-1.858-7.559-1.234-5.44-1.863-10.985-2.851-16.466-.347-1.931-.776-3.844-1.176-5.769-.047-.235-.059-.534-.4-.569-.205-.018-.335.094-.464.264-1.305 1.754-2.24 3.591-2.245 5.886 0 4.19.74 8.245 1.857 12.253 1.258 4.513 3.186 8.709 5.931 12.511.424.587.829 1.204 1.4 1.667 1.028.839 1.499.716 2.069-.505.188.006.217-.14.264-.27zm38.181-114.17c-1.111 1.45-2.534 2.324-4.168 2.799-1.763.51-3.386.13-4.75-1.168-1.616-1.543-2.633-3.462-3.544-5.463-.947-2.078-1.905-4.138-3.41-5.898-2.557-2.987-5.784-5.088-9.129-7.06-.735-.434-1.129-.375-1.752.123-3.456 2.747-7.383 3.991-11.81 3.398-2.663-.358-5.138-1.361-7.518-2.547-.812-.405-1.399-.364-2.058.217-1.328 1.174-2.704 2.313-3.874 3.65-2.351 2.7-4.597 5.493-6.966 8.175-2.698 3.064-5.484 6.057-9.017 8.222-.4.246-.665.528-.529 1.185.129.605.335 1.198.411 1.82.282 2.265.553 4.53.882 6.784.541 3.697 1.264 7.376 1.646 11.085.511 4.965 1.364 9.876 1.934 14.829.311 2.706.946 5.376 1.434 8.058.429 2.365.629 4.771 1.341 7.083.176.569.499 1.086 1.017 1.144 1.269.141 2.445.634 3.703.798 8.1 1.045 16.248 1.385 24.396 1.72.864.035 1.704-.053 2.521-.37 2.469-.951 4.774-2.206 7.072-3.498 2.311-1.291 4.674-2.476 6.978-3.791 3.827-2.183 7.724-4.26 11.592-6.373 3.051-1.666 6.096-3.35 9.165-4.988 1.264-.675 1.869-1.584 1.646-3.069-.259-1.72-.376-3.462-.553-5.2-.523-5.07-1.24-10.128-1.252-15.24 0-.704-.059-1.343-.488-1.954-.405-.575-.564-1.261-.57-1.977 0-.564.417-.822.8-1.098.388-.281.746-.106 1.022.176.394.4.782.393 1.276.176 3.321-1.45 5.491-3.867 5.99-7.494.418-3.045-.235-5.927-2.081-8.456-1.034-1.42-2.092-1.702-3.744-1.11-1.106.394-2.099 1.004-3.134 1.544-.911.476-1.44 1.186-1.793 2.101-.599 1.55-.823 3.18-1.087 4.806-.071.423.129 1.145-.511 1.145-.524 0-.494-.699-.624-1.139-.299-1.02-.27-2.095-.464-3.145m-56.304 204.121c1.04-.81 2.069-1.55 2.81-2.583.329-.457.594-.962.617-1.566.112-2.53.235-5.059.124-7.6-.288-6.49-.853-12.957-1.447-19.424-.564-6.15-1.281-12.289-2.086-18.41-.206-1.561-1-2.558-2.452-3.063a16 16 0 0 0-2.004-.575c-2.634-.54-5.309-.464-7.966-.364-12.015.44-24.031.892-36.058 1.103-13.81.241-27.612.259-41.42.482-2.81.047-4.633 1.385-6.279 3.315-.417.493-.593 1.074-.546 1.761.288 4.489.476 8.984.823 13.468.47 6.097.676 12.206 1.27 18.292.346 3.556.264 7.153.887 10.692.394 2.242.97 2.776 3.15 3.274 4.927 1.121 9.953 1.168 14.956 1.362 4.885.188 9.776.135 14.655.282 6.22.187 12.439.34 18.653.516 7.013.2 14.026.141 21.039.417 4.503.176 8.976.856 13.491.675.911-.036 1.987.275 2.592-.822.036-.065.159-.088.247-.123 2.146-.81 3.175-2.336 3.098-4.648-.082-2.418-.529-4.789-1.093-7.13-.635-2.67-1.294-5.34-1.44-8.081-.253-4.683-.347-9.372-.6-14.055-.359-6.702-.312-13.438-1.558-20.04 1.329.316 2.099 1.197 2.381 2.717 1.317 7.142 1.628 14.395 2.445 21.595.747 6.579 1.106 13.193 1.682 19.789.252 2.905.299 5.798.023 8.738zm87.466-24.56c1.011-1.015 2.222-1.696 3.333-2.511.835-.617 1.646-1.297 2.692-1.567 2.328-.599 4.58-1.444 6.796-2.353 6.878-2.829 13.614-5.992 20.51-8.785 6.972-2.823 14.032-5.376 21.145-7.805 3.685-1.262 7.459-2.207 11.245-3.122.188-.047.512 0 .5-.306-.012-.275-.3-.258-.506-.322a33 33 0 0 1-5.161-2.131c-4.444-2.271-8.447-5.24-12.574-8.01-4.291-2.876-8.453-5.951-12.809-8.72-5.238-3.328-10.099-7.013-13.703-12.142-.417-.593-.764-.757-1.364-.17-.364.358-.905.569-1.393.768-1.229.505-2.093 1.338-2.722 2.506a177 177 0 0 1-3.738 6.69c-3.651 6.15-7.19 12.371-10.546 18.685-1.188 2.236-2.093 4.63-3.057 6.984-1.752 4.272-3.445 8.573-5.185 12.857-2.157 5.323-3.986 10.769-5.867 16.191-.076.223-.294.499-.088.704.27.265.523-.052.753-.164 2.98-1.379 5.913-2.864 8.935-4.166 1.675-.722 1.599-.353 1.046-2.248-.082-.276-.164-.546-.235-.822-.188-.727.376-1.079.835-1.32.517-.276.499.411.735.651.17.176.282.411.429.622zm-77.608-117.045c0 .487-.029.833 0 1.174.271 2.799.412 5.616.97 8.386.323 1.607.465 3.256.706 4.888.981 6.573 2.369 13.081 3.215 19.683.365 2.857.653 5.745 1.17 8.567.441 2.395.682 4.807 1.04 7.201.036.246-.029.557.3.775a98 98 0 0 1 4.444-6.767c3.645-5.111 7.731-9.876 11.798-14.647 6.561-7.688 13.18-15.323 19.67-23.069 2.916-3.48 5.72-7.071 7.583-11.285.788-1.784 1.27-3.591.852-5.516-.529-2.418-.987-4.842-1.034-7.324-.012-.587-.159-.64-.659-.358a458 458 0 0 1-6.066 3.345c-7.254 3.938-14.385 8.087-21.704 11.907-3.133 1.637-6.354 2.846-9.981 2.518-4.703-.429-9.441-.435-14.138-1.057-.776-.105-1.716-.346-2.322-.035-.676.346-.67 1.42-.964 2.177-1.887 4.912-4.021 9.73-5.696 14.724-.864 2.57-1.752 5.135-2.628 7.705-.07.2-.247.423-.023.611.211.182.405-.018.599-.106.6-.282 1.199-.552 1.799-.833 2.651-1.256 5.161-2.811 7.983-3.692.747-.228 1.487-.539 2.24.012.182.135.476.135.617-.047.17-.217.118-.475-.147-.645-.129-.082-.294-.176-.176-.364.429-.71.1-1.426 0-2.124-.33-2.319-.753-4.625-1.029-6.949-.282-2.382-.582-4.782.023-7.177.206-.821.7-1.291 1.541-1.661zm-85.32-14.108c0-.54.005-1.08 0-1.614-.012-.481-.16-.698-.6-.275-.9.862-2.081 1.038-3.227 1.267-2.987.587-5.985 1.115-8.977 1.684-4.332.828-8.63 1.831-13.056 2.043-1.458.07-2.916.094-4.38.111-.822.012-1.222.247-.987 1.18.447 1.778.782 3.585 1.223 5.369.617 2.488 1.099 5.006 1.91 7.447.165.505.324.863.982.44.582-.369 1.246-.616 1.905-.851 4.996-1.801 10.193-2.758 15.39-3.755 3.797-.728 7.63-1.256 11.45-1.849.377-.059.73-.088.6-.593-.4-1.543-.74-3.104-1.181-4.63-.565-1.966-1.17-3.89-1.047-5.962zm140.884-8.955c-.788 1.62-1.887 2.893-3.398 3.791-.382.229-.312.575-.324.921-.058 2.048.336 4.02.976 5.963 1.064 3.221.994 6.343-.423 9.512-1.728 3.868-4.232 7.177-6.843 10.434-3.627 4.525-7.624 8.744-11.28 13.251-.571.699-.547 1.104.058 1.708 1.617 1.614 3.234 3.228 4.762 4.924 1.575 1.742 3.527 3.18 4.532 5.61.565-1.321 1.041-2.518 1.582-3.686 2.198-4.741 4.532-9.418 6.595-14.219 2.669-6.185 4.339-12.64 4.856-19.395.37-4.83.176-9.618-.335-14.413-.159-1.473-.282-2.951-.764-4.407zm-45.353 72.551c1.282-.551 2.269-1.479 3.357-2.265 4.944-3.603 10.246-6.649 15.442-9.871 2.875-1.784 5.944-3.227 8.765-5.105.306-.206.547-.294.177-.669-2.087-2.125-4.18-4.243-6.214-6.414-.541-.575-.788-.423-1.234.047-1.834 1.936-3.433 4.066-5.162 6.085a2189 2189 0 0 0-13.085 15.44c-.729.868-1.599 1.649-2.034 2.752zM141.67 65.334a10.5 10.5 0 0 0 2.822-.558c3.392-1.167 6.026-3.42 8.459-5.95 2.945-3.058 5.467-6.485 8.33-9.613 1.834-2.007 3.692-4.002 6.155-5.293 1.258-.657 1.24-.692.158-1.672-.141-.13-.311-.235-.417-.388-.447-.628-.858-.47-1.428-.094-2.234 1.473-3.91 3.504-5.585 5.523-2.663 3.215-5.255 6.496-8.377 9.307-3.938 3.538-8.277 6.244-13.732 6.666-.2.018-.505-.082-.582.17-.076.265.165.458.359.617 1.07.874 2.298 1.297 3.838 1.279zm-15.748 205.735c-.194-.388-.165-.928-.564-1.145-.312-.17-.688-.023-1.07.118-.647.24-1.17.762-1.922.78-1.682.029-3.363.17-5.044.153-3.427-.036-6.855-.212-10.282-.212-3.444 0-6.872-.035-10.217-.962-.494-.135-.552-.082-.423.405.158.593.435 1.132.629 1.708.206.616.1 1.473.623 1.807.588.37 1.422.153 2.151.158h.094c6.444-.228 12.887-.14 19.324.053 1.769.053 3.591-.041 5.32.593.476.176.605-.258.611-.616.012-.499.041-.986.235-1.45.188-.452.359-.915.547-1.385zm-18.535 47.804c0 .164-.012.205 0 .217.106.111.218.223.335.323.935.774 1.482 1.69 1.064 2.94-.135.41.159.428.4.434.794.017 1.599.094 2.375-.012 2.146-.293 4.385-.194 6.296-1.502 1.017-.693 2.087-1.309 3.127-1.966.564-.352.176-.634-.112-.863-.235-.188-.552-.105-.834-.076-1.735.17-3.475.346-5.209.528-2.469.264-4.938.141-7.448-.035zm-23.75-2.219c.424 1.608 1.176 3.298 2.905 4.384.676.423 1.358.91 2.051.012.065-.082.247-.135.347-.106.97.329 1.076-.023.705-.833-.07-.153-.005-.376.03-.558.041-.211.059-.516.194-.592.258-.153.435.123.623.293.194.176.358.522.7.264a.476.476 0 0 0 .164-.593c-.13-.311-.33-.645-.676-.563-.911.211-1.387-.422-1.946-.898-.711-.598-1.27-1.35-2.234-1.661-.634-.205-1.293.012-1.851-.228-.959-.417-1.023.099-1.011 1.085zm3.816-5.082c.923.611.852 1.315.611 2.043-.37 1.109-.27 1.502.823 1.954 1.2.499 2.27 1.091 2.898 2.277.03.052.083.099.118.146.264.335.458.347.693-.058.6-1.045.7-2.125.047-3.134-.511-.792-1.158-1.508-1.804-2.195-.853-.915-1.934-1.262-3.398-1.033zm31.139-102.826h2.627c-.611-.863-.582-1.784-.688-2.688-.141-1.191-.223-2.406-.729-3.521-.299-.663-.646-1.338-1.481-1.473-.37-.058-.846-.129-1.07.188-.206.293.241.516.376.786.083.171.236.317.271.493.411 2.037.835 4.073.694 6.209zm-4.403-7.13c1.322 1.796 1.61 3.902 1.569 6.003-.023 1.133.306 1.356 1.27 1.192.123-.024.253.029.376.011.206-.029.306-.094.247-.369-.441-2.09-.676-4.232-1.599-6.192-.506-1.073-.658-1.115-1.869-.645zm59.184 86.148c1.881-.78 2.681-2.529 2.269-4.589-.382-1.948-1.593-3.187-3.215-3.233 1.957 2.365 2.251 4.935.946 7.828zm45.223-236.139c-.264.558-.047.98-.012 1.397.059.64-.041 1.56.5 1.784.559.229 1.093-.563 1.64-.915.053-.036.094-.083.147-.118.329-.235.3-.434-.047-.61-.782-.4-1.487-.904-2.228-1.538m-90.481 220.723v-3.445c0-.194.058-.434-.188-.464-.341-.035-.706-.046-1.029.047-.247.077-.088.358-.065.57.053.575.282 1.103.323 1.69.036.551.2 1.185.953 1.596zM217.75 56.156c-.247.182-.765.047-.823.446-.041.31.329.628.623.557.294-.064.623-.323.623-.733 0-.276-.206-.276-.429-.27zM94.601 311.185c-.247.053-.241.241-.235.428.006.206.07.382.311.358.235-.017.294-.205.259-.399-.03-.188-.106-.358-.335-.381zm85.72-138.448c-.005-.041-.017-.088-.023-.129a1 1 0 0 0-.071.059 1 1 0 0 0-.058.07z"/><path fill="#000" d="M117.94 345.509c-.747-4.765-.406-9.606-.912-14.389-.123-1.162-.094-2.342.265-3.48.082-.258.088-.622.482-.593.306.018.429.317.417.558-.088 1.302.812 2.059 1.57 2.893a180 180 0 0 0 14.649 14.371c.182.159.653.194.488.64h-2.669c-2.992-2.676-5.961-5.375-8.882-8.18a19.3 19.3 0 0 1-.059 3.034c-.071.715.17 1.15.794 1.49a70 70 0 0 1 5.431 3.269c.13.088.388.111.235.381h-3.239c-2.327-1.391-4.426-3.268-7.354-3.486-.017 1.18.324 2.33.118 3.486h-1.334z"/><path fill="#FDFDFD" d="m112.988 345.509-.846-18.873c-.036-.839.194-1.021.87-.786.264.094.341.211.317.475-.176 2.301.429 4.525.617 6.79.335 4.131.365 8.286.947 12.394zM129.749 345.509c.153-.27-.105-.293-.235-.381a70 70 0 0 0-5.431-3.269c-.629-.34-.865-.775-.794-1.491a19.3 19.3 0 0 0 .059-3.034c2.921 2.806 5.89 5.499 8.882 8.181h-2.475zM119.273 345.509c.205-1.162-.136-2.306-.118-3.486 2.927.218 5.026 2.101 7.354 3.486zM105.559 345.509c2.052-1.649 3.627-3.762 5.479-5.61.112.434-.071.739-.335 1.08-1.099 1.414-2.287 2.781-2.863 4.53h-2.287zM102.33 339.635c-1.475 1.749-2.95 3.497-4.42 5.252-.14.17-.588.293-.164.622h-.765c.27-.769.882-1.285 1.411-1.843 1.288-1.361 2.616-2.676 3.932-4.008v-.017z"/><path fill="#000" d="M41.101 58.45c-1.593-2.875-3.121-5.786-4.532-8.761-1-2.113-1.917-4.26-2.593-6.502-.646-2.148-.74-4.314-.211-6.48.288-1.173 1.146-1.871 2.345-2.088 2.787-.51 5.19.117 7.172 2.259 2.245 2.424 3.815 5.27 5.32 8.169a63 63 0 0 1 2.463 5.323c.1.24.159.669.476.598.4-.088.247-.516.224-.81-.224-3.386-.483-6.766-.318-10.158.194-3.99.423-7.975 1.71-11.807.506-1.497 1.218-2.905 1.964-4.29.247-.452.535-.663 1.223-.47 2.251.64 3.286 2.324 4.08 4.284 1.01 2.5 1.38 5.135 1.44 7.805.088 3.99.206 7.97-.212 11.966-.453 4.307.076 8.609.535 12.893.135 1.244.106 2.494-.018 3.908.63-.44.67-.968.835-1.414.817-2.206 1.781-4.33 3.292-6.168 1.893-2.3 4.262-3.726 7.301-3.937 5.338-.364 10.24.856 14.614 3.996 1.211.869 2.222 1.966 2.616 3.404.5 1.813.112 3.456-1.67 4.636 2.852.516 3.627 2.711 4.368 4.853 1.81 5.246 1.758 10.645 1.129 16.073-.206 1.79-.87 3.404-2.14 4.754-3.98 4.254-8.194 8.216-13.438 10.903-1.575.804-3.18 1.561-5.014 1.644-.57.023-1.094-.047-1.24-.605-.154-.569.481-.681.84-.851 5.678-2.682 10.675-6.302 14.955-10.892.928-.991 1.74-2.095 2.61-3.14.417-.504.652-1.108.7-1.736.352-4.712.599-9.43-.295-14.114-.17-.898-.435-1.784-.7-2.664-.422-1.426-1.498-2.218-2.803-2.776-.43-.182-.582.03-.77.405-1.14 2.242-1.576 4.654-1.781 7.124-.171 2.054.046 4.12-.265 6.168-.3 1.966-1.37 3.292-3.274 3.903-1.893.604-3.81 1.056-5.755.27-1.858-.752-2.916-2.318-3.686-4.032-1.305-2.91-2.04-5.968-2.058-9.19-.011-2.36.618-4.483 1.987-6.408.288-.405.923-.84-.03-1.32-.405-.206-.04-.617.136-.898.247-.388.423-.922 1.029-.828.423.065.364.452.352.769-.011.317-.023.587.453.416 1.864-.674 3.68-.264 5.496.264 1.829.529 3.657 1.127 5.603.793.705-.123 1.44-.147 2.08-.564 1.394-.91 1.6-2.224.465-3.433-1.046-1.115-2.351-1.89-3.727-2.506-2.98-1.337-6.072-2.23-9.394-2.065-3.615.182-6.301 1.866-8.106 5-1.187 2.06-1.946 4.313-3.045 6.414-.53 1.01-1.011 2.042-1.746 2.928-.559.67-.982.61-1.364-.17-.64-1.303-.405-2.165.794-2.94.7-.458.74-1.027.13-1.561-.453-.393-.783-.84-.906-1.49-1.235-6.456-1.482-12.94-.817-19.49.435-4.283.8-8.585.1-12.892-.306-1.867-1.117-3.404-2.793-4.413-.664-.4-1.034-.317-1.399.428-1.352 2.77-1.587 5.769-1.875 8.756-.44 4.618-.253 9.242.012 13.86.14 2.46.311 4.913.417 7.372.024.569 0 1.144-.14 1.748-.13.552.405 1.244.581 1.896.8 2.899 1.928 5.733 1.916 8.808 0 .188.03.382.024.57 0 .181.041.37-.223.451-.306.094-.424-.14-.488-.299-.183-.487-.306-1.003-.453-1.502-2.27-7.653-5.831-14.771-9.123-22-.994-2.184-2.058-4.332-3.48-6.28-.988-1.356-2.075-2.617-3.545-3.486-.353-.205-.73-.399-1.117-.51-1.3-.376-2.157.135-2.457 1.431-.523 2.254.047 4.349 1.029 6.332a821 821 0 0 0 11.363 22.048c1.07 2.001 2.598 3.75 3.52 5.85.23.517.383 1.069.565 1.603.094.282.135.622-.147.775-.364.199-.435-.212-.6-.411-4.18-5.112-8.517-10.07-13.873-14.002-2.01-1.48-4.097-2.882-6.472-3.768a4.6 4.6 0 0 0-1.387-.3c-1.082-.052-1.81.594-1.858 1.691-.082 1.672.794 2.952 1.817 4.149 2.228 2.605 5.22 4.26 7.883 6.326a155 155 0 0 1 9.17 7.711c.441.4.811.886 1.158 1.38a2.406 2.406 0 0 0 3.95 0c.241-.335.459-.646 1.017-.816-.188 1.273-.752 2.27-1.71 2.893-.94.616-1.064 1.29-.958 2.341.576 5.628 1.734 11.127 3.58 16.473 1.04 2.999 2.433 5.833 4.367 8.38.541.71 1.217 1.291 1.887 1.872.253.217.435.493.341.833-.106.37-.458.388-.776.44-1.481.247-2.498-.469-3.286-1.608-2.815-4.043-4.661-8.52-5.937-13.256-1.135-4.226-2.116-8.492-2.398-12.87-.089-1.367-.594-2.153-1.593-3.04-5.015-4.442-10.411-8.397-15.714-12.464-2.316-1.778-3.98-4.026-4.838-6.86-.917-3.01 1.217-6.79 5.197-5.863 2.827.657 5.29 2.037 7.665 3.627.7.47 1.288 1.097 2.087 1.426.06.053.147.164.17.153.16-.088.054-.194-.005-.294zm31.45 13.116c.006.98.088 1.954.258 2.928.277 1.567.765 3.064 1.388 4.525.887 2.09 3.25 3.902 6.108 2.676 2.204-.945 2.71-2.23 2.698-4.395-.024-3.721.035-7.489 2.051-10.857.159-.264.153-.481-.258-.475-2.275.047-4.339-.822-6.449-1.503-1.958-.628-3.274-.152-4.35 1.608-1.029 1.685-1.57 3.498-1.44 5.493zM216.357 326.865c.088 1.285-.547 2.289-1.347 3.21-.946 1.092-2.045 1.068-3.297.546-4.48-1.884-6.049-5.88-7.419-9.982-1.905-5.693-1.981-11.496-.641-17.33.212-.927.576-1.807 1.005-2.652.112-.211.206-.528.524-.464.34.065.246.405.252.628.059 2.125-.176 4.237-.305 6.356-.236 3.685-.236 7.353.828 10.927 1.223 4.108 2.828 8.028 5.72 11.308.5.569.853.493 1.37.029.852-.757 1.217-1.66 1.123-2.781-.253-2.975-.882-5.88-1.623-8.768-1.134-4.424-1.734-8.884-.905-13.444.123-.693.335-1.35.611-1.989.083-.2.188-.435.471-.382.27.053.323.288.335.511.035.856.117 1.713.076 2.564-.235 5.252.664 10.34 2.175 15.346.3.998.512 2.025.794 3.028.688 2.43 2.516 3.75 5.067 3.592.67-.041.605.293.523.669-.164.71-.97 1.156-1.828.956-1.058-.246-2.046-.663-2.822-1.467-.17-.176-.3-.405-.693-.405zM227.537 323.714c.059-1.543.006-3.104.382-4.624.153-.628-.041-.875-.693-.828-.729.053-1.458.053-2.187.082-.57.024-.688.188-.382.752.835 1.555 1.587 3.116 1.74 4.958.153 1.884-2.522 3.339-4.097 2.876-.265-.076-.365-.2-.371-.452 0-.282.071-.505.382-.558.312-.052.635-.064.935-.146 1.64-.476 2.057-1.192 1.769-2.852-.288-1.632-1.105-3.005-1.963-4.378-.664-1.062-.547-1.344.711-1.479a75 75 0 0 1 5.026-.381c1.27-.053 2.076.962 1.823 2.306a27 27 0 0 0-.453 6.332c.094 2.071.611 4.067 1.058 6.074.277 1.238.494 2.482.476 3.761 0 .505-.2.857-.635 1.057-.529.246-.728-.241-.975-.534-.441-.529-.541-1.203-.741-1.837-1.052-3.292-2.052-6.596-1.805-10.129M137.061 60.662c-3.381-.07-6.455-1.18-9.347-2.846-.606-.346-1.111-.833-1.587-1.338-.241-.252-.459-.487-.218-.81.247-.328.494-.064.741.077 1.693.98 3.392 1.96 5.19 2.717 4.315 1.813 8.366 1.15 12.134-1.485 3.027-2.113 5.49-4.812 7.8-7.664.153-.194.247-.558.653-.305.453.281.147.54 0 .786-1.893 3.216-4.468 5.804-7.501 7.952-1.476 1.044-2.992 2.007-4.773 2.5-1.017.281-2.04.452-3.098.422zM219.301 305.886c.047-.329.088-.64.141-.951.053-.293-.023-.716.418-.733.423-.018.447.416.511.698.553 2.236 1.082 4.478 1.623 6.719.294 1.227.752 2.418.811 3.697.012.312.035.634-.018.939-.047.276-.176.593-.488.634-.458.065-.294-.37-.405-.598-1.47-3.023-2.252-6.227-2.51-9.566a36 36 0 0 0-.083-.839M172.861 193.289c-.329 1.455-.612 2.922-.994 4.36-.405 1.537-.511 3.18-1.375 4.577-.177.288-.265.857-.735.716-.558-.17-.658-.745-.6-1.262a17 17 0 0 1 1.011-4.125c.606-1.573 1.329-3.093 2.693-4.272zM174.889 180.66c-.618 1.983-1.223 3.973-1.858 5.95a35 35 0 0 1-1.035 2.841c-.141.34-.264.944-.781.792-.571-.17-.577-.734-.471-1.274.288-1.461.788-2.852 1.435-4.19.717-1.479 1.452-2.946 2.71-4.119M124.165 298.568a44 44 0 0 1-.788 5.716c-.094.446-.182 1.068-.8.992-.593-.077-.723-.664-.693-1.192.129-2.382.641-4.683 1.652-6.854.088-.188.188-.487.441-.434.346.076.176.405.182.633.011.376 0 .758 0 1.133zM199.443 295.293c-1.393-.176-2.557.012-3.721.129-.412.041-.829.088-.911-.405-.077-.475.393-.539.717-.569 1.305-.117 2.651-.387 3.909.851z"/><path fill="#FDFDFD" d="M216.909 60.21c.189 1.057.165 2.125.465 3.146.129.44.106 1.139.623 1.139.641 0 .441-.716.511-1.145.271-1.625.488-3.257 1.088-4.806.353-.915.882-1.625 1.793-2.1 1.034-.54 2.028-1.151 3.133-1.544 1.652-.593 2.71-.305 3.745 1.109 1.845 2.53 2.498 5.41 2.081 8.456-.5 3.627-2.669 6.039-5.991 7.494-.499.217-.881.223-1.275-.176-.282-.281-.641-.457-1.023-.176-.382.276-.805.54-.799 1.098.005.71.164 1.402.57 1.977.429.605.488 1.25.488 1.954.017 5.112.729 10.17 1.252 15.24.176 1.732.3 3.475.552 5.2.224 1.485-.382 2.394-1.646 3.069-3.068 1.638-6.113 3.316-9.164 4.988-3.868 2.113-7.76 4.19-11.593 6.374-2.298 1.314-4.667 2.499-6.977 3.791-2.305 1.285-4.609 2.546-7.072 3.497-.817.317-1.658.405-2.522.37-8.148-.341-16.295-.675-24.396-1.72-1.258-.164-2.433-.657-3.703-.798-.517-.058-.841-.575-1.017-1.144-.717-2.312-.911-4.718-1.34-7.083-.488-2.682-1.123-5.352-1.435-8.058-.564-4.953-1.422-9.87-1.934-14.83-.382-3.714-1.105-7.387-1.646-11.084-.329-2.26-.599-4.52-.881-6.784-.077-.622-.283-1.215-.412-1.82-.141-.657.124-.938.529-1.185 3.533-2.165 6.319-5.152 9.018-8.222 2.363-2.687 4.608-5.48 6.966-8.174 1.164-1.338 2.545-2.47 3.874-3.65.658-.581 1.246-.617 2.057-.218 2.387 1.186 4.856 2.19 7.519 2.547 4.42.599 8.347-.645 11.809-3.398.629-.498 1.023-.557 1.752-.123 3.345 1.972 6.578 4.067 9.13 7.06 1.504 1.76 2.469 3.82 3.409 5.898.905 2 1.922 3.92 3.545 5.463 1.364 1.297 2.98 1.684 4.75 1.168 1.634-.475 3.056-1.35 4.167-2.8m-17.664 34.255c.687.217.74.95 1.293 1.18.264.11.5.334.788.181.37-.2.105-.504.041-.757-.459-1.755-1.346-3.304-2.305-4.812-.629-.986-1.452-1.203-2.557-.769-1.563.622-3.015 1.467-4.473 2.289-4.292 2.43-8.8 4.29-13.656 5.258-1.534.305-3.092.329-4.638.47-1.058.093-1.276.457-.982 1.478.459 1.614 1.164 3.128 1.934 4.607 2.105 4.043 4.774 7.611 8.612 10.205 2.487 1.679 4.632 1.737 7.137.071 4.262-2.835 6.495-7.048 7.889-11.796.717-2.459 1.017-4.988.922-7.617zm-15.508-32.089c.053 0 .212-.011.371-.017 2.739-.112 5.096-1.391 7.536-2.442 2.028-.874 3.979-1.966 6.219-2.236.659-.082 1.323-.14 1.969-.293.418-.1.865-.288.976-.798.118-.534-.247-.822-.605-1.086-.764-.569-1.658-.88-2.516-1.273-4.515-2.072-9.218-2.524-14.114-1.866-2.228.299-3.439 1.572-4.198 3.474-.517 1.29-.576 2.652-.247 4.014.412 1.672 1.964 2.54 4.603 2.53zm-5.825 20.628c-.077-1.215-.171-2.635-.259-4.061-.265-4.267-1.176-8.474-1.24-12.764-.012-.734-.471-1.162-1.17-1.297-.547-.106-.876.123-.847.704.124 2.277.112 4.554.424 6.82.587 4.3 1.028 8.614 1.081 12.968.024 2.154-.476 4.056-1.975 5.652-.388.41-.435.868-.159 1.39.435.816.976 1.004 2.399.681 2.516-.569 4.891-1.508 7.16-2.734.693-.376 1.44-.663 2.028-1.21.194-.175.394-.387.305-.645-.099-.3-.388-.416-.699-.364-.406.07-.823.124-1.205.259-1.999.698-3.992 1.39-5.973 2.142-.811.305-1.023.07-.735-.675.835-2.154.765-4.413.865-6.872zm19.598-12.488c.03-2.647-1.269-4.677-3.286-6.368-2.004-1.678-4.738.065-5.108 1.843-.523 2.5-.065 4.853.946 7.113.406.903 1.135 1.625 2.175 1.83 2.611.511 5.42-.75 5.273-4.424zm-29.833 8.145c.182-2.3-1.205-3.861-2.539-5.434-1.029-1.215-2.017-1.291-3.28-.27-2.763 2.218-3.204 6.66-.976 9.894 1.393 2.025 4.144 2.025 5.578.012.9-1.268 1.194-2.694 1.223-4.19zm-4.144-16.848c-.894.012-1.775.088-2.616.41-4.291 1.638-6.825 4.96-8.588 8.997-.283.651-.124 1.379.423 1.825.505.41.999-.065 1.464-.317.111-.059.211-.135.317-.211 1.464-1.01 3.01-1.855 4.62-2.612 3.181-1.484 6.402-2.893 9.294-4.93 1.211-.85 1.229-1.25-.041-2.076-.235-.153-.505-.259-.77-.364-1.317-.517-2.698-.67-4.103-.728zm56.968 4.495c.071.305.012.716.365.816.37.105.429-.311.535-.54.194-.41.493-.734.781-1.068 1.476-1.696 2.875-3.45 4.027-5.382.218-.363.482-.692.059-1.085-.447-.417-.676.04-.946.24-1.723 1.274-2.857 3.029-3.892 4.848-.394.686-.741 1.39-.929 2.171M160.604 264.332c.283-2.941.23-5.834-.023-8.739-.576-6.596-.935-13.209-1.681-19.788-.818-7.2-1.129-14.454-2.446-21.596-.282-1.519-1.052-2.4-2.381-2.717 1.247 6.602 1.194 13.339 1.558 20.041.253 4.683.341 9.372.6 14.055.147 2.74.805 5.416 1.44 8.081.558 2.347 1.005 4.712 1.093 7.13.083 2.312-.952 3.838-3.098 4.648-.088.035-.211.058-.246.123-.606 1.091-1.682.78-2.593.821-4.515.182-8.994-.498-13.491-.675-7.013-.275-14.026-.217-21.039-.416-6.219-.176-12.439-.329-18.652-.517-4.88-.146-9.776-.093-14.655-.281-5.003-.194-10.03-.241-14.955-1.362-2.181-.499-2.757-1.033-3.151-3.274-.623-3.539-.535-7.136-.888-10.693-.594-6.085-.8-12.2-1.27-18.291-.346-4.484-.534-8.979-.823-13.468-.04-.687.13-1.268.547-1.761 1.646-1.936 3.468-3.274 6.278-3.316 13.809-.223 27.612-.24 41.42-.481 12.027-.205 24.043-.663 36.059-1.103 2.657-.1 5.331-.176 7.965.364.682.141 1.352.346 2.005.575 1.452.499 2.245 1.496 2.451 3.063.805 6.127 1.522 12.259 2.087 18.409.588 6.467 1.158 12.934 1.446 19.425.112 2.541-.012 5.07-.124 7.599-.029.605-.294 1.11-.617 1.567-.741 1.033-1.769 1.773-2.81 2.582zm-57.909-2.899c6.349.217 12.692.135 19.041.011 2.216-.041 4.462.053 6.625-.528 2.504-.675 3.809-1.866 3.404-4.695a88 88 0 0 1-.453-3.773c-.747-7.289-.935-14.601-1.129-21.919-.094-3.65-.211-7.276-1.193-10.827-.653-2.365-1.605-3.186-4.062-3.362-.6-.041-1.205-.106-1.805-.112-16.659-.193-33.319-.434-49.926 1.274-.817.082-.91.498-.834 1.15.235 1.919.717 3.803.781 5.739.253 7.788.67 15.569 1.358 23.333.282 3.192.112 6.397.365 9.589.14 1.807 1.087 2.911 2.822 3.345.805.205 1.628.223 2.457.27 7.512.417 15.037.323 22.555.505zm36.3-25.593c.288-.117.47.118.682.218 3.145 1.431 7.142-.153 8.488-3.246 1.558-3.568-.464-7.928-4.044-9.448-2.004-.851-4.033-.651-5.761.704-2.422 1.902-3.445 4.537-3.192 7.553.271 3.275 1.423 6.285 3.31 8.985 1.981 2.84 5.831 3.732 8.782 2.077 1.37-.769 2.269-1.896 2.469-3.498.035-.275.088-.622-.235-.751-.259-.1-.335.217-.488.364-1.105 1.056-2.357 1.913-3.774 2.494-.441.182-.929.176-1.405.076-2.122-.428-4.632-3.298-4.832-5.533zm-1.011 14.443c-.071 2.64.212 4.612.917 6.244 1.158 2.676 3.092 3.779 5.802 3.298 2.21-.394 3.727-2.318 3.862-4.977.088-1.684-.123-3.351-.541-4.982-.352-1.379-1.269-2.271-2.604-2.635a25.4 25.4 0 0 0-5.343-.863c-1.111-.052-1.787.534-1.911 1.649-.088.757-.117 1.514-.176 2.271zm-65.745-8.586c-.235-3.04-.553-6.79-.817-10.551-.17-2.506-.306-5-1.864-7.142-.182-.247-.3-.646-.676-.546-.405.106-.27.516-.27.816 0 2.412.494 4.777.706 7.171.517 5.769.746 11.555 1.028 17.335.035.693-.217.927-.876.822-.564-.088-1.128-.176-1.693-.229-.311-.029-.687-.065-.764.358-.065.37.282.452.535.557.964.411 1.993.3 3.004.323 1.575.035 2.222-.639 2.122-2.236l-.435-6.684zM248.07 239.772c-.147-.217-.258-.452-.429-.622-.235-.24-.217-.927-.735-.651-.458.246-1.023.592-.834 1.32.07.276.158.546.235.822.558 1.895.629 1.526-1.047 2.247-3.021 1.303-5.949 2.788-8.935 4.167-.235.106-.482.428-.752.164-.212-.205.011-.481.088-.704 1.881-5.422 3.709-10.868 5.867-16.191 1.734-4.284 3.427-8.58 5.184-12.858.964-2.353 1.87-4.741 3.057-6.983 3.351-6.32 6.89-12.535 10.546-18.685 1.305-2.195 2.534-4.442 3.739-6.69.629-1.168 1.493-2.007 2.722-2.506.493-.199 1.028-.411 1.393-.769.599-.586.946-.422 1.364.171 3.603 5.129 8.465 8.814 13.702 12.141 4.356 2.77 8.518 5.845 12.81 8.721 4.126 2.764 8.129 5.739 12.574 8.01 1.663.851 3.38 1.579 5.161 2.13.206.065.494.047.505.323.012.311-.311.264-.499.305-3.786.916-7.56 1.861-11.246 3.122-7.113 2.43-14.179 4.983-21.145 7.805-6.895 2.794-13.632 5.957-20.51 8.785-2.216.91-4.467 1.755-6.795 2.354-1.047.269-1.852.95-2.693 1.566-1.111.816-2.322 1.497-3.333 2.512z"/><path fill="#fff" d="M170.462 122.727c-.841.369-1.334.839-1.54 1.661-.6 2.394-.306 4.788-.024 7.177.277 2.323.694 4.63 1.029 6.948.1.704.435 1.414 0 2.124-.112.188.047.282.176.364.265.17.312.434.147.646-.141.181-.435.176-.617.046-.752-.551-1.493-.24-2.24-.011-2.827.874-5.337 2.435-7.982 3.691-.6.282-1.2.557-1.799.833-.194.088-.388.288-.6.106-.217-.188-.041-.405.024-.61.876-2.571 1.769-5.129 2.627-7.706 1.67-4.994 3.804-9.812 5.697-14.723.288-.757.282-1.831.964-2.178.611-.311 1.546-.07 2.322.036 4.691.622 9.429.627 14.137 1.056 3.627.334 6.849-.88 9.982-2.518 7.319-3.82 14.449-7.975 21.703-11.907a403 403 0 0 0 6.067-3.345c.5-.281.647-.229.658.358.041 2.483.5 4.906 1.035 7.324.423 1.925-.065 3.732-.852 5.516-1.864 4.214-4.668 7.805-7.584 11.285-6.49 7.747-13.115 15.381-19.669 23.069-4.068 4.771-8.154 9.536-11.798 14.648a98 98 0 0 0-4.444 6.766c-.33-.217-.259-.528-.3-.775-.365-2.4-.606-4.806-1.041-7.2-.517-2.823-.805-5.704-1.169-8.568-.847-6.596-2.234-13.104-3.216-19.683-.241-1.625-.382-3.274-.705-4.888-.559-2.77-.706-5.587-.97-8.386-.036-.341 0-.687 0-1.174z"/><path fill="#FDFDFD" d="M85.142 108.619c-.124 2.072.482 3.996 1.046 5.962.435 1.526.776 3.087 1.182 4.631.13.504-.224.534-.6.592-3.82.593-7.654 1.121-11.451 1.849-5.19.997-10.393 1.954-15.39 3.756-.653.234-1.323.481-1.905.85-.658.423-.81.059-.981-.44-.806-2.435-1.294-4.958-1.91-7.447-.442-1.778-.777-3.585-1.224-5.369-.235-.933.165-1.168.988-1.18a121 121 0 0 0 4.38-.111c4.426-.212 8.73-1.215 13.056-2.042 2.992-.57 5.99-1.098 8.976-1.685 1.14-.223 2.322-.405 3.227-1.267.441-.423.588-.2.6.276.012.539 0 1.073 0 1.613z"/><path fill="#fff" d="M226.025 99.664c.488 1.449.606 2.928.764 4.407.512 4.794.706 9.589.335 14.413-.517 6.754-2.186 13.21-4.855 19.395-2.069 4.794-4.403 9.477-6.596 14.219-.541 1.168-1.017 2.359-1.581 3.685-1.005-2.429-2.957-3.867-4.532-5.61-1.529-1.696-3.145-3.31-4.762-4.923-.606-.605-.629-1.004-.059-1.708 3.657-4.507 7.648-8.726 11.281-13.251 2.61-3.257 5.114-6.573 6.843-10.434 1.416-3.175 1.487-6.291.423-9.513-.641-1.936-1.035-3.908-.976-5.962.012-.34-.059-.692.323-.921 1.511-.898 2.61-2.172 3.398-3.791zM180.673 172.215c.435-1.103 1.305-1.884 2.034-2.752a2167 2167 0 0 1 13.085-15.44c1.729-2.019 3.328-4.149 5.162-6.086.446-.469.693-.628 1.234-.047 2.034 2.172 4.127 4.29 6.214 6.415.37.381.135.463-.177.669-2.815 1.877-5.89 3.321-8.765 5.105-5.19 3.222-10.493 6.268-15.442 9.871-1.082.792-2.075 1.713-3.357 2.265zM178.463 174.65c-.57 1.227-1.041 1.344-2.069.505-.571-.464-.976-1.08-1.399-1.667-2.746-3.808-4.68-8.004-5.932-12.511-1.117-4.008-1.863-8.063-1.857-12.253 0-2.301.94-4.138 2.245-5.886.124-.171.259-.282.465-.264.341.035.346.328.399.569.4 1.919.829 3.838 1.176 5.768.988 5.482 1.622 11.027 2.851 16.467.57 2.53 1.264 5.035 1.858 7.559.164.698.57 1.267.911 1.831.288.475.911.158 1.34-.147l-.041.047.059-.024z"/><path fill="#FDFDFD" d="M141.669 65.334c-1.54.017-2.768-.405-3.838-1.28-.194-.158-.435-.352-.359-.616.076-.252.382-.152.582-.17 5.455-.428 9.794-3.128 13.732-6.666 3.122-2.806 5.714-6.086 8.377-9.308 1.675-2.024 3.351-4.049 5.585-5.522.57-.376.981-.534 1.428.094.106.153.276.258.417.387 1.082.98 1.1 1.01-.158 1.673-2.463 1.29-4.321 3.292-6.155 5.293-2.863 3.128-5.385 6.555-8.33 9.612-2.434 2.53-5.067 4.777-8.459 5.951a10.5 10.5 0 0 1-2.822.558zM125.921 271.068c-.183.47-.359.927-.547 1.385-.194.47-.218.951-.235 1.45-.006.358-.135.792-.612.616-1.728-.634-3.544-.54-5.32-.593-6.437-.193-12.879-.281-19.322-.053h-.094c-.73 0-1.564.212-2.152-.158-.523-.329-.417-1.191-.623-1.808-.194-.575-.47-1.115-.629-1.707-.13-.487-.07-.54.423-.405 3.345.927 6.772.962 10.217.962 3.427 0 6.855.176 10.282.212 1.681.017 3.362-.124 5.043-.153.753-.012 1.276-.54 1.923-.781.382-.14.758-.293 1.07-.117.399.217.37.757.564 1.144zM107.387 318.872c2.51.176 4.979.3 7.448.036q2.6-.282 5.209-.529c.282-.029.599-.105.834.077.288.229.676.504.112.862-1.04.658-2.11 1.274-3.127 1.966-1.917 1.309-4.156 1.203-6.296 1.503-.776.105-1.581.029-2.375.011-.241 0-.535-.029-.4-.434.418-1.256-.129-2.171-1.064-2.94a4 4 0 0 1-.335-.323c-.012-.017 0-.058 0-.217zM83.637 316.654c-.012-.98.053-1.502 1.011-1.085.558.246 1.223.029 1.852.229.964.311 1.522 1.056 2.234 1.66.558.47 1.034 1.11 1.945.898.347-.082.547.253.676.564.1.24.018.457-.164.592-.341.259-.512-.088-.7-.264-.188-.17-.364-.446-.623-.293-.135.082-.153.387-.194.593-.035.181-.094.404-.03.557.371.81.265 1.162-.705.833-.094-.035-.282.024-.347.106-.693.898-1.381.411-2.051-.012-1.728-1.08-2.48-2.77-2.904-4.383zM87.452 311.572c1.464-.223 2.546.123 3.398 1.033.647.692 1.293 1.403 1.805 2.195.652 1.009.546 2.089-.047 3.134-.236.41-.43.393-.694.058-.041-.047-.088-.094-.118-.146-.629-1.186-1.704-1.779-2.898-2.277-1.093-.458-1.193-.846-.823-1.955.247-.733.312-1.432-.611-2.042zM118.59 208.746c.141-2.136-.288-4.172-.693-6.209-.036-.176-.183-.328-.271-.493-.129-.27-.582-.493-.376-.786.223-.317.7-.247 1.07-.188.835.135 1.176.81 1.481 1.473.506 1.115.594 2.324.729 3.521.106.904.083 1.831.688 2.688h-2.628zM114.188 201.616c1.205-.47 1.363-.429 1.869.645.923 1.96 1.158 4.108 1.599 6.191.059.276-.047.341-.247.37-.124.018-.253-.035-.376-.012-.964.171-1.288-.058-1.27-1.191.041-2.107-.247-4.213-1.57-6.003zM173.373 287.764c1.305-2.893 1.017-5.463-.947-7.828 1.623.046 2.834 1.285 3.216 3.233.405 2.06-.394 3.809-2.269 4.589zM218.595 51.625c.741.634 1.446 1.139 2.228 1.538.353.176.382.381.047.61-.053.035-.094.082-.147.117-.541.352-1.076 1.139-1.64.916-.547-.223-.447-1.145-.5-1.784-.041-.423-.252-.845.012-1.397M128.115 272.348c-.759-.411-.917-1.051-.953-1.596-.041-.587-.27-1.115-.323-1.691-.018-.211-.182-.493.065-.569.317-.1.688-.082 1.029-.047.246.024.188.27.188.464-.006 1.103 0 2.2 0 3.445zM217.75 56.156c.229 0 .435 0 .429.27 0 .416-.335.668-.623.733-.294.07-.67-.246-.623-.557.053-.4.576-.265.823-.446z"/><path fill="#E91E25" d="M178.704 174.363c.282-.546.67-.986 1.228-1.262-.27.552-.67.98-1.211 1.28l-.023-.018zM94.6 311.185c.224.029.3.2.335.387.036.2-.023.382-.258.399-.241.024-.306-.152-.312-.358-.006-.187-.012-.375.235-.428"/><path fill="#E91E25" d="m178.462 174.643-.057.023.04-.046q.13-.129.252-.257l.023.017c-.046.132-.075.274-.258.263M180.32 172.735h-.151c.018-.023.041-.046.058-.069a1 1 0 0 1 .07-.058c.005.041.017.087.023.127"/><path fill="#FDFDFD" d="M131.716 45.335c-.099-.075-.209-.162-.093-.295s.215-.03.313.04c-.075.087-.151.168-.226.255zM102.52 339.417l.017-.029-.023.017z"/><path fill="#FDFDFD" d="M102.327 339.646c.131-.017.212-.085.189-.228v-.012c-.155 0-.218.069-.178.223v.017zM72.552 71.566c-.136-1.995.411-3.809 1.44-5.493 1.076-1.76 2.392-2.236 4.35-1.608 2.11.675 4.174 1.55 6.449 1.502.411-.011.417.212.258.476-2.01 3.368-2.069 7.136-2.051 10.856.011 2.166-.494 3.451-2.699 4.396-2.857 1.226-5.22-.593-6.107-2.676-.623-1.461-1.111-2.958-1.388-4.525a18 18 0 0 1-.258-2.928zM41.097 58.45c.057.097.16.2.006.286-.023.011-.11-.097-.166-.149.051-.046.108-.091.16-.137"/><path fill="#000" d="M199.243 94.465c.095 2.623-.205 5.152-.922 7.617-1.388 4.747-3.622 8.961-7.889 11.795-2.505 1.667-4.656 1.608-7.137-.07-3.838-2.594-6.507-6.162-8.612-10.205-.77-1.479-1.475-2.993-1.934-4.607-.288-1.021-.07-1.385.982-1.479 1.546-.14 3.104-.164 4.638-.47 4.856-.968 9.364-2.834 13.656-5.257 1.458-.828 2.91-1.673 4.473-2.29 1.111-.44 1.928-.222 2.557.77.959 1.508 1.846 3.063 2.305 4.812.064.252.329.551-.041.757-.288.158-.524-.07-.788-.182-.553-.229-.606-.963-1.293-1.18zm-2.48-.03v-.669c-.006-.399.229-.945-.118-1.156-.394-.24-.817.188-1.187.4-1.946 1.12-3.904 2.218-5.985 3.074-4.644 1.92-9.376 3.521-14.455 3.744-.623.03-.517.282-.305.628.887 1.456 1.746 2.94 2.692 4.36 1.981 2.97 4.538 5.358 7.577 7.23 1.37.845 2.687.916 4.068-.052a14.5 14.5 0 0 0 4.309-4.736c2.24-3.95 2.969-8.298 3.41-12.817zM183.737 62.376c-2.64.012-4.198-.857-4.603-2.53-.335-1.36-.271-2.722.247-4.013.758-1.896 1.969-3.175 4.197-3.474 4.897-.652 9.593-.206 14.114 1.866.858.393 1.752.704 2.516 1.273.353.265.723.558.606 1.086-.118.51-.559.698-.976.798-.641.153-1.311.211-1.97.294-2.245.275-4.197 1.361-6.219 2.235-2.434 1.05-4.791 2.33-7.536 2.442-.159.006-.318.017-.371.017zm-.3-2.588c1.193.024 2.269-.252 3.327-.587 2.951-.927 5.637-2.523 8.594-3.438.188-.06.382-.182.377-.382 0-.364-.359-.282-.571-.352-3.515-1.238-7.148-1.52-10.857-1.456-1.646.03-2.64.593-3.363 2.037-.482.962-.711 1.813-.1 2.746.623.957 1.405 1.638 2.587 1.438zM177.909 83.003c-.1 2.453-.029 4.713-.864 6.872-.288.74-.076.98.735.675 1.975-.745 3.974-1.443 5.973-2.142.388-.135.799-.187 1.205-.258.311-.053.599.065.699.364.088.258-.111.47-.305.645-.594.546-1.335.84-2.029 1.21-2.263 1.226-4.638 2.17-7.16 2.734-1.422.323-1.963.135-2.398-.68-.276-.523-.229-.987.159-1.392 1.505-1.59 2.004-3.497 1.975-5.65-.053-4.355-.5-8.668-1.082-12.97-.311-2.271-.294-4.548-.423-6.82-.029-.586.3-.815.847-.703.699.14 1.158.569 1.169 1.297.065 4.29.976 8.497 1.241 12.763.088 1.42.182 2.847.258 4.061zM197.509 70.516c.147 3.673-2.662 4.935-5.273 4.424-1.04-.205-1.769-.927-2.175-1.83-1.011-2.266-1.469-4.613-.946-7.113.37-1.778 3.11-3.521 5.108-1.843 2.017 1.69 3.316 3.72 3.286 6.368zM167.677 78.66c-.029 1.497-.323 2.93-1.223 4.19-1.434 2.014-4.185 2.02-5.578-.01-2.222-3.234-1.787-7.677.976-9.895 1.264-1.015 2.251-.945 3.28.27 1.334 1.579 2.722 3.14 2.539 5.434zM163.533 61.813c1.399.058 2.78.211 4.097.727.264.106.535.212.77.364 1.27.834 1.258 1.227.041 2.078-2.892 2.036-6.114 3.444-9.294 4.93-1.61.75-3.157 1.601-4.62 2.61-.106.071-.206.147-.318.212-.458.252-.958.728-1.463.317-.547-.446-.706-1.18-.424-1.825 1.764-4.038 4.297-7.353 8.589-8.997.846-.322 1.722-.399 2.616-.41zm-10.094 9.747c-.006-.182.341-.381-.035-.54.3.223.453-.03.623-.2.635-.633 1.376-1.108 2.163-1.53 3.034-1.638 6.143-3.1 9.359-4.338.611-.234 1.346-.322 1.875-1.038-2.046-.523-3.962-.775-5.896-.077-2.922 1.063-4.973 3.199-6.772 5.616-.411.552-.723 1.186-1.329 1.567-.011.176-.123.358.012.528h-.07c-.006 0-.012-.017-.018-.023l.082.035zM220.5 66.308c.182-.775.534-1.485.928-2.171 1.041-1.82 2.169-3.574 3.892-4.848.276-.205.5-.663.946-.24.424.393.159.721-.058 1.085-1.159 1.931-2.558 3.686-4.027 5.382-.288.334-.588.657-.782 1.068-.112.229-.171.645-.535.54-.353-.106-.288-.517-.364-.816M102.695 261.433c-7.518-.182-15.043-.088-22.555-.499-.823-.047-1.646-.065-2.458-.27-1.734-.44-2.68-1.544-2.821-3.345-.253-3.193-.083-6.397-.365-9.589-.687-7.764-1.099-15.546-1.358-23.333-.064-1.937-.546-3.82-.782-5.739-.076-.652.018-1.068.835-1.15 16.613-1.702 33.272-1.468 49.926-1.274.599.006 1.205.071 1.804.112 2.458.176 3.41.997 4.062 3.362.982 3.551 1.094 7.177 1.194 10.827.194 7.312.382 14.63 1.128 21.919a92 92 0 0 0 .453 3.773c.406 2.829-.899 4.02-3.404 4.695-2.163.581-4.409.481-6.625.528-6.348.123-12.691.206-19.04-.012zm9.476-43.286c-3.868 0-7.742-.023-11.61.006-3.127.024-2.698-.464-3.85 2.799-.053.147-.076.305-.112.464-.97 4.648-.893 9.301-.24 13.984.722 5.182 1.916 10.27 2.815 15.417.441 2.523.858 5.052 1.263 7.582.118.739.388 1.079 1.229 1.021 1.229-.088 2.475-.047 3.709 0 6.473.223 12.945.346 19.411-.018.852-.047 1.717-.023 2.551-.235 2.222-.557 2.381-.786 2.17-3.057-.247-2.617-.629-5.223-.724-7.852-.246-6.966-.493-13.932-.493-20.897 0-2.547-.247-5.059-1.035-7.5-.429-1.338-.694-1.503-2.052-1.596-4.338-.3-8.688-.335-13.032-.112zm-17.359.223c-.111-.041-.17-.082-.229-.076-6.596.164-13.191.334-19.787.493-.611.012-.57.317-.459.739.388 1.503.676 3.04.782 4.583.759 11.021 1.852 22.025 2.076 33.081.017.815.258 1.044 1.052 1.144 3.18.399 6.384.54 9.576.804q4.79.397 9.605.276c.535-.012.77.029.735-.728-.282-6.015-1.617-11.848-2.933-17.681-1.294-5.746-2.081-11.52-1.352-17.43.217-1.754.64-3.468.94-5.193zM138.996 235.84c.2 2.236 2.71 5.106 4.832 5.534.476.1.964.106 1.405-.076 1.417-.581 2.669-1.438 3.774-2.494.153-.147.229-.464.488-.364.329.129.27.469.235.751-.194 1.602-1.099 2.729-2.469 3.498-2.951 1.655-6.801.763-8.783-2.078-1.887-2.699-3.039-5.716-3.309-8.984-.247-3.017.77-5.652 3.192-7.553 1.722-1.356 3.756-1.555 5.761-.704 3.58 1.52 5.602 5.88 4.044 9.448-1.346 3.093-5.343 4.677-8.488 3.245-.218-.099-.394-.334-.682-.217zm2.91-1.385c2.745.17 4.802-2.975 4.044-5.493-.57-1.901-1.805-3.233-3.439-4.26-.276-.17-.5-.188-.788-.018-2.586 1.526-4.003 3.68-3.85 6.784.053 1.086.529 1.778 1.411 2.283.811.47 1.675.74 2.616.698zM137.984 250.282c.058-.757.088-1.52.176-2.271.129-1.121.8-1.708 1.911-1.649 1.81.088 3.597.387 5.343.863 1.334.364 2.252 1.256 2.604 2.635.418 1.637.629 3.298.541 4.982-.135 2.658-1.652 4.583-3.862 4.976-2.71.482-4.644-.622-5.802-3.298-.706-1.625-.988-3.603-.917-6.244zm2.451 1.08c.135 1.708.059 3.439.782 5.047.394.88.999 1.426 2.034 1.42 1.622 0 2.704-.98 2.845-2.682.088-1.074.035-2.148-.082-3.222-.341-3.139-.03-2.541-2.81-2.846-.065-.006-.124-.017-.188-.023-.812-.03-1.84-.657-2.352-.159-.541.528-.17 1.632-.229 2.471zM72.24 241.697l.435 6.684c.1 1.596-.541 2.271-2.123 2.236-1.01-.024-2.033.088-3.003-.323-.253-.111-.6-.193-.535-.557.076-.423.452-.388.764-.358.564.058 1.129.141 1.693.229.658.105.911-.13.876-.822-.288-5.78-.512-11.567-1.029-17.335-.212-2.395-.705-4.76-.705-7.171 0-.3-.13-.711.27-.816.376-.1.5.299.676.546 1.558 2.136 1.693 4.636 1.864 7.141.258 3.756.576 7.506.817 10.552z"/><path fill="#FDFDFD" d="M196.762 94.435c-.44 4.519-1.169 8.873-3.409 12.817a14.3 14.3 0 0 1-4.309 4.735c-1.381.969-2.692.898-4.068.053-3.045-1.872-5.602-4.254-7.577-7.23-.947-1.42-1.805-2.899-2.693-4.36-.211-.346-.311-.598.306-.628 5.085-.223 9.811-1.825 14.455-3.744 2.081-.862 4.039-1.954 5.985-3.075.37-.211.793-.64 1.187-.399.347.211.112.757.118 1.156v.67zM183.436 59.788c-1.181.2-1.963-.481-2.586-1.438-.612-.939-.383-1.79.1-2.746.723-1.444 1.71-2.007 3.362-2.037 3.709-.064 7.336.223 10.858 1.456.211.076.57-.012.57.352 0 .2-.188.323-.376.381-2.957.916-5.644 2.518-8.595 3.44-1.058.334-2.128.61-3.327.586zM153.433 71.026c.611-.381.928-1.015 1.334-1.567 1.805-2.423 3.85-4.554 6.772-5.616 1.928-.704 3.85-.446 5.896.076-.535.716-1.27.805-1.875 1.04-3.221 1.232-6.331 2.699-9.359 4.336-.781.422-1.528.904-2.163 1.532-.17.17-.323.428-.623.2h.024z"/><path fill="#FDFDFD" d="M153.45 71.554c-.128-.176-.023-.352-.012-.528h-.023c.367.159.023.358.029.54h.006z"/><path fill="#FDFDFD" d="m153.437 71.56-.081-.035c0 .012.012.024.018.024h.069l-.006.006zM112.172 218.147c4.35-.217 8.695-.188 13.033.112 1.358.094 1.622.258 2.051 1.596.782 2.435 1.034 4.953 1.034 7.5 0 6.971.254 13.937.495 20.897.094 2.629.47 5.235.723 7.852.217 2.271.059 2.5-2.169 3.057-.841.212-1.699.188-2.552.235-6.472.364-12.938.241-19.41.018-1.235-.041-2.481-.082-3.71 0-.84.058-1.111-.282-1.228-1.021-.4-2.53-.818-5.059-1.265-7.582-.899-5.147-2.092-10.235-2.815-15.417-.653-4.683-.73-9.336.24-13.984.03-.153.06-.311.112-.464 1.153-3.262.723-2.775 3.851-2.799 3.868-.029 7.742-.006 11.61-.006zm-7.289 3.838a.27.27 0 0 0-.129-.129c-.206-1.467-1.247-1.966-2.534-2.171l-.071-.024c-.094-.07-.182-.141-.276-.211-.376-.299-.788-.088-1.181-.059-.23.018-.553-.105-.641.229-.071.276.159.464.353.61.305.229.429.523.411.892-.664.576-.329 1.327-.353 2.013v.616c-.035.118-.094.241-.1.358-.235 7.001-.4 14.002.288 20.986.224 2.294.606 4.571.912 6.86.023.246 0 .516.076.745.329.922.952 1.526 1.958 1.702.899.159 1.058-.581 1.422-1.103.176-.252.423-.458.635-.687.282.112.529.347.882.182 1.74-.816 3.392-1.743 4.497-3.392 2.31-1.878 4.696-3.662 6.683-5.897 1.363-1.532 2.711-3.087 4.08-4.613.241-.27.165-.47.053-.763-.476-1.25-1.546-1.978-2.439-2.864-4.58-4.518-9.288-8.896-14.197-13.057-.018-.217-.182-.205-.335-.217z"/><path fill="#FDFDFD" d="M94.813 218.37c-.3 1.725-.724 3.439-.941 5.194-.729 5.909.059 11.684 1.352 17.429 1.317 5.839 2.651 11.672 2.933 17.681.036.757-.2.716-.734.728a89 89 0 0 1-9.606-.276c-3.192-.264-6.39-.399-9.576-.804-.793-.1-1.034-.328-1.052-1.144-.223-11.056-1.317-22.06-2.075-33.08-.106-1.544-.394-3.075-.782-4.584-.112-.422-.147-.721.459-.739 6.595-.159 13.19-.329 19.786-.493.06 0 .118.041.23.076zM141.905 234.455c-.946.041-1.811-.228-2.622-.698-.882-.511-1.358-1.197-1.411-2.283-.158-3.104 1.264-5.258 3.851-6.784.288-.17.511-.158.787.018 1.641 1.027 2.869 2.359 3.439 4.26.759 2.518-1.305 5.669-4.044 5.493zM140.435 251.362c.059-.839-.312-1.942.229-2.47.512-.499 1.54.129 2.351.158.065 0 .124.012.189.024 2.78.305 2.463-.294 2.809 2.846.118 1.074.171 2.148.083 3.221-.141 1.702-1.223 2.682-2.845 2.682-1.035 0-1.64-.54-2.034-1.42-.723-1.608-.647-3.333-.782-5.047z"/><path fill="#000" d="M100.82 221.128c.017-.37-.106-.663-.412-.892-.194-.147-.423-.34-.352-.61.082-.335.411-.212.64-.229.394-.03.8-.241 1.182.059.047.129.117.223.276.211l.071.023c.517 1.104 1.646 1.497 2.533 2.172q.088.042.124.129c.064.141.158.24.335.223 4.908 4.16 9.617 8.538 14.196 13.057.894.88 1.964 1.614 2.44 2.864.112.287.194.493-.053.763-1.37 1.531-2.716 3.08-4.08 4.612-1.987 2.236-4.379 4.026-6.683 5.898-.194-.076-.336-.018-.512.1-1.599 1.074-3.351 1.913-4.867 3.116-.212.229-.459.434-.635.686-.365.517-.523 1.262-1.423 1.104-1.005-.176-1.622-.781-1.957-1.702-.083-.229-.053-.493-.077-.745a5 5 0 0 1 .159-.188c.623.733 1.158.041 1.664-.165.558-.228.241-.786.158-1.173-.511-2.442-.781-4.918-1.028-7.394-.159-1.573-.288-3.146-.477-4.713-.405-3.415-.793-6.831-1.064-10.264-.117-1.437-.052-2.899-.505-4.301v-.616c.835-.546.259-1.338.353-2.007zm18.029 16.514-.012-.012c-.153-.2-.282-.417-.458-.587-3.157-3.11-6.231-6.303-9.606-9.19-1.816-1.555-3.568-3.18-5.426-4.689-.217-.176-.458-.457-.723-.363-.323.117-.152.492-.158.757-.053 2.059.241 4.107.488 6.138.37 3.069.611 6.156.958 9.225.417 3.668.623 7.365 1.023 11.039.076.721.364.809.917.463 1.146-.71 2.316-1.367 3.439-2.136 3.397-2.33 6.854-4.571 9.587-7.717.629-.51 1.258-1.015 1.964-1.584-.759-.317-1.111-1.11-1.905-1.327l-.035-.041-.047.018z"/><path fill="#E91E25" d="M100.467 223.751c.453 1.403.388 2.864.506 4.302.276 3.427.664 6.848 1.064 10.264.182 1.567.317 3.139.476 4.712.247 2.477.517 4.953 1.029 7.394.082.388.399.945-.159 1.174-.506.205-1.04.898-1.664.164q-.079.099-.158.188c-.306-2.289-.688-4.565-.911-6.86-.688-6.983-.518-13.984-.289-20.985 0-.124.065-.241.1-.358zM105.658 252.612c1.517-1.203 3.269-2.036 4.868-3.116.176-.117.317-.176.511-.1-1.105 1.649-2.757 2.582-4.497 3.392-.353.165-.6-.07-.882-.182zM104.754 221.856c-.888-.675-2.016-1.068-2.534-2.171 1.288.205 2.328.704 2.534 2.171M100.821 221.128c-.094.675.482 1.467-.353 2.007.024-.686-.311-1.432.353-2.007M105.211 222.197c-.173.023-.265-.08-.328-.218.149.012.316 0 .328.218M102.141 219.656c-.149.011-.223-.08-.269-.206q.13.103.269.206M118.873 240.576c-2.734 3.146-6.19 5.387-9.588 7.717-1.117.769-2.293 1.42-3.439 2.136-.552.346-.835.252-.917-.463-.4-3.674-.605-7.371-1.023-11.039-.347-3.069-.588-6.156-.958-9.225-.247-2.031-.535-4.079-.488-6.138.006-.265-.164-.64.159-.757.259-.094.505.187.723.363 1.857 1.509 3.609 3.14 5.426 4.689 3.38 2.887 6.448 6.08 9.605 9.19.177.17.306.393.459.587l.011.018.047-.018.036.041c.111.974.558 1.954-.059 2.911z"/><path fill="#FDFDFD" d="M118.873 240.576c.617-.956.17-1.936.058-2.91.794.217 1.153 1.009 1.905 1.326-.705.569-1.334 1.074-1.963 1.584"/></g><path fill="#fff" d="M264.707 78.155q0 .587-.219.852-.207.265-.645.265-.518 0-.818-.311-.299-.323-.299-.921 0-.853.046-1.716.057-.876.15-1.728.103-.852.219-1.635l.368.322a1.9 1.9 0 0 1-.414.288q-.242.127-.519.196-.264.069-.53.069-.598 0-.886-.334a1.13 1.13 0 0 1-.288-.737q0-.288.196-.507.195-.219.633-.265.472-.057.841-.276.38-.219.668-.472.16-.15.357-.242.207-.104.483-.104.416 0 .726.23.31.219.438.576.138.357.011.772-.241.91-.357 1.854a22 22 0 0 0-.15 1.75q-.023.807-.023 1.371.012.553.012.703m4.394 1.117q-.933 0-1.647-.357-.702-.357-1.094-1.117-.391-.76-.391-1.947 0-.955.276-1.681.288-.726.702-1.21.427-.495.853-.736.426-.255.714-.254.404 0 .564.138.173.127.173.45 0 .253-.104.483a1.3 1.3 0 0 1-.265.38 2.7 2.7 0 0 0-.564.703 2.8 2.8 0 0 0-.276.794 5 5 0 0 0-.081.933q0 .415.127.749.138.323.403.518.264.184.656.184.45 0 .876-.333.426-.346.702-1.002.276-.669.276-1.624 0-.392-.092-.703a.96.96 0 0 0-.288-.507q-.207-.195-.564-.195-.403 0-.679.115-.266.104-.461.276-.196.172-.403.346a2.5 2.5 0 0 1-.334.242.7.7 0 0 1-.334.092q-.427 0-.76-.346a1.15 1.15 0 0 1-.334-.829q0-.276.207-.599.219-.322.633-.61.427-.3 1.037-.484a5 5 0 0 1 1.428-.184q1.025 0 1.67.414.656.404.956 1.163.31.76.311 1.809 0 1.243-.334 2.176-.334.922-.898 1.532a3.7 3.7 0 0 1-1.256.921q-.69.3-1.405.3m8.064 0q-.933 0-1.647-.357-.702-.357-1.094-1.117-.391-.76-.391-1.947 0-.955.276-1.681a4.2 4.2 0 0 1 .703-1.21q.426-.495.852-.736.426-.255.714-.254.404 0 .564.138.173.127.173.45 0 .253-.104.483a1.3 1.3 0 0 1-.265.38 2.7 2.7 0 0 0-.564.703 2.8 2.8 0 0 0-.276.794 5 5 0 0 0-.081.933q0 .415.127.749.138.323.403.518.264.184.656.184.45 0 .876-.333.426-.346.702-1.002.276-.669.277-1.624a2.5 2.5 0 0 0-.093-.703.97.97 0 0 0-.287-.507q-.208-.195-.565-.195-.403 0-.679.115-.265.104-.461.276-.195.172-.403.346a2.5 2.5 0 0 1-.334.242.7.7 0 0 1-.334.092q-.427 0-.76-.346a1.15 1.15 0 0 1-.334-.829q0-.276.207-.599.219-.322.634-.61.426-.3 1.036-.484a5 5 0 0 1 1.428-.184q1.025 0 1.67.414.656.404.956 1.163.31.76.311 1.809 0 1.243-.334 2.176-.334.922-.898 1.532a3.7 3.7 0 0 1-1.256.921q-.69.3-1.405.3m8.064 0q-.932 0-1.646-.357-.704-.357-1.095-1.117t-.391-1.947q0-.955.276-1.681a4.2 4.2 0 0 1 .703-1.21q.426-.495.852-.736.426-.255.714-.254.403 0 .564.138.173.127.173.45 0 .253-.103.483-.105.22-.265.38-.358.323-.565.703a2.8 2.8 0 0 0-.276.794 5 5 0 0 0-.081.933q0 .415.127.749.138.323.403.518.265.184.657.184.449 0 .875-.333.426-.346.702-1.002.277-.669.277-1.624 0-.392-.092-.703a.98.98 0 0 0-.288-.507q-.208-.195-.565-.195-.403 0-.679.115-.265.104-.461.276-.195.172-.403.346a2.4 2.4 0 0 1-.334.242.7.7 0 0 1-.334.092q-.426 0-.76-.346a1.15 1.15 0 0 1-.334-.829q0-.276.207-.599.219-.322.634-.61.426-.3 1.036-.484a5 5 0 0 1 1.428-.184q1.026 0 1.67.414.657.404.956 1.163.312.76.311 1.809 0 1.243-.334 2.176-.333.922-.898 1.532a3.7 3.7 0 0 1-1.255.921q-.692.3-1.406.3m5.819-2.614q-.426 0-.657-.288-.23-.3-.23-.691 0-.346.173-.61.185-.266.783-.404.691-.16 1.439-.242.76-.091 1.509-.126.76-.046 1.44-.046t1.059.287.38.784a.73.73 0 0 1-.161.483q-.16.185-.633.185-1.279 0-2.119.103-.841.104-1.394.23-.541.128-.91.23-.357.105-.679.105m2.557 2.21a.98.98 0 0 1-.668-.252q-.277-.266-.323-.807-.058-.783-.046-1.405.012-.633.046-1.186.046-.564.069-1.129.034-.564.012-1.198-.012-.39.138-.621.15-.243.576-.242.564 0 .887.368.322.369.322 1.221 0 .519-.023 1.14-.023.623-.058 1.233-.022.61-.046 1.117-.023.495-.023.771 0 .495-.23.749-.231.242-.633.242"/><path fill="#fff" d="M238.84 0h138.204v128.126L238.84 93.576z"/><mask id="b" width="150" height="131" x="240" y="2" maskUnits="userSpaceOnUse" style="mask-type:luminance"><path fill="#fff" d="M390 2.88H240.279v129.565H390z"/></mask><g mask="url(#b)"><path fill="#1C1717" d="M310.195 105.759c-4.867-.49-9.572-1.704-14.278-2.99-6.885-1.881-13.415-4.646-19.808-7.765-6.901-3.368-13.367-7.451-19.582-11.937-.67-.482-1.404-.876-2.066-1.366-.864-.643-1.687-.804-2.632-.153-.597.418-1.259.394-1.775-.177-.493-.546-.404-1.029.177-1.551.581-.514-.016-.812-.395-1.053-2.349-1.479-4.859-2.62-7.378-3.778-.355-.16-.702-.338-1.065-.474-.662-.25-1.219-.62-1.114-1.399.105-.763.807-1.053 1.429-1.141 1-.137 2.066-.016 2.8.747.872.909 1.93 1.447 3.027 1.97 1.485.707 2.979 1.406 4.448 2.154.775.394 1.34.265 1.969-.322 2.268-2.09 3.818-4.686 5.36-7.306 2.01-3.416 3.301-7.106 4.262-10.932.008-.04 0-.096.008-.129.565-1.141 1.138-2.282 1.703-3.424-1.332-.603-1.663-1.977-2.236-3.087-2.744-5.353-5.432-10.73-8.451-15.931-2.284-3.939-4.609-7.861-7.079-11.687a20 20 0 0 1-.46-.78c-.291-.523-.291-1.045.258-1.359.565-.321.751.266.985.58 4.73 6.341 9.161 12.868 13.205 19.668 1.744 2.942 3.342 5.949 4.666 9.1.258.61.912 1.052.718 1.856-.073.314.21.37.501.426 6.368 1.238 12.511 3.376 18.911 4.486 5.295.916 10.631 1.462 15.982 1.422 1.615-.016 3.253-.723 4.964-.627 4.795.258 9.565-.434 14.352-.361 2.873.04 5.585-.844 8.37-1.319.654-.112 1.13-.618 1.622-1.053.735-.643 1.365-.442 1.526.443.145.78.541.755 1.09.683 5.819-.788 11.655-1.527 17.386-2.862 1.671-.386 3.35-.731 5.029-1.045.589-.112 1.218-.12 1.824-.096.589.024 1.114.297 1.34.868.274.707-.436.828-.791 1.125-.824.691-1.833.98-2.85 1.214-7.078 1.632-14.101 3.553-21.285 4.718-.314.049-.597.129-.815.346-2.308 2.25-4.262 4.75-5.585 7.709-4.173 9.324-6.74 18.986-6.312 29.298.056 1.294.08 2.605-.243 3.883-.185.739-.661 1.093-1.331.836-1.171-.45-1.469.201-1.695 1.101-.13.498-.323.981-.493 1.471-.831-.426-1.55.249-2.365.241-1.945-.016-3.89.024-5.828-.249zm6.869-1.246c.388-.458 1.195.41 1.502-.571.533-1.752.726-3.553.71-5.377-.032-4.124-.048-8.255.678-12.315.864-4.847 1.978-9.653 3.802-14.243 1.332-3.344 2.405-6.824 4.738-9.694.307-.378.186-.643-.323-.66-.347-.007-.702-.015-1.041.033-6.74.932-13.528.973-20.308 1.157-5.828.161-11.624-.289-17.379-1.278-1.961-.337-3.963-.57-5.868-1.133-4.924-1.447-9.888-2.781-14.585-4.92-1.623-.739-2.107-.417-2.543 1.343-.541 2.21-.977 4.445-1.679 6.6-1.146 3.52-2.486 6.977-4.391 10.2-.993 1.688-2.292 3.118-3.438 4.67-.363.49-.517.763.218 1.246 2.195 1.439 4.399 2.877 6.546 4.373 4.003 2.797 8.33 5.04 12.64 7.29 4.044 2.114 8.193 4.06 12.495 5.659 3.955 1.47 7.926 2.845 12.019 3.882 2.922.74 5.811 1.6 8.757 2.259 2.446.555 4.924.86 7.459 1.463zM331.223 97.327c.904 0 1.687.273 2.381.884a48 48 0 0 1 3.722 3.641c2.784 3.031 6.223 5.265 9.653 7.492 9.476 6.149 19.655 10.948 29.978 15.457 3.092 1.35 6.32 2.379 9.42 3.738 1.082.474 2.09 1.069 2.954 1.881.315.297.945.643.557 1.141-.347.45-.686 1.013-1.574.86-2.212-.37-4.27-1.189-6.344-1.937-14.473-5.16-28.17-11.937-41.19-20.047-3.503-2.186-6.715-4.807-9.888-7.459a5.9 5.9 0 0 1-1.88-2.749c-.468-1.455.686-2.95 2.211-2.902M382.123 94.482c-3.737-.073-7.45-.54-11.171-.804-6.15-.442-12.293-1.053-18.411-1.897-1.292-.177-2.591-.25-3.867-.611-.847-.241-1.501-.603-1.42-1.552.097-1.06.968-1.117 1.768-1.069 3.043.185 6.077.394 9.12.635 8.678.692 17.379 1.19 25.999 2.508.993.153 1.937.442 2.866.804.573.225 1.057.57.936 1.222-.113.61-.751.723-1.251.74-1.518.048-3.043.015-4.569.015z"/><path fill="#1C1717" d="M290.404 40.988c.04.627-.081 1.214-.726 1.39-.678.185-.904-.49-1.058-.924-.783-2.17-1.073-4.461-1.517-6.712-1.784-9.059-3.519-18.126-5.279-27.193-.202-1.02-.468-2.025-.646-3.054-.121-.675-.04-1.39.751-1.592.702-.177 1.001.475 1.186.981.323.892.59 1.817.767 2.749 1.978 10.433 3.931 20.867 5.901 31.3.193 1.021.419 2.034.629 3.055zM313.037 43.713c.444-1.945 1.162-3.666 1.735-5.434 1.615-4.968 3.334-9.903 5.223-14.782.403-1.053.888-2.066 1.614-2.95.258-.322.444-.868.993-.547.452.258.629.716.436 1.238-.493 1.375-1.001 2.75-1.502 4.132-2.082 5.763-4.157 11.527-6.255 17.282-.178.482-.42.948-.678 1.398-.202.346-.315.925-.912.708-.509-.185-.59-.692-.662-1.053z"/><path fill="#E91E25" d="M317.065 104.513c-2.535-.603-5.013-.908-7.458-1.463-2.947-.667-5.836-1.519-8.758-2.258-4.084-1.037-8.064-2.412-12.019-3.883-4.302-1.6-8.451-3.545-12.495-5.659-4.31-2.25-8.628-4.493-12.64-7.29-2.147-1.503-4.351-2.934-6.546-4.373-.735-.482-.581-.756-.218-1.246 1.146-1.551 2.446-2.982 3.438-4.67 1.905-3.223 3.245-6.672 4.391-10.2.703-2.155 1.147-4.397 1.679-6.6.428-1.76.921-2.082 2.543-1.342 4.698 2.138 9.662 3.48 14.585 4.92 1.905.554 3.907.795 5.869 1.133 5.747.988 11.542 1.438 17.378 1.278 6.78-.193 13.568-.225 20.308-1.158.339-.048.694-.04 1.041-.032.509.016.638.281.323.66-2.333 2.869-3.406 6.357-4.738 9.693-1.832 4.59-2.938 9.397-3.802 14.244-.726 4.059-.71 8.19-.678 12.314.016 1.817-.177 3.617-.71 5.378-.299.98-1.114.112-1.501.57z"/></g><path fill="#fff" d="M274.288 76.227q-.165.716-.506.977-.327.264-.86.141-.631-.146-.909-.608-.274-.478-.105-1.207.239-1.038.538-2.077.317-1.05.668-2.062a80 80 0 0 1 .727-1.93l.358.496a2.4 2.4 0 0 1-.586.234q-.33.087-.686.093a2.6 2.6 0 0 1-.665-.065q-.73-.167-.986-.656-.253-.501-.144-.979a.92.92 0 0 1 .381-.562q.3-.21.846-.144.592.062 1.102-.1.525-.16.946-.388.239-.137.503-.194.282-.068.619.01.504.116.819.484.317.354.371.825.067.473-.203.943a17 17 0 0 0-.957 2.158 27 27 0 0 0-.674 2.09q-.255.975-.414 1.662-.141.678-.183.86m5.038 2.597q-1.137-.262-1.906-.898-.755-.633-1.018-1.669-.263-1.035.07-2.48.269-1.164.81-1.97.554-.803 1.195-1.276.658-.483 1.246-.658.59-.189.941-.108.49.114.648.327.175.204.084.596a1.46 1.46 0 0 1-.262.56 1.7 1.7 0 0 1-.43.388q-.525.293-.884.697-.343.395-.561.89-.217.497-.36 1.114a2.6 2.6 0 0 0-.056.947q.078.432.345.745.271.3.748.409.546.126 1.16-.16.616-.301 1.137-1.024.525-.735.793-1.9.11-.476.086-.881a1.2 1.2 0 0 0-.208-.698q-.198-.296-.633-.398-.49-.113-.86-.05a1.9 1.9 0 0 0-.639.207q-.286.155-.588.307a3 3 0 0 1-.474.2.9.9 0 0 1-.433.02q-.519-.12-.829-.635a1.44 1.44 0 0 1-.173-1.104q.077-.337.42-.671.358-.332.944-.566a4.5 4.5 0 0 1 1.398-.297q.81-.05 1.791.177 1.25.288 1.918.974.685.676.837 1.686.165 1.013-.13 2.29-.35 1.515-1.019 2.557-.666 1.028-1.525 1.613a4.6 4.6 0 0 1-1.788.77 4.4 4.4 0 0 1-1.795-.031m9.822 2.267q-1.137-.262-1.906-.898-.755-.632-1.018-1.668t.07-2.48q.269-1.165.81-1.971.554-.802 1.195-1.275.659-.484 1.245-.658.591-.189.941-.108.492.112.649.327.174.203.084.595a1.45 1.45 0 0 1-.262.56 1.7 1.7 0 0 1-.43.389q-.525.292-.885.697-.342.394-.56.89-.217.495-.36 1.114a2.6 2.6 0 0 0-.056.947q.076.432.345.744.27.3.748.41.546.126 1.16-.161.615-.3 1.137-1.023.525-.736.793-1.9a3 3 0 0 0 .086-.882 1.2 1.2 0 0 0-.209-.698q-.197-.297-.632-.397-.49-.114-.86-.05a1.9 1.9 0 0 0-.639.206q-.286.155-.588.308a3 3 0 0 1-.475.2.9.9 0 0 1-.432.019q-.52-.12-.829-.635a1.44 1.44 0 0 1-.174-1.104q.078-.336.421-.67.358-.332.943-.566a4.5 4.5 0 0 1 1.399-.298q.809-.05 1.791.177 1.248.288 1.917.975.687.675.838 1.685.164 1.014-.13 2.29-.35 1.515-1.019 2.557-.666 1.03-1.525 1.613a4.6 4.6 0 0 1-1.788.77 4.4 4.4 0 0 1-1.795-.03m9.821 2.268q-1.136-.262-1.905-.898-.756-.633-1.018-1.668-.263-1.037.07-2.481.269-1.164.809-1.97.555-.803 1.196-1.276.659-.483 1.245-.658.59-.189.941-.108.492.114.649.327.174.204.084.596a1.5 1.5 0 0 1-.262.56 1.7 1.7 0 0 1-.43.388q-.525.293-.885.697-.342.395-.56.89-.217.497-.36 1.114a2.6 2.6 0 0 0-.057.948q.078.43.346.744.27.3.747.41.548.125 1.16-.162.616-.3 1.138-1.022.524-.736.793-1.9.11-.478.085-.882a1.2 1.2 0 0 0-.208-.698q-.197-.297-.632-.397-.49-.114-.86-.051a1.9 1.9 0 0 0-.639.207q-.286.155-.588.307a3 3 0 0 1-.475.201.9.9 0 0 1-.433.018q-.519-.12-.828-.634a1.44 1.44 0 0 1-.174-1.104q.078-.337.421-.671.358-.332.943-.566a4.5 4.5 0 0 1 1.399-.297q.808-.05 1.791.177 1.248.288 1.917.974.687.676.837 1.686.165 1.013-.129 2.29-.35 1.515-1.019 2.557-.666 1.028-1.525 1.613a4.6 4.6 0 0 1-1.788.77 4.4 4.4 0 0 1-1.796-.031m7.822-1.548q-.519-.12-.718-.536a1.38 1.38 0 0 1-.087-.906q.097-.42.382-.695.3-.27 1.068-.27.886-.003 1.821.11.951.1 1.873.27a30 30 0 0 1 1.766.348q.828.192 1.21.649.383.457.243 1.06a.92.92 0 0 1-.333.544q-.248.18-.823.047-1.557-.36-2.61-.47-1.054-.11-1.762-.111-.695.002-1.173.024a3 3 0 0 1-.857-.064m2.492 3.412a1.23 1.23 0 0 1-.742-.497q-.262-.4-.166-1.072.15-.97.339-1.724.192-.77.39-1.432.215-.675.401-1.356.201-.677.351-1.455.096-.48.343-.719.25-.252.77-.133.687.16.976.699.289.54.05 1.577-.147.632-.349 1.383-.202.75-.417 1.484-.2.737-.37 1.348-.168.597-.245.933-.14.604-.491.847-.348.23-.84.117"/><path fill="#000" d="m213.72 60.604 3.313-.705-.698-3.285-3.313.705z"/><path fill="#000" d="m210.41 61.307 3.312-.704-.698-3.285-3.312.704zM207.095 62.012l3.313-.704-.698-3.285-3.313.704zM203.783 62.716l3.312-.704-.698-3.285-3.313.704zM200.47 63.42l3.313-.704-.699-3.285-3.312.704zM197.155 64.125l3.313-.705-.698-3.285-3.313.705z"/><path fill="#000" d="m193.843 64.829 3.312-.704-.698-3.285-3.313.704zM190.528 65.533l3.313-.704-.699-3.285-3.312.704z"/><path fill="#000" d="m187.215 66.237 3.313-.704-.698-3.285-3.313.704zM183.903 66.941l3.312-.704-.698-3.285-3.312.704zM180.588 67.646l3.313-.704-.698-3.285-3.313.704zM170.648 69.759l3.313-.704-.698-3.285-3.313.704z"/><path fill="#000" d="m173.959 69.055 3.312-.704-.698-3.285-3.312.704z"/><path fill="#000" d="m177.267 68.352 3.313-.704-.698-3.285-3.313.704zM167.336 70.463l3.312-.704-.698-3.285-3.313.704zM164.023 71.167l3.313-.704-.699-3.285-3.312.704zM160.708 71.872l3.313-.705-.698-3.285-3.313.704zM157.396 72.576l3.312-.704-.698-3.285-3.312.704zM154.081 73.28l3.313-.704-.698-3.285-3.313.704z"/><path fill="#000" d="m150.769 73.984 3.312-.704-.698-3.285-3.313.704zM147.456 74.688l3.313-.704-.699-3.285-3.312.704zM144.141 75.393l3.313-.704-.698-3.285-3.313.704z"/><path fill="#000" d="m140.829 76.097 3.312-.704-.698-3.285-3.313.704zM137.516 76.801l3.313-.704-.699-3.285-3.312.704zM214.419 63.89l3.313-.703-.699-3.285-3.312.704z"/><path fill="#000" d="m211.109 64.594 3.312-.704-.698-3.285-3.313.704zM207.794 65.299l3.312-.704-.698-3.285-3.312.704zM204.481 66.003l3.313-.704-.698-3.285-3.313.704z"/><path fill="#000" d="m201.169 66.707 3.312-.704-.698-3.285-3.313.704zM197.854 67.412l3.313-.705-.699-3.284-3.312.704zM194.541 68.116l3.313-.704-.698-3.285-3.313.704zM191.227 68.82l3.312-.704-.698-3.285-3.313.704zM187.914 69.524l3.313-.704-.699-3.285-3.312.704z"/><path fill="#000" d="m184.602 70.229 3.312-.705-.698-3.285-3.313.704zM181.287 70.933l3.312-.704-.698-3.285-3.312.704zM177.972 71.638l3.313-.705-.698-3.285-3.313.705z"/><path fill="#000" d="m174.662 72.341 3.312-.704-.698-3.285-3.313.704zM171.347 73.046l3.313-.704-.699-3.285-3.312.704zM168.034 73.75l3.313-.704-.698-3.285-3.313.704z"/><path fill="#000" d="m164.722 74.454 3.312-.704-.698-3.285-3.312.704zM161.407 75.159l3.313-.705-.699-3.284-3.312.704z"/><path fill="#000" d="m158.095 75.863 3.312-.704-.698-3.285-3.313.704zM154.78 76.567l3.312-.704-.698-3.285-3.312.704zM151.467 77.271l3.313-.704-.698-3.285-3.313.704z"/><path fill="#000" d="m148.155 77.976 3.312-.705-.698-3.285-3.313.704zM144.84 78.68l3.313-.704-.699-3.285-3.312.704zM141.527 79.384l3.313-.704-.698-3.285-3.313.704z"/><path fill="#000" d="m138.215 80.088 3.312-.704-.698-3.285-3.312.704zM134.201 77.506l3.313-.704-.698-3.285-3.313.704zM134.9 80.793l3.313-.704-.699-3.285-3.312.704zM215.117 67.176l3.313-.704-.698-3.285-3.313.704zM217.035 59.899l3.313-.704-.699-3.285-3.312.704zM217.734 63.186l3.312-.704-.698-3.285-3.312.704z"/><path fill="#000" d="m211.807 67.88 3.312-.705-.698-3.285-3.312.704z"/><path fill="#fff" d="m208.492 68.584 3.313-.704-.699-3.285-3.312.704z"/><path fill="#000" d="m205.18 69.288 3.312-.704-.698-3.285-3.313.704zM201.867 69.992l3.313-.704-.699-3.285-3.312.704zM198.552 70.697l3.313-.704-.698-3.285-3.313.704z"/><path fill="#000" d="m195.24 71.4 3.312-.703-.698-3.285-3.313.704zM191.925 72.105l3.313-.704-.699-3.285-3.312.704zM188.612 72.81l3.313-.705-.698-3.285-3.313.704z"/><path fill="#000" d="m185.3 73.514 3.312-.705-.698-3.285-3.312.704zM181.985 74.218l3.313-.704-.699-3.285-3.312.704zM212.506 71.166l3.312-.704-.698-3.285-3.313.704zM209.191 71.871l3.312-.704-.698-3.285-3.312.704z"/><path fill="#fff" d="m205.878 72.575 3.313-.704-.698-3.285-3.313.704z"/><path fill="#000" d="m202.566 73.28 3.312-.705-.698-3.285-3.313.704zM199.251 73.984l3.313-.704-.699-3.285-3.312.704zM195.938 74.688l3.313-.704-.698-3.285-3.313.704zM192.624 75.392l3.312-.704-.698-3.285-3.313.704zM189.311 76.097l3.313-.705-.699-3.285-3.312.704zM185.999 76.8l3.312-.703-.698-3.285-3.313.704zM209.889 75.156l3.313-.704-.699-3.285-3.312.704z"/><path fill="#000" d="m206.577 75.86 3.312-.704-.698-3.285-3.313.704z"/><path fill="#fff" d="m203.264 76.564 3.313-.704-.699-3.285-3.312.704z"/><path fill="#000" d="m199.949 77.269 3.313-.704-.698-3.285-3.313.704z"/><path fill="#000" d="m196.637 77.973 3.312-.704-.698-3.285-3.313.704zM193.322 78.677l3.313-.704-.699-3.285-3.312.704zM190.009 79.382l3.313-.705-.698-3.285-3.313.705zM207.275 79.145l3.312-.704-.698-3.285-3.312.704zM203.962 79.85l3.313-.705-.698-3.285-3.313.704z"/><path fill="#000" d="m200.647 80.554 3.313-.704-.698-3.285-3.313.704z"/><path fill="#000" d="m197.335 81.258 3.312-.704-.698-3.285-3.312.704zM194.02 81.963l3.313-.705-.698-3.285-3.313.704zM172.045 76.33l3.313-.703-.698-3.285-3.313.704z"/><path fill="#000" d="m168.733 77.035 3.312-.704-.698-3.285-3.313.704z"/><path fill="#fff" d="m165.42 77.74 3.313-.705-.699-3.285-3.312.704z"/><path fill="#000" d="m162.105 78.444 3.313-.704-.698-3.285-3.313.704z"/><path fill="#000" d="m158.793 79.148 3.312-.704-.698-3.285-3.312.704zM155.478 79.852l3.313-.704-.699-3.285-3.312.704z"/><path fill="#000" d="m152.166 80.556 3.312-.704-.698-3.285-3.313.704zM148.853 81.26l3.313-.704-.699-3.285-3.312.704zM145.538 81.965l3.313-.704-.698-3.285-3.313.704z"/><path fill="#000" d="m142.226 82.67 3.312-.705-.698-3.285-3.313.704z"/><path fill="#000" d="m138.913 83.373 3.313-.704-.699-3.285-3.312.704zM169.431 80.322l3.313-.704-.698-3.285-3.313.704z"/><path fill="#000" d="m166.119 81.026 3.312-.704-.698-3.285-3.312.704z"/><path fill="#fff" d="m162.804 81.73 3.313-.703-.699-3.285-3.312.704z"/><path fill="#000" d="m159.491 82.435 3.313-.704-.698-3.285-3.313.704zM156.177 83.14l3.312-.705-.698-3.285-3.312.704z"/><path fill="#000" d="m152.864 83.844 3.313-.705-.698-3.285-3.313.704zM149.552 84.548l3.312-.704-.698-3.285-3.313.704zM146.237 85.252l3.313-.704-.699-3.285-3.312.704z"/><path fill="#000" d="m142.924 85.956 3.313-.704-.698-3.285-3.313.704zM166.817 84.311l3.313-.704-.699-3.285-3.312.704zM163.502 85.016l3.313-.704-.698-3.285-3.313.704z"/><path fill="#fff" d="m160.19 85.72 3.312-.704-.698-3.285-3.313.704z"/><path fill="#000" d="m156.875 86.424 3.313-.704-.699-3.285-3.312.704z"/><path fill="#000" d="m153.562 87.129 3.313-.705-.698-3.285-3.313.705z"/><path fill="#000" d="m150.25 87.833 3.312-.704-.698-3.285-3.312.704zM146.935 88.537l3.313-.704-.698-3.285-3.313.704zM164.201 88.3l3.312-.703-.698-3.285-3.313.704zM160.888 89.005l3.313-.704-.699-3.285-3.312.704zM157.573 89.71l3.313-.705-.698-3.285-3.313.704zM154.261 90.414l3.312-.704-.698-3.286-3.313.705z"/><path fill="#000" d="m150.948 91.118 3.313-.704-.699-3.285-3.312.704z"/><path stroke="#000" stroke-width="1.44" d="M16.583 240.199c.738-.354 1.243-.758 1.78-1.109 1.294-.845 2.694-1.506 4.074-2.185 1.291-.639 2.952.505 2.888 1.937-.018.408.013.632.437.827.88.409 1.314 1.457 1 2.422-.157.485-.054.754.285 1.097.524.533.855 1.195.727 1.977-.056.338.069.514.32.691.53.368.694.945.755 1.535.07.694-.197 1.251-.832 1.615-.999.571-2.001 1.136-2.972 1.751-2.254 1.422-4.628 2.631-6.93 3.969-.297.171-.599.308-.944.334-.535.042-1.02-.096-1.348-.529-1.704-2.237-3.213-4.595-4.299-7.195-.698-1.673-.839-3.43-.361-5.189.323-1.201.339-2.443.59-3.648.085-.403-.056-.777-.245-1.129-.211-.397-.449-.778-.646-1.18-.417-.851-.204-1.751.563-2.315 1.03-.756 2.398-1.028 3.475.373.97 1.261 1.51 2.671 1.588 4.259.026.524.063 1.047.1 1.691zM8.322 254.693c-.883-1.529-1.772-3.053-2.646-4.588-.45-.789-.348-1.116.468-1.54a141 141 0 0 1 2.772-1.408c.645-.321.971-.241 1.314.403 1.473 2.741 3.192 5.338 4.68 8.071.16.293.35.573.539.853.465.691.374 1.368-.363 1.667-.925.376-1.717.925-2.533 1.474-.831.558-1.27.446-1.776-.524-.777-1.491-1.664-2.923-2.505-4.379l.048-.027z" clip-rule="evenodd"/><path fill="#000" d="M344.873 289.926a90 90 0 0 0-6.696 3.757c-5.217 3.182-9.722 6.574-14.122 10.817-1.287 1.252-3.495 3.931-5.096 4.487-3.287 1.113-4.678-1.269-6-3.739-1.061-1.983-1.913-4.07-2.869-6.104l-26.331 12.33-14.262 7.444c-3.304.713-4.487-3.409-1.774-5.131 9.253-5.965 18.418-12.017 27.636-18.035 3.13-2.035 6.313-3.983 9.426-6.07 1.896-1.269 3.861-2.939 5.844-3.965 4.278-2.243 5.548 1.896 7.026 4.835a86 86 0 0 0 1.896 3.531c5.739-3.809 11.652-7.392 17.983-10.192.678-.296 1.983-.696 2.539-1.061.017 0 .087-.069.07-.087-.748-.261-1.287-1.026-1.513-1.756-.54-1.74.921-3.601 2.695-3.74 1.183-.087 2.766.244 3.948.453 2.348.4 8.053 1.408 9.722 2.974 2.487 2.313-.261 4.939-1.617 6.974-1.618 2.452-3.218 5.217-4.957 7.548-.991 1.339-2.696 2-4.104.782-1.653-1.426-.713-3.635.139-5.217.069-.122.504-.731.435-.818z"/><path fill="#FBB95E" d="M350.909 284.5s-.157.017-.226.052c-.731.278-1.67.835-2.4 1.2-8.94 4.522-17.496 9.339-24.801 16.296-1.426 1.357-2.835 3.044-4.296 4.296-.626.539-1.478.956-2.313.661-.609-.209-1.391-1.6-1.722-2.174-1.565-2.713-2.661-5.757-4.052-8.574l-27.983 13.113c-4.8 2.452-9.548 5.009-14.314 7.531-.834-.192-.417-.94.053-1.287 9.548-6.209 19.078-12.47 28.609-18.714 2.713-1.774 5.496-3.478 8.191-5.27 1.427-.956 2.783-1.982 4.192-2.939.904-.609 2.504-1.93 3.583-1.235.8.522 1.86 3.218 2.347 4.174.94 1.844 1.948 3.67 2.887 5.531 0 .087.035.087.105.087.104-.018 1.478-1.096 1.722-1.27 1.895-1.322 3.965-2.609 5.948-3.809 6.852-4.191 14.139-7.808 21.948-9.843-.017-.122-.122-.105-.209-.122-2.104-.591-4.574-.73-6.696-1.235-.66-.156-1.2-.539-.66-1.235.347-.452.921-.365 1.426-.33 2.626.226 6.4 1.026 8.904 1.826.922.278 3.218.87 2.487 2.191-2.504 3.514-4.765 7.183-7.165 10.749-.313.486-1.026.278-1.009-.279.035-1.339 1.774-3.53 2.505-4.678a215 215 0 0 0 2.904-4.696z"/></svg>