<svg xmlns="http://www.w3.org/2000/svg" width="121" height="53" fill="none"><g clip-path="url(#a)"><path fill="#000" d="M84.04 31.015c-.735-.335-1.65-.165-2.53-.305-.355-.055-.52.06-.73.315-1.235 1.46-2.23 3.11-3.535 4.525-2.47 2.68-5.485 4.44-9.005 5.29a34.2 34.2 0 0 1-15.015.27c-6.085-1.245-11.28-3.98-15.065-9.045-1.9-2.54-3.035-5.44-3.97-8.44-1.165-3.745-2.005-7.58-3.3-11.28-.585-1.665-1.095-3.36-1.81-4.98-.105-.24-.19-.525-.175-.78.03-.46.3-.7.785-.545.15.045.315.11.415.22.98 1.055 2.35 1.155 3.615 1.46 5.885 1.43 11.46 3.52 16.09 7.59 1.305 1.145 2.65 2.25 3.8 3.565.33.38.575.185.87 0 1.61-.985 3.245-1.925 5.03-2.555 3.4-1.2 6.85-1.64 10.395-.665 2.435.67 4.42 2.055 6.195 3.795 1.825 1.79 3.35 3.84 4.985 5.795 1.07 1.28 2.15 2.56 3.38 3.69.18.165.35.36.48.565.185.29.515.555.295.965-.23.43-.63.555-1.205.55zm-8.815-9.595.015.015c-2.44-3.1-5.72-4.46-9.575-4.38-3.16.065-6.085 1.12-8.86 2.61-.83.445-1.69.845-2.53 1.275-.655.335-1.195.2-1.67-.35-.385-.445-.77-.885-1.185-1.295-3.475-3.455-7.445-6.17-12.015-7.96-.95-.37-1.9-.78-2.94-.88-1.005-.515-2.105-.74-3.19-.995-.31-.07-.705-.435-.915-.105-.19.31.265.615.41.935.035.08.11.14.165.21 1.115 1.485 2.315 2.89 3.54 4.28C39.92 18.7 43.51 22.465 48 25.22c1.955 1.2 4.085 1.915 6.405 1.71 1.635-.145 3.255-.445 4.88-.715 2.16-.355 4.315-.29 6.475-.055 1.97.215 3.92.55 5.865.945 1.585.325 3.175.62 4.765.93 1.565.305 3.13.625 4.7.925.165.03.4.105.5-.07.12-.22-.11-.36-.235-.505-.7-.82-1.415-1.625-2.11-2.445-1.26-1.48-2.47-3.015-3.89-4.355-.045-.06-.085-.12-.13-.175zm-41.62-7.085c.245.88.47 1.765.745 2.64.665 2.11 1.12 4.285 1.845 6.38.685 1.975 1.31 3.955 2.375 5.78 1.315 2.245 3.015 4.13 5.065 5.705s4.295 2.855 6.76 3.575c2.445.715 4.95 1.25 7.54 1.35 3.43.135 6.78-.125 10.115-.965 2.8-.7 5.21-1.995 7.235-4.045 1.17-1.185 2.19-2.49 3.165-3.835.27-.37.21-.585-.29-.545-.625.05-1.195-.175-1.79-.295q-2.7-.556-5.4-1.12a48 48 0 0 0-8.11-.995c-2.405-.095-4.74.505-7.09.89-1.735.285-3.445.18-5.095-.255-2.445-.64-4.59-1.97-6.515-3.57-3.195-2.66-6.065-5.665-8.835-8.77-.565-.635-.97-1.39-1.72-1.915zM106.805 35.72c-.085-1.58-.15-3.74-.525-5.885-.14-.785-.52-1.16-1.17-1.385-1.65-.575-3.28-1.23-4.97-1.655-2.135-.535-4.305-.94-6.505-1.155-.415-.04-1.075.065-1.035-.57.03-.565.655-.52 1.095-.53 2.71-.06 5.335.43 7.92 1.2 1.14.34 2.275.69 3.36 1.18.115.055.26.115.385.01.105-.09.025-.205-.005-.305-1.12-3.84-2.79-7.4-5.305-10.535-2.26-2.815-4.95-5.085-8.315-6.495a2 2 0 0 1-.24-.125c-.245-.16-.555-.31-.375-.68.155-.315.44-.32.755-.225 1.345.405 2.61.98 3.815 1.71 3.105 1.885 5.39 4.56 7.32 7.57 1.75 2.725 2.94 5.7 3.825 8.805.225.8.575 1.33 1.425 1.725 4.035 1.855 7.61 4.375 10.52 7.775.555.65 1.095 1.32 1.475 2.1.14.29.395.64.03.91-.335.25-.59-.075-.805-.285-1.22-1.2-2.305-2.54-3.6-3.675-2.335-2.045-4.89-3.76-7.625-5.215-.115-.06-.245-.165-.375-.08-.195.125-.095.325-.08.49.245 2.7.5 5.395.37 8.11-.11 2.235-.42 4.45-1.015 6.605-.275 1.005-.78 1.945-1.2 2.91-.09.2-.23.39-.385.55-.18.18-.415.295-.675.18-.305-.135-.22-.385-.18-.64.195-1.27.095-1.41-1.12-1.88-1.205-.465-2.47-.805-3.595-1.465-.8-.47-1.485-1.06-1.32-2.15.12-.81.65-1.315 1.285-1.735 1.63-1.09 3.785-.645 5.39.42 1.095.73 1.09.765 1.3-.525.245-1.475.22-2.97.155-5.04zm-4.51 5.69c-.34 0-.66.045-.995.15-.625.195-1.19.495-1.225 1.17-.035.635.605.825 1.08 1.05.99.47 2.07.73 3.03 1.285.92.53.94.53 1.38-.435.14-.3.18-.645.255-.97a.53.53 0 0 0-.15-.5c-.945-.935-1.975-1.71-3.38-1.745zM12.005 35.41c-.865.025-1.615.01-2.33-.225-.47-.155-.74.03-1.035.38-1.635 1.945-2.66 4.2-3.415 6.6-.1.32-.235.635-.4.925-.095.17-.285.325-.5.285-.245-.045-.25-.28-.28-.485-.1-.7.15-1.355.36-1.975.68-2.025 1.5-4 2.905-5.655.61-.72.78-1.36.36-2.305-.77-1.725-.63-3.585-.235-5.38 1.04-4.7 3.99-7.92 8.19-10.03 2.465-1.24 5.155-1.65 7.905-1.645.565 0 1.13.05 1.635.355.155.095.36.155.33.38-.035.255-.265.285-.47.305-.63.065-1.26.11-1.89.175-3.03.325-5.965.96-8.56 2.67-2.46 1.62-4.46 3.65-5.48 6.49-.61 1.695-.81 3.455-.635 5.25.02.2-.01.5.29.545.25.035.305-.225.42-.38 1.685-2.265 3.795-3.91 6.655-4.365 1.445-.23 2.82-.02 3.81 1.195.865 1.065.775 2.715-.075 3.905-.92 1.285-2.25 1.93-3.69 2.345-1.295.375-2.615.72-3.87.65zm-.66-1.34a11.4 11.4 0 0 0 3.985-.625c1.11-.38 2.28-.725 3.08-1.695.475-.575.875-1.195.49-1.96-.415-.835-1.095-1.275-2.07-1.225-1.095.05-2.11.39-3.065.885-1.735.895-3.18 2.11-4.09 3.89-.235.465-.035.63.38.67.425.04.855.045 1.285.065zM0 29.98c.075-2.885.67-5.67 1.685-8.36 1.79-4.745 4.35-9.03 7.77-12.78 2.81-3.085 5.965-5.755 9.675-7.71.925-.485 1.88-.925 2.93-1.08.155-.025.31-.06.465-.045.325.025.735-.02.8.435.06.42-.32.505-.6.62C15.455 3.98 10.155 9.165 6 15.65a30.7 30.7 0 0 0-4.31 10.715 34.5 34.5 0 0 0-.595 4.76c-.03.49-.03 1.175-.64 1.145-.43-.02-.425-.695-.445-1.135-.015-.385 0-.765 0-1.15z"/><path fill="#000" d="M114.645 51.69a.69.69 0 0 1-.33.515c-.215.14-.435.17-.615-.015a8 8 0 0 1-.705-.815c-1.385-1.935-2.945-3.71-4.745-5.275-.335-.295-.925-.685-.545-1.145.315-.38.74.18 1.095.37 2.18 1.19 3.715 3.05 5.12 5.025.295.415.495.9.725 1.34"/><path fill="#DD2935" d="M33.605 14.335c.745.525 1.155 1.28 1.72 1.915 2.77 3.105 5.635 6.11 8.835 8.77 1.925 1.6 4.07 2.925 6.515 3.57 1.65.435 3.36.54 5.095.255 2.35-.385 4.685-.985 7.09-.89q4.096.156 8.11.995c1.8.38 3.6.75 5.4 1.12.59.12 1.165.35 1.79.295.5-.04.555.175.29.545-.975 1.345-1.995 2.65-3.165 3.835-2.02 2.05-4.435 3.345-7.235 4.045-3.335.835-6.69 1.095-10.115.965-2.595-.1-5.095-.635-7.54-1.35-2.465-.72-4.71-2-6.76-3.575s-3.75-3.46-5.065-5.705c-1.065-1.82-1.69-3.805-2.375-5.78-.725-2.095-1.18-4.27-1.845-6.38-.275-.87-.495-1.76-.745-2.64zm25.23 24.86c1.87-.04 3.72-.265 5.555-.645 1.875-.39 3.69-.99 5.44-1.755.67-.29 1.365-.6 1.865-1.18.12-.14.23-.285.115-.48-.115-.19-.3-.18-.48-.14-.13.03-.255.09-.38.14-2.295.935-4.66 1.62-7.09 2.12-2.235.46-4.5.63-6.76.85-.28.03-.55.04-.57.42-.02.355.2.455.49.525.6.15 1.205.14 1.815.14z"/><path fill="#DD2935" d="M75.355 21.595c1.42 1.34 2.625 2.87 3.89 4.355.7.82 1.41 1.625 2.11 2.445.125.145.355.285.235.505-.1.175-.335.105-.5.07-1.565-.3-3.13-.62-4.7-.925-1.59-.31-3.18-.605-4.765-.93-1.94-.395-3.895-.73-5.865-.945-2.16-.235-4.315-.3-6.475.055-1.62.265-3.245.565-4.88.715-2.32.21-4.45-.51-6.405-1.71-4.49-2.755-8.08-6.52-11.525-10.44-1.225-1.39-2.425-2.8-3.54-4.28-.055-.07-.13-.13-.165-.21-.145-.32-.6-.63-.41-.935.205-.335.605.03.915.105 1.085.255 2.185.48 3.19.995.415.425.935.695 1.455.965 5.075 2.615 9.63 5.905 13.42 10.215.61.695 1.22 1.39 1.915 2.005.265.235.415.22.665-.025 1.51-1.465 3.275-2.52 5.24-3.265 4.4-1.67 8.79-1.77 13.2-.015.955.38 1.855.905 2.885 1.1l-.015-.015c.045.06.085.12.13.175z"/><path fill="#000" d="M58.835 39.195c-.61 0-1.215.01-1.815-.14-.29-.07-.51-.17-.49-.525.02-.38.29-.39.57-.42 2.26-.225 4.525-.395 6.76-.85 2.43-.5 4.795-1.18 7.09-2.12.125-.05.25-.11.38-.14.18-.04.365-.055.48.14.12.195.01.34-.115.48-.505.58-1.195.885-1.865 1.18a27.6 27.6 0 0 1-5.44 1.755c-1.835.38-3.685.605-5.555.645z"/></g><defs><clipPath id="a"><path fill="#fff" d="M0 0h120.465v52.32H0z"/></clipPath></defs></svg>