<svg width="14" height="23" viewBox="0 0 14 23" fill="none" xmlns="http://www.w3.org/2000/svg">
<g filter="url(#filter0_d_331_10463)">
<path d="M10.3424 16.8647C10.8273 16.8647 11.0897 16.8533 11.3521 16.8647C12.3276 16.9103 12.8923 17.3211 13.0235 18.0684C13.1433 18.7643 12.6927 19.4488 11.7914 19.7341C10.736 20.0649 9.6522 20.3159 8.56835 20.5669C7.96368 20.7095 7.34759 20.8179 6.73151 20.875C5.72752 20.9605 5.03728 20.5213 4.87185 19.7512C4.69501 18.9297 5.08862 18.3536 6.0869 17.9714C6.3322 17.8801 6.58319 17.7945 6.9711 17.6576C6.32079 13.4249 6.67446 9.10092 5.699 4.57157C5.13426 5.19336 4.76917 5.60979 4.38127 6.0091C3.94773 6.45405 3.5256 6.91611 3.04642 7.30401C2.59006 7.6691 2.03673 7.67481 1.55185 7.34965C1.02133 6.99597 0.815973 6.46546 0.958585 5.83797C1.01563 5.58126 1.1012 5.30745 1.25522 5.10209C2.20786 3.82429 3.16622 2.55219 4.1645 1.30861C4.40409 1.01198 4.78058 0.795212 5.13426 0.618373C6.30938 0.0251085 7.6157 0.361672 8.21467 1.52538C8.6368 2.34112 9.0133 3.24243 9.12739 4.14374C9.59515 7.84594 9.96024 11.5595 10.3424 15.2675C10.3938 15.7409 10.3481 16.2315 10.3481 16.859L10.3424 16.8647Z" fill="white"/>
</g>
<defs>
<filter id="filter0_d_331_10463" x="0.914551" y="0.331055" width="12.1279" height="21.888" filterUnits="userSpaceOnUse" color-interpolation-filters="sRGB">
<feFlood flood-opacity="0" result="BackgroundImageFix"/>
<feColorMatrix in="SourceAlpha" type="matrix" values="0 0 0 0 0 0 0 0 0 0 0 0 0 0 0 0 0 0 127 0" result="hardAlpha"/>
<feOffset dy="1.33333"/>
<feComposite in2="hardAlpha" operator="out"/>
<feColorMatrix type="matrix" values="0 0 0 0 0 0 0 0 0 0 0 0 0 0 0 0 0 0 1 0"/>
<feBlend mode="normal" in2="BackgroundImageFix" result="effect1_dropShadow_331_10463"/>
<feBlend mode="normal" in="SourceGraphic" in2="effect1_dropShadow_331_10463" result="shape"/>
</filter>
</defs>
</svg>
