<svg width="14" height="22" viewBox="0 0 14 22" fill="none" xmlns="http://www.w3.org/2000/svg">
<g filter="url(#filter0_d_331_10468)">
<path d="M7.79866 17.6743C9.02542 17.7745 10.0911 17.8537 11.1521 17.9487C11.5547 17.9857 11.9668 18.0015 12.3552 18.1124C12.9426 18.276 13.2599 18.7669 13.2457 19.3528C13.2315 19.9123 12.8526 20.4243 12.3126 20.5773C12.1373 20.6248 11.9479 20.646 11.7632 20.6407C9.55118 20.5509 7.34395 20.4559 5.13672 20.3556C4.98988 20.3504 4.83831 20.324 4.70095 20.2817C3.28473 19.8384 2.86791 18.1651 3.91942 17.0092C4.41676 16.4655 5.02778 16.0591 5.57248 15.5682C7.15449 14.1483 8.47599 12.4857 8.93069 10.216C9.12963 9.2342 9.17699 8.15742 9.05858 7.16509C8.70807 4.23562 5.31197 2.74713 3.06211 4.12478C2.84896 4.25673 2.69739 4.52065 2.5174 4.72123C2.06743 5.22795 1.66956 5.33351 1.24327 5.01681C0.7933 4.68428 0.565945 4.15117 0.788563 3.62861C1.06328 2.97938 1.40431 2.27208 1.90165 1.85509C2.53161 1.32726 3.30841 0.910271 4.07573 0.709695C7.60446 -0.203457 10.9958 2.27736 11.7205 6.24666C12.2652 9.22892 11.6968 11.9737 10.1433 14.4439C9.4754 15.5101 8.67492 16.4761 7.80339 17.669L7.79866 17.6743Z" fill="white"/>
</g>
<defs>
<filter id="filter0_d_331_10468" x="0.702148" y="0.520508" width="12.5439" height="21.4544" filterUnits="userSpaceOnUse" color-interpolation-filters="sRGB">
<feFlood flood-opacity="0" result="BackgroundImageFix"/>
<feColorMatrix in="SourceAlpha" type="matrix" values="0 0 0 0 0 0 0 0 0 0 0 0 0 0 0 0 0 0 127 0" result="hardAlpha"/>
<feOffset dy="1.33333"/>
<feComposite in2="hardAlpha" operator="out"/>
<feColorMatrix type="matrix" values="0 0 0 0 0 0 0 0 0 0 0 0 0 0 0 0 0 0 1 0"/>
<feBlend mode="normal" in2="BackgroundImageFix" result="effect1_dropShadow_331_10468"/>
<feBlend mode="normal" in="SourceGraphic" in2="effect1_dropShadow_331_10468" result="shape"/>
</filter>
</defs>
</svg>
