<svg xmlns="http://www.w3.org/2000/svg" width="22" height="33" fill="none"><path fill="#E32824" stroke="#000" stroke-width="2.285" d="M13.24 13.095c-1.392-.196-2.81.02-4.223.618.913-2.882 2.355-5.363 4.66-7.283l.006-.005c.325-.274.757-.688.986-1.253.265-.657.2-1.369-.216-2.03a2.49 2.49 0 0 0-1.51-1.126c-.593-.152-1.188-.075-1.701.106-.674.237-1.522.579-2.208 1.173l-.001.001c-.946.822-2.018 1.76-2.839 2.899-3.557 4.893-4.734 10.417-4.223 16.283.2 2.315.967 4.527 2.552 6.394.964 1.137 2.105 1.981 3.423 2.424 1.323.444 2.75.458 4.238.052 4.4-1.197 6.498-4.558 7.606-8.326v-.002c.448-1.531.476-3.03.042-4.427s-1.306-2.616-2.538-3.626c-1.23-1.013-2.59-1.665-4.055-1.872Z"/></svg>