<svg xmlns="http://www.w3.org/2000/svg" width="24" height="26" fill="none"><g clip-path="url(#a)"><path fill="#DD2935" stroke="#000" stroke-width="2" d="m10.101 5.965.001-.002c.803-1.263 1.363-2.655 1.883-3.944q.182-.457.362-.89a.2.2 0 0 1 .064-.053l.018-.01c.095.23.17.472.25.75l.06.215c.08.289.173.622.291.956l.002.005c1.43 3.97 4.581 6.611 8.339 8.657l.003.002c.166.09.258.249.256.459a.67.67 0 0 1-.31.56c-1.184.744-2.368 1.505-3.38 2.432-1.582 1.448-2.879 3.162-3.913 4.881l-.001.003c-.72 1.205-1.229 2.494-1.738 3.786l-.075.19a.27.27 0 0 1-.08.106.3.3 0 0 1-.13.066.2.2 0 0 1-.044.006 48 48 0 0 1-1.89-2.73l-.002-.004c-1.953-2.996-4.46-5.654-8.276-7.236l.405-.281c1.243-.862 2.534-1.758 3.634-2.8 1.633-1.551 3.097-3.282 4.271-5.124Z"/></g><defs><clipPath id="a"><path fill="#fff" d="M0 0h24v26H0z"/></clipPath></defs></svg>