<svg xmlns="http://www.w3.org/2000/svg" width="695" height="212" fill="none"><path fill="#000" d="M20.34 124.717c0-1.17.068-2.339-.015-3.494-.225-3.308-1.897-5.896-4.312-8.026-1.898-1.68-4.343-2.332-6.593-3.367-2.437-1.118-5.047-1.905-7.192-3.608-.338-.262-.623-.592-.945-.87-1.08-.93-.353-2.13.547-2.49.42-.172.87-.255 1.343-.262 2.362-.03 4.725-.112 7.087-.128 1.298-.007 2.558-.24 3.825-.472 1.733-.315 2.61-1.365 2.888-3.082.585-3.63 1.215-7.253 1.86-10.876.157-.87.36-1.732 1.23-2.264.615-.376 1.027-.248 1.38.314.562.9.795 1.92 1.042 2.925.848 3.48 2.04 6.84 3.39 10.156.893 2.189 2.52 3.442 4.748 4.034 3.12.825 6.067 2.085 8.947 3.518.33.165.653.352.93.585 1.155.99.878 2.715-.54 3.277-1.492.593-3.09.758-4.657 1.028-4.868.833-5.04 1.462-6.518 5.872-.945 2.813-2.032 5.55-3.795 7.988-.817 1.133-1.41 2.43-2.175 3.607-.405.615-.832 1.478-1.755 1.215-1.005-.285-.922-1.245-.922-2.085v-3.495zm-.09-37.492c-.405.3-.315.66-.307.983.09 3.63-.158 7.23-.75 10.814-.54 3.27-1.688 4.478-4.935 5.16-.24.053-.48.105-.72.135-2.993.368-5.993.368-9 .428-.518.007-1.05-.158-1.695.157 1.927 1.455 3.81 2.745 6.007 3.473 2.198.727 4.515 1.05 6.608 2.145 4.53 2.377 6.862 6.12 7.042 11.197.06 1.748-.075 3.495-.112 5.243 0 .307-.105.63.172 1.013.998-1.935 2.183-3.653 2.948-5.596 1.027-2.602 1.372-5.392 2.19-8.055.487-1.575 1.275-2.925 2.835-3.652a15.3 15.3 0 0 1 4.185-1.268c1.455-.217 2.94-.157 4.365-.615.48-.157.585-.382.217-.675-.562-.45-1.072-1.027-1.792-1.237-2.67-.773-5.348-1.552-8.033-2.257-2.602-.683-4.455-2.16-5.512-4.665-1.388-3.278-2.49-6.638-3.128-10.148-.157-.855-.367-1.703-.562-2.588zM76.777 177.893c-2.235-.143-4.47-.293-6.705-.435-.09 0-.187-.008-.277-.008-2.295-.03-2.453.015-3.248 2.123-.675 1.8-1.2 3.66-1.8 5.49-.225.682-.315 1.545-1.252 1.605-.908.052-1.748-.098-2.415-.93-1.553-1.935-2.618-4.118-3.623-6.36-.975-2.175-2.49-3.893-4.455-5.265-2.317-1.62-4.5-3.413-6.232-5.678-.728-.952-1.298-2.107-.675-3.232.667-1.2 1.995-1.335 3.262-1.14 2.498.375 4.988.652 7.515.307 1.395-.187 2.528-.63 3.48-1.867 2.715-3.503 5.738-6.713 9.713-8.858.9-.487 2.085-.442 2.85.158.375.292.232.637.142.997a20.4 20.4 0 0 1-3.135 6.765c-.975 1.38-1.747 2.858-1.987 4.575-.225 1.605.21 2.948 1.357 4.103 1.71 1.725 3.908 2.73 5.91 4.02.57.367 1.125.735 1.68 1.117.36.248.645.57.855.953.57 1.065.225 1.612-.975 1.552zM47.49 165.945c-.098.03-.443-.165-.608.12-.15.255.023.533.173.773.435.705.892 1.395 1.507 1.965 1.628 1.5 3.33 2.91 5.303 3.93 2.407 1.245 4.147 3.082 5.25 5.572.742 1.673 1.357 3.405 2.377 4.943.345.517.57 1.47 1.133 1.38.652-.105.63-1.073.787-1.71.48-1.875 1.223-3.645 2.13-5.348.428-.802 1.058-1.192 1.988-1.185 1.507.023 3.007.06 4.5.255 1.395.188 2.79.405 4.185.593.232.03.57.09.66-.165.105-.3-.188-.495-.428-.615-.525-.248-1.065-.465-1.605-.683-1.987-.795-4.02-1.507-5.76-2.812-2.295-1.718-3.795-3.818-3.33-6.885a11.5 11.5 0 0 1 1.253-3.795c1.417-2.633 3.525-4.785 5.04-7.35.157-.263.592-.503.202-.855-.315-.285-.727-.36-1.095-.045-.42.36-.832.72-1.207 1.125-2.933 3.172-5.963 6.27-8.783 9.555-.787.915-1.74 1.537-2.977 1.642-1.71.135-3.428.278-5.145.113-1.8-.165-3.6-.338-5.565-.525zM41.678 136.448c-.975-.225-1.448-.84-2.048-1.223-2.88-1.822-4.928-4.365-6.308-7.455-.225-.502-.675-1.245-.097-1.575.54-.307.9.465 1.185.893 1.995 3.06 4.68 5.572 6.72 8.595.135.202.285.39.563.757zM53.07 180.667c.195.233.105.518-.03.675-1.365 1.68-2.677 3.39-3.877 5.34-.21-1.927 2.04-4.987 3.9-6.015zM45.623 157.657c.72.495.952 1.185 1.305 1.763.412.682.825 1.35 1.492 1.815.203.142.443.292.263.577s-.42.143-.638.023c-.997-.578-2.347-2.82-2.43-4.185zM7.268 124.897c-1.028 1.485-2.468 2.483-3.93 3.458-.12.082-.285.165-.383-.03-.082-.158 0-.308.12-.405 1.328-1.095 2.543-2.348 4.2-3.015zM57.69 154.965c-.315-.84-.195-1.695-.06-2.543.12.848.143 1.695.06 2.543"/><path fill="#000" d="M57.36 158.835c.165 0 .322 0 .487.008.068.412.105.817-.082 1.297-.27-.45-.428-.847-.405-1.312z"/><path fill="#FBB95E" d="M20.25 87.225c.195.885.405 1.733.562 2.588.645 3.51 1.74 6.87 3.128 10.147 1.065 2.505 2.91 3.983 5.512 4.665 2.693.705 5.363 1.485 8.033 2.258.72.21 1.222.787 1.792 1.237.368.293.263.525-.217.675-1.425.458-2.91.398-4.365.615a15 15 0 0 0-4.185 1.268c-1.56.72-2.348 2.077-2.835 3.652-.825 2.663-1.163 5.453-2.19 8.055-.765 1.943-1.958 3.66-2.948 5.595-.277-.382-.18-.712-.172-1.012.037-1.748.172-3.503.112-5.243-.18-5.077-2.512-8.812-7.042-11.197-2.093-1.103-4.41-1.418-6.608-2.145s-4.08-2.018-6.007-3.473c.645-.315 1.177-.142 1.695-.157 3.007-.06 6.007-.06 9-.428.24-.03.48-.082.72-.135 3.247-.682 4.395-1.89 4.935-5.16.592-3.577.84-7.185.75-10.815-.008-.322-.098-.69.307-.982z"/><path fill="#fff" d="M47.49 165.945c1.965.187 3.765.36 5.565.525 1.718.157 3.435.022 5.145-.113 1.238-.097 2.19-.72 2.978-1.642 2.82-3.285 5.842-6.375 8.782-9.555.375-.405.795-.765 1.208-1.125.36-.315.78-.24 1.095.045.39.345-.045.592-.203.855-1.515 2.565-3.622 4.717-5.04 7.35a11.5 11.5 0 0 0-1.252 3.795c-.465 3.067 1.035 5.167 3.33 6.885 1.74 1.305 3.772 2.017 5.76 2.812.54.218 1.08.428 1.605.683.24.112.532.307.427.615-.09.262-.435.202-.66.165-1.395-.188-2.79-.413-4.185-.593-1.492-.195-2.992-.24-4.5-.255-.93-.015-1.56.375-1.987 1.185-.908 1.703-1.65 3.473-2.13 5.348-.165.637-.135 1.605-.788 1.71-.562.09-.787-.863-1.132-1.38-1.02-1.538-1.635-3.27-2.378-4.943-1.102-2.49-2.835-4.327-5.25-5.572-1.98-1.02-3.675-2.43-5.302-3.93-.615-.57-1.073-1.26-1.508-1.965-.15-.24-.322-.518-.172-.773.165-.285.51-.09.607-.12z"/><g clip-path="url(#a)"><path fill="#000" d="M636.675 35.633c-2.07-1.245-4.32-2.198-6.218-3.736-.307-.247-.637-.48-.93-.75-.697-.637-.615-1.072.248-1.5.45-.224.945-.292 1.432-.292 2.82-.03 5.633-.27 8.453.03.682.075.855-.548 1.095-.953.937-1.59 1.897-3.157 3.03-4.612 2.88-3.705 4.042-8.1 5.137-12.525.383-1.545.72-3.098 1.418-4.545.037-.083.06-.18.112-.255.45-.653.833-1.455 1.793-1.365.982.097 1.177.975 1.41 1.725.855 2.76 1.042 5.602.877 8.468-.24 4.177-.052 8.347.278 12.51.127 1.642.892 2.79 2.43 3.592 2.7 1.41 5.64 2.122 8.437 3.24 1.133.45 2.25.945 3.158 1.83.69.675.592 1.448.42 2.22-.158.697-.833.54-1.305.592-2.745.3-5.49.645-8.243.788-3.052.15-4.807 1.905-5.962 4.462-.818 1.8-1.68 3.578-2.243 5.49-.24.803-.742 1.478-1.665 1.486-.877.014-1.245-.69-1.5-1.41-1.035-2.895-1.657-5.903-2.34-8.888-.427-1.867-1.53-3-3.247-3.66-.975-.367-1.988-.615-2.993-.878-.564-.147-1.757-.197-3.082-1.065m13.147 13.897c.33-.27.39-.51.428-.75.322-2.017 1.177-3.848 1.98-5.7 1.26-2.91 3.36-4.642 6.682-4.755 2.49-.083 4.965-.015 7.448.12.547.03 1.102.03 1.65.015.322-.008.607-.127.667-.51.06-.413-.165-.63-.525-.75-.87-.293-1.74-.6-2.617-.878-3.27-1.005-6.593-1.845-9.66-3.427-1.62-.833-2.64-2.048-2.933-3.848-.36-2.212-.315-4.462-.525-6.697-.39-4.178.128-8.333.293-12.503.045-1.042.09-2.085-.105-3.12-.03-.172-.023-.405-.24-.45-.27-.06-.36.18-.45.368-.42.93-.645 1.912-.803 2.917-.585 3.623-1.365 7.2-2.737 10.62-1.545 3.848-4.545 6.713-6.803 10.08-.337.503-.862.796-1.575.728-2.655-.24-5.325-.202-7.987-.21-.428 0-.885-.075-1.335.18 2.1 1.71 4.297 2.94 6.975 3.383 1.89.314 3.855.337 5.677 1.057 2.048.81 3.885 1.89 4.448 4.238.39 1.635.645 3.307.982 4.957.33 1.613.69 3.218 1.058 4.928z"/><path fill="#ED1523" d="M664.312 22.125c.653-.675 1.561-.532 2.356-.825 1.02-.383 2.077-.705 3.112-1.073 3.435-1.215 7.005-2.017 10.372-3.434 3.578-1.508 6.78-3.645 10.005-5.76 1.298-.848 2.558-1.755 4.231-2.43-8.28 8.79-18.878 11.842-30.076 13.522"/><path fill="#000" d="M641.078 0c.142 1.628.157 3.15.037 4.665-.517 6.39-1.012 12.788-1.927 19.133-.15 1.027-.18 2.07-.09 3.12.082.974-.75.532-1.2.592-.458.06-.713-.12-.638-.705.465-3.525.855-7.058 1.335-10.582.69-5.048.833-10.155 1.785-15.165.075-.383.128-.78.69-1.05zM681.495 31.027c-4.875-.172-9.623.225-14.408-.322.135-.48.548-.45.878-.495 2.842-.383 5.692-.405 8.535-.135 1.462.142 2.94.21 4.38.547.172.038.367.03.622.398z"/><path fill="#ED1523" d="M661.777 14.895c1.298-1.283 2.723-2.235 4.035-3.323 2.055-1.702 3.923-3.585 5.46-5.775.143-.202.3-.517.548-.367.3.18.097.48-.053.712-1.32 2.078-2.902 3.923-4.8 5.513-1.357 1.132-2.872 2.025-4.275 3.09-.225.165-.48.262-.915.157z"/><path fill="#000" d="M658.575 65.603c-1.05-2.498-1.312-5.19-1.942-7.785-.15-.623-.24-1.26-.345-1.89-.03-.188 0-.405.21-.458.225-.052.285.158.345.338.81 2.535 1.432 5.115 1.68 7.77.06.645.42 1.275.165 1.95-.113-.09-.083.03-.105.075z"/><path fill="#ED1523" d="M658.575 65.603c.022-.045 0-.165.105-.075.15.09.03.165-.015.247-.03-.06-.068-.112-.098-.172z"/><path fill="#FBB95E" d="M649.823 49.53c-.368-1.71-.728-3.315-1.058-4.928-.337-1.65-.585-3.322-.982-4.957-.563-2.34-2.4-3.42-4.448-4.238-1.815-.72-3.78-.742-5.677-1.057-2.678-.443-4.875-1.672-6.975-3.383.45-.262.907-.187 1.335-.18 2.662.015 5.332-.03 7.987.21.72.068 1.238-.224 1.575-.727 2.258-3.367 5.258-6.232 6.803-10.08 1.372-3.42 2.16-6.998 2.737-10.62.158-.997.383-1.987.803-2.917.09-.195.18-.428.45-.368.217.045.21.278.24.45.195 1.035.142 2.07.105 3.12-.165 4.163-.683 8.325-.293 12.503.21 2.227.158 4.477.525 6.697.293 1.8 1.313 3.015 2.933 3.848 3.075 1.582 6.397 2.422 9.66 3.427.877.27 1.747.585 2.617.878.36.12.585.337.525.75-.06.382-.345.502-.667.51-.548.014-1.103.014-1.65-.016-2.483-.134-4.958-.202-7.448-.12-3.322.113-5.422 1.838-6.682 4.755-.795 1.845-1.658 3.683-1.98 5.7-.038.24-.098.488-.428.75z"/></g><defs><clipPath id="a"><path fill="#fff" d="M589.5 0h105v207h-105z"/></clipPath></defs></svg>