<svg xmlns="http://www.w3.org/2000/svg" width="76" height="89" fill="none"><g clip-path="url(#a)"><path fill="#000" d="M39.203 64.553c.014.11.023.222.037.332-.077.233-.038.455.066.67l.052.328c-.048.23-.039.456.065.671l.11.66c-.099.29-.01.561.083.831.047.215.09.436.138.652.19 1.942.522 3.861.894 5.77.042.216.091.436.133.653-.052.288-.01.561.114.828a.67.67 0 0 0 .081.496c-.113.352.004.672.116.994q.04.245.08.491c-.076.181-.032.345.058.507 0 .114.004.227.004.341-.108.18-.038.342.032.509.01.515.024 1.034.032 1.55-.136.476-.278.949-.405 1.423-.061.234-.16.426-.408.466-.272.047-.27-.217-.358-.37q-.974-1.726-1.955-3.451c-2.05-3.597-4.087-7.197-5.88-10.93-1.17-2.44-2.35-4.873-3.526-7.307-.129-.27-.225-.649-.627-.334-.631.485-1.43.71-1.976 1.321-.367.213-.78.354-1.058.708q-.519.153-.867.569c-.181.018-.3.132-.418.257-.425.072-.704.406-1.037.63-1.4.939-2.865 1.787-4.18 2.849-.213.036-.408.099-.51.318-1.16.71-2.325 1.425-3.567 2.182.09-2.7.389-5.254.66-7.812.823-7.809 1.76-15.612 1.379-23.487-.296-6.07-.683-12.132-1.274-18.18-.26-2.673-.643-5.32-1.291-7.93-.061-.228-.225-.53.077-.658.26-.111.353.216.473.375 3.022 3.937 5.444 8.221 7.465 12.753 1.632 3.657 3.338 7.279 4.858 10.981a348 348 0 0 1 6.084 15.866c.044.128.063.273.244.333 1.817-1.661 3.845-3.059 5.986-4.28.37-.207.667-.815 1.076-.603.461.233-.053.806.084 1.22.014.053.038.103.057.155l-.02.274c-.212.29-.157.612-.124.929l.007-.012c-.222.83-.302 1.675-.294 2.532l-.043.053.031.06a.83.83 0 0 0-.102.777c-.11.288-.213.575-.114.89-.02.119-.043.244-.062.363-.14.173-.099.348-.02.523-.2.4-.179.825-.158 1.249-.154.16-.132.34-.046.525-.231.45-.118.932-.146 1.405-.152.227-.11.46-.011.692-.194.398-.16.814-.11 1.235-.146.226-.15.46-.045.7-.02.12-.035.238-.054.357-.157.228-.063.462-.012.691-.179.742-.072 1.49-.026 2.239l.11.814c-.078.119-.056.237.011.354zm-1.359-14.016c-.048-.178-.163-.24-.364-.182-.321.097-.598.264-.877.458-1.13.784-2.053 1.823-3.245 2.531-.827.49-.97.477-1.468-.378-.908-1.553-1.578-3.221-2.253-4.873-1.891-4.623-3.646-9.298-5.58-13.905-1.723-4.114-3.605-8.165-5.418-12.245-.247-.554-.48-1.113-.727-1.668-.065-.148-.17-.307-.376-.246-.211.062-.177.249-.16.41.08.88.176 1.755.24 2.633q.369 5.109.714 10.218c.418 6.177.15 12.342-.402 18.494-.398 4.445-.897 8.88-1.487 13.304-.02.155-.045.395.043.47.16.137.366.015.52-.104 1.402-1.126 2.951-2.028 4.422-3.048 2.168-1.513 4.351-3.004 6.712-4.221.895-.463 1.103-.44 1.68.414.324.478.641.967.894 1.485.664 1.359 1.288 2.74 1.943 4.101a530 530 0 0 0 2.78 5.72c.78 1.582 1.593 3.145 2.392 4.717.088.174.2.377.431.314.28-.075.143-.317.118-.487-.258-1.83-.56-3.654-.778-5.49-.294-2.49-.672-4.966-.705-7.483-.037-2.822.28-5.603.662-8.387.115-.844.188-1.691.283-2.555zM66.16 64.722l-.173-.3c-.302-.624-.6-1.253-1.061-1.776-.249-.715-.707-1.307-1.094-1.938-.01-.132-.063-.237-.192-.29-.046-.231-.125-.449-.322-.603-.052-.234-.144-.443-.34-.597l-.23-.45c-.073-.292-.208-.546-.446-.736-.047-.1-.092-.208-.14-.309q-.441-.784-.888-1.558c-.185-.323-.405-.332-.636-.037-.437.552-.88 1.105-1.316 1.657-.082.1-.166.195-.248.294a.5.5 0 0 0-.282.335c-.934.882-1.688 1.912-2.475 2.915-.64.761-1.405 1.422-1.95 2.267-.084.131-.174.259-.258.39-.342.133-.358-.06-.445-.347-.492-1.623-.675-3.292-.839-4.967-.017-.16-.076-.321-.119-.48l-.056-.327c-.1-1.96-.303-3.915-.586-5.858l-.056-.327c-.15-1.756-.316-3.513-.445-5.27-.334-4.511-.654-9.028-.967-13.54-.213-3.054-.441-6.11-.88-9.139-.007-.045.03-.096.076-.217.812.44 1.236 1.212 1.722 1.904 2.353 3.356 4.129 7.026 5.796 10.757 1.859 4.155 3.723 8.31 5.567 12.469.197.444.35.46.686.147 1.167-1.094 2.242-2.278 3.319-3.457.164-.178.278-.468.58-.347.261.106.156.373.167.587.021.58.056 1.155.087 1.732l.04.382c-.227 1.878-.094 3.763-.082 5.644q.028.248.052.504c-.114.387-.12.772.011 1.161-.03.044-.023.09.013.126-.07.992.007 1.976.18 2.954.029.22.052.442.081.667l.305 4.21a.87.87 0 0 0 0 .657l.035.363q-.074.067-.013.144c-.214.342-.027.71-.07 1.07-.116.418-.367.817-.247 1.282l-.1.342c-.389.25-.538 0-.658-.31-.052-.312-.294-.5-.475-.732-.029-.184-.103-.345-.266-.451a.9.9 0 0 0-.358-.583zm-.572-15.697c-1.12.844-1.946 1.759-2.769 2.668-.36.396-.643.322-.836-.066a102 102 0 0 1-1.924-4.055c-1.038-2.347-2.025-4.717-3.053-7.066-1.094-2.497-2.207-4.989-3.31-7.483-.355-.806-.716-1.61-1.072-2.415-.42.998-.175 1.952-.116 2.888.254 4.213.61 8.42.863 12.627.278 4.517.485 9.038.723 13.555.013.245-.022.575.219.645.23.063.389-.249.581-.399 1.073-.867 1.588-2.19 2.603-3.115.952-.87 1.581-2.038 2.542-2.917 1.213-1.112 1.326-1.137 2.127.346 1.039 1.927 1.993 3.903 2.97 5.867.179.36.34.71.804.918-.222-3.999-.525-7.893-.35-11.993z"/><path fill="#DD2935" d="M37.844 50.537c-.094.864-.168 1.712-.283 2.556-.383 2.783-.692 5.568-.662 8.387.033 2.517.412 4.993.706 7.482.217 1.836.52 3.66.777 5.49.025.17.163.413-.118.488-.231.062-.343-.141-.43-.314-.804-1.57-1.613-3.14-2.393-4.717a657 657 0 0 1-2.78-5.72c-.656-1.367-1.279-2.743-1.943-4.102-.252-.517-.57-1.007-.895-1.484-.575-.855-.783-.877-1.679-.415-2.355 1.217-4.539 2.708-6.711 4.221-1.47 1.026-3.026 1.924-4.422 3.049-.153.124-.358.246-.521.103-.087-.075-.062-.31-.043-.47.59-4.423 1.09-8.859 1.488-13.303.55-6.152.82-12.317.402-18.494q-.346-5.112-.715-10.219c-.064-.878-.155-1.76-.24-2.633-.013-.167-.051-.348.16-.41.207-.06.31.093.377.246.252.554.48 1.114.726 1.67 1.813 4.079 3.696 8.13 5.42 12.244 1.926 4.603 3.687 9.282 5.578 13.905.677 1.656 1.345 3.32 2.253 4.873.498.855.642.868 1.468.378 1.192-.708 2.115-1.747 3.245-2.532.275-.192.551-.36.877-.457.198-.053.317.003.364.182zM65.588 49.025c-.175 4.1.124 7.996.351 11.993-.464-.207-.625-.557-.805-.918-.977-1.964-1.929-3.935-2.97-5.866-.8-1.484-.913-1.459-2.126-.347-.96.879-1.585 2.045-2.542 2.917-1.01.923-1.526 2.247-2.603 3.115-.191.155-.35.467-.581.4-.241-.07-.206-.401-.22-.646-.237-4.517-.444-9.038-.722-13.555-.26-4.211-.615-8.417-.863-12.627-.054-.937-.306-1.895.116-2.888q.536 1.207 1.072 2.415c1.103 2.494 2.216 4.986 3.31 7.483 1.028 2.35 2.015 4.72 3.052 7.066a94 94 0 0 0 1.925 4.055c.193.388.476.462.836.066.823-.91 1.644-1.823 2.769-2.668z"/></g><defs><clipPath id="a"><path fill="#fff" d="M0 14.877 55.521 0 75.2 73.44 19.678 88.315z"/></clipPath></defs></svg>