<svg xmlns="http://www.w3.org/2000/svg" width="164" height="115" fill="none"><path fill="#DD2935" d="M66.617 26.756c3.12-2.205 6.309-3.112 9.564-3.896 7.987-1.936 16.21-2.082 24.397-1.372 22.384 1.985 39.6 10.584 52.688 23.52 15.739 15.534 14.397 38.81-5.537 53.191-15.202 10.952-33.358 16.489-54.6 16.783-18.794.27-36.58-2.842-53.56-8.6C18.224 99.13 5.74 86.708 1.545 70.048c-5.705-22.785 4.463-41.455 29.13-55.96C42.285 7.254 55.34 2.722 70.105.958c19.8-2.377 38.661-.417 56.078 6.909 6.745 2.842 12.786 6.64 18.927 10.168 2.416 1.396 4.229 3.307 2.953 6.419-2.047-.858-3.725-1.52-5.369-2.23-7.047-3.062-13.793-6.64-21.209-9.163-28.626-9.702-56.178-8.575-82.22 5.17-15.236 8.036-25.203 18.718-28.19 32.193-4.06 18.155 5.236 40.034 33.593 49.246 18.256 5.929 37.184 8.943 57.05 7.105 18.357-1.715 33.996-7.766 44.365-19.208 10.538-11.638 10.706-24.256.537-35.893-12.484-14.26-30.74-22.492-54.533-23.153-6.913-.196-13.86-.515-20.773-.833-1.342-.074-2.651-.49-4.665-.907z"/><path fill="#DD2935" stroke="#000" stroke-width="2" d="m69.45 26.386-.242-.055c2.321-1.237 4.703-1.896 7.207-2.499h.002c7.846-1.902 15.952-2.053 24.074-1.348 22.156 1.965 39.153 10.467 52.072 23.236h.001c7.676 7.576 11.146 16.991 10.315 26.226s-5.972 18.399-15.735 25.442c-15.012 10.815-32.961 16.303-54.03 16.594-18.67.268-36.343-2.823-53.224-8.546-21.11-7.173-33.282-19.38-37.374-35.63C-.283 58.627.819 48.518 5.606 39.428c4.799-9.113 13.345-17.286 25.576-24.478C42.674 8.186 55.596 3.697 70.225 1.95h.001c19.658-2.36 38.339-.41 55.57 6.838 5.373 2.263 10.284 5.135 15.225 8.024 1.193.698 2.388 1.397 3.591 2.088 1.155.668 2.028 1.385 2.492 2.197.313.547.472 1.192.326 2.009-.484-.2-.944-.389-1.39-.571-1.038-.426-1.992-.817-2.947-1.23-2.235-.97-4.463-2.006-6.704-3.047-4.728-2.196-9.519-4.422-14.581-6.145h-.001c-28.855-9.78-56.695-8.655-83.008 5.232-15.389 8.117-25.626 19-28.698 32.861-4.182 18.7 5.454 41.057 34.26 50.414 18.355 5.962 37.42 9.003 57.451 7.15 18.505-1.729 34.418-7.842 45.013-19.532h.001c5.387-5.95 8.199-12.238 8.292-18.604.092-6.368-2.539-12.663-7.744-18.62-12.698-14.503-31.235-22.826-55.258-23.494-6.901-.196-13.837-.514-20.75-.832-.587-.032-1.186-.14-1.915-.302Z"/></svg>