<svg xmlns="http://www.w3.org/2000/svg" width="26" height="20" fill="none"><path fill="#fff" d="M25.743 15.125c-.218-1.243-.647-2.69-.97-3.925-.72-2.746-1.82-7.423-3.372-9.7C20.802.618 20.382.343 19.25.408c-.275.024-.558.089-.841.145-4.399.808-9.987 2.092-14.095 3.789-.832.339-1.965.613-2.062 1.671-.12 1.479 0 3.409.049 4.903.089 2.383.307 5.161.809 7.496.12.557.364 1.13 1.002 1.187 3.995-.404 7.973-1.058 11.96-1.607 2.58-.364 5.272-.582 7.811-1.196.372-.097 1.529-.38 1.755-.638.235-.282.162-.702.105-1.034M4.533 5.683c.59-.266 1.447-.484 2.078-.678 3.663-1.131 7.674-2.068 11.434-2.811.372-.073.744-.17 1.124-.162-.768 1.68-1.528 3.369-2.216 5.08-.865 2.141-1.568 4.338-2.506 6.438-.566-.33-1.108-.743-1.65-1.13a115 115 0 0 1-8.434-6.632c.04-.064.105-.08.17-.105M3.376 6.927l5.418 4.596a36 36 0 0 0-2.927 3.643c-.526.75-.962 1.559-1.553 2.253-.541-3.465-.776-6.978-.938-10.492m2.248 11.146c1.359-1.962 2.693-3.941 4.23-5.775 1.334.873 2.595 1.89 3.93 2.787 1.382.719 1.86-.404 2.353-1.454.299-.622.541-1.268.808-1.898l6.008 3.594zm11.774-7.535c.898-2.537 1.99-4.984 3.081-7.431.065 0 .073.064.097.113.461 1.018.914 2.447 1.27 3.53.808 2.487 1.439 5.031 2.134 7.543z"/></svg>