<svg xmlns="http://www.w3.org/2000/svg" width="20" height="24" fill="none"><path fill="#ED1523" stroke="#000" d="M10.05 9.6h.185l.14-.119.959-.822c.792-.68 1.526-1.31 2.273-1.928.731-.602 1.473-1.113 2.315-1.38 1.043-.324 1.945-.252 2.704.469.763.73.977 1.66.614 2.467C16.78 13.7 13.664 18.642 8.88 22.19c-1.056.783-2.216.951-3.207.645-.992-.306-1.865-1.102-2.314-2.344C1.639 15.73.578 10.795.5 5.715a6.8 6.8 0 0 1 .71-3.087C1.822 1.394 2.74.77 3.65.67s1.927.311 2.769 1.39c1.255 1.612 1.917 3.538 2.598 5.55l.001.003c.17.495.333.983.55 1.644l.114.344h.369Z"/></svg>