<svg xmlns="http://www.w3.org/2000/svg" width="24" height="25" fill="none"><g clip-path="url(#a)"><path fill="#fff" d="M11.157 7.9c.579-.35.964-.579 1.343-.821 1.764-1.129 3.6-1.95 5.786-1.8 2.707.185 4.807 2.292 4.864 5.007.05 2.307-.821 4.243-2.35 5.914-1.136 1.25-2.471 2.25-3.964 3.036-2.379 1.25-4.8 2.393-7.35 3.257-1.029.35-1.986.886-2.979 1.328-.35.158-.707.322-1.085.415-.658.157-1.2 0-1.63-.593-1.178-1.622-2.092-3.364-2.656-5.286C.564 16.414-.007 14.464 0 12.421c.007-1.785-.043-3.6.243-5.35C.593 4.964 1.7 3.15 3.3 1.686 4.85.264 6.85.2 8.5 1.52 10 2.73 10.786 4.336 10.95 6.25c.043.479.122.957.207 1.65M5.014 22.043c.565-.236.986-.407 1.407-.593.886-.393 1.78-.786 2.665-1.186 2.371-1.071 4.778-2.078 7.093-3.25 1.021-.514 1.935-1.307 2.771-2.107 1.15-1.093 1.907-2.443 2.029-4.086.121-1.621-.75-2.935-2.35-3.25-.736-.142-1.558-.114-2.293.043-1.714.379-3.129 1.336-4.379 2.55-.528.515-1.028 1.065-1.593 1.536-.543.45-1.407.536-1.735.229-.479-.45-.193-.965-.036-1.415.45-1.278.507-2.593.421-3.914-.085-1.329-.578-2.493-1.571-3.407-1.036-.95-2.093-.979-3.086.043-1.393 1.435-2.3 3.128-2.307 5.193 0 1.014.036 2.021-.007 3.035-.129 2.957.814 5.665 1.886 8.343.285.714.671 1.386 1.085 2.236"/></g><defs><clipPath id="a"><path fill="#fff" d="M0 .571h23.15v23.714H0z"/></clipPath></defs></svg>