<svg xmlns="http://www.w3.org/2000/svg" width="500" height="300" fill="none"><g clip-path="url(#a)"><path fill="#fff" d="M0 0h500v300H0z"/><path fill="#E62D32" d="M243.265 28.308c-4.653 0-17.449.82-23.265 1.23.431 6.56 1.422 21.402 1.939 28.29.646 8.61 5.17 7.38 14.217 7.38s38.128-1.23 39.421-1.23 1.938-16.605 1.938-25.215-1.938-7.995-1.938-9.225c-3.232-2.46-26.496-1.23-32.312-1.23"/><path fill="#000" d="M286.941 237.367c1.777-.956 3.684-1.308 5.511-1.854 6.454-1.913 12.858-3.962 19.131-6.402 11.212-4.362 22.233-9.134 32.802-14.824 6.364-3.425 12.497-7.221 18.509-11.193.893-.585 1.777-1.2 2.7-1.747.562-.332.793-.732.803-1.366.03-2.332.08-4.674.171-7.007.03-.741-.151-.888-.914-.683-5.36 1.454-10.75 2.781-16.27 3.572-8.382 1.2-16.773 1.991-25.254 1.239-1.004-.088-1.998-.263-2.992-.4-.351-.049-.772-.088-.732-.537.03-.38.451-.361.742-.4 3.072-.429 6.163-.693 9.265-.702 7.739-.03 15.387-.83 22.965-2.303 4.126-.801 8.171-1.952 12.206-3.114.723-.204 1.044-.575 1.054-1.366.04-4.518.11-9.046.221-13.564.02-.82-.191-.918-.964-.762-8.482 1.737-16.993 3.367-25.545 4.724-6.424 1.024-12.848 2-19.322 2.693-.462.049-.933.059-1.395.059-1.877 0-1.777-.049-2.73-1.923-1.044-2.04-1.697-4.196-2.229-6.382-.602-2.489-1.033-5.016-1.475-7.544-.161-.907-.502-1.024-1.305-.654-1.335.605-2.67 1.191-3.894 1.991-.563.371-.763.752-.623 1.493.422 2.294.783 4.577.201 6.929-.683 2.781-3.232 5.133-6.203 5.465-1.827.205-3.644.068-5.43-.312-.562-.117-.823-.127-1.084.536-1.305 3.192-3.614 5.456-6.946 6.675-1.175.43-2.419.488-3.654.586-.431.029-.692.019-.482.644.964 2.859.301 4.899-2.178 6.88-2.991 2.401-6.414 3.084-10.148 2.157-.913-.225-1.345-.166-1.917.683-3.272 4.84-9.073 6.499-14.785 3.913a1.3 1.3 0 0 1-.2-.107c-.964-.469-1.586-.81-2.851.097-2.258 1.62-5.029 2.274-7.809.722-.372-.204-.743-.185-1.104.03-4.778 2.918-9.385.595-12.376-2.011-1.165-1.014-2.168-2.156-2.751-3.591-.281-.693-.632-.82-1.415-.507-5.791 2.264-10.589.702-13.831-4.44-1.034-1.64-1.275-3.484-1.225-5.319-.251-.156-.361-.029-.462.078-2.067 2.088-5.661 2.069-8.04.224-1.806-1.405-3.432-2.937-3.874-5.289-.08-.419-.311-.497-.733-.507-4.868-.195-8.25-2.567-10.408-6.753-1.135-2.186-1.777-4.538-2.54-6.851-.291-.869-.482-1.835-1.174-2.732-.863 2.566-1.044 5.142-2.028 7.514l-2.228 5.357c-.321.762-.883 1.054-1.737 1.015-3.914-.185-7.769-.839-11.623-1.454a1317 1317 0 0 1-20.376-3.386c-3.995-.703-7.959-1.552-11.934-2.381-.823-.166-1.054-.02-1.024.829a1106 1106 0 0 1 .402 14.131c.01.527.22.693.692.839 8.622 2.703 17.335 5.085 26.278 6.587 4.125.693 8.281 1.152 12.446 1.542.191.02.382.03.572.069.231.048.492.097.502.38.01.274-.221.381-.461.41-.653.088-1.305.205-1.958.234-5.028.235-9.987-.351-14.915-1.18-7.257-1.22-14.354-3.084-21.34-5.348-.07-.02-.15-.049-.221-.069-1.545-.449-1.555-.449-1.525 1.084.1 4.254.211 8.509.301 12.774.01.498.15.82.622 1.103 6.183 3.649 12.236 7.494 18.589 10.861 7.408 3.943 15.077 7.329 22.976 10.257 8.19 3.044 16.511 5.64 25.083 7.455a83.4 83.4 0 0 0 12.647 1.698l.813.059c.302.029.553.137.522.478-.03.342-.341.225-.542.234-.582.03-1.164.039-1.746.039-7.95-.048-15.719-1.346-23.457-2.996a121 121 0 0 1-17.385-5.113c-10.489-3.943-20.346-9.008-29.289-15.692-2.489-1.854-5.069-3.592-7.629-5.358-.261-.176-.552-.537-.913-.302-.291.185-.12.556-.11.849.11 5.425.23 10.851.371 16.277.08 3.123-.201 6.187-1.987 8.9-2.249 3.396-5.501 5.143-9.616 5.524-11.202 1.024-22.444 1.239-33.686 1.444-13.49.244-26.97.712-40.44 1.415-3.824.205-7.659.293-11.493.332-3.232.029-6.374-.693-9.485-1.493-1.757-.459-3.423-1.152-5.009-2.001-4.196-2.235-6.705-5.562-7.106-10.286-.432-5.181-.603-10.383-.763-15.584-.663-21.636-.301-43.271-.522-64.906-.17-16.883-.613-33.765-1.155-50.638-.451-14.297-1.254-28.564-1.033-42.861.05-3.396.27-6.773 1.315-10.052 1.294-4.089 4.125-6.684 8.09-8.431 6.122-2.703 12.627-3.533 19.191-3.787 13.942-.546 27.894-1.21 41.856-.907 11.322.244 22.634.624 33.906 1.678 2.078.196 4.146.488 6.173 1.035 5.139 1.376 7.518 4.82 8.11 9.603 1.185 9.739 1.436 19.546 2.158 29.315.111 1.542.201 3.084.302 4.684.572-.049.953-.498 1.345-.849 6.012-5.475 12.546-10.295 19.552-14.492a141 141 0 0 1 12.818-6.782 130 130 0 0 1 14.293-5.67c7.177-2.371 14.424-4.489 22.022-5.211a22 22 0 0 1 1.978-.078c.281 0 .692-.108.783.293.09.4-.211.595-.573.732-1.164.439-2.399.604-3.613.839a139 139 0 0 0-25.364 7.533c-9.737 3.933-18.911 8.842-27.573 14.678-4.818 3.24-9.184 7.055-13.902 10.412-1.435 1.025-1.777 1.972-1.536 3.523.211 1.367.161 2.781.171 4.177 0 .537.171.81.703.986 5.982 1.922 11.944 3.884 17.936 5.787 4.979 1.58 9.978 3.103 14.976 4.625 5.34 1.63 10.68 3.23 16.02 4.841.18.058.371.107.552.175 2.75 1.064 2.85 1.24 2.429 4.099-.341 2.313-.351 2.371 2.007 2.693 3.102.43 6.224.752 9.335 1.172 1.185.156 2.349.458 3.523.702.221.049.582.147.613.273.331 1.669 1.405.547 1.907.342 3.372-1.327 6.925-2.088 10.408-3.035 6.625-1.805 12.858-4.391 18.6-8.1 4.978-3.22 10.298-5.66 16.24-6.704 5.621-.986 11.121-.43 16.512 1.249 8.571 2.664 16.431 6.695 23.718 11.798 1.194.84 2.268 1.825 3.312 2.83.311.303.602.547 1.104.459 2.118-.351 4.256-.244 6.384-.224 3.774.029 7.498-.557 11.242-.791.723-.049.843-.332.793-1.015-.211-2.937-.853-2.888 2.85-4.098 4.648-1.523 9.395-2.733 14.093-4.099 4.878-1.425 9.746-2.898 14.634-4.294 5.631-1.61 11.172-3.455 16.753-5.22 1.355-.43 2.7-.899 4.055-1.318.773-.244.923-.752.933-1.474.131-9.651.693-19.293 1.245-28.925.291-5.075.562-10.159 1.134-15.214.342-2.986 1.215-5.767 3.594-7.846 2.148-1.884 4.828-2.606 7.638-2.908 11.523-1.269 23.106-1.737 34.689-2.03 11.633-.293 23.257-.127 34.89.332 5.731.224 11.473.341 17.174 1.054 5.059.634 9.887 2 14.353 4.391 4.156 2.235 6.063 5.973 6.826 10.325.974 5.494.743 11.047.682 16.58-.17 15.156-.11 30.311-.572 45.457-.943 30.828-.311 61.665-.843 92.503-.14 7.954-.311 15.907-.913 23.841-.181 2.43-.231 4.918-1.456 7.143-1.927 3.504-5.038 5.621-8.782 6.988-3.784 1.385-7.769 2.039-11.724 2.059-3.573.019-7.177-.098-10.76-.283-20.476-1.074-40.983-1.532-61.479-2.255a222 222 0 0 1-13.691-.878c-5.189-.497-9.646-4.684-10.529-9.846a22 22 0 0 1-.301-3.719l.12-20.015c0-.283.231-.634-.13-.81-.342-.166-.562.186-.793.352-3.995 2.849-8.01 5.679-12.196 8.255-7.417 4.568-15.136 8.598-23.096 12.189-11.221 5.055-23.035 8.354-35.04 11.067-2.449.556-4.898 1.073-7.358 1.6-.24.049-.531.176-.903-.215zm-263.26-1.142c.01.098 0 .225.16.098-.06-.03-.12-.059-.17-.088q-.134-.292-.452-.234c0-.439-.341-.566-.672-.703l-1.074-1.327c-.984-1.337-1.355-2.889-1.446-4.47-.36-6.694-.762-13.398-.943-20.103-.372-13.672-.693-27.354-.893-41.035-.221-15.224-.683-30.438-.783-45.662-.12-18.922-.542-37.835-1.125-56.747-.18-5.65-.35-11.31.211-16.951.372-3.709 1.225-7.3 4.437-9.847.02-.02-.03-.117-.05-.175-.211-.069-.352.078-.512.175-3.252 1.923-4.407 5.094-4.989 8.432-1.004 5.748-.893 11.574-.823 17.37.281 21.743.934 43.486 1.415 65.218.191 8.559.312 17.108.432 25.666.281 19.293.23 38.596.954 57.879.18 4.929.11 9.867.692 14.785.281 2.362 1.345 4.284 3.041 5.933.322.566.854.898 1.416 1.191.17.244.411.361.702.38.09.205.271.235.472.215m452.063.459c.903-.273 2.018-.283 2.078-1.591.03-.019.06-.039.1-.058l-.08.078c-.582.663-1.536.878-2.078 1.59l-.241.098s.07.029.081.019q.075-.06.15-.136zm3.352-197.206h-.27c.05.078.09.156.14.244.612.752 1.235 1.503 1.847 2.254 1.044 2.108 1.827 4.294 2.228 6.617.673 3.816.602 7.66.602 11.505-.02 14.024-.461 28.037-.602 42.051a7400 7400 0 0 1-1.164 77.553c-.321 15.751-.612 31.502-1.265 47.243-.11 2.722-.14 5.425-2.138 7.631-.06.068-.07.166-.13.312.221 0 .421.059.512 0 1.094-.937 2.047-1.991 2.68-3.288 1.134-2.323 1.124-4.831 1.234-7.3.582-12.882.954-25.763 1.014-38.655.151-32.379.703-64.749 1.154-97.12.161-11.72.342-23.44-.12-35.16-.161-4.148-1.034-8.139-3.443-11.681-.492-.986-1.345-1.63-2.268-2.186zM375.993 79.49v5.855c.16-.038.471-.117.682-.4 1.415-.175 2.68-.8 3.955-1.346 2.128-.927 2.118-.957 1.977-3.182-.411-6.46-.833-12.92-1.244-19.38-.121-1.991-.362-3.973-.261-5.973.01-.254-.081-.595.221-.703.361-.127.531.205.702.45a5.1 5.1 0 0 1 .883 2.049c.502 2.4.723 4.83.974 7.26 0 .644-.01 1.278 0 1.923.03 5.045-.211 10.09.09 15.126.03.517-.03 1.063.783.732.954-.39 1.867-.879 2.851-1.162.763-.224.903-.575.713-1.239-.081-.283-.091-.595-.121-.888l-.602-7.065c.171-.518 0-1.035-.02-1.562.281-.058.552-.097.773.137.06 2.967.803 5.875.762 8.841 0 .918.231 1.054 1.054.693 2.168-.966 4.377-1.854 6.545-2.83 2.168-.986 4.466-1.718 6.464-3.045 1.164-.244 2.238-.732 3.282-1.268 1.375.205 1.435.312.883 1.64-1.204.663-2.399 1.365-3.623 1.98-6.304 3.152-12.808 5.894-19.272 8.695-5.791 2.508-11.623 4.938-17.555 7.095-3.654 1.327-7.348 2.518-11.011 3.796-5.019 1.757-10.118 3.27-15.217 4.772-6.705 1.962-13.41 3.913-20.235 5.465-.512.117-.683.293-.552.859 1.706 7.436 2.499 15.009 3.473 22.552.993 7.671 1.505 15.38 2.027 23.08.402 5.904.653 11.818-.16 17.722-.221 1.6-.542 3.191-1.526 4.557-.171.244-.351.576-.713.43-.351-.137-.12-.459-.08-.703.171-1.083.401-2.157.522-3.24.783-7.046.361-14.092-.131-21.118-.833-11.837-1.937-23.655-3.643-35.415-.361-2.498-.622-5.016-1.225-7.475-.09-.371-.1-.771-.672-.722-2.259.205-3.523 1.727-3.232 3.923.08.595.211 1.181.321 1.776 1.656 9.632 2.81 19.323 3.162 29.081.421 11.408.642 22.826 1.003 34.244.091 2.957-.12 2.508 2.65 2.264 5.471-.488 10.891-1.405 16.311-2.254 10.389-1.62 20.687-3.689 30.985-5.797 9.797-2.01 19.543-4.265 29.249-6.665 7.528-1.864 15.107-3.543 22.293-6.5.964-.4 1.536.01 1.586 1.045.03.634-.201 1.151-.702 1.551-1.877.449-3.624 1.21-5.38 1.981-.201.088-.362.215-.312.4.723 2.655-.02 5.309-.03 7.964 0 2.517-.13 5.045-1.044 7.455-.14.371-.15.937-.722.84-.432-.079-.633-.537-.673-.967-.03-.37 0-.751.06-1.122.261-1.561.342-3.142.442-4.713.141-2.177.341-4.353.653-6.509.431-2.948.481-2.948-2.49-1.942-.763.263-1.776.419-.833 1.6.201.254.161.722.181 1.103.281 5.416-.091 10.812-.532 16.385 1.124-.81 2.208-1.513 3.212-2.313 1.706-1.357 3.322-2.82 5.059-4.138 2.459-1.874 4.436-4.196 6.464-6.441 2.178-2.4 4.005-5.084 5.781-7.787 1.155-1.766 2.218-3.591 2.68-5.68 1.094-1.464 1.265-3.347 2.269-4.694.13 1.035-.452 2.186-.101 3.367 0 .547-.441.917-.592 1.425-1.335 4.274-3.433 8.207-6.042 11.876-1.235 1.074-2.068 2.469-3.122 3.689-5.631 6.529-12.517 11.594-19.844 16.141-.883-1.532-.793-3.259-.933-4.918-.402-4.88-.663-9.769-1.004-14.658-.171-2.381-.171-2.332-2.459-1.522-.703.244-.843.468-.743 1.171.642 4.742 1.154 9.505 1.305 14.277.09 2.664-.02 5.348-.04 8.012-.281.302-.613.507-1.054.488-.04-.332-.121-.674-.111-1.005.061-4.177-.17-8.354-.351-12.531-.13-2.888-.462-5.777-.743-8.666-.12-1.239-.321-1.317-1.556-1.024-1.335.312-2.609.907-4.035.78-.632-.048-.652.381-.602.83.582 4.762.382 9.554.462 14.326.06 3.689-.221 7.368-.522 11.037-.381.381-.502 1.142-1.335.869-.151-1.201.02-2.382.171-3.572.271-.127.251-.312.1-.517.662-7.114.502-14.209-.612-21.274-.081-.498-.311-.898-.793-.615-.552.332-1.797-.371-1.646.995.14 1.23.321 2.469.421 3.699.612 7.348.241 14.667-.662 21.967-.472 2.059-.653 4.157-.733 6.265a14 14 0 0 1-.472 3.24c-.09.341-.15.673-.632.663-.512-.019-.432-.39-.512-.712-.833-3.259-1.325-6.577-1.827-9.895-1.204-7.856-3.021-15.634-3.282-23.617 0-.263.02-.585-.402-.507-.873.176-1.736.371-2.599.566-.362.088-.452.322-.432.683.261 4.479.02 8.968-.05 13.448-.13 7.572-.1 15.155.03 22.728.07 4.206 1.626 5.933 5.149 6.743 1.044.244 2.148.283 3.232.351 7.819.44 15.649.547 23.478.732 12.707.293 25.404 1.093 38.122 1.298 4.336.069 8.672.391 13.018.049 2.198-.176 3.553-1.395 4.386-3.211.633-1.376.924-2.869.954-4.381.151-6.178.351-12.365.411-18.542.201-19.605.673-39.201 1.195-58.787.291-10.852.201-21.703.672-32.555.563-12.843.603-25.705.512-38.557-.02-3.28-.1-6.558-.843-9.788-.241-1.035-.582-2.01-1.295-2.86-1.415-1.688-3.412-1.864-5.37-1.912-10.348-.274-20.697-.196-31.055-.05-13.219.186-26.449-.136-39.668-.028-2.981.029-5.972-.117-8.923.497-2.098.44-3.563 1.6-4.186 3.62-1.144 3.748-1.325 7.622-1.535 11.487-.291 2.108-.392 4.235-.583 6.353-.301 3.386-.321 6.802-.451 10.208-.121.234-.111.468-.03.702zm-256.957 2.489c-.08.332.211.341.402.42 1.063.419 2.208.614 3.332 1.288-.221-1.035-.231-1.923-.261-2.811-.151-3.913-.381-7.817-.813-11.71.161-2.411-.09-4.812-.381-7.183-.492-4.04-.021-8.227-2.149-12.052-.933-1.669-2.188-2.498-3.894-2.733a53 53 0 0 0-6.835-.488c-8.331-.058-16.672.01-25.004-.029-15.046-.068-30.082-.185-45.118-.273-2.328-.01-4.647.088-6.915.703-1.767.487-3.042 1.493-3.463 3.288-.251 1.064-.482 2.137-.582 3.22-.633 7.408-.532 14.834-.572 22.26-.07 13.565.22 27.13.491 40.695.422 21.059.653 42.128.984 63.198.15 9.534.351 19.068.522 28.603.03 1.395.15 2.791.492 4.147.642 2.615 1.827 4.704 5.53 5.006 2.41.196 4.798.039 7.197 0 17.365-.283 34.71-.995 52.074-1.463 6.976-.186 13.962.117 20.918-.586 3.884-.39 6.083-2.489 6.233-6.255.341-8.247.221-16.503.351-24.758.191-4.89.372-9.769.563-14.658.01-.293-.021-.517-.382-.576-.803-.127-1.606-.234-2.389-.42-.993-.234-1.204.235-1.214 1.064-.04 3.162-.121 6.324.12 9.486.111 1.385.101 2.761-.391 4.098-1.044-.761-1.375-1.873-1.476-3.035-.341-3.854-.823-7.719-.371-11.593.1-.82-.08-1.113-.924-.947-.682-.663-1.656-.653-2.469-.995-.281-.117-.381.166-.401.4l-1.114 10.588c0 .225-.021.459-.021.683-.26.44-.21.918-.11 1.386-.02.371-.06.752-.07 1.122-.141 3.865-.271 7.739-.422 11.604-.02.595 0 1.268-.883 1.346-.913.088-.934-.575-1.034-1.18a568 568 0 0 0-.672-3.865c.02-.868.03-1.737.08-2.596.351-5.865 1.255-11.681 1.787-17.536.24-2.596.261-2.596-2.369-2.947-.151-.02-.311-.02-.462-.02-.261 0-.422.098-.472.381a58 58 0 0 0-.883 7.338c-.12 1.308-.1 2.616.08 3.914.081 2.927.01 5.845-.1 8.773-.532 1.551-.05 3.22-.582 5.016-.402-.898-.251-1.63-.382-2.313.111-2.215-.05-4.421-.16-6.636-.201-3.982.05-7.954.15-11.925.04-1.123.091-2.255.111-3.377.04-1.893.03-1.893-1.887-2.293-1.295-.273-1.546-.078-1.667 1.22-.321 3.581-.331 7.182-.431 10.773-.231 3.172-.412 6.344-.03 9.515 0 .381-.04.761.02 1.132.16.976-.271 1.093-1.104.82-.713-.234-1.135-.839-1.777-1.161-2.88-1.454-5.62-3.152-8.25-4.977-8.382-5.836-16.08-12.384-22.414-20.357-3.493-4.382-6.815-8.861-8.331-14.326-.281-1.015-.803-2.049-.412-3.367 1.215 1.669 1.636 3.464 2.69 4.938.803 1.679 1.867 3.211 2.881 4.762 4.517 6.861 10.218 12.765 15.94 18.659.16.166.31.4.562.312.34-.126.18-.448.18-.692 0-1.396-.06-2.791-.04-4.187.04-2.635.11-5.279.883-7.836.08-.254 0-.674.472-.644.442.029.733.273.763.712.04.488.05.976.05 1.474 0 3.132-.09 6.265.231 9.378.19 1.844-.22 3.894 1.746 5.24 1.496 1.025 2.881 2.196 4.517 3.445 0-.624-.01-1.025 0-1.425.14-4.03.201-8.06.703-12.071.17-1.376.502-2.742.733-4.118.05-.303.14-.645-.311-.859-1.456-.683-1.687-.586-1.938.966-.08.488-.12.976-.18 1.454-.422 3.074-.171 6.177-.412 9.251-.06.791-.07 1.581-.472 2.303-.16.293-.31.654-.732.635-.432-.01-.532-.371-.643-.703-.27-.751-.381-1.532-.441-2.323-.322-4.02.22-7.982 1.033-11.896.201-.956-.1-1.278-.893-1.58-2.088-.791-4.055-1.825-5.992-2.899-.552-.312-1.405-.293-1.646-1.073-.03-1.581-.01-1.591 1.586-1.025 1.154.41 2.338.771 3.493 1.171 7.427 2.576 15.005 4.636 22.614 6.617a511 511 0 0 0 17.555 4.235c5.992 1.327 11.985 2.654 17.997 3.864 8.07 1.611 16.19 2.996 24.321 4.275 2.238.351 4.476.654 6.875 1.005-.552-1.298-.602-2.489-.692-3.679-.613-7.612-.251-15.214.351-22.806a579 579 0 0 1 2.188-22.036c.843-7.104 1.787-14.189 3.413-21.167.221-.946.03-1.317-.863-1.522-5.591-1.298-11.041-3.064-16.512-4.753-4.567-1.415-9.104-2.898-13.661-4.313A318 318 0 0 1 131.573 90c-6.776-2.468-13.501-5.094-20.266-7.611-5.912-2.206-11.784-4.509-17.575-7.007-.291-.596-.894-1.113-.462-1.874 1.235-.205 2.299.498 3.473.586.392.4.944.478 1.435.663 1.827.703 3.644 1.406 5.491 2.06 2.85 1.014 5.651 2.146 8.562 2.976 1.244.468 2.519.898 3.744 1.424.662.284.843.069.843-.517 0-1.951-.02-3.903-.02-5.855.371-.79.14-1.62.1-2.43-.171-3.074-.432-6.148-.562-9.222-.08-1.864-.251-3.757.201-5.611.17-.683.391-1.347 1.214-1.562.281 1.24.542 2.43.813 3.62.01 1.162.06 2.333.03 3.494-.15 5.983-.642 11.955-.542 17.947.01.8.211 1.093 1.014.927l-.02-.02zm11.563 90.239c.05-.458-.171-.644-.622-.771-1.727-.507-3.564-.605-5.26-1.229-.592-.215-.522.234-.532.556l-.211 8.227c-.18 1.493-.14 2.996-.11 4.489.01.644.271.995.964 1.171 1.716.429 3.432.868 5.089 1.454.772.273.873.078.843-.566-.071-1.386-.081-2.781-.191-4.157-.07-.84.241-1.708-.251-2.508.261-2.06.12-4.138.171-6.207.241-.107.2-.273.12-.459zm90.407 23.197c1.957.215 3.643-.361 5.129-1.61 1.325-1.113 2.479-2.362 3.543-3.709a90 90 0 0 0 6.002-7.182c3.182-3.572 6.545-6.968 8.351-11.535 1.125-2.83.813-5.016-1.716-6.089-1.526-.645-3.102-.537-4.627.126-2.389 1.035-4.517 2.469-6.484 4.119-3.845 3.23-7.348 6.801-10.74 10.481-.452.487-.854 1.707-1.616 1.21-.542-.361.261-1.347.612-1.972 2.891-5.133 6.966-9.28 11.593-12.959 2.64-2.089 5.47-3.777 8.963-4.109 3.433-.332 6.525 1.503 7.298 4.47.552 2.108-.151 4.089-.994 6.011-.321.722-.863 1.386-.823 2.293.692-.039 1.305-.087 1.927-.097 3.463-.029 5.962 1.552 7.026 4.528.843 2.391.111 4.694-.652 6.938-.773 2.284-1.927 4.402-3.222 6.451-.291.429-.522.908-.874 1.278-.481.518-.26.869.151 1.24 2.289 2.03 4.577 4.089 7.649 4.967 2.037.586 4.085.82 6.062-.224 2.871-1.289 4.718-3.24 2.158-6.441-3.081-3.874-6.464-7.495-9.475-11.418.13-.224.251-.439.381-.664l2.259 1.552c1.194 1.113 2.348 2.264 3.603 3.318 2.7 2.254 4.858 5.036 7.608 7.231 1.526 1.22 3.152 2.303 5.29 2.147 2.339.234 4.125-.771 5.591-2.41 1.365-1.532 1.335-3.182-.08-4.655-1.165-1.21-2.45-2.303-3.764-3.357-3.062-2.44-5.973-5.026-8.442-8.051-.672-.82-1.355-1.64-1.706-2.664-.141-.41-.111-.752.18-1.045.322-.322.673-.185 1.054 0 .914.44 1.697 1.035 2.49 1.64.632.908 1.596 1.493 2.389 2.254 2.489 2.401 5.008 4.802 8.06 6.548 1.686.967 3.473 1.679 5.43.625.15-.02.301-.039.451-.068.292.117.452-.03.573-.274 2.027-.673 3.352-2.088 4.296-3.884.411-.78.572-1.483-.161-2.254-.672-.712-1.134-1.61-1.726-2.401-5.33-7.104-11.523-13.496-17.616-19.976-.913-.976-1.807-1.961-2.71-2.947-.271-.293-.512-.634-.151-.986.301-.292.683-.341 1.064-.087.412.273.864.507 1.235.829 4.366 3.747 8.311 7.895 12.256 12.052 3.332 3.523 6.544 7.144 9.555 10.93 2.068 2.596 4.798 2.772 7.749 2.04 1.977-.488 3.021-1.835 3.322-3.777.442-2.772-.15-5.406-1.144-7.963-2.278-5.865-5.531-11.252-9.003-16.502-2.409-3.64-4.999-7.163-7.498-10.745-.301-.429-.753-.927-.191-1.395.562-.469 1.024.078 1.405.4.974.82 1.737 1.815 2.54 2.791 5.912 7.163 10.629 15.048 14.795 23.265.361.722.672 1.19 1.284.215 1.606-.635 3.303-1.23 4.588-2.313 1.023-.859 2.117-1.132 3.252-1.152 1.054-.019 1.214-.283 1.214-1.229.04-8.178-.291-16.356-.733-24.524a158 158 0 0 0-1.826-16.854c-.101-.615-.02-1.366-.733-1.766-.02-.566-.02-1.132-.06-1.688-.061-.937-.392-1.318-1.546-1.171-4.999.634-10.007 1.18-15.056.653-.321-.029-.783-.195-.974.118-.251.39.211.663.402.975a11.6 11.6 0 0 1 1.766 5.651c.02.41-.04.79-.512.888-.521.107-.491-.381-.612-.654-2.118-4.938-5.48-8.802-10.107-11.74-6.675-4.235-13.641-7.856-21.219-10.295-5.882-1.894-11.835-2.518-17.947-1.064-4.417 1.054-8.422 2.918-12.186 5.348-5.069 3.269-10.378 6.089-16.2 7.934-4.497 1.434-9.154 2.205-13.701 3.405-2.218.586-2.188.566-2.248 2.762-.03 1.025.281 1.337 1.355 1.142a171 171 0 0 0 10.87-2.293c1.305-.322 2.63-.605 3.955-.879.391-.078.813-.068.994.361.19.44-.191.605-.492.752-.442.224-.894.439-1.365.605-4.357 1.503-8.883 2.342-13.41 3.191-.412.078-1.104-.098-1.144.508-.051.663.592.897 1.164 1.073.221.068.462.059.692.098 4.768.722 9.315-.225 13.812-1.679.421-.137.973-.566 1.295.137.281.614-.111.995-.633 1.268-.311.156-.602.342-.923.469-4.557 1.776-9.265 2.342-14.123 1.581-1.776-.274-2.69-1.357-3.071-2.967-.311-1.327-.392-2.684-.462-4.04-.01-.312.05-.849-.502-.508-1.003.625-2.067 1.181-2.88 2.079-.292.322-.352.634-.241 1.034.883 3.367 2.68 6.139 5.661 8.12.441.624 1.174.673 1.827.849 2.971.81 6.002.624 9.013.312 8.873-.917 17.204-3.679 25.224-7.358 3.453-1.581 6.886-2.557 10.609-1.054a75 75 0 0 1 4.517 2.01c6.173 2.977 12.617 5.231 19.242 7.017 5.611 1.512 11.402 2.088 17.104 3.103l.321.225-.03.722c-.281.351-.673.419-1.094.507-1.355.264-2.731.078-4.096.186-.13-.069-.261-.176-.391-.186-3.945-.371-7.789-1.249-11.643-2.078-6.214-1.347-12.075-3.631-17.787-6.334-1.917-.907-3.703-2.118-5.791-2.674-.793-.517-1.546-1.083-2.379-1.522-.532-.283-1.154-.693-1.777-.117-1.786 1.395-3.764 2.518-5.811 3.484-9.174 4.342-18.82 7.094-29.038 7.719-2.741.166-5.461-.02-8.111-.898-1.375-.459-2.308-1.542-3.533-2.196-1.345-1.825-2.8-3.591-3.724-5.67-2.077-4.703-1.525-5.913 1.817-8.48.271-.205.703-.283.763-.8-1.225 0-2.369-.078-3.523-.215-2.53-.293-5.069-.537-7.608-.8-1.627-.712-2.118-.478-2.369 1.151-.141.898-.261 1.786-.392 2.684-.783 5.211-1.626 10.413-1.957 15.663-.321 5.026-.934 10.032-1.144 15.068-.151 3.688-.321 7.377-.261 11.076 0 .488-.06 1.112.682 1.063.653-.039 1.064.401 1.616.518.101.078.201.166.311.244.302.702.834 1.22 1.496 1.6.823 1.103 1.827 2.079 2.409 3.347 1.104 2.138 1.887 4.402 2.78 6.617 1.355 3.386 3.393 6.08 7.508 6.528.643.069 1.014-.048 1.104-.614.061-.361.281-.596.442-.888 1.867-3.231 3.513-6.597 5.691-9.652 2.088-2.81 4.186-5.621 7.056-7.748 2.399-1.776 5.009-2.85 8.101-2.167 2.66.586 4.065 2.45 3.774 5.006-.131 1.123-.462 2.206-.914 3.231-2.178 4.996-4.788 9.797-7.457 14.55-2.048 3.64-2.279 7.27-.623 11.027.904 2.05 2.239 3.719 4.848 3.728.321.361.713.498 1.185.371zm163.358-21.85c1.024 6.509 2.047 13.018 3.071 19.518.121-.02.241-.03.362-.049.22-.371.18-.791.18-1.201 0-1.883-.05-3.766.01-5.64.071-2.391-.11-4.792.281-7.163.322-3.084.141-6.168 0-9.251-.03-.713-.512-.615-.853-.459-.943.449-1.977.556-2.961.8-.712.176-.662.478-.592.917.14.849.321 1.689.482 2.528zm-168.789 1.132c2.269-3.738 4.226-7.622 5.491-11.798.431-1.406-.422-2.616-2.078-2.801-2.359-.254-4.226.839-5.801 2.322-4.758 4.45-8.261 9.798-11.323 15.439-.522.956-1.104 1.913-.863 3.084.452 2.166 3.483 4.616 5.792 4.655 1.134.439 1.816-.313 2.499-.957 1.265-1.19 2.158-2.654 3.011-4.128 1.114-1.922 2.439-3.747 3.272-5.826zm34.027 13.828c1.054-1.688 1.907-3.464 2.339-5.396.411-1.855.502-3.67-1.255-5.055-1.696-1.337-3.443-1.035-5.209-.215a8.6 8.6 0 0 0-2.289 1.532c-4.326 4.03-8.06 8.549-11.272 13.448-2.168 3.298.121 7.641 4.176 8.168.09.253.321.283.552.341 1.756.459 3.182-.234 4.466-1.288 2.52-2.059 4.236-4.762 6.063-7.358.924-1.317 1.877-2.645 2.419-4.177zm126.762 6.07c-2.178 2.596-4.497 4.577-6.936 6.431-.492.381-.582.849-.592 1.396-.04 4.108-.12 8.217-.12 12.325 0 4.177-.452 8.363.251 12.53.632 3.728 3.523 8.481 9.344 8.803 8.903.497 17.807.995 26.72 1.21 12.908.312 25.806.654 38.714 1.083 4.788.156 9.586.605 14.393-.078 4.598-.654 9.175-1.347 13.551-2.976 4.346-1.611 7.026-4.265 7.006-9.135-.02-4.664.341-9.339.442-14.013.331-16.698.652-33.385.913-50.082.552-35.503 1.064-71.005 1.576-106.518.05-3.435.09-6.88-1.004-10.197-1.134-3.445-3.071-6.324-6.775-7.632-1.375-.488-2.8-.82-4.216-1.19-5.4-1.406-10.91-2.333-16.491-2.528-6.354-.224-12.717-.039-19.071-.117-18.469-.254-36.908.039-55.286 1.922-5.51.566-8.281 2.264-9.003 8.266-.282 2.362-.452 4.733-.603 7.095-.461 7.3-.903 14.599-1.345 21.899-.291 4.85-.552 9.71-.823 14.56-.03.478-.221 1.122.693.79 1.766-.644 3.523-1.308 5.289-1.971.613-.225.854-.625.874-1.288.221-6.558.421-13.106.732-19.664.231-4.704.382-9.418 1.576-14.014 1.195-4.587 3.533-6.382 8.412-6.538 17.204-.547 34.418-.693 51.632-.937 9.234-.127 18.449.351 27.663.83 3.945.204 6.223 2.273 7.026 6.02 1.014 4.763 1.014 9.593 1.084 14.404.301 22.24-.442 44.471-.954 66.712-.532 23.362-.732 46.734-1.585 70.087-.151 4.021 0 8.09-1.365 11.974-.904 2.596-2.48 4.538-5.471 5.094-1.495.283-2.991.352-4.507.352-17.645.058-35.271-.81-52.887-1.542q-9.756-.396-19.512-.937c-3.102-.176-5.832-1.181-7.548-3.943-1.024-1.639-1.275-3.445-1.285-5.308-.01-4.285-.281-8.559-.502-13.185zM19.797 139.145c.19 11.115.381 22.611.582 34.097.31 17.976.572 35.951 1.405 53.917.16 3.338 1.757 5.68 4.708 7.261 2.84 1.522 5.921 2.391 9.093 2.957 4.648.819 9.275 1.834 14.053 1.444 4.868-.39 9.756-.468 14.634-.654 19.362-.732 38.764-.419 58.106-1.961 1.707-.137 3.383-.371 4.849-1.357 3.232-2.176 4.506-5.328 4.787-8.978.191-2.449-.03-4.899-.09-7.348-.211-9.349-.432-18.688-.642-28.037-.01-.449.06-.957-.482-1.171-2.078-.81-4.166-1.62-6.264-2.401-.491-.185-.802-.039-.802.566 0 .976-.081 1.962-.101 2.937-.191 6.48-.361 12.96-.572 19.44-.1 2.976-1.566 5.123-4.296 6.48-2.058 1.024-4.296 1.239-6.534 1.327-4.106.156-8.221.176-12.326.361-15.528.693-31.056 1.464-46.614 1.483-6.313 0-12.637.361-18.95 0-2.59-.146-4.417-1.405-5.641-3.591-.733-1.317-1.124-2.723-1.315-4.186-.602-4.646-.763-9.32-.863-13.985-.332-14.853-.693-29.696-.854-44.549-.31-29.93-1.154-59.85-.562-89.79.08-4.216.14-8.442.884-12.618.602-3.318 1.997-4.753 5.35-5.573 2.168-.527 4.366-.654 6.564-.741 13.952-.517 27.904-.615 41.866-.196 11.734.352 23.487.166 35.221 1.006 2.81.205 4.868 1.337 6.183 3.728.823 1.502 1.345 3.113 1.636 4.781.773 4.509.843 9.076 1.094 13.633.281 5.192.452 10.393.612 15.595.031.976.512 1.376 1.366 1.65 1.575.516 3.121 1.092 4.677 1.658.723.264.853.02.813-.663-.462-6.959-.903-13.916-1.335-20.874-.412-6.656-.612-13.331-1.395-19.957-.713-6.07-3.152-8.47-9.415-9.105-2.158-.215-4.326-.371-6.484-.527-6.454-.469-12.908-1.025-19.383-1.181a914 914 0 0 0-34.307-.176c-5.12.069-10.238.088-15.357.186-5.47.107-10.73 1.366-15.94 2.84-6.283 1.766-9.064 6.226-9.706 12.237-.311 2.928-.17 5.875-.06 8.812.341 8.89.783 17.78.984 26.671.39 18.054.792 36.108.823 54.542zm153.742 22.006c-.02 3.435-.02 6.86.261 10.286.08 1.044.08 2.107.572 3.083.422.83 1.656 1.503 2.6 1.308.993-.205.622-1.073.753-1.678.08-.401.12-.82.16-1.23.703-8.793.713-17.624 1.205-26.427.451-8.012 1.094-16.014 2.017-23.997.532-4.645 1.315-9.251 2.188-13.848.542-2.859.402-2.839-2.499-3.64-.873-.244-1.194-.019-1.395.762-.532 2.088-.853 4.206-1.205 6.323-1.315 8.042-2.178 16.132-2.941 24.241-.783 8.256-1.415 16.522-1.706 24.807zm195.658 16.16h-.271c0 3.387.01 6.773 0 10.159 0 .674.091.976.894.693 1.897-.654 3.814-1.22 5.721-1.825.632-.195.873-.585.893-1.259.111-4.254-.13-8.509.181-12.754.03-.469-.131-.781-.662-.596-1.938.674-3.975.937-5.963 1.435-.632.156-.863.449-.813 1.112.081 1.015.02 2.03.02 3.045zm36.476-11.915c.02.224.02.449.06.673.673 3.904.974 7.837 1.215 11.779.11 1.805.241 3.601.381 5.406.02.244-.13.791.352.605.983-.37 1.736-1.112 2.459-1.854.391-.4-.452-.556-.382-.995.051-.332-.03-.673-.06-1.015-.381-4.957-.06-9.934-.482-14.892-.04-.42.161-1.298-.572-1.044-1.003.351-2.308.107-2.981 1.22-.02.029 0 .078 0 .107zM95.559 182.874c-.08.429.07.712.491.917.442.225.844.537 1.275.771.321.166.532.732.944.478.341-.205.1-.702.1-1.054.01-6.031.14-12.052 1.074-18.024.341-2.167.382-2.108-1.817-2.655-.682-.165-.863-.097-.983.566-.161.889-.362 1.767-.392 2.674-.19 5.446.452 10.93-.692 16.337zm273.438 12.12h-.02c0 1.015-.021 2.04.01 3.055 0 .283-.181.663.14.829.331.176.562-.175.763-.371 2.027-1.912 4.045-3.845 6.073-5.757.24-.225.371-.478.381-.791.02-.946.04-1.883.05-2.83 0-.458-.07-.673-.672-.458a157 157 0 0 1-5.792 1.942c-.632.205-.974.497-.933 1.2.05 1.054.01 2.108.01 3.162zM91.102 179.351c.01 1.405.03 1.376 1.486 2.391.622.439.953.517.923-.371-.09-2.742.532-5.426.512-8.178-.02-3.376.09-6.763 1.084-10.061.301-.996-.723-.986-1.345-1.122-.512-.108-1.134-.547-1.275.575-.692 5.573-.492 11.203-1.375 16.766zm159.122 20.523c-.501-.84-1.124-1.532-1.746-2.245-.412-.468-.612-.371-.944.068-.682.898-1.425 1.757-2.148 2.626-.15.175-.331.351-.24.585.14.351.441.146.692.146 1.526 0 2.881-.634 4.386-1.19zm65.836-36.157c-.131.01-.261.03-.392.039.191 1.591.381 3.192.562 4.782.02-1.62.452-3.279-.17-4.83zm-134.983 2.752c.572-1.366 1.204-2.4.532-3.62-.301 1.083-.743 2.147-.532 3.62M24.183 236.586l.08.039v-.068z"/><path fill="#fff" d="M134.767 210.804c-.614-.614-.767-9.458-.767-13.804 5.624 3.067 16.871 9.969 16.871 13.037 0 3.834-2.3 4.601-3.834 5.368s-11.503-3.834-12.27-4.601"/><path fill="#000" d="M218.177 29.782c.271 3.269.502 6.343.773 9.417.612 6.978 1.204 13.965 2.048 20.933.15 1.268.281 2.557.612 3.786.682 2.567 3.001 4.02 6.133 3.962 2.981-.049 5.972-.136 8.953-.156 9.576-.078 19.151-.137 28.727-.195 3.493-.02 3.583-.108 4.467-3.494.602-2.322.873-4.733 1.806-6.987.321-.771.643-1.523 1.145-2.186.24-.322.501-.634.943-.498.472.137.291.576.251.879-.331 2.654-.944 5.26-1.546 7.865-.15.654-.351 1.308-.572 1.952-1.194 3.493-2.469 4.752-7.177 4.665-9.545-.176-19.071.058-28.606.117-3.413.02-6.815.185-10.228.273-2.961.078-5.812-1.386-6.605-3.523-.572-1.522-.662-3.162-.853-4.772-.853-7.231-1.345-14.482-1.827-21.743-.241-3.65-.411-7.3-.602-10.949-.02-.449-.03-.908 0-1.357.06-1.278.532-1.707 1.877-1.785 15.217-.82 30.453-.966 45.69-.986 5.159 0 10.298.43 15.407 1.103 2.62.341 2.46.302 2.911 2.84 1.847 10.315 1.817 20.708.934 31.1-.291 3.407-.833 6.783-2.239 9.974-.953 2.167-2.67 3.435-4.868 4.206-.241.088-.552.235-.732-.039-.131-.195.02-.43.21-.595 3.744-3.357 4.407-7.905 4.879-12.442.973-9.398.511-18.825.501-28.242 0-1.015 0-2.04-.02-3.055 0-.273.181-.644-.19-.81-.312-.136-.472.195-.673.342-5.882 4.245-11.764 8.47-17.626 12.745-3.964 2.888-7.899 5.835-11.824 8.763a24 24 0 0 0-2.097 1.776c-.743.693-1.295.625-2.078-.068-4.135-3.699-8.401-7.26-12.727-10.735-4.869-3.913-9.717-7.836-14.575-11.76-.11-.087-.251-.136-.582-.311zm3.744-1.337c-.06.244.09.312.211.4 8.552 6.129 16.822 12.57 24.22 20.015 1.154 1.162 1.184 1.162 2.529.098 5.079-4.011 10.339-7.797 15.558-11.633 3.804-2.79 7.639-5.523 11.453-8.295.291-.214.823-.38.703-.79-.121-.41-.653-.254-1.014-.283-1.195-.088-2.389-.195-3.594-.264-15.568-.897-31.136-.839-46.683.4-1.135.088-2.299 0-3.383.352M286.31 248.033c-.101 7.788-2.58 14.853-6.946 21.343-3.081 4.567-6.886 8.441-11.683 11.301-6.244 3.718-12.949 5.494-20.196 3.493-6.574-1.815-11.864-5.582-15.839-10.998-5.952-8.119-8.652-17.107-7.307-27.071 1.175-8.744 5.832-15.428 13.33-20.24 5.571-3.571 11.733-5.64 18.408-5.845 10.349-.312 18.449 3.981 24.662 11.886 3.744 4.762 5.691 10.1 5.561 16.131zm-11.372-20.034-.322-.254c-3.302-2.664-7.116-4.401-11.262-5.27-7.267-1.522-14.243-.234-20.917 2.723-2.701 1.19-5.099 2.81-7.408 4.713-2.66 2.196-4.778 4.646-6.304 7.641l.031.069c-1.074 1.952-1.737 4.05-2.409 6.148-.372.751-.412 1.542-.532 2.322.11.02.22.049.341.069.251-.791.512-1.591.763-2.381a780 780 0 0 1 2.359-5.143c.11-.108.22-.205.321-.313.251-.273.502-.722.913-.497.361.205.422.693.321 1.122-.03.146-.11.283-.16.42-1.134 3.386-2.399 6.733-3.383 10.158-1.385 4.831-.311 9.564 1.275 14.151 1.124 3.269 2.981 6.236 5.209 8.968 3.594 4.411 8.04 7.68 13.501 9.515 5.41 1.825 10.719.976 15.839-1.152 5.309-2.215 9.465-5.884 12.928-10.295 3.974-5.065 6.674-10.725 7.849-17.029.984-5.299.743-10.481-1.526-15.487-1.495-3.572-3.483-6.822-6.504-9.398a55 55 0 0 1-.853-.722l-.05-.078zM292.083 41c6.836.508 13.45 1.708 19.995 3.328 7.186 1.786 14.122 4.245 20.727 7.533 7.588 3.767 14.162 8.764 19.161 15.546 1.034 1.396 1.987 2.85 2.228 4.636.322 2.303.854 4.102-2.318 1.975-1.204-2.836-1.703-3.467-2.54-4.552-4.225-5.24-9.244-9.622-15.186-12.95-4.638-2.595-9.556-4.615-14.565-6.44-8.943-3.26-18.047-5.963-27.422-7.759-.602-.117-1.194-.312-1.786-.497-.221-.069-.412-.254-.372-.517.041-.293.312-.293.542-.293h1.526z"/><path fill="#000" d="M295.965 255.662c-.07 8.256-2.419 15.517-6.805 22.192-4.938 7.514-11.392 13.369-19.743 17.117-5.943 2.664-12.186 4.128-18.79 3.894-.271 0-.542 0-.813-.059-.312-.059-.834.049-.813-.42.02-.488.521-.302.833-.322 12.436-.771 23.086-5.308 31.808-14.072 3.583-3.601 6.605-7.543 8.833-12.062 3.272-6.665 4.607-13.672 3.844-21.03-.17-1.649-.411-3.289-.582-4.938-.03-.322-.321-.868.201-.956.411-.068.542.478.642.82.964 3.318 1.375 6.714 1.385 9.836M50.928 258.867c-.301-.156-.864.214-.924-.391-.05-.575.361-.722.873-.839 3.975-.878 8.03-1.278 12.075-1.62 16.492-1.376 33.023-1.893 49.575-2 1.245 0 2.519-.147 3.834.429-.411.449-.843.566-1.295.595-1.044.069-2.087.166-3.131.166-8.924.059-17.787 1.015-26.67 1.659-4.978.361-9.947.859-14.925 1.298-.422.039-.843.127-1.255.186-3.924.224-7.849.605-11.794.468-2.118-.068-4.235-.117-6.363.029zM317 271.388c28.215-1.405 56.41-3.328 84.685-1.864-2.609 1.025-82.678 2.898-84.685 1.864M307.771 254.203c-1.265-.029-2.73.166-4.015-.663-.341-.225-.843-.391-.743-.898.1-.488.622-.381.974-.41 2.389-.205 4.787-.322 7.176-.566 4.337-.429 8.502-1.61 12.668-2.771 5.249-1.464 10.398-3.231 15.517-5.095 4.316-1.571 8.532-3.366 12.708-5.25.281-.127.572-.224.863-.322.341-.117.743-.449 1.024 0 .271.43.11.859-.241 1.23-1.024 1.112-2.329 1.873-3.664 2.557-4.858 2.488-9.917 4.498-15.106 6.274-6.193 2.128-12.527 3.758-18.941 5.056-2.649.536-5.36.79-8.24.858zM379.558 267.101c-.773.078-1.486.195-2.198.215-9.104.322-18.218.41-27.322.273-2.831-.039-5.631-.585-8.462-.478-.23 0-.491 0-.562-.283-.07-.263.131-.429.322-.546.752-.469 1.535-.84 2.449-.976 2.509-.381 5.018-.342 7.538-.225 6.745.332 13.49.059 20.235.088 2.329 0 4.647.224 6.836 1.083.401.156.903.225 1.174.839zM197.214 24.298c.03.36-.02.703-.391.868-.341.157-.582-.078-.823-.263-1.897-1.454-3.403-3.289-5.119-4.918-3.323-3.162-6.745-6.217-10.369-9.066-1.144-.898-2.278-1.816-3.122-3.016-.311-.449-.612-.917-.16-1.434.421-.488.963-.557 1.576-.381.973.273 1.897.673 2.71 1.24 5.46 3.776 10.388 8.09 14.253 13.457.753 1.044 1.285 2.225 1.435 3.523zM316.983 258.254c-1.395-.029-2.8.029-4.155-.38-.352-.108-.884-.108-.823-.615.05-.439.542-.361.853-.4 6.956-.849 13.851-2.04 20.767-3.162 4.999-.81 9.947-1.942 14.976-2.557.733-.088 1.455-.195 2.198-.107.331.039.643.058.653.468 0 .371-.302.361-.563.43-4.617 1.278-9.244 2.498-13.931 3.522-5.631 1.24-11.313 2.216-17.074 2.635-.964.069-1.937.108-2.901.156z"/><path fill="#E62D32" d="M300.643 221.935c-.221.02-.402-.205-.582-.468-.954-1.454-1.898-2.918-2.891-4.353-.321-.468-.151-.79.211-1.064a594 594 0 0 1 6.323-4.733c.723-.536 1.325-.37 1.867.332 1.375 1.815 2.58 3.738 3.804 5.651.452.702.191 1.18-.472 1.59-2.067 1.288-4.416 1.864-6.715 2.567-.471.146-.943.302-1.555.488zm6.303-4.323c.352-.068.321-.312.171-.566-.763-1.337-1.526-2.684-2.309-4.011-.15-.263-.431-.595-.712-.264-1.185 1.337-2.941 2.021-4.096 3.387-.361.429.051 1.756.603 1.893.24.059.431-.117.311-.303-.743-1.063.321-1.376.833-1.844.612-.566 1.375-.966 1.987-1.532.502-.459.783-.322 1.064.166.512.878 1.024 1.747 1.516 2.635.14.253.261.458.632.449z"/><path fill="#000" d="M377.623 260.287c-.191.401-.552.274-.823.254-5.661-.361-11.312.049-16.953.254-5.51.195-10.901-.41-16.15-2.079-.693-.224-1.867-.331-1.676-1.21.2-.907 1.294-.341 1.877-.224 8.702 1.815 17.565 1.561 26.378 1.971 2.088.098 4.165.39 6.233.625.381.039.863-.03 1.114.4zM210.531 248.793c-.763.81-1.686.653-2.479.732-3.001.292-5.992.683-8.983 1.102-3.995.557-8.03.596-11.925-.771-.612-.214-1.174-.566-1.736-.878-.241-.127-.472-.332-.392-.634.081-.313.382-.322.663-.322.542 0 1.094-.049 1.626 0 7.066.771 14.152.819 21.239.507.612-.029 1.234-.039 1.987.254z"/><path fill="#E62D32" d="M287.014 222.891c-.09-.576.261-1.035.623-1.484 1.365-1.649 3.091-2.917 4.777-4.235.422-.332.613-.136.803.186a24.3 24.3 0 0 1 2.048 4.391c.151.429-.15.547-.462.751-1.565 1.035-3.362 1.611-5.079 2.333-1.525.634-2.71-.234-2.71-1.952zm3.493-2.069c-.03.546.121.986.753 1.054.261.029.633-.078.512-.42-.191-.497-.211-1.21-.813-1.376-.381-.107-.442.4-.452.742"/><path fill="#000" d="M187.444 40.99c-2.128-.02-4.256-.098-6.373-.372-1.295-.166-2.48-.546-3.544-1.297-.261-.186-.572-.313-.522-.654.061-.39.442-.361.743-.39 1.777-.206 3.553-.371 5.33-.215 3.322.302 6.615.77 9.847 1.6.22.059.451.117.662.195.251.098.552.195.502.527-.05.303-.351.4-.622.42-.964.078-1.928.156-2.901.185-1.044.03-2.098 0-3.142 0zM72.059 260.113c-.301.029-.602.068-.903.097-.282-.137-.523-.088-.723.166-.15.029-.291.059-.442.078-.19-.146-.351-.068-.502.078-6.213.566-12.456.742-18.66 1.405-.27.03-.702.196-.812-.195-.1-.351.27-.488.552-.624 1.134-.557 2.389-.752 3.583-1.132.14-.03.281-.059.432-.088.401-.02.833.117 1.204-.156 4.387-.498 8.803-.635 13.22-.742 1.084.107 2.157.224 3.242.332 0 .273-.01.546-.201.771zM212.34 64.503c0 .41-.211.644-.422.868-2.087 2.225-4.155 4.46-6.263 6.666a5.6 5.6 0 0 1-1.776 1.239c-.743.341-1.215-.069-1.657-.43-.461-.37-.1-.849.151-1.21 2.218-3.327 5.049-5.953 8.883-7.465.522-.205.984-.351 1.084.332M300.555 70.063c-.03.78-.482 1.054-1.154.83a6.1 6.1 0 0 1-1.626-.85c-2.309-1.707-4.588-3.454-6.866-5.191a4 4 0 0 1-.642-.644c-.221-.273-.362-.615-.191-.947.211-.42.612-.224.923-.156 3.473.81 6.495 2.362 8.733 5.143.431.537.763 1.132.813 1.815zM279 11.337c.211-2.489.913-4.85 1.957-7.114.603-1.298 1.215-2.596 2.128-3.718.191-.235.352-.586.713-.488.462.127.291.575.281.878-.05 1.405-.582 2.713-.984 4.03-.753 2.42-1.666 4.802-2.549 7.183-.171.458-.261 1.24-.924 1.122-.682-.117-.522-.907-.612-1.434-.02-.147 0-.303 0-.45zM291.018 20.606c-.431-.03-.773-.195-.953-.556-.181-.38.04-.644.381-.83 2.971-1.541 5.43-3.825 8.311-5.504.662-.38 1.496-1.239 2.228-.273.753.995-.341 1.562-.943 2.089-2.229 1.932-4.748 3.444-7.498 4.606-.492.205-1.024.312-1.526.458zM195.47 286.394c-.322 1.424-1.175 2.966-2.068 4.498-.612 1.035-1.275 2.04-1.897 3.074-.221.362-.392.84-.934.596-.502-.225-.652-.683-.532-1.24.382-1.737 1.104-3.347 1.837-4.967.522-1.142 1.044-2.264 2.128-3.035.321-.234.622-.458 1.044-.214.371.214.512.546.432 1.278zM185.685 280.641c0 1.083.021 2.068-.341 2.996-.14.351-.331.683-.823.683-.442 0-.632-.313-.753-.605a7 7 0 0 1-.461-1.62 35 35 0 0 1-.221-7.095c.02-.351-.101-.878.351-.986.492-.107.683.41.913.742.924 1.366 1.125 2.937 1.255 4.518.04.488.06.976.08 1.367M248.178 74.568c-.993 0-1.686.01-2.379 0-.311 0-.672-.039-.772-.38-.121-.4.19-.615.491-.81.743-.489 1.546-.869 2.419-1.064 1.757-.4 3.524-.43 5.29-.02.402.088.813.215 1.114.556.251.284.643.518.542.937-.11.478-.602.41-.963.44-2.008.136-4.015.253-5.722.35z"/><path fill="#fff" d="M54.483 260.049c-.14.03-.281.059-.432.088-.32-.537-.592-1.044-1.385-.458-.24.175-.793-.049-1.204-.088-.15-.371-.311-.732-.462-1.093 2.118-.147 4.236-.098 6.364-.03 3.944.127 7.859-.244 11.794-.468.451.488-.161.771-.241 1.161-4.417.108-8.823.234-13.22.742-.461-.381-.893-.586-1.204.156z"/><path fill="#000" d="M177.794 289.012c.823-.107 1.495.517 2.208 1.005 1.365.927 2.248 2.245 2.981 3.67.221.429.141.849-.17 1.132-.382.331-.653-.02-.974-.264-1.566-1.21-3.051-2.518-4.858-3.415-.492-.244-1.144-.566-.944-1.25.211-.702.894-.858 1.757-.878M292.472 286.679c-.592-.03-1.284.195-1.937-.186-.612-.361-.773-.771-.09-1.171 1.646-.966 3.403-1.532 5.38-1.249.502.078.913.283 1.074.722.171.478-.311.742-.612.996-1.074.927-2.429.77-3.815.888M280.889 279.123c.632.068 1.516.156 2.399.273.261.03.542.078.763.205.582.332 1.455.664 1.254 1.386-.21.781-1.134.459-1.736.381-1.305-.157-2.59-.43-3.734-1.123-.371-.224-1.004-.351-.793-.937.191-.527.733-.214 1.124-.234.151 0 .311.02.723.039z"/><path fill="#fff" d="M51.351 260.088c-.06.039-.12.088-.18.088s-.12-.059-.171-.088c.06-.029.11-.088.17-.088s.121.049.181.088M51.301 259.01c-.08.058-.16.107-.24.166l-.061-.088.301-.088zM291.804 132.404l-.321-.225c0-1.61-2.148-2.43-3.925-2.635-5.48-.624-10.78-1.893-15.809-4.167-3.332-1.502-6.554-3.23-10.067-4.342-4.116-1.308-8.231-2.655-12.617-2.791-4.808-.156-9.325 1.21-13.792 2.674-3.954 1.298-7.839 2.781-11.874 3.845-5.661 1.493-11.402 2.342-17.274 2.254a8.1 8.1 0 0 0-2.178.283c-2.981-1.991-4.768-4.753-5.661-8.119-.101-.401-.05-.713.241-1.035.813-.888 1.867-1.454 2.88-2.078.552-.342.492.195.502.507.06 1.356.141 2.713.462 4.04.381 1.61 1.295 2.694 3.071 2.967 4.869.761 9.566.195 14.123-1.581.321-.127.622-.312.923-.469.522-.273.914-.644.633-1.268-.321-.703-.873-.273-1.295-.137-4.487 1.454-9.034 2.401-13.811 1.679-.231-.039-.472-.03-.693-.098-.562-.176-1.205-.41-1.164-1.073.04-.605.742-.43 1.144-.508 4.527-.849 9.044-1.698 13.41-3.191.472-.166.923-.381 1.365-.605.301-.146.682-.312.492-.751-.191-.43-.603-.44-.994-.362-1.325.274-2.64.557-3.955.879-3.603.888-7.227 1.63-10.87 2.293-1.064.195-1.385-.117-1.355-1.142.06-2.195.03-2.176 2.248-2.761 4.547-1.201 9.204-1.981 13.701-3.406 5.822-1.854 11.122-4.665 16.2-7.934 3.764-2.43 7.769-4.294 12.186-5.348 6.113-1.454 12.065-.82 17.947 1.064 7.578 2.439 14.544 6.06 21.219 10.295 4.637 2.938 7.999 6.802 10.107 11.74.121.273.091.761.613.654.471-.098.532-.478.511-.888a11.57 11.57 0 0 0-1.766-5.65c-.191-.303-.653-.586-.402-.976.191-.303.653-.147.974-.117 5.049.527 10.067-.02 15.056-.654 1.144-.147 1.476.234 1.546 1.171.04.566.04 1.132.06 1.688.04.781.452 1.571.171 2.323-.412 1.083-.452 2.205-.623 3.318-.592 4.001-.582 8.031-.461 12.062.03.907-.111 1.375-1.225 1.346-1.335-.039-1.576.312-1.636 1.62-.161 3.299.271 6.539.974 9.739.19.879.05 1.211-.944 1.142-.923-.058-1.556.381-1.656 1.357-.05.449-.1.898-.171 1.337-.321 2.01.472 4.011-.391 6.109-.833 2.01-.231 4.323-.301 6.499-.02.459.341.644.502.966-.613.976-.914.508-1.285-.215-4.166-8.216-8.883-16.092-14.795-23.265-.803-.966-1.566-1.971-2.54-2.791-.381-.322-.843-.868-1.405-.4-.552.459-.11.966.191 1.396 2.499 3.581 5.089 7.104 7.498 10.744 3.483 5.251 6.725 10.628 9.003 16.502.994 2.567 1.586 5.192 1.144 7.964-.311 1.942-1.345 3.288-3.322 3.776-2.951.732-5.691.547-7.749-2.039-3.011-3.787-6.223-7.407-9.555-10.93-3.935-4.157-7.89-8.305-12.256-12.052-.371-.322-.823-.557-1.235-.83-.381-.244-.762-.195-1.064.088-.361.351-.12.693.151.986.893.985 1.797 1.981 2.71 2.947 6.083 6.48 12.276 12.872 17.616 19.976.592.791 1.054 1.688 1.726 2.401.723.771.572 1.473.161 2.254-.954 1.805-2.269 3.22-4.296 3.884-.301-.137-.482-.029-.572.273-.151.02-.302.039-.452.069-1.305-.527-2.73-.81-3.945-1.552-3.463-2.118-6.634-4.636-9.917-6.997-.602-.439-1.134-1.054-2.027-.888-.783-.605-1.576-1.21-2.49-1.64-.381-.175-.732-.312-1.053 0-.281.283-.322.635-.181 1.045.351 1.024 1.034 1.844 1.706 2.664 2.459 3.025 5.37 5.621 8.442 8.051 1.325 1.054 2.599 2.137 3.764 3.357 1.415 1.473 1.445 3.132.08 4.655-1.465 1.639-3.252 2.644-5.591 2.41.171-.566.271-1.093-.542-1.308-.271-.078-.512-.331-.733-.536-3.242-2.908-6.434-5.856-9.716-8.715-2.067-1.805-4.266-3.484-6.725-4.792-.331-.175-.632-.4-1.144-.068.592.439 1.114.81 1.616 1.2.512.391.913.83.743 1.533l-2.259-1.552c-.19-.39-.532-.39-1.104-.459.372.459.241.937.723 1.113 3.011 3.923 6.394 7.553 9.475 11.418 2.55 3.21.713 5.152-2.158 6.44.02-.39.02-.663-.552-.683-2.84-.088-5.079-1.542-7.277-3.113-1.676-1.2-2.921-3.035-5.149-3.464 1.285-2.049 2.449-4.177 3.222-6.451.763-2.244 1.495-4.557.652-6.938-1.054-2.986-3.563-4.567-7.026-4.528-.612 0-1.234.058-1.927.097-.04-.907.502-1.571.823-2.293.853-1.932 1.546-3.904.994-6.011-.773-2.967-3.865-4.802-7.297-4.47-3.493.332-6.334 2.02-8.964 4.109-4.627 3.669-8.692 7.826-11.593 12.959-.351.625-1.164 1.61-.612 1.971.763.498 1.164-.712 1.616-1.21 3.392-3.679 6.895-7.25 10.74-10.481 1.967-1.659 4.095-3.083 6.484-4.118 1.526-.663 3.101-.771 4.627-.127 2.529 1.064 2.841 3.26 1.716 6.09-1.816 4.567-5.169 7.963-8.351 11.535-.762-.693.412-1.123.241-1.776-.662.185-1.094.614-1.515 1.112-1.917 2.264-3.784 4.597-6.023 6.548-2.469 2.147-4.978 4.294-8.02 5.719-.22.107-.512.215-.542.537-2.619-.01-3.944-1.689-4.848-3.728-1.656-3.748-1.425-7.388.623-11.028 2.67-4.752 5.279-9.553 7.457-14.55.452-1.034.783-2.118.914-3.23.291-2.567-1.104-4.421-3.774-5.006-3.092-.674-5.702.4-8.1 2.166-2.881 2.127-4.969 4.938-7.057 7.749-.401-.186-.732-.127-1.034.214-1.947 2.235-3.844 4.509-5.37 7.046-1.134 1.903-1.405 1.932-2.75.117-1.586-2.127-3.071-4.333-4.747-6.392-.984-1.2-1.898-2.605-3.644-2.976-.582-1.269-1.586-2.245-2.409-3.348.472-.419.713-.917.753-1.561.11-1.874.211-3.757.472-5.611.23-1.64-.101-3.24-.061-4.86.141-6.48.643-12.931.763-19.41.101-5.426-.321-10.842-.311-16.268 0-.488-.08-.996.412-1.337 2.539.263 5.068.507 7.608.8a29 29 0 0 0 3.523.215c-.06.517-.502.595-.763.8-3.332 2.566-3.894 3.767-1.817 8.48.924 2.089 2.369 3.845 3.724 5.67.02.371-.03.761.271 1.064 1.305 1.337 2.63 2.645 4.356 3.484 3.885 1.883 8.04 1.961 12.146 1.327 6.735-1.034 13.239-2.976 19.552-5.484 2.962-1.181 6.003-2.362 8.091-4.89.883-1.063 2.077-2.039 2.067-3.62.633-.576 1.255-.166 1.777.117.833.439 1.596 1.005 2.379 1.522.09.156.14.352.261.479 2.128 2.205 4.486 4.079 7.197 5.601 8.321 4.655 17.314 6.138 26.769 5.602.492-.03.994-.049 1.385-.4 1.365-.098 2.741.078 4.096-.186.421-.078.813-.156 1.094-.498.461-.224.532-.458.03-.722zm-52.807 37.425c1.084-.03 1.877-.439 2.439-1.23.763-1.083.241-2.108-1.114-2.196-1.034-.068-1.977.283-2.83.81-.472.293-.773.732-.653 1.328.121.614.512.995 1.114 1.141.372.088.763.098 1.044.137zM406.907 75c-.04 1.844.723 3.523 1.275 5.23 2.469 7.564 4.597 15.215 6.675 22.885 2.81 10.354 5.289 20.786 7.508 31.267 1.254 5.924 2.328 11.877 3.111 17.869.321 2.478-.191 4.791-1.847 6.792-.421.371-.853.741-1.274 1.122-.552.488-1.044.546-1.456-.156.502-.4.733-.927.703-1.552-.05-1.025-.633-1.444-1.586-1.044-7.187 2.957-14.775 4.626-22.293 6.499-9.706 2.411-19.453 4.665-29.249 6.666-10.288 2.107-20.597 4.176-30.985 5.796-5.421.849-10.841 1.767-16.311 2.255-2.77.244-2.56.692-2.65-2.264-.361-11.408-.582-22.826-1.004-34.244-.361-9.759-1.505-19.449-3.161-29.081-.101-.596-.241-1.181-.322-1.776-.291-2.196.974-3.728 3.232-3.923.572-.049.583.351.673.722.602 2.459.863 4.977 1.224 7.475 1.707 11.759 2.821 23.577 3.644 35.415.492 7.026.913 14.072.13 21.118-.12 1.083-.351 2.156-.521 3.24-.041.234-.261.556.08.702.361.147.542-.195.712-.429.984-1.366 1.305-2.957 1.526-4.558.813-5.894.562-11.808.161-17.721-.522-7.71-1.034-15.419-2.028-23.08-.973-7.544-1.766-15.116-3.473-22.553-.13-.556.05-.741.552-.858 6.826-1.542 13.531-3.494 20.236-5.465 5.099-1.493 10.198-3.006 15.216-4.772 3.664-1.288 7.368-2.479 11.011-3.796 5.942-2.157 11.774-4.577 17.556-7.095 6.464-2.8 12.968-5.543 19.271-8.695 1.235-.615 2.419-1.318 3.624-1.981zm14.213 76.548c.502-.605.903-1.22.381-2.04-.532.215-.913.586-1.415.801-6.303 2.732-12.978 4.391-19.563 6.274-6.303 1.806-12.717 3.25-19.131 4.636-7.699 1.669-15.307 3.698-23.156 4.684-.994.127-2.008.264-2.821.937-.331.273-.953.449-.732.995.19.469.773.469 1.234.41 2.339-.283 4.728-.419 7.016-.917 10.118-2.215 20.145-4.782 30.283-6.919 6.825-1.444 13.621-3.064 20.245-5.231 2.399-.78 4.758-1.737 6.916-3.084.873.976 1.757 1.952 2.63 2.928-.412-1.151-1.064-2.186-1.476-3.328-.03-.078-.271-.097-.411-.136zm1.064-11.691c-1.566 1.542-3.603 2.283-5.511 3.22-4.466 2.196-9.104 4.011-13.821 5.651-6.033 2.088-12.075 4.167-18.318 5.582-6.555 1.493-13.149 2.781-19.724 4.186-1.656.361-3.292.839-4.938 1.279-.291.078-.663.214-.542.595.1.322.462.215.713.195a27 27 0 0 0 1.957-.273c5.129-.957 10.248-2.04 15.397-2.869 6.233-1.005 12.396-2.294 18.429-4.109 5.831-1.756 11.533-3.884 17.043-6.47 2.61-1.229 5.29-2.352 7.498-4.225.853-.722 1.626-1.562 1.817-2.762m-65.895-35.327c1.304.059 2.449-.137 3.593-.341 5.149-.957 9.847-3.055 14.464-5.358 7.287-3.63 14.534-7.348 21.921-10.784 1.807-.839 3.674-1.6 5.3-2.771.351-.254.753-.556.482-1.015-.261-.449-.673-.42-1.205-.224-5.952 2.176-11.693 4.84-17.364 7.621-5.471 2.684-10.871 5.495-16.411 8.051-3.433 1.591-7.006 2.733-10.69 3.591-.652.157-1.787.205-1.706 1.006.05.546 1.154.078 1.616.224m-20.366 56.611c0 1.659.13 3.298.472 4.928.13.605.331 1.259 1.043 1.337.753.088 1.044-.576 1.255-1.132 1.044-2.606 1.315-5.319.944-8.08-.121-.859-.663-1.552-1.616-1.659-.994-.117-1.426.644-1.747 1.366-.452 1.025-.331 2.137-.351 3.23zm-6.033.859c0 1.434.071 2.859.412 4.254.17.684.411 1.552 1.104 1.552.703 0 1.074-.868 1.325-1.542.432-1.132.582-2.332.763-3.513.211-1.347.18-2.703.08-4.06-.07-1.005-.612-1.766-1.686-1.854-1.064-.088-1.365.752-1.626 1.581-.372 1.171-.392 2.372-.392 3.572zm16.14-1.796c0-.79 0-1.571-.23-2.342-.221-.752-.683-1.347-1.446-1.415-.793-.078-1.315.546-1.676 1.19-.161.283-.191.645-.221.976-.221 2.147-.11 4.284.1 6.422.051.517.231 1.024.402 1.512.291.81.773.732 1.275.186.221-.254.411-.547.552-.849.883-1.796 1.164-3.718 1.244-5.68"/><path fill="#fff" d="M376.397 195.753c.221 4.616.492 8.9.502 13.184 0 1.864.261 3.67 1.285 5.309 1.726 2.762 4.456 3.767 7.548 3.943 6.504.37 13.008.673 19.513.936 17.625.723 35.241 1.591 52.887 1.542 1.515 0 3.011-.078 4.506-.351 2.991-.556 4.557-2.498 5.471-5.094 1.355-3.884 1.214-7.953 1.365-11.974.853-23.353 1.054-46.725 1.586-70.088.502-22.23 1.244-44.46.953-66.71-.06-4.822-.07-9.652-1.084-14.405-.803-3.747-3.071-5.816-7.026-6.021-9.214-.478-18.429-.956-27.663-.83-17.214.244-34.428.39-51.632.937-4.878.157-7.217 1.962-8.412 6.539-1.194 4.596-1.355 9.32-1.575 14.013-.312 6.548-.512 13.106-.733 19.664-.02.664-.261 1.064-.873 1.288-1.767.654-3.523 1.328-5.29 1.972-.913.332-.713-.322-.693-.79.271-4.85.532-9.71.823-14.56.432-7.3.874-14.6 1.345-21.9.151-2.37.322-4.742.603-7.094.712-6.002 3.493-7.7 9.003-8.266 18.379-1.883 36.827-2.166 55.286-1.922 6.354.087 12.727-.098 19.071.117 5.581.195 11.081 1.112 16.491 2.527 1.416.371 2.841.703 4.216 1.19 3.704 1.309 5.631 4.187 6.775 7.632 1.094 3.309 1.054 6.763 1.004 10.198-.522 35.503-1.034 71.005-1.576 106.517-.261 16.698-.582 33.395-.913 50.082-.09 4.675-.462 9.34-.442 14.014.03 4.87-2.66 7.514-7.006 9.134-4.376 1.63-8.943 2.313-13.55 2.977-4.808.683-9.596.234-14.394.078-12.898-.43-25.806-.771-38.714-1.083-8.913-.215-17.816-.713-26.72-1.21-5.821-.332-8.712-5.075-9.344-8.803-.713-4.167-.251-8.353-.251-12.53 0-4.109.08-8.217.12-12.326 0-.536.101-1.014.592-1.395 2.439-1.854 4.748-3.845 6.936-6.431zm47.196-156.97c-4.145-.068-8.291.127-12.436.254-.773.02-1.556.078-2.279.36-.642.255-1.244.655-1.124 1.396.11.664.672 1.084 1.385 1.19a17 17 0 0 0 1.847.186c3.874.069 7.749.147 11.623.176 4.497.039 8.994.039 13.491.049.542 0 1.084 0 1.626-.059 1.144-.127 1.836-.761 1.806-1.698-.04-1.083-.853-1.317-1.766-1.405-4.718-.43-9.445-.361-14.173-.44zm-2.961 187.515c-2.55.147-4.828.254-6.956 1.181-1.445.634-2.007 2.03-1.255 3.113.392.566.954.976 1.586 1.298 2.459 1.278 5.149 1.61 7.849 1.776 3.283.195 6.585.273 9.717-1.015 1.054-.439 2.037-1.034 2.087-2.313.051-1.317-1.043-1.825-1.997-2.391-.13-.078-.291-.107-.432-.165-3.493-1.347-7.176-1.406-10.589-1.494zM19.936 138.375c-.04-18.444-.431-36.498-.823-54.542-.19-8.89-.642-17.78-.984-26.67-.11-2.938-.25-5.885.06-8.813.633-6.011 3.423-10.461 9.707-12.237 5.21-1.474 10.479-2.733 15.94-2.84 5.118-.098 10.237-.117 15.356-.185a893 893 0 0 1 34.308.175c6.474.157 12.928.713 19.382 1.181 2.168.156 4.326.312 6.484.527 6.264.634 8.703 3.035 9.415 9.105.773 6.636.984 13.301 1.395 19.957.432 6.958.874 13.916 1.335 20.874.051.683-.09.937-.813.663-1.555-.566-3.101-1.141-4.677-1.659-.853-.283-1.325-.673-1.365-1.649-.161-5.201-.331-10.403-.612-15.594-.251-4.548-.322-9.115-1.094-13.633-.281-1.67-.803-3.28-1.637-4.782-1.314-2.391-3.372-3.533-6.183-3.728-11.723-.84-23.477-.654-35.22-1.005-13.963-.41-27.915-.312-41.866.195-2.209.078-4.407.215-6.565.742-3.352.82-4.758 2.254-5.35 5.572-.753 4.177-.803 8.402-.883 12.618-.602 29.93.25 59.86.562 89.791.15 14.853.512 29.696.853 44.549.1 4.664.261 9.348.863 13.984.191 1.464.582 2.869 1.315 4.186 1.225 2.196 3.052 3.455 5.641 3.592 6.314.351 12.637 0 18.95 0 15.549-.02 31.077-.791 46.614-1.484 4.106-.185 8.221-.205 12.326-.361 2.249-.088 4.477-.302 6.535-1.327 2.73-1.356 4.205-3.503 4.296-6.48.21-6.48.381-12.959.572-19.439.03-.976.1-1.962.1-2.938 0-.605.311-.751.803-.566q3.147 1.171 6.263 2.401c.542.215.472.712.482 1.171.211 9.349.432 18.688.643 28.037.06 2.449.281 4.899.09 7.348-.281 3.65-1.556 6.802-4.788 8.978-1.465.986-3.142 1.22-4.848 1.357-19.332 1.542-38.734 1.23-58.106 1.961-4.879.186-9.767.264-14.635.654-4.778.381-9.405-.624-14.052-1.444-3.172-.566-6.243-1.435-9.094-2.957-2.94-1.571-4.547-3.913-4.707-7.26-.834-17.966-1.095-35.942-1.406-53.918-.2-11.496-.391-22.991-.582-34.097zm53.9-98.017v-.127h12.778c.894 0 1.777-.088 2.64-.332.592-.166 1.054-.468 1.084-1.151.04-.664-.431-.898-.943-1.132-.432-.205-.874-.273-1.345-.322-5.641-.527-11.292-.45-16.953-.459-3.604 0-7.207.03-10.8.273-1.446.098-1.998.82-1.637 2.098.291 1.064 1.265 1.132 2.148 1.132 4.336.03 8.673.01 13.009.01zm4.237 184.285c-2.35.107-5.1.273-7.78.927-1.385.342-2.77.732-3.774 1.835-.742.829-.742 1.581.02 2.4.814.879 1.867 1.318 3.022 1.581 4.828 1.113 9.616.771 14.383-.351 1.165-.273 2.299-.693 3.232-1.464 1.536-1.259 1.416-2.605-.3-3.62-.362-.215-.764-.371-1.165-.508-2.349-.781-4.798-.81-7.638-.82z"/><path fill="#fff" d="M21.578 234.476c-1.697-1.649-2.76-3.571-3.042-5.933-.582-4.918-.502-9.856-.692-14.785-.723-19.283-.673-38.586-.954-57.879-.13-8.558-.24-17.107-.432-25.666-.481-21.742-1.134-43.475-1.415-65.217-.07-5.807-.18-11.623.823-17.371.582-3.347 1.737-6.51 4.989-8.432.16-.097.29-.244.512-.175.02.068.07.166.05.175-3.212 2.547-4.065 6.139-4.437 9.847-.562 5.64-.381 11.3-.21 16.95.592 18.913 1.003 37.826 1.124 56.748.1 15.224.562 30.448.783 45.662.2 13.681.522 27.353.893 41.035.18 6.705.582 13.399.944 20.103.09 1.581.461 3.133 1.445 4.47-.22.088-.331.254-.381.478zM481.031 42.01c2.409 3.542 3.272 7.534 3.443 11.681.462 11.72.291 23.44.121 35.161-.452 32.37-1.004 64.74-1.155 97.119-.06 12.892-.431 25.773-1.014 38.655-.11 2.469-.1 4.977-1.234 7.3-.632 1.298-1.586 2.351-2.68 3.288-.08.069-.291 0-.512 0 .06-.146.08-.244.13-.312 1.998-2.205 2.028-4.918 2.138-7.631.653-15.741.954-31.492 1.265-47.243.522-25.851.914-51.702 1.164-77.553.131-14.013.573-28.037.603-42.05 0-3.845.07-7.69-.603-11.506-.411-2.323-1.184-4.509-2.228-6.616.101-.244.311-.303.552-.303zM174.014 161.228c.291-8.285.923-16.551 1.706-24.807.763-8.1 1.626-16.2 2.941-24.241.341-2.118.673-4.245 1.205-6.324.2-.79.522-1.005 1.395-.761 2.911.8 3.041.781 2.499 3.64-.873 4.597-1.656 9.203-2.188 13.848-.924 7.983-1.566 15.975-2.018 23.997-.501 8.802-.501 17.634-1.204 26.427a8 8 0 0 1-.161 1.229c-.13.605.241 1.474-.752 1.679-.944.195-2.179-.478-2.6-1.308-.492-.976-.492-2.049-.572-3.084-.281-3.425-.271-6.85-.261-10.285zM236.01 200.85c-4.055-.527-6.343-4.87-4.175-8.169 3.212-4.898 6.946-9.417 11.272-13.447a8.5 8.5 0 0 1 2.288-1.532c1.777-.82 3.513-1.123 5.21.214 1.756 1.386 1.666 3.201 1.254 5.055-.431 1.933-1.284 3.719-2.338 5.397-.281-.078-.552-.302-.813.068-1.647 2.343-3.935 4.128-5.872 6.227-2.078 2.244-3.553 5.172-6.826 6.187m12.417-19.508c.06-1.142-.492-1.659-1.536-1.552-1.456.147-2.53.986-3.594 1.864-.712.586-1.023 1.181-.451 2.03.582.849 1.275 1.073 2.268.634.994-.449 1.907-.956 2.7-1.688.412-.39.653-.83.623-1.278zM206.848 185.536c-2.309-.039-5.34-2.488-5.792-4.655-.241-1.171.341-2.127.863-3.083 3.062-5.641 6.565-10.989 11.322-15.439 1.586-1.483 3.443-2.576 5.802-2.322 1.646.175 2.499 1.385 2.078 2.8-1.275 4.187-3.222 8.061-5.491 11.799-.461.127-.773.449-1.084.79-2.007 2.235-3.583 4.782-5.35 7.183-.742 1.005-1.565 1.961-2.348 2.937zm7.357-21.586c.01.732 1.004 1.591 1.827 1.591.873 0 2.188-1.279 2.208-2.147.02-.664-.823-1.367-1.576-1.337-1.064.049-2.469 1.132-2.449 1.893zM108.359 189.109c-.191.107-.241.439-.512.371-.271-.069-.201-.361-.231-.566-.12-1.093-.07-2.284-1.616-2.508.12-2.928.181-5.846.1-8.774.141 0 .392.03.412-.019.221-.498.1-1.142.723-1.454-.101-.059-.191-.107-.291-.166l-.011-.01c.071-.283.261-.595.181-.829-.191-.576.211-1.64-1.084-1.435.141-2.459.432-4.908.883-7.338.051-.283.221-.381.472-.381.151 0 .311 0 .462.02 2.63.351 2.61.351 2.369 2.947-.542 5.845-1.436 11.661-1.787 17.536-.05.869-.05 1.728-.08 2.596zM393.031 194.056c-.471.039-.461-.361-.421-.575.08-.391-.081-.742-.05-1.113.06-.703-.191-1.493-.874-1.415-.542.059-1.074.791-1.054 1.571.02.635.041 1.279-.22 1.884-.091.205-.231.283-.412.351.903-7.3 1.275-14.628.662-21.967-.1-1.239-.281-2.469-.421-3.699-.151-1.376 1.094-.673 1.646-.995.482-.293.713.117.793.615 1.114 7.065 1.275 14.16.612 21.274-.351.117-.411.283-.1.517-.151 1.181-.321 2.372-.171 3.572zM384.063 65.078c.211-.136.421-.068.632.01.602.908 1.446 1.698 1.456 2.889.291 2.537.411 5.074.451 7.621.03 1.6.271 3.201.432 4.802.02.234 0 .595.381.566.271-.02.281-.274.251-.527-.271-2.362-.06-4.733-.1-7.095 0-.303-.02-.605.211-.85l.602 7.066c.03.303.04.605.12.888.191.664.051 1.015-.712 1.24-.984.283-1.897.77-2.851 1.16-.813.333-.753-.204-.783-.731-.301-5.045-.06-10.08-.09-15.126v-1.923zM369.075 195.392c0-1.054.04-2.108-.01-3.162-.03-.702.311-1.005.933-1.2 1.937-.625 3.885-1.249 5.792-1.942.602-.225.682 0 .672.459 0 .946-.03 1.883-.05 2.83 0 .312-.14.566-.381.79-2.028 1.913-4.045 3.845-6.073 5.758-.211.195-.432.536-.763.371s-.14-.547-.14-.83c-.03-1.015-.01-2.03-.01-3.054h.02zM436.645 153.404c.622.234 1.014-.459 1.676-.4-.994 5.591-3.724 10.285-7.468 14.784-.05-.722-.301-1.054-.853-1.083 2.61-3.669 4.708-7.592 6.043-11.877.16-.507.592-.878.592-1.424zm-5.451 12.832s.061-.009.081-.029c.01 0 .01-.039.02-.058a1 1 0 0 0-.091.097c-.03.01-.06.02-.08.029-.01 0-.01.04-.02.059.03-.039.06-.068.09-.107zM112.01 80.948c1.054-.966 1.205-2.303 1.616-3.543.141-.439.321-.966 1.004-.595.05.195.1.38.16.576a4.5 4.5 0 0 0-.19 2.547c.04-.937.702-1.63.963-2.47.081-.458.151-.907.231-1.365.281.146.552.195.773-.098 0 1.952.02 3.903.02 5.855 0 .596-.181.8-.843.517-1.225-.526-2.489-.956-3.744-1.424zM119.528 59.01c.943 1.288.672 2.79.612 4.186-.04 1.005-.1 2.02-.11 3.026-.02 4.01-.743 7.992-.492 12.013.07 1.063-.151 2.156.492 3.132-.803.166-.994-.117-1.014-.927-.11-5.992.381-11.964.542-17.946.03-1.162-.02-2.333-.03-3.494zM403.783 73.975a7.4 7.4 0 0 0-.572-2.742c-.291-.693-.372-1.396.361-1.923.542-.4 1.094-.468 1.506.127.722 1.054 1.636 2 1.987 3.27-1.044.546-2.118 1.024-3.282 1.268M377.054 63c.281.264.271.615.251.947-.201 3.425-.532 6.85-.582 10.285-.051 3.475-.542 6.93-.301 10.403.02.361.17.722.261 1.084-.211.282-.512.36-.683.4v-5.856q.407-.336.03-.702c.141-3.406.151-6.822.452-10.208.19-2.118.281-4.245.582-6.353z"/><path fill="#fff" d="M119.004 81.813c.612.04 1.224-.02 1.826.215.753.283 1.135-.556 1.024-.8-.451-1.015.532-2.07-.19-3.016.883-1.737-.583-3.435-.071-5.201.251-.859-.16-1.766-.341-2.645-.11-.527-.211-1.054.422-1.366.431 3.894.662 7.797.813 11.71.03.889.04 1.786.261 2.811-1.125-.673-2.279-.868-3.333-1.288-.191-.078-.482-.088-.401-.42zM221 195.326c.391-.683 1.154-.518 1.747-.674 2.439-.644 3.954-2.459 5.661-4.04.381-.351.712-.663 1.264-.605-1.064 1.337-2.228 2.596-3.543 3.708-1.485 1.25-3.162 1.825-5.129 1.611M94 73.28c.12-.137.23-.391.361-.41 1.094-.088 1.666-.85 2.259-1.591a3.2 3.2 0 0 1 .471-.498c.392-.303.703-1.073 1.275-.664.442.322-.25.742-.401 1.132-.311.85-.693 1.67-.492 2.606-1.174-.088-2.248-.79-3.473-.586zM224.013 29.189c1.036-.308 2.128-.23 3.202-.308 14.719-1.075 29.457-1.135 44.195-.35 1.131.06 2.261.154 3.402.23.351.027.845-.11.959.248.114.36-.389.513-.665.692-3.611 2.425-7.25 4.815-10.842 7.257-4.941 3.355-9.92 6.667-14.728 10.176-1.274.93-1.312.93-2.395-.085-7.003-6.514-14.833-12.157-22.928-17.51-.115-.077-.257-.137-.2-.35"/><path fill="#E62D32" d="M228.097 237.715c1.526-2.996 3.644-5.446 6.304-7.642 2.298-1.903 4.707-3.522 7.407-4.713 6.675-2.947 13.641-4.235 20.918-2.723 4.155.869 7.96 2.606 11.262 5.27-.111.342.14.254.321.254l.05.078c.191.351.342.741.853.722-.13.342.121.556.281.81 1.064 1.63 2.389 3.064 3.453 4.694.874 1.327 1.526 2.81 2.761 3.894 2.268 4.996 2.509 10.188 1.525 15.487-1.164 6.304-3.864 11.954-7.849 17.029-3.463 4.411-7.618 8.09-12.928 10.295-5.119 2.138-10.429 2.977-15.839 1.152-5.46-1.835-9.907-5.104-13.5-9.515-2.229-2.732-4.085-5.699-5.21-8.968-1.576-4.577-2.65-9.31-1.274-14.15.983-3.426 2.238-6.773 3.382-10.159.05-.147.131-.274.161-.42.1-.429.04-.917-.321-1.122-.412-.234-.663.215-.914.498-.1.107-.211.214-.321.312-.271-.293-.592-.547-.522-1.005l-.03-.059c.03 0 .06-.019.09-.019h-.09zm34.368 36.917-.04.088s.07-.039.11-.068c-.03 0-.05-.02-.08-.03z"/><path fill="#fff" d="M263.941 258.483c-.271-.937-1.034-1.385-1.817-1.405-1.064-1.844-2.62-3.416-4.557-4.44a27 27 0 0 0-2.058-2.118 296 296 0 0 1 2.098-8.236c.211-.781.432-1.552.643-2.333.923.41 1.796.947 2.599 1.611.934.77 2.088.497 2.741-.166.09.644.371 1.18.813 1.6.251.371.562.722.933 1.035.873.731 2.399.809 3.011-.342.693-1.317.552-2.859-.542-3.816-.512-.761-1.315-1.385-2.118-1.844-1.937-1.103-3.984-2.03-6.062-2.869.522-1.542 1.204-3.279.853-4.802-.09-.37-.572-.468-.843-.224-1.164 1.054-1.596 2.859-2.008 4.43-.441.049-.833.303-1.114.645-.251-.557-.733-1.015-1.365-1.093a1.9 1.9 0 0 0-1.014-.342c-2.7-.166-5.309.878-7.086 2.879a1.9 1.9 0 0 0-.321.527c-2.72 1.766-4.045 4.987-3.032 8.07.081.225.191.43.332.596-.03.331.01.683.17 1.015a8.4 8.4 0 0 0 1.757 2.508 11.6 11.6 0 0 0 2.489 2.878c.552.459 1.265.557 1.907.42.02.02.03.039.05.059.653.575 1.205 1.229 1.767 1.883-.873 2.976-1.736 5.953-2.61 8.92a180 180 0 0 0-1.003 3.513c-.854-.322-1.667-.8-2.55-.986a7 7 0 0 0-.763-.127l-.01-.01c-.542-.507-1.134-.78-1.766-.946-.061-.029-.111-.068-.171-.098-.201-.117-.412-.244-.612-.361.08-.663-.151-1.376-.813-1.942-.332-.283-.663-.458-.974-.537a3.8 3.8 0 0 0-1.987-2.166c-.833-.381-2.088-.156-2.299.898a6 6 0 0 0-.11 1.298c-.743-.234-1.717.097-1.456 1.22.582 2.498 3.232 3.815 5.872 4.479.05.058.101.107.161.166.572.497 1.174.946 1.786 1.356.111.352.342.674.723.879 1.184.634 2.419 1.19 3.694 1.6-.251.859-.512 1.718-.773 2.567a1.08 1.08 0 0 0-.391.702c-.041.371 0 .625.06.996.17 1.141 1.967 1.024 2.238.009.341-1.249.683-2.488 1.034-3.728.923.166 1.877.254 2.84.225.723-.02 1.215-.351 1.506-.81a9.27 9.27 0 0 0 4.928-1.649c.241-.03.472-.098.693-.234a10.6 10.6 0 0 0 2.218-1.855c.643-.127 1.225-.566 1.506-1.385a11.4 11.4 0 0 0 .421-1.611 9.8 9.8 0 0 0 .372-6.479zm-15.488-12.862a5.47 5.47 0 0 1-.281-3.718c.382-.585.883-1.093 1.466-1.542.301.02.612-.039.923-.195l2.54-1.278c1.063-.01 2.127.107 3.161.361-.231.819-.471 1.649-.692 2.469a261 261 0 0 0-1.847 7.241c-.01 0-.02-.02-.03-.02-.01-.01-.02-.029-.03-.039-.141-.107-.271-.224-.412-.332-.341-.263-.682-.38-1.004-.4a29.4 29.4 0 0 0-3.784-2.557zm7.859 21.509a2.07 2.07 0 0 0-1.304.087 10 10 0 0 1-2.419.684 1.5 1.5 0 0 0-.733.097 8 8 0 0 1-.833.039c-.081-.097-.161-.195-.261-.273.02-.078.04-.146.06-.225.341-1.132.683-2.273 1.014-3.415l2.078-7.114.15-.518c.683.625 1.375 1.25 1.937 1.972 1.526 1.932 1.275 4.606 1.466 6.948-.161.39-.331.781-.492 1.171a4.5 4.5 0 0 1-.663.556z"/><path fill="#000" d="M269.834 241.538c.662-.693-.05-1.689-.572-2.235-.763-.8-1.737-1.454-2.64-2.088-1.837-1.269-3.895-2.479-6.043-3.192-.492-.165-.823.596-.351.82.903.43 1.827.8 2.71 1.269s1.797.995 2.65 1.551a30 30 0 0 1 2.459 1.777c.351.283.723.566.994.927s.401.751.602 1.141c.03.069.141.079.191.02zM248.985 266.145c-.532-.586-1.395-.898-2.098-1.25a14.5 14.5 0 0 1-2.349-1.483c-.823-.644-1.646-1.366-2.248-2.215-.321-.459-.663-.908-.994-1.376-.381-.537-.713-1.152-1.164-1.63-.452-.478-1.295.02-1.104.625.21.644.642 1.249 1.033 1.795.372.508.763.996 1.215 1.425.813.781 1.596 1.581 2.509 2.274a15.7 15.7 0 0 0 2.51 1.561c.752.371 1.726.791 2.589.596.151-.03.181-.215.091-.313zM254.234 256.291c.793 1.298 2.088 2.215 2.881 3.533.703 1.161 1.044 2.527.612 3.845-.371 1.112-1.214 2.01-2.449 2.137-.461.049-.933.088-1.395.117-.753.049-1.485-.049-2.238-.039s-.894 1.054-.171 1.259c.803.234 1.706.244 2.54.195.612-.039 1.274-.088 1.867-.225 1.435-.341 2.499-1.707 2.961-3.005.552-1.532.23-3.182-.553-4.577-.782-1.396-2.178-3.006-3.834-3.523-.16-.049-.301.137-.221.273zM257.528 232.854c-2.991-1.619-6.604-.702-9.425.81-2.63 1.415-4.757 3.631-5.671 6.451-2.058 6.373 3.624 11.369 8.783 14.15.763.41 1.315-.615.662-1.112-2.168-1.62-4.527-2.899-6.313-4.958-1.787-2.059-2.821-4.586-2.108-7.329s2.56-4.703 4.908-6.05c2.811-1.61 5.802-2.118 9.004-1.63.201.03.361-.234.15-.341zM238.38 258.007c-.813.459-1.496 1.112-2.199 1.717-.341.303-.672.625-1.003.928-.352.322-.733.644-1.054.995-.382.42.201.986.632.615.351-.303.673-.664 1.004-.986s.672-.654.994-.995c.632-.674 1.304-1.328 1.776-2.118.06-.098-.06-.205-.15-.146zM267.04 246.531a12.4 12.4 0 0 0 2.138-2.235c.111-.147.221-.303.332-.449.02-.029.05-.068.07-.098.01-.019.12-.156.05-.058.05-.069.11-.127.161-.195.261-.303.532-.605.833-.869.341-.293-.091-.771-.462-.585a4.7 4.7 0 0 0-1.064.722c-.271.253-.512.536-.763.81-.281.322-.552.644-.853.956-.402.42-.843.791-1.305 1.152-.251.195-.221.644 0 .839.261.234.602.215.863 0z"/><path fill="#000" d="M259.016 240.313c.2.351.502.527.853.712.381.205.763.401 1.134.615.733.41 1.395.898 2.068 1.396 1.234.917 2.198 2.02 3.222 3.142.191.205.542.205.763.039.251-.185.261-.459.15-.722-.632-1.454-2.078-2.576-3.362-3.484-.713-.498-1.506-.908-2.279-1.288-.692-.342-1.646-.908-2.439-.664-.11.03-.16.147-.1.254zM253.113 249.512c-.833-1.054-2.088-1.688-2.971-2.703-.813-.937-1.105-2.05-.753-3.24.361-1.249 1.084-2.313 2.338-2.84s2.761-.459 4.106-.371c.652.049.773-.946.15-1.102-2.429-.606-5.299-.196-6.865 1.873-.743.986-1.205 2.303-1.104 3.533.09 1.103.602 2.088 1.365 2.898.913.976 2.198 1.952 3.543 2.215.13.03.301-.117.201-.253zM249.12 273.414c6.304 1.737 14.816-2.079 15.869-8.793.372-2.332.031-4.84-1.425-6.772-2.017-2.684-4.858-5.104-7.799-6.763-.652-.371-1.184.556-.582.966 2.519 1.717 4.978 3.816 6.946 6.128 1.415 1.669 1.817 3.679 1.636 5.807-.251 2.879-2.248 5.445-4.718 6.948-2.951 1.796-6.504 1.952-9.876 2.137-.191.01-.241.283-.051.332zM234 262.163c.131 1.279 1.115 2.401 1.938 3.347s1.756 1.855 2.78 2.616a26.5 26.5 0 0 0 3.122 1.981c1.174.644 2.338 1.298 3.663 1.63.613.156 1.054-.732.442-1.025-2.178-1.054-4.396-2.147-6.374-3.533-.983-.693-1.917-1.425-2.74-2.283-.883-.918-1.526-2.118-2.57-2.869-.1-.078-.271.029-.261.146zM258.885 229.024c-.1.234-.26.42-.381.644-.1.195-.191.4-.261.596-.15.39-.291.78-.442 1.171-.15.39-.281.771-.421 1.151-.08.215-.151.439-.231.654-.08.234-.241.498-.08.722.06.088.17.147.281.108.261-.088.301-.303.381-.547.07-.224.151-.449.221-.673.13-.4.261-.81.381-1.21.111-.381.231-.771.342-1.152.06-.215.11-.429.16-.654.061-.263.04-.537.101-.8 0-.029-.04-.049-.051-.02zM259.073 229.332c.502.361 1.175.507 1.757.702.301.098.602.205.903.303s.602.195.923.146c.171-.029.201-.253.101-.351-.221-.224-.542-.312-.843-.41s-.603-.185-.904-.283c-.582-.185-1.204-.439-1.826-.439-.201 0-.241.244-.101.342z"/><path fill="#000" d="M261.849 229.058c-.231.351-.391.781-.542 1.171-.15.39-.301.81-.451 1.22s-.302.81-.452 1.22-.341.839-.402 1.268c-.04.313.442.401.593.157.21-.371.321-.849.441-1.25.121-.4.251-.819.382-1.239.13-.419.251-.82.381-1.239.131-.42.251-.83.281-1.249 0-.127-.16-.156-.231-.059M256.347 240.031c-.421.732-.672 1.552-.943 2.343s-.542 1.571-.803 2.361c-.532 1.64-1.084 3.279-1.586 4.928-.12.41.522.576.652.176.542-1.639 1.034-3.289 1.546-4.938.241-.79.472-1.591.703-2.391s.492-1.61.572-2.44c0-.068-.1-.097-.141-.039M259.202 240.029c-.572.508-.733 1.61-.934 2.303a74 74 0 0 0-.732 2.869c-.442 1.874-.874 3.748-1.516 5.563-.141.4.502.566.642.176.643-1.816 1.074-3.689 1.506-5.563.221-.937.432-1.864.662-2.791.121-.459.251-.908.372-1.356.1-.371.251-.762.18-1.152-.01-.088-.13-.098-.19-.049zM251.433 255.1c-.602 1.962-1.144 3.943-1.706 5.914a98 98 0 0 1-.883 2.918c-.281.908-.793 1.923-.843 2.86-.02.351.471.439.652.175.522-.79.693-1.932.964-2.83.291-.976.562-1.952.823-2.928.532-1.99.983-3.991 1.305-6.021.03-.185-.241-.273-.302-.078zM254.203 256.058c-.472.703-.732 1.532-.973 2.332-.271.888-.512 1.786-.763 2.674s-.472 1.728-.723 2.586c-.251.859-.662 1.708-.743 2.557-.03.342.462.42.623.166.431-.693.602-1.659.823-2.43.261-.888.502-1.786.732-2.683.231-.898.452-1.738.693-2.596s.502-1.679.562-2.547c0-.127-.171-.156-.231-.059M246.536 271.102c-.341.771-.592 1.581-.853 2.382-.12.39-.251.78-.361 1.18-.06.215-.12.43-.181.635-.06.205-.15.429-.14.663.01.4.542.537.763.205.12-.185.16-.419.22-.634.061-.215.121-.429.181-.634.111-.4.211-.791.301-1.191.201-.82.412-1.639.522-2.479.03-.224-.351-.322-.441-.117z"/><path fill="#000" d="M245.107 276.531c.291.039.542.156.823.205s.572.098.853.166.562.156.833.264c.271.107.532.234.833.185.121-.02.181-.156.161-.263-.071-.332-.402-.537-.693-.674a3.6 3.6 0 0 0-.953-.332c-.342-.058-.653-.107-.984-.068s-.632.195-.924.332c-.11.049-.04.185.051.195zM249.03 272.029l-.02.03v.019s-.01.029-.01.039v.11699999999999999c.01.059.1.078.141.039.02-.019.03-.049.05-.078 0-.01.01-.019.01-.039v-.097c0-.01 0-.02-.02-.03a.06.06 0 0 0-.051-.029h-.05c-.02 0-.05.02-.05.039z"/><path fill="#000" d="M249.777 272.01c-.291.156-.381.673-.492.956-.15.4-.301.791-.441 1.191s-.281.8-.422 1.19c-.14.391-.321.791-.411 1.201-.101.468.542.614.722.195.161-.381.241-.81.352-1.21s.23-.81.341-1.22c.11-.41.211-.81.321-1.22.08-.293.291-.761.141-1.054-.021-.039-.081-.049-.121-.029zM307.082 217.985c-.381 0-.502-.195-.632-.449-.482-.888-1.004-1.766-1.516-2.635-.281-.478-.562-.624-1.064-.166-.612.557-1.375.966-1.987 1.532-.512.479-1.576.781-.833 1.845.12.176-.071.361-.312.302-.552-.136-.963-1.463-.602-1.893 1.155-1.366 2.911-2.039 4.095-3.386.292-.322.563 0 .713.263.773 1.337 1.546 2.674 2.309 4.011.14.254.18.508-.171.566zM292.004 220.756c.01-.332.07-.849.451-.742.603.166.623.869.813 1.376.131.342-.251.449-.512.42-.632-.068-.783-.507-.752-1.054"/><path fill="#fff" d="M54 259.499c.301-.742.743-.537 1.205-.156-.372.273-.794.137-1.205.156M49 169.245c.03-.098.07-.205.1-.303 1.897.634 2.34-.898 3.142-1.942 3.995 5.016 8.833 9.388 13.039 14.306 2.86 3.348 5.982 6.48 8.561 10.052.241.332.563 1.025.402 1.005-.723-.078-.713 1.298-1.656.654-.803-.537-.893.273-1.114.751-2.309-3.298-4.758-6.47-7.619-9.339-1.345-1.347-2.62-2.771-3.944-4.138-3.604-3.718-6.806-7.797-10.901-11.056z"/><path fill="#000" d="M32.582 126.927c-.482-2.986-.623-6.001-.572-9.017.28-19.634.692-39.26.652-58.894 0-1.65.1-3.298.622-5.016.633.4.492.956.492 1.425.18 10.432.251 20.874.07 31.306-.16 9.193-.09 18.395-.21 27.588-.05 4.03.02 8.061-.322 12.091-.24.176-.481.342-.732.517M28.826 115.538c-.663-1.219-.652-2.41-.703-3.542-.24-5.914-.07-11.828.02-17.741.13-8.89.271-17.781.472-26.661.06-2.674.09-5.348.422-8.012.07-.605.06-1.542.582-1.581.462-.03.27.937.301 1.444.412 6.968.03 13.935-.08 20.903-.17 11.262-.251 22.524-.723 33.775-.02.41.06.83-.281 1.406zM49.524 170.188c4.095 3.259 7.307 7.339 10.9 11.057 1.325 1.366 2.6 2.791 3.945 4.137 2.87 2.86 5.32 6.041 7.618 9.34-.1.439.261 1.024-.35 1.297-.533.235-.844-.253-1.175-.517-.914-.712-1.787-1.464-2.68-2.205-1.998-2.84-4.166-5.543-6.645-8.012-3.102-4.089-6.504-7.915-10.278-11.428-.783-.722-1.516-1.503-2.239-2.283-.3-.322-.843-.644-.522-1.191.352-.585.914-.371 1.426-.195M114.839 76.406c-.05-.195-.1-.38-.161-.575-1.124-4.216-2.238-8.442-2.86-12.765-.291-2.05-.542-4.108-.793-6.158-.04-.331-.03-.683.02-1.015.05-.36.06-.82.552-.888.452-.058.512.38.662.674 1.466 2.84 1.988 5.913 2.399 9.007.462 3.464.964 6.929 1.185 10.432-.081.459-.151.908-.231 1.366-.261-.029-.512-.048-.773-.078"/><path fill="#fff" d="M60.112 185c2.479 2.459 4.647 5.172 6.644 8.012-.652.166-1.124-.605-1.796-.342-.954-.126-1.486-.985-2.36-1.258-1.685-1.162-3.271-2.44-4.677-3.914-.34-.361-.893-.595-.923-1.19.562-.479 1.154 0 1.736-.02.924-.029 1.486-.273 1.386-1.278z"/><path fill="#000" d="M38.766 63.972c.07 2.118.15 4.245.22 6.363-.03 1.278-.08 2.557-.34 3.816-.081.36-.051.917-.663.898-.583-.02-.552-.488-.593-.908-.411-4.392-.572-8.793-.11-13.184.04-.361-.15-.976.492-.956.562.01.682.526.682 1.005 0 .4.201.712.402 1.034l.06.03c-.431.604-.13 1.268-.15 1.902M57.17 186.976c.04.596.582.83.923 1.191 1.405 1.483 2.991 2.752 4.677 3.913-.21.098-.421.186-.632.283-2.409-1.561-4.818-3.113-7.217-4.694-.512-.332-.953-.771-1.425-1.161-.432-.351-.693-.8-.311-1.269.361-.429.863-.195 1.264.039q.786.469 1.526 1.025c.372.273.703.585 1.185.664z"/><path fill="#fff" d="M422.426 193.353c-.623-.293-.482-.596-.091-1.015.904-.976 2.058-1.61 3.232-2.176 5.21-2.479 9.164-6.344 12.748-10.657 2.519-3.045 5.119-6.031 7.688-9.037.131-.156.352-.244.673-.468.16 1.591-1.074 2.693-1.014 4.079.552.029.873-.38 1.004-.693.451-1.044 1.084-.78 1.786-.361-.973 1.269-1.947 2.528-2.91 3.796-3.835 5.036-8.231 9.496-13.772 12.794-2.91 1.737-6.153 2.684-9.354 3.728zm25.103-20.406.04-.049h-.06z"/><path fill="#000" d="M460.503 63.41c.151-1.58-.311-3.123-.371-4.694-.01-.263-.1-.527-.08-.78.02-.332-.261-.84.311-.928.482-.078.461.41.562.713 1.194 3.591 2.007 7.28 2.278 11.027.823 11.37.352 22.748.412 34.127.01 2.371.03 4.752 0 7.124 0 .936-.101 1.873-.191 2.8-.02.254.151.713-.351.664-.452-.039-.261-.488-.261-.732.05-3.923-.221-7.836-.492-11.74-.1-1.385-.161-2.781-.241-4.177.191-6.392-.321-12.774-.291-19.166 0-.166-.13-.332-.191-.498-.07-1.395-.17-2.78-.2-4.176-.071-2.694-.482-5.358-.723-8.041.1-.166.09-.332-.04-.479-.04-.351-.091-.702-.131-1.054zM464.723 51.01c2.027 7.036 2.258 14.267 2.519 21.498.422 11.604.542 23.207.251 34.81-.05 2.147.08 4.294.12 6.441 0 .517.061 1.054-.471 1.717-.131-1.483-.301-2.752-.342-4.04-.281-10.247-.803-20.484-1.013-30.73-.171-8.432-.211-16.883-1.084-25.295-.151-1.425-.342-2.84-.703-4.226.241-.058.482-.117.723-.185zM422.004 192.608c3.202-1.054 6.444-2.001 9.355-3.728 5.54-3.299 9.937-7.749 13.771-12.794a544 544 0 0 1 2.911-3.796c.261-.127.522-.449.823-.195s.171.634.08.946c-.592 2.03-1.807 3.738-3.131 5.338-3.403 4.138-7.057 8.042-11.433 11.252-.783.469-1.556.966-2.369 1.406-2.238 1.219-4.426 2.566-7.086 2.781-.713-.254-1.516.127-2.198-.342-.332-.224-.773-.351-.723-.868"/><path fill="#fff" d="M460.57 65.113c.24 2.683.662 5.347.722 8.04.03 1.396.131 2.782.201 4.177q-.421 1.298-1.626.45c-.251-.518-.974-.43-1.265-.908 0-.547-.01-1.093-.02-1.64.181-.78.09-1.57.04-2.361-.21-2.957-.411-5.914-.622-8.871.592.059.381.527.472.849.16.566.16 1.552 1.114.507.261-.282.642-.195.974-.234zM425.01 194.449c2.66-.215 4.848-1.562 7.086-2.782.803-.439 1.576-.936 2.369-1.405.482.186.964.381 1.446.566-1.526.742-2.921 1.698-4.337 2.606-.2.127-.572.234-.511.536.06.332.351.576.692.674.362.097.703.166 1.114.019 3.674-1.229 7.077-2.957 10.349-4.957.652-.049.994-.878 1.746-.674.141.342.633.615.101 1.054-2.49 2.03-5.049 4.031-8.281 4.753-1.566.351-3.262.146-4.908.185-.322 0-.673-.078-.823-.341-.753-1.288-1.787-.859-2.831-.498-.723.254-1.455.488-2.198.713-.452.136-.944.253-1.024-.449z"/><path fill="#000" d="M458.754 64.909c.211 2.956.412 5.913.623 8.87.05.79.15 1.571-.04 2.362a27 27 0 0 0-.854-.195c-.552-1.493-1.194-2.928-1.154-4.616.05-2.47-.181-4.948-.291-7.417-.01-.224-.08-.488 0-.673.211-.45.12-1.21.773-1.24.723-.02.452.742.592 1.152.191.566.241 1.171.351 1.757M444.162 189.664c-3.272 2-6.685 3.727-10.349 4.957-.421.137-.753.078-1.114-.019-.351-.098-.632-.342-.692-.674-.061-.302.311-.41.511-.537 1.416-.907 2.811-1.863 4.337-2.605 2.328-.644 4.727-1.015 7.016-1.786l.301.673z"/><path fill="#fff" d="M454.529 75.33c-.933-.527-1.425-1.415-1.957-2.274.121-2.167-.492-4.275-.572-6.431.502-.693 1.265-.615 1.997-.625.563-.01.542.4.583.79.15 1.68.371 3.358.431 5.046.02.566.894 1.005.231 1.63-.191-.361-.351-.752-.642-.04-.261.645-.241 1.27-.061 1.913z"/><path fill="#E62D32" d="M451.999 66.174c.08 2.156.692 4.264.572 6.43-.442.225-.813.206-1.084-.253-.783-1.337-1.726-2.586-2.279-4.05-.501-1.327-.11-1.981 1.315-2.225.492-.088 1.004-.146 1.476.098"/><path fill="#000" d="M389.134 66.117c-1.024-.693-.753-1.816-.893-2.762-.201-1.288-.171-2.606-.241-3.904.12-.742.271-1.473.693-2.117.13-.205.291-.352.552-.332.291.02.401.224.421.449.271 2.79.442 5.582-.201 8.353-.03.117-.21.205-.321.303z"/><path fill="#fff" d="M460.502 64.075c.04.35.09.702.131 1.053-.623.04-.623-.35-.633-.8-.01-.507.281-.283.512-.253z"/><path fill="#000" d="M239.181 169.424c-.291-.039-.683-.049-1.044-.137-.612-.146-1.004-.527-1.114-1.141-.111-.596.191-1.045.652-1.328.853-.527 1.797-.878 2.831-.81 1.355.088 1.877 1.113 1.114 2.196-.552.791-1.355 1.201-2.439 1.23zM420.741 151.586c-2.158 1.347-4.517 2.303-6.916 3.084-6.635 2.166-13.42 3.786-20.245 5.231-10.138 2.137-20.165 4.703-30.283 6.919-2.299.507-4.677.634-7.016.917-.462.058-1.044.058-1.235-.41-.22-.546.402-.722.733-.995.813-.664 1.827-.81 2.821-.937 7.839-.986 15.457-3.016 23.156-4.684 6.414-1.386 12.828-2.831 19.131-4.636 6.585-1.883 13.259-3.542 19.563-6.275.502-.214.883-.585 1.415-.8.522.82.121 1.435-.381 2.04-.372.019-.572.253-.743.536zM422.877 139c-.2 1.2-.973 2.04-1.816 2.762-2.209 1.883-4.889 3.005-7.498 4.225-5.511 2.586-11.212 4.724-17.044 6.47-6.022 1.816-12.195 3.104-18.428 4.109-5.16.829-10.269 1.913-15.398 2.869-.642.117-1.295.205-1.957.273-.251.029-.612.137-.713-.195-.12-.381.251-.517.542-.595 1.636-.439 3.272-.927 4.939-1.279 6.574-1.415 13.169-2.703 19.723-4.186 6.243-1.425 12.286-3.494 18.318-5.582 4.718-1.63 9.355-3.445 13.822-5.651 1.907-.936 3.944-1.678 5.51-3.22M356.62 103.628c-.472-.156-1.566.313-1.616-.224-.08-.8 1.054-.849 1.706-1.005 3.684-.859 7.267-2.001 10.69-3.591 5.531-2.567 10.941-5.378 16.411-8.051 5.671-2.782 11.403-5.446 17.365-7.622.522-.195.933-.225 1.204.224.271.46-.13.762-.481 1.015-1.626 1.171-3.493 1.933-5.3 2.772-7.388 3.445-14.635 7.153-21.922 10.783-4.617 2.303-9.314 4.402-14.464 5.358-1.144.215-2.288.4-3.593.341M337.01 160.609c.02-1.084-.11-2.196.351-3.231.322-.732.753-1.483 1.747-1.366.953.117 1.505.8 1.616 1.659.371 2.762.1 5.475-.944 8.08-.22.547-.512 1.22-1.254 1.132-.713-.087-.914-.731-1.044-1.337-.341-1.629-.482-3.269-.482-4.928zM330 162.159c0-1.21.02-2.401.391-3.572.261-.829.552-1.668 1.626-1.581 1.074.088 1.616.849 1.687 1.855.09 1.346.13 2.712-.081 4.059-.19 1.181-.341 2.381-.762 3.513-.251.674-.623 1.532-1.325 1.542-.693 0-.934-.868-1.104-1.551-.352-1.406-.422-2.821-.412-4.255zM346.69 159.762c-.07 1.962-.361 3.884-1.245 5.68-.15.302-.331.595-.552.849-.502.546-.983.624-1.275-.186-.18-.487-.351-1.005-.401-1.512-.211-2.137-.311-4.274-.1-6.421.03-.332.06-.703.22-.976.362-.635.874-1.259 1.677-1.191.772.068 1.224.654 1.445 1.415.231.781.221 1.562.231 2.342M142.715 166.887c-1.917-.41-4.126-.81-6.294-1.366-8.672-2.254-17.435-4.089-26.187-6.011-6.906-1.523-13.872-2.831-20.527-5.251-2.67-.976-5.38-1.864-7.789-3.386-.783-.498-1.475-1.113-1.816-1.991-.1-.273-.211-.615.12-.82.311-.195.472.118.683.254 1.716 1.035 3.663 1.571 5.51 2.303 5.4 2.147 10.93 3.953 16.582 5.329 6.042 1.463 12.155 2.615 18.268 3.796 6.865 1.327 13.711 2.752 20.346 4.967.652.215 1.264.566 1.877.868.351.176.682.42.562.879-.151.566-.633.449-1.325.449zM141.496 101.881c-4.476-.234-8.552-1.649-12.557-3.27-7.558-3.044-14.825-6.733-22.323-9.914-2.961-1.26-5.922-2.508-8.873-3.777a8.4 8.4 0 0 1-1.294-.732c-.292-.195-.573-.478-.392-.849.17-.36.552-.37.913-.312 1.376.224 2.69.673 4.005 1.122 10.811 3.728 21.059 8.695 31.347 13.555 3.112 1.464 6.374 2.479 9.716 3.289.372.088 1.074.019 1.014.527-.07.595-.763.254-1.174.351-.151.039-.312 0-.382 0zM80 143.01c2.56.449 4.938 1.063 7.297 1.747 4.557 1.307 9.114 2.595 13.641 3.971 10.76 3.25 21.791 5.465 32.692 8.178 1.907.478 3.774 1.103 5.661 1.659.291.088.813.02.652.557-.14.448-.572.322-.893.253-1.887-.4-3.784-.8-5.661-1.259-6.846-1.659-13.792-2.83-20.677-4.303-7.769-1.649-15.287-4.157-22.885-6.383-2.861-.839-5.732-1.61-8.361-3.034-.543-.293-1.255-.469-1.456-1.396zM161.819 160.489c.04 1.942-.091 3.504-.432 5.055-.141.625-.321 1.22-1.024 1.347-.783.146-1.074-.546-1.305-1.054-.612-1.347-.863-2.801-.963-4.264-.081-1.201-.151-2.401-.03-3.601.1-.996.542-1.855 1.555-1.962 1.024-.107 1.657.664 1.968 1.6.351 1.064.15 2.167.221 2.879zM167.747 161.387c-.071 1.444 0 2.957-.422 4.43-.181.605-.512 1.113-1.064 1.191-.552.088-.793-.517-.974-.966-1.084-2.664-1.475-5.446-1.204-8.295.08-.878.532-1.747 1.636-1.747 1.034 0 1.566.742 1.807 1.639.321 1.211.18 2.469.231 3.758zM155.761 161.163c-.12 1.307-.231 2.625-.371 3.932-.03.293-.121.596-.251.859-.422.859-.884.918-1.385.098-1.436-2.333-1.918-4.889-1.707-7.573.121-1.464.904-2.498 1.737-2.479.823.01 1.646 1.103 1.857 2.459.03.186.05.371.05.566v2.147h.07zM423.857 38.027c4.727.078 9.455 0 14.172.44.914.087 1.727.321 1.767 1.404.03.937-.662 1.572-1.807 1.698-.542.059-1.084.059-1.626.059-4.497 0-8.993 0-13.49-.049-3.874-.03-7.749-.107-11.623-.175a13 13 0 0 1-1.847-.186c-.713-.107-1.275-.527-1.385-1.19-.131-.742.481-1.142 1.124-1.396.723-.283 1.506-.332 2.278-.361 4.146-.127 8.291-.332 12.437-.254zM421.555 226c3.412.088 7.096.146 10.589 1.493.141.059.301.088.432.166.963.566 2.047 1.064 1.997 2.391-.05 1.278-1.034 1.874-2.088 2.313-3.121 1.288-6.434 1.21-9.716 1.015-2.7-.156-5.4-.498-7.849-1.776-.622-.323-1.194-.732-1.586-1.298-.753-1.093-.191-2.489 1.255-3.113 2.128-.928 4.416-1.035 6.956-1.181zm-.532 2.118c-1.285.029-3.313-.186-5.28.41-.361.107-.793.263-.863.673-.08.488.361.703.713.927 1.314.82 2.81 1.005 4.316 1.132 3.613.303 7.196.244 10.699-.82.292-.088.783-.058.733-.556-.04-.439-.462-.439-.783-.546-2.86-.957-5.831-1.172-9.545-1.24zM73.26 41.516c-4.336 0-8.672.01-13.009-.01-.883 0-1.856-.068-2.148-1.132-.35-1.278.191-2 1.637-2.098 3.593-.244 7.196-.283 10.8-.273 5.65 0 11.312-.068 16.953.459.462.039.913.117 1.345.322.502.234.974.468.944 1.132-.04.683-.492.985-1.085 1.151-.863.244-1.746.332-2.64.332-4.255.02-8.521 0-12.777 0v.127zM78.108 226c2.85.01 5.29.039 7.638.82.401.136.803.293 1.164.507 1.717 1.015 1.837 2.362.302 3.621-.934.761-2.068 1.19-3.233 1.464-4.767 1.122-9.555 1.463-14.383.351-1.144-.264-2.208-.713-3.021-1.581-.763-.82-.763-1.581-.02-2.401 1.003-1.112 2.388-1.503 3.774-1.834 2.68-.654 5.43-.82 7.779-.927zm-8.723 3.884c.261.137.392.224.522.283.21.088.432.185.653.244 4.296 1.103 8.632 1.22 12.988.429.813-.146 1.656-.39 2.339-.936.652-.518.562-.908-.171-1.23-1.074-.469-2.228-.615-3.393-.673-3.463-.166-6.875.234-10.288.761a5.57 5.57 0 0 0-2.66 1.122zM248.888 181.575c.03.449-.201.888-.623 1.279-.792.732-1.716 1.249-2.7 1.688-.993.449-1.686.215-2.268-.634-.572-.84-.261-1.435.452-2.03 1.064-.879 2.138-1.718 3.593-1.864 1.044-.108 1.596.41 1.536 1.551zM215.01 163.894c-.01-.761 1.395-1.854 2.449-1.893.763-.029 1.596.673 1.576 1.337-.03.868-1.335 2.147-2.208 2.147-.823 0-1.807-.859-1.827-1.591zM418.246 174.361c-.471-1.64-.14-3.016-.03-4.363.101-1.229.412-2.439 1.044-3.542.151-.254.331-.547.713-.429.271.087.251.37.221.585-.322 2.372-.763 4.723-1.456 7.017-.05.166-.201.302-.492.732M389.032 69l.021.068-.053-.01z"/><path fill="#fff" d="M107.12 176.02s-.03.068-.04.097c-.03-.029-.05-.058-.08-.078.03-.01.07-.019.1-.039l.01.01zM421.143 228c3.713.068 6.684.283 9.545 1.239.321.108.743.108.783.547.05.498-.442.468-.733.556-3.503 1.064-7.086 1.122-10.7.82-1.505-.127-3.001-.312-4.316-1.132-.361-.225-.793-.439-.712-.927.07-.41.502-.566.863-.674 1.957-.605 3.985-.38 5.28-.409zM69 229.918a5.6 5.6 0 0 1 2.66-1.122c3.403-.527 6.825-.917 10.288-.761 1.165.058 2.309.205 3.393.673.733.312.823.703.17 1.23-.682.546-1.525.78-2.338.937-4.356.8-8.693.673-12.989-.43-.22-.058-.441-.156-.652-.244-.14-.058-.271-.146-.522-.283z"/><path fill="#000" d="M349.322 41.222a1.534 1.534 0 0 0-2.644 1.556zm4.788 30.96c.537-2.95.926-7.96.402-13.569-.524-5.604-1.97-11.917-5.19-17.39l-2.644 1.555c2.915 4.955 4.281 10.785 4.78 16.12.498 5.334.12 10.063-.366 12.736zM176.731 215.652a1.532 1.532 0 1 1-1.462 2.696zm-31.108-3.705c2.93-.639 7.924-1.203 13.546-.875 5.62.328 11.979 1.553 17.562 4.58l-1.462 2.696c-5.054-2.74-10.928-3.902-16.278-4.214-5.347-.312-10.06.231-12.714.81z"/><path fill="#000" d="M334.604 68.59a1.534 1.534 0 0 0-1.208 2.82zm-1.208 2.82c1.886.808 5.131 1.913 8.852 2.663 3.709.747 8.005 1.164 11.943.507l-.504-3.025c-3.424.57-7.309.22-10.834-.49-3.513-.707-6.556-1.75-8.249-2.475zM151.388 232.347c.36.766.031 1.68-.735 2.041-.766.36-1.68.031-2.041-.735zm-2.776 1.306c-.873-1.857-2.091-5.061-2.97-8.754-.876-3.681-1.443-7.959-.924-11.918l3.041.399c-.45 3.441.035 7.311.867 10.809.83 3.487 1.978 6.492 2.762 8.158zM4.858 14.095c-.241-.135-.475-.27-.716-.406-.965-.728-2.083-1.091-3.267-1.305-.424-.079-.987-.05-.856-.75.702-.078 1.448.008 2.054-.47C4.054 10.908 5.59 9.98 6.532 8.24c.804-1.469 1.805-2.81 2.704-4.207.753-1.177 1.586-2.325 2.003-3.687l.11-.278c.555-.171.92-.036.884.592-.044.699.307 1.148.855 1.512.052.057.11.114.161.17 2.324 2.903 4.67 5.799 6.958 8.73.63.805 1.2 1.476 2.383 1.19.358-.085.826.015 1.14.507-.803.292-1.659.499-1.98 1.383q-.24-.084-.49-.178c-.475-.542-.84-.064-1.133.178-1.425 1.163-2.448 2.589-2.763 4.422-.3.549-.497 1.12-.497 1.747-.212.121-.212.3-.153.499l-.117.5c-.293 1.91-.76 3.814-.307 5.768l.029.706c-.592.029-.921-.214-1.074-.806-.11-.434-.33-.855-.578-1.233-2.266-3.544-4.787-6.917-7.63-10.048-.622-.685-1.309-1.284-2.2-1.605zm6.703-11.26c-1.93 3.551-1.96 8.2-6.79 9.855 4.48 2.204 7.228 5.755 9.94 9.578.234-1.149.402-2.111.621-3.06.483-2.103 1.214-4.193 3.034-5.47 1.206-.848 1.103-1.297.168-2.067-.03-.029-.051-.065-.08-.1-2.26-2.86-4.51-5.712-6.893-8.736"/><path fill="#FBB95E" d="M11.56 2.835c-1.929 3.551-1.958 8.2-6.79 9.855 4.481 2.204 7.23 5.755 9.941 9.578.234-1.149.402-2.111.621-3.06.483-2.103 1.214-4.193 3.034-5.47 1.206-.848 1.103-1.297.168-2.067-.03-.029-.051-.065-.08-.1-2.26-2.86-4.51-5.712-6.893-8.736M484.515 280.236c-1.046-.969-2.114-1.917-3.131-2.914-2.294-2.249-4.53-4.547-6.853-6.769-1.285-1.225-2.533-2.574-4.531-2.851 1.905-.45 3.795-.934 5.706-1.336 2.864-.609 4.798-2.374 6.342-4.623 1.313-1.917 2.59-3.862 3.881-5.793.786-1.177 1.003-1.239 2.092-.305 1.544 1.329 2.489 3.136 3.838 4.631.657.726 1.342 1.467 1.854 2.29 1.198 1.904 3.081 1.931 5.036 1.876.57-.014 1.139 0 1.926 0-.7.671-1.421.81-2.071.893-1.327.159-2.604.554-3.924.747-2.359.346-4.365 1.378-5.497 3.572a39.8 39.8 0 0 0-3.846 11.157c-.021.097-.151.18-.223.263-.159-.305-.238-.651-.592-.824zm-11.175-11.738a9.6 9.6 0 0 1 3.102 1.709c2.655 2.181 5.065 4.589 7.063 7.358.188.256.289.643.7.581.13-.021.252-.291.303-.471.476-1.536.887-3.093 1.414-4.616.93-2.672 1.76-5.399 4.617-6.935 1.046-.561 2.171-.775 3.427-1.066-2.922-2.374-4.819-5.371-6.904-8.478-.53 1.848-1.373 3.348-2.218 4.852l-.019.034c-2.222 3.966-5.324 6.707-10.294 6.873-.397.014-.794.097-1.191.152z"/><path fill="#FBB95E" d="M473.34 268.498a9.6 9.6 0 0 1 3.102 1.709c2.655 2.181 5.065 4.589 7.063 7.358.188.256.289.643.7.581.13-.021.252-.291.303-.471.476-1.536.887-3.093 1.414-4.616.93-2.672 1.76-5.399 4.617-6.935 1.046-.561 2.171-.775 3.427-1.066-2.922-2.374-4.819-5.371-6.904-8.478-.53 1.848-1.373 3.348-2.218 4.852l-.019.034c-2.222 3.966-5.324 6.707-10.294 6.873-.397.014-.794.097-1.191.152z"/><path fill="#000" d="M484.515 280.236c-1.046-.969-2.114-1.917-3.131-2.914-2.294-2.249-4.53-4.547-6.853-6.769-1.285-1.225-2.533-2.574-4.531-2.851 1.905-.45 3.795-.934 5.706-1.336 2.864-.609 4.798-2.374 6.342-4.623 1.313-1.917 2.59-3.862 3.881-5.793.786-1.177 1.003-1.239 2.092-.305 1.544 1.329 2.489 3.136 3.838 4.631.657.726 1.342 1.467 1.854 2.29 1.198 1.904 3.081 1.931 5.036 1.876.57-.014 1.139 0 1.926 0-.7.671-1.421.81-2.071.893-1.327.159-2.604.554-3.924.747-2.359.346-4.365 1.378-5.497 3.572a39.8 39.8 0 0 0-3.846 11.157c-.021.097-.151.18-.223.263-.159-.305-.238-.651-.592-.824zm-11.175-11.738a9.6 9.6 0 0 1 3.102 1.709c2.655 2.181 5.065 4.589 7.063 7.358.188.256.289.643.7.581.13-.021.252-.291.303-.471.476-1.536.887-3.093 1.414-4.616.93-2.672 1.76-5.399 4.617-6.935 1.046-.561 2.171-.775 3.427-1.066-2.922-2.374-4.819-5.371-6.904-8.478-.534 1.861-1.386 3.37-2.237 4.886-2.222 3.966-5.324 6.707-10.294 6.873-.397.014-.794.097-1.191.152zM58.871 128.941a.6.6 0 0 1-.358-.031.9.9 0 0 1-.338-.195 1.7 1.7 0 0 1-.52-.401q-.227-.256-.386-.849-.278-1.037-.15-3.167-.015-.885.016-1.719.064-.59-.007-.856a3 3 0 0 1-.084-.549 2.2 2.2 0 0 0-.03-.468q.356-.096.326-1.39 0-.476.01-.796a6 6 0 0 0-.017-.536q.035-.104.047-.298.04-.201.06-.366.048-.774.198-1.513 0-1.429.084-3.008.105-1.615.242-2.415l.117-.984q.006-.096.031-.358.048-.298.016-.417-.033-.118-.137-.153-.248-.093-.366-.537a1.57 1.57 0 0 1 .237-1.366q.223-.473.717-.764.515-.328 1.285-.535.327-.087 1.172-.25.363-.066 1.904-.479.203.042.723.092 1.119.145 1.143.234.039.148.144.184.135.028.35.001.326-.087 1.37.491 1.074.57 1.582 1.164.41.462.578.734.198.264.317.709.048.177.115.668.069.49.098.958.03.468-.056.618-.379.483-.308.75.08.296-.414 1.889-.495 1.593-.98 2.39a8.7 8.7 0 0 1-1.416 2.063q-1.093.896-2.553 1.732-1.429.828-2.237 1.012-.909.402-1.114.584-.183.145-.199.562l-.074.909q-.008.447.033.595-.09.374-.21 2.183-.088 1.803-.057 2.747-.015.417-.315.72-.292.332-.589.411m1.556-11.023q.075.043.342-.029.77-.206 1.888-1.013.97-.642 2.06-1.791.533-.62 1.12-1.983.099-.345.338-1.583a6 6 0 0 0 .159-1.186q.062-.716-.073-1.219a1.6 1.6 0 0 0-.125-.348q-.708-1.461-2.266-1.584-.988.106-1.373.209-.207.056-.666.242-.435.276-.57.597-.114.285-.232 1.269-.463 2.062-.545 2.941-.024 2.166-.145 3.373a51 51 0 0 0-.14 1.372l.032.118q.047.178.065.364.019.185.13.251m17.484 4.048a2.2 2.2 0 0 1-.627-.563 25 25 0 0 1-.742-1.23 1.7 1.7 0 0 1-.195-.487l-.134-.504a9 9 0 0 1-.138.672q-.099.344-.245.51-.498.864-1.093 1.372-.789.847-1.47 1.03-.83.222-1.629-.39-1.155-.516-1.44-1.583a5 5 0 0 1-.092-.578 12.4 12.4 0 0 1-.267-2.183q-.004-1.08.287-2.84l.412-2.016.228-1.046q.132-.099.458-.186.475-.128.937-.06.463.066.571.355.12.095.208.42.255.948-.125 2.733l-.086.627a32 32 0 0 0-.238 2.191q-.047.775.08 1.249t.522.527q.173.049.38-.007.593-.158 1.176-1.299.613-1.149.922-3.55a7.2 7.2 0 0 0-.052-2.209q-.146-.31-.013-.759.135-.448.456-.789a.75.75 0 0 1 .254-.354q.177-.174.267-.071l.466-.157q.081-.053.338.195.288.242.392.276.36.159.55.869.262.978.012 2.887-.246 1.337-.278 2.043a5.6 5.6 0 0 0 .118 1.271q.166.623.35.954.207.294.716.538.562.2.798 1.438-.003.224-.238.413a1.6 1.6 0 0 1-.62.293q-.652.175-1.176-.002M89.76 107.74q.453.387.663.934.24.539.33.991.11.415.172.526.021 1.264-.018 3.37-.046 2.077-.069 1.639.012.282-.038.804-.047.775-.017 1.243.054.556-.178.873-.212.28-.681.659a1 1 0 0 1-.251.131q-.534.143-1.231-.21-.404-.56-.476-.825-.07-.267-.02-.789.04-1.154.071-2.814.024-1.69.056-2.873l.023-.863q-.033-.596-.165-.972a3 3 0 0 0-.542.113 3.3 3.3 0 0 0-.746.295q.033 1.071-.155 2.265-.167 1.156-.629 3.344-.255 1.18-.69 2.281l-.23.569-.788 1.323-.728.958a.8.8 0 0 1-.337.28 1.1 1.1 0 0 1-.437.149l-.385.103q-.417-.015-.876-.305-.43-.297-.571-.355l-.244-.316q-.07-.266-.044-.401.05-.171.266-.547.113-.412.438-.499a1 1 0 0 1 .275-.042q.189-.241.576-.694.38-.483.604-.829.246-.382.374-.735.399-1.123.91-3.007.21-.754.445-2.247l-.387-.023a10 10 0 0 1-.41-.112l-.736-1.201q-.198-.74.466-1.109.502-.261 1.498-.687.717-.288 1.19-.541.352-.222.916-.373a3.9 3.9 0 0 1 1.59-.108q.664.108 1.216.627m7.854 9.137a4 4 0 0 1-.547.21q-1.215.326-2.37-.19-1.132-.554-1.458-1.769l-.157-.466q-.373-1.393-.243-3.397t.739-3.405q.51-1.057.9-1.734.392-.676.788-.973.345-.252.906-.529t.857-.356q.633-.01 1.208.121.605.123.692.449l.188.109q.208-.055.649.525.47.572.614 1.105.07.267.03.469.032.594-.181 1.223-.183.621-.42.684-.326.088-.278.265.04.148-.316.244a1.9 1.9 0 0 1-.654.048q-.365-.061-.48-.252-.04-.148-.08-1.249a4 4 0 0 0-.11-.765q-.144-.532-.499-.438-.089.024-.413.238-.658.621-.982 1.311-.301.652-.403 1.696-.102 1.043-.091 2.978.006.38.086.675.095.356.247.569.145.184.242.19.163.02.549-.084.74-.198 1.113-.584.454-.44.863-.93l.495-.641q.043-.075.15-.389.098-.344.282-.489a.75.75 0 0 1 .357-.445 2.6 2.6 0 0 1 .517-.202l.356-.095q.417.015.883.335.468.32.262.501-.089.025-.103.091a.3.3 0 0 0-.006.097q.1.132-.259.927-.367.765-.86 1.533-.501.736-.738.801a.7.7 0 0 0-.2.085q-.08.054-.049.172.033.119-.767.809-.778.653-1.31.922M375.54 112.204a.62.62 0 0 1-.005.573q-.123.255-.679.786-1.16 1.008-1.249 1.382-.117.159-.547.687-.4.52-1.02 1.289a32 32 0 0 0-1.626 1.992q-.647.903-.818 1.331a.5.5 0 0 0-.213.152q-.094.121-.192.115-.051.045-.219.249a1.4 1.4 0 0 0-.225.346 1.6 1.6 0 0 1-.169.554.5.5 0 0 1-.397.297q-.38.355-1.247 1.509.823 2.002 2.103 3.342 1.367 1.666 2.494 2.317.805.515 1.442.757.666.234.962.155.291.018.852.217.561.198.647.398.045.051.125.347.103.385.058.811a1.09 1.09 0 0 1-.278.741.76.76 0 0 1-.47.38q-.296.079-1.057-.034-.466.156-1.868-.453-1.401-.609-2.23-1.212a56 56 0 0 1-1.956-1.731 8.3 8.3 0 0 1-1.415-1.844 12 12 0 0 0-.903-1.473 10 10 0 0 1-.398-.655l-.025.261q-.006.096-.124 1.081-.088.975-.106 3.394a129 129 0 0 1-.147 3.247q-.089 1.326-.244 1.812-.118.508-.355.572-.238.063-.664-.108-1.092-.28-1.266-.931a1.7 1.7 0 0 1-.036-.372 2.4 2.4 0 0 1-.139-.756 3 3 0 0 0-.023-.439q.208-.055.081-.53-.064-.237-.011-1.108l.02-.99.125-.955q.105-.916.088-.976-.104-.385.123-1.081.024-.387.001-.826a3.5 3.5 0 0 0-.093-.705q.019-.164.143-.769.125-.605.099-1.17a3 3 0 0 1 .002-.349q.04-.203.059-.492l.263-2.929.174-1.127q.02-.164.139-1.021.15-.866.268-.898l-.087-.326q-.032-.119.119-.857l.165-.807q.142-.419.157-.836.045-.425.043-.551.014-.068.063-.239.05-.172.136-.323a2.2 2.2 0 0 1 .513-.455q.347-.25.642-.33.503-.135.785.202.546.616.673 1.09.087.326-.019.64-.28 1.441-.632 3.568-.36 2.097-.48 3.304l.167-.204q.565-.977 1.912-2.703l2.85-3.94q.719-.637 1.607-1.827.248-.258.386-.453a1.7 1.7 0 0 1 .241-.287q.138-.196.576-.694.43-.528.586-.538.184-.145.597.094.414.239.748.657.364.41.398.655m10.097 4.98q.453.387.663.934.24.539.329.991.111.415.173.526.021 1.265-.018 3.371-.046 2.076-.069 1.638.012.282-.039.804-.046.775-.016 1.243.054.557-.179.874-.21.279-.681.658a1 1 0 0 1-.25.131q-.534.143-1.232-.21-.403-.558-.475-.825t-.021-.789q.04-1.154.072-2.813.024-1.69.056-2.873l.023-.864q-.033-.594-.166-.972a3.4 3.4 0 0 0-.541.113 3.3 3.3 0 0 0-.746.296q.033 1.07-.156 2.264-.166 1.157-.628 3.344-.256 1.18-.691 2.281l-.228.57-.789 1.323-.728.957a.8.8 0 0 1-.338.281 1.1 1.1 0 0 1-.436.148l-.385.104q-.417-.015-.876-.306-.43-.297-.572-.354l-.243-.316q-.072-.267-.044-.401.05-.173.266-.548.112-.41.438-.499a1 1 0 0 1 .275-.041 23 23 0 0 1 .576-.695q.379-.482.604-.828.246-.384.374-.736.397-1.122.909-3.006.211-.756.446-2.247l-.387-.024a8 8 0 0 1-.411-.112l-.735-1.2q-.198-.741.465-1.109.502-.262 1.499-.688a12 12 0 0 0 1.189-.541q.354-.221.916-.372a3.9 3.9 0 0 1 1.591-.109q.664.108 1.216.627m11.213 8.047a2.2 2.2 0 0 1-.627-.563 25 25 0 0 1-.742-1.23 1.7 1.7 0 0 1-.194-.487l-.135-.504a9 9 0 0 1-.138.672q-.099.343-.244.51-.5.863-1.093 1.373-.79.846-1.471 1.029-.83.222-1.629-.39-1.155-.515-1.44-1.583a5 5 0 0 1-.092-.578 12.5 12.5 0 0 1-.267-2.183q-.004-1.08.287-2.84l.412-2.016.228-1.046q.133-.099.459-.186.474-.127.936-.06.462.066.572.355.12.094.208.42.253.948-.126 2.733l-.086.627a32 32 0 0 0-.238 2.191q-.046.775.08 1.249.127.474.523.527a.7.7 0 0 0 .379-.007q.592-.158 1.176-1.299.613-1.149.922-3.55a7.1 7.1 0 0 0-.052-2.209q-.146-.31-.012-.759t.455-.789a.75.75 0 0 1 .255-.354q.176-.174.266-.071l.466-.157q.081-.053.339.195.286.242.391.276.36.158.55.869.262.978.012 2.887-.245 1.336-.278 2.044-.012.67.118 1.27.167.623.351.954.206.294.716.538.561.2.798 1.438-.004.224-.239.413a1.6 1.6 0 0 1-.62.293q-.652.175-1.176-.002m7.634-1.982q-1.688.453-2.98-.218-1.29-.67-1.759-2.418a15 15 0 0 1-.316-1.535q-.132-.727.039-2.107.2-1.387.771-2.81.602-1.432 1.665-2.32.492-.418.853-.61a3.1 3.1 0 0 1 .857-.356q1.214-.326 2.075-.08.89.238 1.336.722.477.475.588.89l.04.148.024.089q.094.356-.066 1.415t-.857 2.135q-.666 1.068-2.065 1.538a8.3 8.3 0 0 1-1.424.254q-.692.027-.869.075-.445.119-.476.476-.031.358.175 1.128.312.806.754 1.037.473.222 1.184.032.356-.096.774-.43.411-.364.927-1.042.276-.392.452-.566t.472-.253q.267-.072.718.189.45.26.567.578.036.37-.366 1.241-.401.87-1.199 1.687a4.1 4.1 0 0 1-1.894 1.111m-.876-7.419q.563-.15.739-.325.256-.227.69-.979.455-.789.422-1.034a.56.56 0 0 0-.394-.402q-.292-.144-.753-.084l-.326.087q-.386.103-.951.954a7 7 0 0 0-.855 1.785q.07.14.515.147.44-.021.913-.149m15.434-6.517q0 .476-.147.992-.148.516-.189.718-.089.5-.135.798a3 3 0 0 0-.067.462q.664.108.883 1.161l-.207.532-.861.58q.016.535.052.907.084.55.042 1.577l.005.729q-.021.513-.219.725-.168.204-.588.412a22 22 0 0 1-.551-.043 3 3 0 0 1-.53-.08 1.6 1.6 0 0 1-.36-.158 1.04 1.04 0 0 1-.329-.515q-.07-.266-.054-1.034.045-1.25.035-1.883l-.48.224q-.436.149-.657.272a3 3 0 0 0-.34.154q-.205.183-.916.373a5.5 5.5 0 0 1-1.061.189 8 8 0 0 0-.037.454q-.026.261-.041.678-.02.64.045.877l.095.832q.004.253.096.832.138.63-.042 1.027a.85.85 0 0 1-.586.539q-.682.182-1.809-.469l-.229-.383-.138-2.408q.012-.194.016-.417a3 3 0 0 0-.031-.468l.031-.834.08-1.006q.08-1.356.205-1.96.008-.447.05-.998.072-.56.106-.791.036-.105.086-1.103a37 37 0 0 1 .073-1.385q.079-.655.7-.823a1.62 1.62 0 0 1 1.192.062q.57.23.75.784.032.119.081.422.042.275.007.38l-.472 3.81q.26-.1.628-.264.362-.192.539-.239a5.2 5.2 0 0 1 1.013-.367q.623-.167 1.002-.173.084-.277.125-.955a5.3 5.3 0 0 1 .061-.841q.03-.834.255-1.657a2 2 0 0 0-.005-.253q-.018-.185.185-.97.41-.364.796-.467a1.47 1.47 0 0 1 1.11.115q.547.266.699.829.055.207.038.498m17.666 2.729q.286.241.358.508a.82.82 0 0 1-.065.589q-.144.292-.292.332-.71.19-1.687.103-.954-.126-1.129-.777l-.492-1.837q-.318-1.186-.573-1.308-.508-.117-1.003.999-.502 1.087-1.093 3.151-.24.763-.457 1.139-.224.346-.461.409a.57.57 0 0 1-.388-.023q-.99-.02-1.196-.791a2.6 2.6 0 0 1-.044-.401q.021-.99.015-2.195.024-1.213-.012-2.061a.32.32 0 0 0-.344-.098q-.297.079-.602.479-.095.12-.365.415a3.4 3.4 0 0 0-.488.67 4.7 4.7 0 0 0-.4.997 8 8 0 0 1-.248.733q-.878 2.65-1.124 3.032-.038.455-.138.672a.38.38 0 0 1-.256.228.7.7 0 0 1-.321-.009 2.5 2.5 0 0 1-1.117-.495q-.46-.417-.643-1.098-.118-.445-.21-1.849a34 34 0 0 1-.074-2.648q.11-.537.094-1.073.005-.573-.051-.78a14 14 0 0 1-.049-1.607q.004-1.049.099-1.17.13-.225.604-.352.327-.087.654-.048a.78.78 0 0 1 .511.244q.504.341.71 1.112.19.711.109 1.59a29 29 0 0 0-.209 2.184l.043-.075q.442-1.199 1.234-2.744.375-.737.939-1.236.595-.509 1.009-.62.743-.072 1.376.393.654.429 1.043 1.404.095.356.179.905.076.52.085.676.08-.18.403-.87.344-.728.889-1.541.516-.678 1.08-.829.474-.127.933.163.755.21 1.34.975.616.756.91 1.852.102.385.129.6.025.216.129.601.111.414.303.776.184.332.353.604"/></g><defs><clipPath id="a"><path fill="#fff" d="M0 0h500v300H0z"/></clipPath></defs></svg>